<?xml version="1.0" encoding="utf-8"?>
<!-- Generator: Adobe Illustrator 16.0.0, SVG Export Plug-In . SVG Version: 6.00 Build 0)  -->
<!DOCTYPE svg PUBLIC "-//W3C//DTD SVG 1.1//EN" "http://www.w3.org/Graphics/SVG/1.1/DTD/svg11.dtd">
<svg version="1.1" id="Layer_1" xmlns="http://www.w3.org/2000/svg" xmlns:xlink="http://www.w3.org/1999/xlink" x="0px" y="0px"
	 width="100px" height="100px" viewBox="0 0 100 100" enable-background="new 0 0 100 100" xml:space="preserve">
<path d="M40.524,92.736c-2.537,0-4.772-1.527-5.695-3.891c-0.589-1.508-0.561-3.154,0.079-4.641
	c-2.184,1.082-4.613,1.655-7.131,1.655c-4.293,0-8.327-1.669-11.356-4.697c-4.179-4.18-5.643-10.24-4.078-15.743l-2.109-0.521
	L6.586,50.115l13.711,3.382c-0.387-2.638-0.153-5.335,0.684-7.862l-2.021-0.499l-3.647-14.784l14.785,3.647l0.334,1.355
	c1.292-0.553,2.653-0.946,4.045-1.168c0.158-1.007,0.405-1.997,0.74-2.956l-0.858-0.211l-3.647-14.784l14.785,3.647l0.216,0.876
	c1.786-0.619,3.673-0.938,5.597-0.938c0.841,0,1.676,0.061,2.5,0.183l-3.334-13.52l14.785,3.647l0.549,2.226
	c1.193-0.273,2.418-0.414,3.643-0.414c4.332,0,8.398,1.682,11.453,4.737c5.295,5.295,6.156,13.374,2.58,19.573
	c0.875-0.47,1.867-0.73,2.902-0.73c0.844,0,1.664,0.17,2.439,0.509c3.09,1.346,4.51,4.956,3.165,8.045
	c-3.796,8.714-10.882,18.51-19.956,27.583c-9.613,9.614-20.29,17.144-29.29,20.658C42.035,92.596,41.287,92.736,40.524,92.736
	L40.524,92.736z M27.919,64.773c-1.307,0-2.535,0.509-3.459,1.434c-1.907,1.906-1.907,5.009,0.001,6.916
	c0.923,0.924,2.151,1.433,3.458,1.433c1.306,0,2.535-0.509,3.458-1.433c1.907-1.907,1.907-5.01,0-6.918
	C30.454,65.282,29.225,64.773,27.919,64.773z M45.72,66.583c1.118,0.168,2.11,0.249,3.041,0.249c4.227,0,7.687-1.738,11.945-5.995
	c5.524-5.525,6.526-9.785,5.796-14.783c-0.233-0.102-0.453-0.213-0.66-0.33c-0.696,1.142-1.53,2.2-2.496,3.165
	c-2.578,2.577-5.84,4.226-9.379,4.777c-0.55,3.54-2.195,6.798-4.779,9.38c-1.132,1.133-2.416,2.096-3.807,2.865
	C45.5,66.124,45.616,66.348,45.72,66.583z M37.142,44.982c-1.608,0-3.12,0.626-4.257,1.763c-2.348,2.348-2.348,6.167,0,8.515
	c1.137,1.138,2.649,1.764,4.257,1.764c1.608,0,3.121-0.626,4.257-1.764c1.137-1.137,1.763-2.648,1.763-4.257
	s-0.626-3.12-1.763-4.258C40.263,45.608,38.75,44.982,37.142,44.982z M47.042,41.103c1.138,1.137,2.649,1.763,4.258,1.763
	c1.607,0,3.12-0.626,4.257-1.763c1.138-1.138,1.764-2.649,1.764-4.257c0-1.608-0.626-3.12-1.764-4.258
	c-1.136-1.135-2.646-1.762-4.252-1.762c-1.037,0-3.258-0.007-4.831,2.324C44.741,35.717,45.096,39.156,47.042,41.103z
	 M69.318,22.943c-1.422,0-2.759,0.553-3.764,1.559c-2.074,2.075-2.074,5.452,0,7.527c1.005,1.004,2.342,1.558,3.764,1.558
	s2.758-0.554,3.764-1.558c2.074-2.076,2.074-5.453-0.002-7.528C72.076,23.496,70.74,22.943,69.318,22.943z"/>
<linearGradient id="SVGID_1_" gradientUnits="userSpaceOnUse" x1="14.8027" y1="52.335" x2="89.4219" y2="52.335">
	<stop  offset="0" style="stop-color:#939598"/>
	<stop  offset="1" style="stop-color:#000000"/>
</linearGradient>
<path fill="url(#SVGID_1_)" d="M78.729,37.436c5.121-5.123,5.121-13.458,0-18.581c-5.123-5.123-13.459-5.123-18.582,0
	c-1.467,1.466-3.365,2.937-4.031,4.894c-4.945-1.811-10.719-0.734-14.683,3.229c-2.774,2.774-4.134,6.435-4.079,10.078
	c-3.643-0.054-7.305,1.306-10.079,4.08c-4.07,4.069-5.096,10.05-3.076,15.082c-2.253,0.62-3.958,2.769-5.601,4.412
	c-5.06,5.061-5.06,13.294,0,18.354c5.062,5.062,13.295,5.062,18.356,0c0.799-0.799,2.406-1.26,2.994-2.262
	c2.566,1.566,5.422,2.356,8.407,2.447c-3.115,1.959-6.132,3.532-8.935,4.627c-1.563,0.608-2.332,2.369-1.722,3.93
	c0.609,1.56,2.368,2.331,3.929,1.721c8.619-3.365,18.908-10.643,28.232-19.967c8.807-8.807,15.664-18.266,19.31-26.635
	c0.669-1.536-0.034-3.323-1.571-3.992c-1.536-0.669-3.326,0.035-3.992,1.57c-1.152,2.644-2.709,5.466-4.585,8.364
	c-0.043-3.072-0.815-6.008-2.397-8.638C77.535,39.59,77.984,38.179,78.729,37.436z M63.377,22.323c3.281-3.281,8.602-3.281,11.883,0
	c3.28,3.282,3.28,8.603,0,11.883c-3.281,3.281-8.602,3.281-11.883,0S60.096,25.605,63.377,22.323z M44.864,30.411
	c3.555-3.555,9.317-3.555,12.87-0.001c3.555,3.555,3.555,9.317,0,12.871c-3.555,3.554-9.315,3.554-12.87,0
	C41.311,39.727,41.311,33.964,44.864,30.411z M30.708,44.567c3.554-3.554,9.316-3.554,12.87,0s3.554,9.317,0,12.87
	c-3.554,3.555-9.316,3.555-12.87,0C27.154,53.885,27.154,48.121,30.708,44.567z M22.283,75.301c-3.113-3.113-3.113-8.16,0-11.272
	c3.113-3.112,8.16-3.112,11.272,0c3.113,3.112,3.113,8.159,0,11.272C30.443,78.414,25.396,78.414,22.283,75.301z M62.883,63.015
	c-7.117,7.118-12.556,7.725-19.72,6.235c0.121-1.881-1.517-2.848-2.301-4.801c2.253-0.619,4.381-1.813,6.148-3.579
	c2.773-2.774,4.133-6.436,4.079-10.08c3.643,0.055,7.305-1.305,10.079-4.079c1.557-1.556,2.668-3.395,3.334-5.351
	c1.924,0.704,2.826,2.269,4.657,2.116C70.63,50.309,69.932,55.966,62.883,63.015z"/>
<linearGradient id="SVGID_2_" gradientUnits="userSpaceOnUse" x1="10.7974" y1="50.1748" x2="89.4219" y2="50.1748">
	<stop  offset="0" style="stop-color:#939598"/>
	<stop  offset="1" style="stop-color:#000000"/>
</linearGradient>
<path fill="url(#SVGID_2_)" d="M87.598,38.854c-1.536-0.669-3.326,0.035-3.992,1.57c-1.152,2.644-2.709,5.466-4.585,8.364
	c-0.043-3.072-0.815-6.008-2.397-8.638c0.912-0.56,1.361-1.971,2.105-2.714c5.121-5.123,5.121-13.458,0-18.581
	c-4.079-4.079-10.191-4.898-15.1-2.482l-0.912-3.7l-8.029-1.98l1.98,8.028l2.884,0.711c-1.349,1.283-2.857,2.616-3.437,4.316
	c-4.092-1.498-8.749-1.014-12.48,1.441l-0.682-2.764l-8.029-1.98l1.98,8.028l2.754,0.68c-1.576,2.384-2.346,5.148-2.305,7.902
	c-3.158-0.046-6.327,0.973-8.922,3.05l-0.879-3.563l-8.029-1.98l1.981,8.028l3.848,0.95c-2.417,3.818-2.803,8.564-1.153,12.677
	c-1.788,0.491-3.229,1.945-4.569,3.347l-0.804-3.258l-8.029-1.98l1.98,8.027l3.791,0.936c-2.886,4.967-2.219,11.446,2.03,15.695
	c5.062,5.062,13.295,5.062,18.356,0c0.799-0.799,2.406-1.26,2.994-2.262c2.566,1.566,5.422,2.356,8.407,2.447
	c-3.115,1.959-6.132,3.532-8.935,4.627c-1.563,0.608-2.332,2.369-1.722,3.93c0.609,1.56,2.368,2.331,3.929,1.721
	c8.619-3.365,18.908-10.643,28.232-19.967c8.807-8.807,15.664-18.266,19.31-26.635C89.838,41.31,89.135,39.522,87.598,38.854z
	 M44.934,30.456l-0.022-0.088c3.559-3.509,9.285-3.497,12.823,0.042c3.555,3.555,3.555,9.317,0,12.871
	c-3.555,3.554-9.315,3.554-12.87,0c-3.546-3.546-3.552-9.291-0.021-12.846L44.934,30.456z M33.555,75.301
	c-3.112,3.113-8.16,3.113-11.272,0c-3.113-3.113-3.113-8.16,0-11.272c3.113-3.112,8.16-3.112,11.272,0
	C36.668,67.141,36.668,72.188,33.555,75.301z M30.708,57.438c-3.554-3.553-3.554-9.316,0-12.87s9.316-3.554,12.87,0
	s3.554,9.317,0,12.87C40.023,60.992,34.261,60.992,30.708,57.438z M62.883,63.015c-7.117,7.118-12.556,7.725-19.72,6.235
	c0.121-1.881-1.517-2.848-2.301-4.801c2.253-0.619,4.381-1.813,6.148-3.579c2.773-2.774,4.133-6.436,4.079-10.08
	c3.643,0.055,7.305-1.305,10.079-4.079c1.557-1.556,2.668-3.395,3.334-5.351c1.924,0.704,2.826,2.269,4.657,2.116
	C70.63,50.309,69.932,55.966,62.883,63.015z M63.377,34.207c-3.281-3.281-3.281-8.602,0-11.883c3.281-3.281,8.602-3.281,11.883,0
	c3.28,3.282,3.28,8.603,0,11.883C71.979,37.487,66.658,37.487,63.377,34.207z"/>
<g opacity="0.5">
	<path fill="#FFFFFF" d="M59.552,19.433c0.202-0.193,0.403-0.385,0.595-0.577c1.045-1.044,2.227-1.864,3.482-2.482l-0.912-3.7
		l-8.029-1.98l1.98,8.028L59.552,19.433z"/>
	<path fill="#FFFFFF" d="M39.659,29.154c0.508-0.769,1.097-1.499,1.774-2.176c0.684-0.684,1.424-1.275,2.202-1.788l-0.682-2.764
		l-8.029-1.98l1.98,8.028L39.659,29.154z"/>
	<path fill="#FFFFFF" d="M44.934,30.456l-0.022-0.088c-0.015,0.015-0.032,0.028-0.047,0.043c-0.007,0.007-0.013,0.016-0.021,0.023
		L44.934,30.456z"/>
	<path fill="#FFFFFF" d="M25.352,43.541c0.541-0.854,1.18-1.662,1.923-2.405c0.37-0.37,0.757-0.71,1.157-1.029l-0.879-3.563
		l-8.029-1.98l1.981,8.028L25.352,43.541z"/>
	<path fill="#FFFFFF" d="M18.598,60.63c0.339-0.339,0.683-0.702,1.032-1.065l-0.804-3.258l-8.029-1.98l1.98,8.027l3.791,0.936
		C17.12,62.341,17.787,61.441,18.598,60.63z"/>
</g>
</svg>
