<?xml version="1.0" encoding="utf-8"?>
<!-- Generator: Adobe Illustrator 16.0.0, SVG Export Plug-In . SVG Version: 6.00 Build 0)  -->
<!DOCTYPE svg PUBLIC "-//W3C//DTD SVG 1.1//EN" "http://www.w3.org/Graphics/SVG/1.1/DTD/svg11.dtd">
<svg version="1.1" id="Layer_1" xmlns="http://www.w3.org/2000/svg" xmlns:xlink="http://www.w3.org/1999/xlink" x="0px" y="0px"
	 width="100px" height="100px" viewBox="0 0 100 100" enable-background="new 0 0 100 100" xml:space="preserve">
<path d="M6.679,93.248L3,83.354l4.392-4.391l4.073-0.739c1.208-3.025,3.858-6.538,8.103-10.783c1.895-1.895,3.606-3.436,5.192-4.675
	c0.043-0.411,0.113-0.817,0.208-1.216l-2.666-3.199c-2.767-3.32-3.93-7.045-3.456-11.07c1.094-9.283,10.862-16.675,11.278-16.984
	l0.076-0.057l0.079-0.052c0.386-0.252,2.428-1.514,4.742-1.514c1.546,0,2.914,0.549,3.953,1.589c3.071,3.072,1.8,7.323-0.679,9.972
	l-0.181,0.194L37.9,40.59c-0.044,0.033-4.843,3.721-8.224,9.417c-0.541,0.914,0.127,2.811,1.725,5.068
	c0.528-0.129,1.072-0.213,1.627-0.249l5.208-5.257l40.375-36.987l18.291-9.549l-9.547,18.291L50.38,61.719l-5.252,5.188
	c-0.035,0.563-0.119,1.112-0.249,1.646c2.374,1.686,3.746,1.898,4.284,1.898c0.401,0,0.63-0.108,0.768-0.19
	c5.697-3.38,9.384-8.179,9.421-8.228l0.158-0.207l0.191-0.182c0.441-0.412,2.787-2.467,5.717-2.467c1.615,0,3.086,0.618,4.256,1.787
	c2.41,2.408,1.775,6.104,0.076,8.695l-0.053,0.08l-0.057,0.074c-0.346,0.465-8.611,11.381-18.69,11.381
	c-3.381,0-6.532-1.197-9.364-3.558l-3.185-2.653c-0.407,0.097-0.822,0.168-1.244,0.211c-1.235,1.58-2.772,3.285-4.661,5.176
	c-4.237,4.236-7.745,6.884-10.766,8.096l-0.685,4.118L16.631,97L6.679,93.248z"/>
<linearGradient id="SVGID_1_" gradientUnits="userSpaceOnUse" x1="-941.8633" y1="391.833" x2="-891.5659" y2="391.833" gradientTransform="matrix(0.7071 0.7071 -0.7071 0.7071 955.8857 440.4707)">
	<stop  offset="0" style="stop-color:#BCBEC0"/>
	<stop  offset="1" style="stop-color:#000000"/>
</linearGradient>
<path fill="url(#SVGID_1_)" d="M67.174,67.973c0,0,2.039-3.113,0.322-4.83c-2.361-2.361-5.689,0.752-5.689,0.752
	s-3.971,5.258-10.305,9.016c-3.032,1.799-7.109-0.613-10.347-3.362c1.65-2.603,1.036-6.437-1.64-9.112s-6.511-3.289-9.114-1.639
	c-2.754-3.238-5.175-7.324-3.374-10.359c3.758-6.335,9.017-10.305,9.017-10.305s3.113-3.328,0.751-5.69
	c-1.717-1.716-4.83,0.323-4.83,0.323S15.335,45.183,24.667,56.38c1.516,1.819,2.763,3.315,3.79,4.548
	c-0.528,1.023-0.744,2.199-0.649,3.406c-1.699,1.203-3.689,2.912-6.063,5.285c-5.778,5.778-7.872,9.514-7.968,12.07l-0.638-0.639
	l-4.251,0.771l-2.312,2.313l2.501,6.726l6.781,2.557l2.312-2.312l0.717-4.307l-0.639-0.639c2.557-0.095,6.292-2.189,12.07-7.967
	c2.367-2.368,4.074-4.355,5.275-6.051c1.217,0.1,2.4-0.116,3.432-0.649c1.229,1.026,2.721,2.269,4.533,3.778
	C54.756,84.604,67.174,67.973,67.174,67.973z"/>
<path fill="#666766" d="M39.516,60.436c1.507,1.506,2.359,3.381,2.522,5.195l6.123-6.049l36.73-40.125l7.24-11.65l-11.65,7.241
	L40.371,51.791l-6.064,6.122C36.125,58.072,38.005,58.926,39.516,60.436z"/>
<path opacity="0.7" fill="#FFFFFF" d="M34.307,57.913c1.819,0.159,3.698,1.013,5.209,2.522c1.507,1.506,2.359,3.381,2.522,5.195
	l4.779-4.723l-1.333-6.119l46.26-46.742l-11.264,7L40.371,51.791l-1.534,1.551L34.307,57.913z"/>
<g>
	<path d="M38.919,67.885c1.33-2.201,1.252-4.859-0.371-6.482c-1.622-1.622-4.278-1.699-6.481-0.369L38.919,67.885z"/>
	<path d="M37.595,69.209l-6.853-6.852c-1.33,2.203-1.254,4.859,0.37,6.482C32.735,70.463,35.392,70.539,37.595,69.209z"/>
</g>
<path fill="#3C56A6" d="M29.21,70.74c-1.545-1.545-2.52-3.406-2.907-5.269c-1.345,1.078-2.853,2.442-4.559,4.147
	c-5.778,5.778-7.872,9.514-7.968,12.07l4.472,4.471c2.557-0.095,6.292-2.189,12.07-7.967c1.703-1.703,3.063-3.208,4.141-4.551
	C32.605,73.253,30.75,72.281,29.21,70.74z"/>
<g>
	<path fill="#FBB040" d="M22.774,84.492l-4.222-11.459c-0.489,0.563-0.938,1.105-1.343,1.623l3.946,10.712
		C21.661,85.135,22.2,84.843,22.774,84.492z"/>
	<path fill="#FBB040" d="M25.322,66.287c-0.467,0.4-0.958,0.838-1.463,1.304l4.577,12.421c0.462-0.432,0.942-0.893,1.434-1.378
		L25.322,66.287z"/>
	<path fill="#FBB040" d="M21.745,69.619c-0.452,0.452-0.874,0.887-1.281,1.314l4.45,12.08c0.48-0.367,0.978-0.762,1.5-1.202
		l-4.54-12.319C21.83,69.537,21.791,69.574,21.745,69.619z"/>
</g>
<rect x="8.723" y="82.72" transform="matrix(0.7066 0.7076 -0.7076 0.7066 62.504 18.1172)" width="1.366" height="3.414"/>
<rect x="11.42" y="83.354" transform="matrix(0.7073 0.7069 -0.7069 0.7073 64.2789 16.5926)" width="1.366" height="5.124"/>
<rect x="13.513" y="85.448" transform="matrix(0.7069 0.7073 -0.7073 0.7069 66.4087 15.752)" width="1.367" height="5.123"/>
<rect x="15.002" y="88.999" transform="matrix(0.7071 0.7071 -0.7071 0.7071 68.7332 15.4755)" width="1.367" height="3.415"/>
<path opacity="0.3" fill="#EE1C4E" d="M39.516,60.436c1.507,1.506,2.359,3.381,2.522,5.195l6.123-6.049l36.73-40.125l7.24-11.65
	l-11.65,7.241L40.371,51.791l-6.064,6.122C36.125,58.072,38.005,58.926,39.516,60.436z"/>
</svg>
