<?xml version="1.0" encoding="utf-8"?>
<!-- Generator: Adobe Illustrator 16.0.0, SVG Export Plug-In . SVG Version: 6.00 Build 0)  -->
<!DOCTYPE svg PUBLIC "-//W3C//DTD SVG 1.1//EN" "http://www.w3.org/Graphics/SVG/1.1/DTD/svg11.dtd">
<svg version="1.1" id="Layer_1" xmlns="http://www.w3.org/2000/svg" xmlns:xlink="http://www.w3.org/1999/xlink" x="0px" y="0px"
	 width="100px" height="100px" viewBox="0 0 100 100" enable-background="new 0 0 100 100" xml:space="preserve">
<path d="M15.471,97.989c-3.681-0.173-7.601-2.327-9.987-5.486c-2.24-2.968-3-6.624-2.139-10.3
	c2.112-9.013,14.626-19.538,16.046-20.709l0.581-0.479l0.736-0.157c4.299-0.917,4.792-1.903,5.152-2.624l0.107-0.212l0.138-0.194
	c0.136-0.191-0.231-1.013-0.621-1.556c-0.282-0.161-0.707-0.396-1.019-0.568c-1.319-0.729-1.909-1.054-2.338-1.452
	c-1.714-1.477-2.96-3.24-3.673-5.183c-1.431-0.464-2.716-1.292-3.751-2.428c-3.249-3.57-2.987-9.118,0.582-12.368
	c1.729-1.574,3.968-2.38,6.304-2.27c2.336,0.11,4.489,1.123,6.063,2.853c0.616,0.677,1.119,1.444,1.494,2.27
	c0.028,0,0.056,0.001,0.085,0.003c3.959,0.187,6.495,2.637,6.777,6.465c0.229,0.343,0.667,0.841,1.303,0.87
	c0.213,0.01,0.458-0.019,0.728-0.089l0.193-0.051l7.422-6.755l0.234-0.146c0.972-0.609,2.021-1.377,3.132-2.191
	c2.421-1.773,5.165-3.785,8.875-5.561C82.535,17.867,88.018,9.52,88.098,9.397l6.455-6.12c0,0,2.494,7.056,1.752,11.903
	c-0.744,4.846-1.484,9.694-7.248,18.079c-5.824,8.475-9.105,11.108-20.014,18.347c-1.318,1.237-8.74,8.189-11.541,10.493
	l-0.932,0.767l-1.205-0.07c-0.342-0.016-0.674,0.003-0.996,0.055c0.061,0.6,0.141,1.197,0.227,1.622
	c0.253,0.092,0.566,0.189,0.789,0.258c0.461,0.144,0.939,0.292,1.395,0.492c1.74,0.77,3.053,2.187,3.699,3.989
	c0.314,0.879,0.453,1.813,0.416,2.746c0.744,0.44,1.424,0.99,2.014,1.637c1.574,1.73,2.379,3.97,2.27,6.305
	c-0.109,2.337-1.123,4.49-2.854,6.063c-1.729,1.575-3.967,2.38-6.303,2.271c-2.336-0.11-4.489-1.123-6.063-2.854
	c-1.149-1.262-1.888-2.795-2.161-4.439c-0.686-0.521-1.458-1.281-2.089-2.363c-0.092-0.051-0.234-0.113-0.496-0.221
	c-1.431-0.591-3.066-1.453-4.366-4.229l-0.462-0.92c-0.272-0.002-0.567,0.025-0.879,0.082c-2.753,1.502-2.981,3.098-2.997,3.459
	l0.435,1.643l-1.316,0.953c-3.242,3.244-6.309,7.134-6.723,8.508c0.722,5.828-7.513,8.739-10.25,9.707
	C17.693,97.898,16.622,98.043,15.471,97.989z"/>
<path fill="#FBB040" d="M44.731,50.127c0,0,2.781,2.674,2.825,3.676c0,0,1.144,3.897,3.543,7.035
	c1.021-0.615,2.537-1.229,4.445-1.117c2.967-2.443,11.578-10.537,11.578-10.537c11.254-7.467,14.074-9.613,19.363-17.622
	c8.9-13.481,6.875-24.479,6.875-24.479s-8.426,13.049-34.135,25.366c-5.196,2.489-8.524,5.594-11.702,7.585l-8.271,7.526
	L44.731,50.127z"/>
<path opacity="0.7" fill="#FFFFFF" d="M57.41,38.699C83.221,27.313,91.02,13.853,93.369,7.131c-0.004-0.029-0.008-0.047-0.008-0.047
	s-8.426,13.049-34.135,25.366c-5.196,2.489-8.524,5.594-11.702,7.585c0.101-0.063,0.204-0.136,0.305-0.201
	C50.372,40.308,53.432,40.401,57.41,38.699z"/>
<path opacity="0.5" d="M41.144,48.446l6.8-6.189c0.083-0.051,0.167-0.112,0.249-0.166c2.162,0.488,4.727,0.608,7.969-0.806
	l7.527,8.27c-0.768,0.719-7.135,6.686-9.419,8.57c-1.917-0.09-3.357,0.713-4.144,1.299c0.298,0.478,0.621,0.953,0.973,1.414
	c1.021-0.615,2.537-1.229,4.445-1.117c2.787-2.294,10.551-9.572,11.484-10.451l-9.619-10.57c-3.979,1.702-7.038,1.608-9.581,1.134
	c-0.101,0.064-0.204,0.137-0.305,0.201l-8.271,7.526L41.144,48.446z"/>
<path fill="#422B11" d="M60.629,75.668c-0.918-1.008-2.115-1.609-3.365-1.793l0.057-0.113c1.094-2.17,0.361-4.773-1.788-5.724
	c-0.964-0.425-2.825-0.706-3.479-1.596c-0.735-0.999-0.906-5.378-0.887-5.515c-2.446-3.151-3.61-7.125-3.61-7.125
	c-0.043-1.002-2.825-3.676-2.825-3.676l-5.917-2.771c-4.27,1.109-5.86-2.963-5.86-2.963c0.056-5.559-5.993-3.99-5.993-3.99
	l-0.118,0.046c-0.066-1.263-0.551-2.512-1.469-3.521c-2.109-2.317-5.698-2.487-8.016-0.377s-2.486,5.698-0.377,8.016
	c1.059,1.164,2.491,1.785,3.948,1.849c0.054,0.075,0.218,2.963,3.275,5.56c0.213,0.244,3.156,1.75,3.359,1.975
	c0,0,2.852,3.131,1.052,5.662c-0.917,1.832-2.377,3.215-7.264,4.258c0,0-13.071,10.773-15.006,19.035s7.037,13.25,11.283,11.748
	c4.248-1.502,8.686-3.768,8.198-6.573c-0.487-2.808,7.624-10.915,7.624-10.915s-0.633-3.957,5.003-6.803
	c2.653-0.625,4.045,0.189,4.045,0.189l1.121,2.232c1.484,3.205,3.031,2.186,4.552,3.871c0.867,1.788,2.383,2.355,2.383,2.355
	c0.071,0.066,0.143,0.13,0.212,0.189c-0.073,1.458,0.411,2.941,1.47,4.105c2.109,2.318,5.697,2.486,8.016,0.377
	S62.738,77.986,60.629,75.668z"/>
<path opacity="0.7" fill="#FFFFFF" d="M63.689,49.555l-7.527-8.27c-3.242,1.415-5.807,1.294-7.969,0.806
	c-0.083,0.054-0.166,0.115-0.249,0.166l-6.8,6.189l3.587,1.681c0,0,2.781,2.674,2.825,3.676c0,0,0.835,2.838,2.57,5.621
	c0.787-0.586,2.227-1.389,4.144-1.299C56.555,56.24,62.922,50.273,63.689,49.555z M56.357,54.035c0,0-5.296-0.386-6.435,0.65
	c-1.139,1.037-1.671-2.123-1.671-2.123l7.121-0.754l1.358-2.799l-6.163,0.665l3.417-3.109l-4.752-0.361l-0.088,4.766l-3.977-2.368
	l3.338-4.339l6.954-0.082l5.441,5.979L56.357,54.035z"/>
<path opacity="0.5" fill="#FFFFFF" d="M57.537,83.301c-1.658,0.592-3.479-0.272-4.072-1.929c-0.592-1.657,0.271-3.481,1.929-4.074
	c0,0-1.369,1.34-0.841,2.817c0,0,0.549,1.805,2.322,1.171c1.773-0.635,0.912-4.374-1.766-4.938
	c-2.678-0.568-5.736,0.615-5.988-1.758c-0.289-2.73-5.045-6.688-5.045-6.688s4.369,0.062,7.134,4.788
	c0.368,0.627,1.128,1.042,2.048,1.414c0.508-1.426,0.582-4.066-4.373-6.066c0,0,9.328,0.693,6.702,6.928
	c1.888,0.727,3.765,1.729,4.356,3.986C60.389,80.652,59.195,82.708,57.537,83.301z M25.719,45.167
	c0.844,0.077,1.561,0.26,2.025,0.807c1.599,1.882,6.236,1.92,6.236,1.92s-4.501-1.657-4.68-4.258
	c-0.179-2.599-2.651-0.636-5.205-0.153c-2.553,0.482-4.673-2.481-3.352-3.684c1.322-1.203,2.463,0.176,2.463,0.176
	c1.002,1.103,0.293,2.776,0.293,2.776c1.235-1.125,1.326-3.037,0.201-4.273c-1.125-1.235-3.039-1.327-4.274-0.202
	c-1.236,1.125-1.531,3.361-0.519,4.689c0.922,1.21,2.072,1.712,3.248,1.936c2.727,9.502,13.435,6.431,13.435,6.431
	C26.634,51.328,25.796,46.004,25.719,45.167z"/>
<path fill="#FFFFFF" d="M20.846,64.299c-0.147,0.125-0.322,0.278-0.523,0.454c0.128-0.01,0.256-0.022,0.385-0.024
	C20.746,64.582,20.797,64.441,20.846,64.299z"/>
<polygon fill="#FFFFFF" points="41.283,61.42 38.813,60.633 38.26,58.098 40.178,56.352 42.649,57.141 43.201,59.675 "/>
<linearGradient id="SVGID_1_" gradientUnits="userSpaceOnUse" x1="-985.3682" y1="431.5254" x2="-962.5532" y2="431.5254" gradientTransform="matrix(0.6731 0.7396 -0.7396 0.6731 1002.0786 502.9258)">
	<stop  offset="0" style="stop-color:#FBB040"/>
	<stop  offset="1" style="stop-color:#754C29"/>
</linearGradient>
<path fill="url(#SVGID_1_)" d="M25.826,88.081c-0.487-2.808,7.624-10.915,7.624-10.915s-0.633-3.957,5.003-6.803
	c0.231-0.153,0.472-0.229,0.721-0.241l0.907-0.319c-0.434-4.29,3.782-3.773,5.35-3.656c3.169,0.241,3.072-1.579,3.072-1.579
	s-2.586-10.659-3.649-11.255s-5.578-3.08-5.578-3.08s-0.524,5.336-8.941,4.667l-1.138,2.998c-0.025,0.573-0.187,1.159-0.583,1.716
	c-0.917,1.832-2.377,3.215-7.264,4.258c0,0-13.071,10.773-15.006,19.035s7.037,13.25,11.283,11.748
	C21.875,93.152,26.313,90.887,25.826,88.081z M41.594,62.846l-3.861-1.231l-0.863-3.96l2.997-2.729l3.861,1.232l0.863,3.96
	L41.594,62.846z"/>
<path opacity="0.3" fill="#FFFFFF" d="M23.853,65.282c3.374,1.342,5.372,4.783,5.446,8.646c4.191,0.015,7.744-2.631,8.187-6.307
	c0.483-4.01-2.919-7.719-7.6-8.282c-0.359-0.044-0.714-0.06-1.067-0.064c-0.062,0.114-0.125,0.228-0.204,0.339
	c-0.917,1.832-2.377,3.215-7.264,4.258c0,0-0.185,0.154-0.505,0.428c-0.049,0.143-0.1,0.283-0.139,0.43
	C21.768,64.707,22.831,64.875,23.853,65.282z"/>
<path opacity="0.6" fill="#FFFFFF" d="M28.434,78.66c0.626-1.574,0.896-3.187,0.865-4.732c-0.075-3.862-2.073-7.304-5.446-8.646
	c-1.022-0.407-2.084-0.575-3.145-0.554c-0.128,0.002-0.257,0.015-0.385,0.024c-1.969,1.726-6.385,5.781-9.78,10.266
	c-0.109,0.965-0.106,1.92,0.015,2.837c0.394-0.445,0.833-0.867,1.318-1.254c3.896-3.123,9.224-2.946,11.898,0.396
	c1.444,1.803,1.811,4.156,1.24,6.433C26.452,82.225,27.658,80.607,28.434,78.66z"/>
<path opacity="0.8" fill="#FFFFFF" d="M25.014,83.431c0.571-2.276,0.204-4.63-1.24-6.433c-2.674-3.343-8.002-3.52-11.898-0.396
	c-0.485,0.387-0.924,0.809-1.318,1.254C7.789,80.994,7.321,85.374,9.663,88.3c2.673,3.34,8.002,3.519,11.899,0.397
	C23.356,87.26,24.526,85.373,25.014,83.431z"/>
</svg>
