<?xml version="1.0" encoding="utf-8"?>
<!-- Generator: Adobe Illustrator 16.0.0, SVG Export Plug-In . SVG Version: 6.00 Build 0)  -->
<!DOCTYPE svg PUBLIC "-//W3C//DTD SVG 1.1//EN" "http://www.w3.org/Graphics/SVG/1.1/DTD/svg11.dtd">
<svg version="1.1" id="Layer_1" xmlns="http://www.w3.org/2000/svg" xmlns:xlink="http://www.w3.org/1999/xlink" x="0px" y="0px"
	 width="100px" height="100px" viewBox="0 0 100 100" enable-background="new 0 0 100 100" xml:space="preserve">
<path d="M1.656,68.403l9.71-5.988l7.671,7.671l10.98-10.981l-6.021-6.018l2.178-2.179c2.164-2.164,4.479-3.261,6.882-3.261
	c0.709,0,1.414,0.098,2.108,0.292c0.021-0.012,0.042-0.021,0.063-0.032c0.375-0.189,0.986-0.497,1.223-0.65
	C64.086,20.81,90.459,5.851,90.752,5.673L99,2.012l-4.078,7.985c-0.186,0.284-15.986,25.742-41.522,54.086
	c-0.154,0.248-0.476,0.9-0.673,1.302c-0.01,0.017-0.018,0.035-0.027,0.053c0.639,2.241,0.563,5.526-2.953,9.042l-2.178,2.178
	l-6.019-6.02l-10.98,10.979l7.672,7.672L32.252,99L1.656,68.403z"/>
<path fill="#666766" d="M34.703,51.769L48.885,65.95c0.565-0.625,1.587-3.221,2.15-3.845C76.748,33.58,95.252,5.403,95.252,5.403
	S66.23,23,38.495,49.563C37.855,50.177,35.341,51.149,34.703,51.769z"/>
<g>
	<path opacity="0.7" fill="#FFFFFF" d="M37.453,52.868l4.14,4.14c12.163-12.07,17.166-15.133,17.166-15.133L95.197,5.437
		C93.85,6.259,65.561,23.639,38.495,49.563c-0.498,0.478-2.123,1.171-3.123,1.748C36.108,51.687,36.804,52.22,37.453,52.868z"/>
	<path opacity="0.7" fill="#FFFFFF" d="M44.498,59.913c11.049-11.205,14.26-18.038,14.26-18.038L42.89,58.306L44.498,59.913z"/>
</g>
<path opacity="0.3" fill="#EE1C4E" d="M34.703,51.769L48.885,65.95c0.565-0.625,1.587-3.221,2.15-3.845
	C76.748,33.58,95.252,5.403,95.252,5.403S66.23,23,38.495,49.563C37.855,50.177,35.341,51.149,34.703,51.769z"/>
<linearGradient id="SVGID_1_" gradientUnits="userSpaceOnUse" x1="-888.6484" y1="437.9473" x2="-853.1689" y2="437.9473" gradientTransform="matrix(0.7071 0.7071 -0.7071 0.7071 956.3682 375.9258)">
	<stop  offset="0" style="stop-color:#FBB040"/>
	<stop  offset="1" style="stop-color:#754C29"/>
</linearGradient>
<path fill="url(#SVGID_1_)" d="M26.213,81.616L41.55,66.282l6.019,6.02c3.539-3.537,2.67-6.648,0.216-9.102L37.453,52.868
	c-2.453-2.453-5.562-3.321-9.1,0.218l6.02,6.019L19.038,74.442l-8.127-8.129l-4.322,2.666l25.087,25.088l2.666-4.323L26.213,81.616z
	"/>
<circle fill="#FFFFFF" cx="32.65" cy="53.328" r="1.51"/>
<circle fill="#FFFFFF" cx="47.403" cy="68.08" r="1.51"/>
<circle fill="#FFFFFF" cx="35.756" cy="64.781" r="1.312"/>
<circle fill="#FFFFFF" cx="28.576" cy="71.962" r="1.312"/>
<circle fill="#FFFFFF" cx="21.396" cy="79.142" r="1.312"/>
<circle fill="#FFFFFF" cx="26.249" cy="85.546" r="1.313"/>
<circle fill="#FFFFFF" cx="30.713" cy="90.011" r="1.312"/>
<circle fill="#FFFFFF" cx="10.332" cy="69.63" r="1.312"/>
<circle fill="#FFFFFF" cx="14.796" cy="74.094" r="1.312"/>
<path d="M36.365,51.956L49.07,64.661c0,0,0.674,0.77,0.77,2.406l3.08-4.234L36.365,51.956z"/>
</svg>
