<?xml version="1.0" encoding="utf-8"?>
<!-- Generator: Adobe Illustrator 16.0.0, SVG Export Plug-In . SVG Version: 6.00 Build 0)  -->
<!DOCTYPE svg PUBLIC "-//W3C//DTD SVG 1.1//EN" "http://www.w3.org/Graphics/SVG/1.1/DTD/svg11.dtd">
<svg version="1.1" id="Layer_1" xmlns="http://www.w3.org/2000/svg" xmlns:xlink="http://www.w3.org/1999/xlink" x="0px" y="0px"
	 width="100px" height="100px" viewBox="0 0 100 100" enable-background="new 0 0 100 100" xml:space="preserve">
<path d="M2,81.159l2.478-6.234l-2.464-2.464l10.255-6.079l4.277,4.276l9.937-9.937l-1.155-1.155
	c-1.818-1.817-2.56-4.521-2.036-7.417c0.458-2.527,1.833-5.042,3.872-7.082l2.45-2.449l6.03,6.029L91.162,6.694l6.617-4.474
	l-4.256,6.477L51.352,64.355l6.029,6.03l-2.449,2.449c-2.566,2.566-5.808,4.039-8.893,4.039l0,0c-2.195,0-4.186-0.782-5.606-2.201
	l-1.155-1.156l-9.937,9.936l4.278,4.279l-6.08,10.254l-2.464-2.464L18.841,98L2,81.159z"/>
<polygon fill="#666766" points="47.238,64.599 35.401,52.761 91.301,8.698 "/>
<linearGradient id="SVGID_1_" gradientUnits="userSpaceOnUse" x1="-969.2324" y1="425.5713" x2="-936.123" y2="425.5713" gradientTransform="matrix(0.7071 0.7071 -0.7071 0.7071 1001.5186 445.7568)">
	<stop  offset="0" style="stop-color:#FBB040"/>
	<stop  offset="1" style="stop-color:#754C29"/>
</linearGradient>
<path fill="url(#SVGID_1_)" d="M42.61,72.494c2.294,2.294,6.835,1.472,10.143-1.837l0.272-0.271L29.613,46.974l-0.272,0.273
	c-3.308,3.307-4.13,7.848-1.836,10.142l3.333,3.333L16.546,75.015l-4.764-4.765l-4.785,2.837l1.091,1.092L5.61,80.413L19.586,94.39
	l6.234-2.479l1.092,1.092l2.837-4.785l-4.765-4.766l14.292-14.291L42.61,72.494z"/>
<polygon opacity="0.5" points="29.75,88.218 24.985,83.452 39.277,69.161 30.838,60.722 16.546,75.015 11.782,70.25 6.997,73.087 
	26.912,93.003 "/>
<rect x="21.876" y="61.953" transform="matrix(0.7071 0.7071 -0.7071 0.7071 59.1812 1.4472)" opacity="0.5" width="11.936" height="20.405"/>
<g>
	<path d="M25.838,65.722h6.296c0.425,0,0.77-0.344,0.77-0.77c0-0.426-0.345-0.771-0.77-0.771h-4.756L25.838,65.722z"/>
	<path d="M23.227,79.849c0.139,0.139,0.332,0.226,0.544,0.226c0.425-0.001,0.77-0.345,0.77-0.771l0-10.588h10.587
		c0.425,0,0.77-0.344,0.77-0.77c0-0.426-0.344-0.77-0.77-0.77H24.383l-1.381,1.381l-0.001,10.746
		C23.001,79.517,23.087,79.71,23.227,79.849z"/>
	<path d="M20.232,76.854c0.139,0.14,0.332,0.226,0.544,0.226c0.425,0,0.77-0.344,0.77-0.77v-6.295l-1.54,1.539l0,4.756
		C20.006,76.522,20.092,76.715,20.232,76.854z"/>
	<path d="M27.536,80.902l0-9.191h9.191l1.516-1.516c-0.041-0.007-0.078-0.024-0.12-0.024H26.766c-0.426,0-0.77,0.345-0.77,0.77
		l0,11.359c0,0.041,0.017,0.078,0.024,0.118L27.536,80.902z"/>
	<path d="M30.53,74.706h3.202l1.54-1.54h-5.512c-0.426,0-0.77,0.345-0.77,0.771l0,5.512l1.54-1.54V74.706z"/>
</g>
<polygon opacity="0.7" fill="#FFFFFF" points="41.292,58.651 91.014,8.93 35.401,52.761 "/>
<polygon opacity="0.3" fill="#EE1C4E" points="47.238,64.599 35.401,52.761 91.301,8.698 "/>
</svg>
