<?xml version="1.0" encoding="utf-8"?>
<!-- Generator: Adobe Illustrator 16.0.0, SVG Export Plug-In . SVG Version: 6.00 Build 0)  -->
<!DOCTYPE svg PUBLIC "-//W3C//DTD SVG 1.1//EN" "http://www.w3.org/Graphics/SVG/1.1/DTD/svg11.dtd">
<svg version="1.1" id="Layer_1" xmlns="http://www.w3.org/2000/svg" xmlns:xlink="http://www.w3.org/1999/xlink" x="0px" y="0px"
	 width="100px" height="100px" viewBox="0 0 100 100" enable-background="new 0 0 100 100" xml:space="preserve">
<path d="M14.563,96.943c-5.37,0-10.402-4.68-11.219-10.434c-0.466-3.273,1.952-6.922,5.417-11.72
	c0.832-1.151,1.618-2.239,1.993-2.901c0.774-1.367,5.004-5.498,8.417-8.723c3.454-3.263,5.533-5.125,6.882-6.188L13.642,43.05
	l8.531,2.982c0.045,0.028,5.223,1.682,11.008,1.682c3.647,0,6.649-1.229,9.176-3.756c0.932-0.932,1.833-2.094,2.787-3.325
	c1.4-1.805,2.848-3.671,4.645-5.133c2.305-1.873,5.045-2.238,7.246-2.531c1.452-0.193,2.824-0.376,3.748-0.923
	c0.752-0.447,0.82-0.617,0.902-2.275c0.086-1.739,0.215-4.367,2.736-6.531c2.184-1.874,5.004-2.439,7.492-2.939
	c1.94-0.389,3.945-0.792,4.434-1.639c0.035-0.105,0.047-0.541,0.053-0.829c0.027-1.133,0.069-2.845,1.381-4.494
	c2.014-2.528,5.127-2.902,7.401-3.176c0.378-0.045,0.745-0.089,1.087-0.143c1.081-0.264,3.652,0.543,6.426-2.39l5.902-4.749
	l-3.465,7.957c-3.098,4.606-2.887,4.306-6.488,7.542c-0.545,0.49-1.104,0.992-1.68,1.516c-0.66,0.601-1.031,1.654-1.463,2.874
	c-0.744,2.101-1.762,4.979-4.977,6.674c-1.404,0.741-2.631,0.92-3.527,1.051c-0.91,0.134-1.154,0.17-1.652,0.626
	c-0.857,0.79-0.857,0.833-0.844,1.952c0.012,0.964,0.027,2.285-0.508,3.997c-0.902,2.885-3.41,5.299-7.666,7.38
	c-4.115,2.011-7.311,4.45-10.016,7.651l-6.253,18.066l-2.655-2.518c-0.872,1.905-1.444,3.234-1.453,3.256l-1.794,4.175l-4.871-4.87
	c-2.412,2.383-11.268,11.641-12.13,12.781c-0.672,0.943-1.281,2.438-1.926,4.023c-1.385,3.4-2.955,7.256-6.548,8.981
	c-0.682,0.327-1.39,0.571-2.106,0.729C15.914,96.871,15.238,96.943,14.563,96.943z"/>
<path fill="#666766" d="M86.75,13.062c-2.119,0.335-5.066,0.322-6.559,2.195c-1.24,1.559-0.253,3.34-1.174,4.94
	c-2.162,3.761-9.118,2.401-12.59,5.379c-3.25,2.791,0.12,6.629-4.074,9.119c-3.191,1.893-7.611,0.749-10.621,3.195
	c-2.67,2.172-4.708,5.757-7.197,8.246c-9.888,9.888-24.008,0.959-24.008,0.959l11.161,11.161l6.534,6.534l4.9,4.899
	c0,0,1.456-3.389,3.312-7.207l2.278,2.161l4.875-14.08c2.975-3.647,6.527-6.506,11.389-8.882c2.283-1.116,5.26-2.911,6.08-5.534
	c1.041-3.325-0.783-4.545,2.208-7.296c2.066-1.898,3.603-0.961,5.825-2.133c3.83-2.021,2.996-6.545,5.805-9.101
	c4.268-3.885,7.666-6.631,11.006-11.595C95.898,6.024,89.688,12.597,86.75,13.062z"/>
<path fill="#814F20" d="M24.66,81.188c0.982-1.379,11.349-12.329,11.618-12.422c-0.006-0.006-0.429-0.43-1.086-1.087l2.983-2.888
	l-6.534-6.533l-2.983,2.887c-0.663-0.662-1.089-1.088-1.089-1.088c-0.438-0.438-13.183,11.668-14.134,13.35
	c-1.608,2.84-7.498,9.456-7.042,12.67c0.657,4.626,5.105,8.607,9.519,7.643c0.481-0.106,0.961-0.271,1.436-0.498
	C21.318,91.314,22.209,84.623,24.66,81.188z"/>
<polygon opacity="0.6" points="35.191,67.679 38.271,64.791 31.737,58.258 28.658,61.145 "/>
<path opacity="0.5" fill="#FFFFFF" d="M30.004,65.669c-0.802-1.743-3.249-1.563-5.005,0.192c-2.269,2.269-8.594,7.133-8.594,7.133
	s-1.897,6.246-7.259,11.252c0,0-1.179,4.992,3.812,5.809s6.352-3.811,6.352-3.811s2.4-10.372,8.48-13.549
	c1.376-0.718,2.218-1.428,2.599-3.08C30.623,68.604,30.72,67.225,30.004,65.669z"/>
<polygon points="36.278,68.766 28.658,61.145 38.667,67.049 "/>
<path opacity="0.7" fill="#FFFFFF" d="M40.201,64.446l7.786-10.871l-9.419,9.237l-1.089-1.09l6.425-7.513l-7.877,6.062l-7.985-7.985
	c10.526,3.267,19.039,1.106,22.849-4.519c3.812-5.626,5.536-5.898,5.536-5.898c11.707-4.264,9.527-6.806,11.253-10.164
	c1.724-3.357,1.179-3.539,7.44-5.989c6.262-2.45,6.352-4.719,6.625-7.351c0.271-2.632,1.996-2.722,1.996-2.722
	c6.366-2.168,10.41-7.191,11.931-9.381c-1.14,1.176-6.315,6.389-8.921,6.801c-2.119,0.335-5.066,0.322-6.559,2.195
	c-1.24,1.559-0.253,3.34-1.174,4.94c-2.162,3.761-9.118,2.401-12.59,5.379c-3.25,2.791,0.12,6.629-4.074,9.119
	c-3.191,1.893-7.611,0.749-10.621,3.195c-2.67,2.172-4.708,5.757-7.197,8.246c-9.888,9.888-24.008,0.959-24.008,0.959l21.771,21.771
	L40.201,64.446z"/>
<path opacity="0.3" fill="#3E53A4" d="M86.75,13.062c-2.119,0.335-5.066,0.322-6.559,2.195c-1.24,1.559-0.253,3.34-1.174,4.94
	c-2.162,3.761-9.118,2.401-12.59,5.379c-3.25,2.791,0.12,6.629-4.074,9.119c-3.191,1.893-7.611,0.749-10.621,3.195
	c-2.67,2.172-4.708,5.757-7.197,8.246c-9.888,9.888-24.008,0.959-24.008,0.959l11.161,11.161l6.534,6.534l4.9,4.899
	c0,0,1.456-3.389,3.312-7.207l2.278,2.161l4.875-14.08c2.975-3.647,6.527-6.506,11.389-8.882c2.283-1.116,5.26-2.911,6.08-5.534
	c1.041-3.325-0.783-4.545,2.208-7.296c2.066-1.898,3.603-0.961,5.825-2.133c3.83-2.021,2.996-6.545,5.805-9.101
	c4.268-3.885,7.666-6.631,11.006-11.595C95.898,6.024,89.688,12.597,86.75,13.062z"/>
</svg>
