<?xml version="1.0" encoding="utf-8"?>
<!-- Generator: Adobe Illustrator 16.0.0, SVG Export Plug-In . SVG Version: 6.00 Build 0)  -->
<!DOCTYPE svg PUBLIC "-//W3C//DTD SVG 1.1//EN" "http://www.w3.org/Graphics/SVG/1.1/DTD/svg11.dtd">
<svg version="1.1" id="Layer_1" xmlns="http://www.w3.org/2000/svg" xmlns:xlink="http://www.w3.org/1999/xlink" x="0px" y="0px"
	 width="100px" height="100px" viewBox="0 0 100 100" enable-background="new 0 0 100 100" xml:space="preserve">
<path d="M84.516,8.418c7.166,0,11.466,4.217,11.646,4.396l2.178,2.178L51.387,61.947l6.264,6.264l-7.316,7.315l-6.167-6.166
	l-26.64,26.642L2.317,80.791l26.641-26.64l-6.167-6.167l7.316-7.316l6.265,6.264l28.865-28.864
	C71.641,11.666,78.126,8.418,84.516,8.418z"/>
<path fill="#666766" d="M46.677,62.301l47.308-47.308c0,0-10.658-10.657-26.569,5.253L36.019,51.643L46.677,62.301z"/>
<path opacity="0.7" fill="#FFFFFF" d="M67.415,20.246c15.728-15.727,26.313-5.504,26.558-5.265
	c-4.445-0.221-11.567,0.469-17.058,5.96L41.213,56.643l-0.3-0.105l-4.895-4.895L67.415,20.246z"/>
<polygon fill="#AE762A" points="33.314,54.151 6.673,80.791 17.527,91.646 44.167,65.004 50.334,71.172 53.295,68.211 
	30.107,45.024 27.147,47.985 "/>
<rect x="6.583" y="65.223" transform="matrix(0.7071 -0.7071 0.7071 0.7071 -44.1005 39.3247)" opacity="0.6" width="37.675" height="15.351"/>
<path fill="#FFFFFF" d="M39.856,69.576L28.758,58.475l2.96-2.96l11.1,11.101L39.856,69.576z M11.822,75.412l1.531-1.531l0-0.001
	l2.497-2.497l0,0l1.532-1.531l0,0l2.498-2.497h0l1.53-1.53v-0.001l2.497-2.498v0.001l1.532-1.531h-0.001l2.498-2.498l4.58,6.521
	l6.521,4.578l-2.498,2.498l0,0l-1.531,1.53h0.001l-2.497,2.499h-0.001l-1.53,1.531l0,0l-2.498,2.496l0,0l-1.532,1.531h0
	l-2.497,2.498l0,0l-1.532,1.531h0.001l-2.498,2.498l-0.001-0.002l-1.942,1.943l-4.578-6.521L7.38,79.853l1.943-1.942l0,0
	L11.822,75.412L11.822,75.412z M24.877,64.709l3.608,5.137l5.139,3.609l-3.607-5.139L24.877,64.709z M20.85,68.737l3.608,5.139
	l5.137,3.608l-3.607-5.141L20.85,68.737z M16.82,72.766l3.608,5.138l5.139,3.608l-3.607-5.139L16.82,72.766z M12.792,76.795
	l3.609,5.139l5.137,3.607l-3.606-5.139L12.792,76.795z"/>
<path opacity="0.3" fill="#3E53A4" d="M46.677,62.301l47.308-47.308c0,0-10.658-10.657-26.569,5.253L36.019,51.643L46.677,62.301z"
	/>
<rect x="36.573" y="50.075" transform="matrix(-0.7071 -0.7071 0.7071 -0.7071 37.7107 123.4426)" fill="#FEBC12" width="15.697" height="7.673"/>
</svg>
