<?xml version="1.0" encoding="utf-8"?>
<!-- Generator: Adobe Illustrator 16.0.0, SVG Export Plug-In . SVG Version: 6.00 Build 0)  -->
<!DOCTYPE svg PUBLIC "-//W3C//DTD SVG 1.1//EN" "http://www.w3.org/Graphics/SVG/1.1/DTD/svg11.dtd">
<svg version="1.1" id="Layer_1" xmlns="http://www.w3.org/2000/svg" xmlns:xlink="http://www.w3.org/1999/xlink" x="0px" y="0px"
	 width="100px" height="100px" viewBox="0 0 100 100" enable-background="new 0 0 100 100" xml:space="preserve">
<path d="M16.018,96.962c-1.745,0-5.08-0.611-7.803-4.705c-1.818-2.732-2.466-5.345-1.923-7.765c0.644-2.869,2.698-4.233,3.104-4.477
	l20.266-11.187l8.127-6.192c0.646-1.088,1.463-2.186,1.938-2.824c0.081-0.108,0.149-0.197,0.196-0.264
	c0.532-0.857,1.35-1.194,1.714-1.345c0.766-0.315,3.097-1.278,6.096-3.521c3.51-2.623,8.309-7.318,10.694-11.221
	c2.156-3.531,3.549-6.983,5.023-10.638c1.979-4.903,4.022-9.973,7.972-14.932c3.179-3.998,7.243-7.638,11.75-10.528
	c0.323-0.208,0.724-0.396,1.838-0.913c0.823-0.381,2.747-1.274,3.202-1.591c-0.263,0.184,5.848-2.32,5.68-1.422l-0.594,4.203
	c-0.203,1.129-2.044,11.269-4.682,21.996c-4.988,20.291-8.354,24.826-10.728,26.51c-2.286,1.622-4.618,3.409-7.085,5.299
	c-7.184,5.502-14.6,11.185-22.708,14.319l-9.99,5.758L19.847,95.988l-0.231,0.127C19.355,96.256,17.964,96.962,16.018,96.962z"/>
<linearGradient id="SVGID_1_" gradientUnits="userSpaceOnUse" x1="-610.5972" y1="1011.7529" x2="-597.6768" y2="1011.7529" gradientTransform="matrix(0.5539 0.8326 -0.8326 0.5539 1203.939 22.4033)">
	<stop  offset="0" style="stop-color:#939598"/>
	<stop  offset="1" style="stop-color:#000000"/>
</linearGradient>
<path fill="url(#SVGID_1_)" d="M10.779,90.551c3.356,5.045,7.362,2.86,7.362,2.86L36.37,78.968l9.602-5.533l-5.81-8.733
	l-8.814,6.715L10.985,82.652C10.985,82.652,7.086,85.002,10.779,90.551z"/>
<path fill="#666766" d="M45.92,73.287c10.854-3.838,20.994-13.128,30.186-19.652c6.713-4.762,14.156-46.516,14.16-46.542
	c-0.089,0.501-4.906,2.526-5.432,2.864c-4.086,2.62-7.98,6.053-11.004,9.854c-6.438,8.085-7.451,16.539-12.776,25.258
	c-2.558,4.186-7.53,9.132-11.477,12.082c-4.015,3.001-7.025,3.957-7.039,4.024c-0.019,0.095-1.599,2.042-2.376,3.524
	c1.892,2.844,3.955,5.68,5.541,8.664C45.776,73.34,45.848,73.314,45.92,73.287z"/>
<path fill="#FEBC12" d="M40.162,64.701l5.81,8.733l-4.799,2.765l-5.417-8.142L40.162,64.701z M30.799,83.381l2.373-1.88
	l-5.397-8.111l-2.65,1.462L30.799,83.381z M26.702,86.629l2.372-1.881l-5.876-8.832l-2.65,1.461L26.702,86.629z M17.837,85.68
	c-0.838-1.26-2.541-1.604-3.801-0.765c-1.263,0.839-1.603,2.54-0.764,3.802s2.54,1.604,3.801,0.764
	C18.333,88.643,18.676,86.939,17.837,85.68z"/>
<path opacity="0.7" fill="#FFFFFF" d="M76.105,53.635c5.307-3.766,11.07-30.646,13.251-41.75
	c-3.519,1.249-11.261,5.518-17.454,19.789c-8.287,19.102-16.773,24.912-16.773,24.912s-6.012,5.318-13.713,6.243
	c-0.354,0.338-0.904,1.502-1.254,1.871c1.166,1.756,2.389,3.51,3.536,5.297c9.12-1.17,31.861-21.569,31.861-21.569l-0.766,2.813
	c-12.6,11.254-24.182,18.478-30.137,20.299c0.363,0.604,0.721,1.209,1.047,1.824c0.074-0.023,0.145-0.049,0.217-0.076
	C56.773,69.449,66.914,60.159,76.105,53.635z"/>
<path opacity="0.3" fill="#3E53A4" d="M45.92,73.287c10.854-3.838,20.994-13.128,30.186-19.652
	c6.713-4.762,14.156-46.516,14.16-46.542c-0.089,0.501-4.906,2.526-5.432,2.864c-4.086,2.62-7.98,6.053-11.004,9.854
	c-6.438,8.085-7.451,16.539-12.776,25.258c-2.558,4.186-7.53,9.132-11.477,12.082c-4.015,3.001-7.025,3.957-7.039,4.024
	c-0.019,0.095-1.599,2.042-2.376,3.524c1.892,2.844,3.955,5.68,5.541,8.664C45.776,73.34,45.848,73.314,45.92,73.287z"/>
</svg>
