<?xml version="1.0" encoding="utf-8"?>
<!-- Generator: Adobe Illustrator 16.0.0, SVG Export Plug-In . SVG Version: 6.00 Build 0)  -->
<!DOCTYPE svg PUBLIC "-//W3C//DTD SVG 1.1//EN" "http://www.w3.org/Graphics/SVG/1.1/DTD/svg11.dtd">
<svg version="1.1" id="Layer_1" xmlns="http://www.w3.org/2000/svg" xmlns:xlink="http://www.w3.org/1999/xlink" x="0px" y="0px"
	 width="100px" height="100px" viewBox="0 0 100 100" enable-background="new 0 0 100 100" xml:space="preserve">
<path d="M10.898,91.337l0.152,0.117c2.575,2.002,8.552,4.681,12.75,0.483l33.369-33.369L55.77,57.17l40.755-40.753l-2.179-2.178
	c-0.125-0.125-12.826-12.421-30.396,5.149l-22.98,22.98l-1.398-1.397L6.122,74.42l-0.074,0.087
	c-0.568,0.659-5.259,6.72,4.715,16.694L10.898,91.337z"/>
<path fill="#666766" d="M51.12,57.465l41.048-41.048c0,0-10.447-10.446-26.041,5.149L40.674,47.018L51.12,57.465z"/>
<path opacity="0.7" fill="#FFFFFF" d="M66.127,21.565c15.414-15.415,25.791-5.396,26.03-5.161
	c-4.356-0.215-11.337,0.461-16.718,5.842L45.765,51.92l-0.294-0.104l-4.797-4.797L66.127,21.565z"/>
<path fill="#987E2E" d="M21.621,89.76l31.192-31.191L39.571,45.327L8.38,76.518c0,0-3.679,4.266,4.561,12.506
	C12.941,89.023,18.237,93.143,21.621,89.76z"/>
<path opacity="0.6" d="M47.927,53.684l-9.521,9.521c0.763-4.86,2.326-16.747-1.792-10.411c-3.896,5.996-0.998,10.025,0.599,11.604
	l-5.858,5.858c0.763-4.86,2.325-16.747-1.792-10.411c-3.896,5.996-0.998,10.025,0.6,11.604l-5.858,5.857
	c0.763-4.859,2.325-16.745-1.792-10.41c-3.896,5.996-0.998,10.025,0.6,11.604l-4.827,4.826c0,0-0.336,0.332-0.992,0.773
	c0.775-5.008,2.214-16.379-1.832-10.152c-3.532,5.436-1.479,9.258,0.125,11.1c-1.254,0.576-2.936,1.111-5.055,1.268
	c0.66,0.852,1.451,1.754,2.409,2.711c0,0,5.296,4.119,8.68,0.736l31.192-31.191L47.927,53.684z"/>
<path opacity="0.3" fill="#EE1C4E" d="M51.12,57.465l41.048-41.048c0,0-10.447-10.446-26.041,5.149L40.674,47.018L51.12,57.465z"/>
<polygon points="38.735,44.484 50.478,56.227 42.826,42.8 "/>
</svg>
