<?xml version="1.0" encoding="utf-8"?>
<!-- Generator: Adobe Illustrator 16.0.0, SVG Export Plug-In . SVG Version: 6.00 Build 0)  -->
<!DOCTYPE svg PUBLIC "-//W3C//DTD SVG 1.1//EN" "http://www.w3.org/Graphics/SVG/1.1/DTD/svg11.dtd">
<svg version="1.1" id="Layer_1" xmlns="http://www.w3.org/2000/svg" xmlns:xlink="http://www.w3.org/1999/xlink" x="0px" y="0px"
	 width="100px" height="100px" viewBox="0 0 100 100" enable-background="new 0 0 100 100" xml:space="preserve">
<path d="M2.972,87.323l4.539-8.909l2.072,0.327l22.595-22.597l0.168,0.168l42.682-42.729c7.31-7.309,17.307-7.745,17.729-7.76
	l6.526,0.568l-58.2,58.648l0.185,0.184l-5.458,5.453L18.635,87.854l0.316,2l-8.909,4.538L2.972,87.323z"/>
<path fill="#666766" d="M36.591,65.176L92.865,8.902c0,0-9.123,0.324-15.658,6.858L32.215,60.8L36.591,65.176z"/>
<path opacity="0.7" fill="#FFFFFF" d="M78.227,16.778c4.701-4.153,6.919-4.557,7.02-4.458c-1.525,1.098-1.891,1.585-3.934,3.441
	L34.347,62.854l-0.123-0.043l-1.014-1.016L78.227,16.778z"/>
<linearGradient id="SVGID_1_" gradientUnits="userSpaceOnUse" x1="6.7324" y1="75.5664" x2="36.9063" y2="75.5664">
	<stop  offset="0" style="stop-color:#939598"/>
	<stop  offset="1" style="stop-color:#000000"/>
</linearGradient>
<polygon fill="url(#SVGID_1_)" points="36.906,65.227 32.178,60.5 28.908,63.771 10.651,82.029 9.24,81.806 6.732,86.727 
	10.638,90.632 15.56,88.125 15.348,86.785 33.633,68.498 "/>
<rect x="31.908" y="60.611" transform="matrix(-0.7072 0.707 -0.707 -0.7072 102.3243 85.5308)" fill="#FEBC12" width="3.086" height="6.686"/>
<path opacity="0.7" fill="#FFFFFF" d="M32.126,70.006l-2.76,2.762l-4.727-4.727l2.761-2.76L32.126,70.006z M18.845,73.835
	l4.727,4.726l2.76-2.76l-4.727-4.727L18.845,73.835z M13.051,79.628l4.727,4.726l2.761-2.76l-4.727-4.726L13.051,79.628z"/>
<polygon opacity="0.7" fill="#FFFFFF" points="6.732,86.727 9.24,81.806 14.696,82.67 15.56,88.125 10.638,90.632 "/>
<polygon fill="#FEBC12" points="8.966,86.373 10.267,83.82 13.096,84.27 13.544,87.098 10.992,88.398 "/>
<path opacity="0.3" fill="#6DBE45" d="M36.591,65.176L92.865,8.902c0,0-9.123,0.324-15.658,6.858L32.215,60.8L36.591,65.176z"/>
</svg>
