<?xml version="1.0" encoding="utf-8"?>
<!-- Generator: Adobe Illustrator 16.0.0, SVG Export Plug-In . SVG Version: 6.00 Build 0)  -->
<!DOCTYPE svg PUBLIC "-//W3C//DTD SVG 1.1//EN" "http://www.w3.org/Graphics/SVG/1.1/DTD/svg11.dtd">
<svg version="1.1" id="Layer_1" xmlns="http://www.w3.org/2000/svg" xmlns:xlink="http://www.w3.org/1999/xlink" x="0px" y="0px"
	 width="100px" height="100px" viewBox="0 0 100 100" enable-background="new 0 0 100 100" xml:space="preserve">
<path d="M25.268,96.862c-0.755,0-1.518-0.068-2.267-0.204c-0.54-0.097-1.051-0.227-1.528-0.389c-0.14,0.005-0.279,0.008-0.418,0.008
	c-0.465,0-0.935-0.026-1.396-0.076c-2.052-0.232-4.006-0.971-5.693-2.128c-1.069,0.507-2.194,0.778-3.28,0.778
	c-1.578,0-3.021-0.574-4.064-1.617c-1.337-1.335-1.885-3.289-1.502-5.357c0.311-1.68,1.217-3.34,2.552-4.674
	c1.206-1.207,2.511-1.898,3.889-2.064c1.403-1.882,3.226-3.963,5.271-6.007c0.587-0.587,1.142-1.12,1.666-1.601l-8.879-8.879
	l6.532-6.537l3.707,3.709c1.852-1.379,4.022-2.232,6.326-2.486c-0.003-0.809,0.279-1.596,0.993-2.31
	c0.626-0.626,1.472-0.972,2.382-0.972c0.62,0,1.788,0,4.727,2.332l39.279-37.538L89.163,8.347l7.173-4.57l-4.825,6.917
	L79.007,26.295l-37.508,39.25c2.172,2.658,3.485,5.256,1.465,7.274c-0.611,0.611-1.435,0.954-2.321,0.969
	c-0.253,2.272-1.094,4.473-2.476,6.347l3.573,3.573l-4.594,4.595C35.515,93.349,30.757,96.862,25.268,96.862z M19.084,88.021
	c0.208,0.02,0.417,0.029,0.623,0.029c3.267,0,6.006-2.453,6.372-5.705c0.028-0.247,0.039-0.499,0.034-0.755
	c-0.424,0.456-0.886,0.934-1.389,1.437C22.812,84.94,20.867,86.659,19.084,88.021z"/>
<linearGradient id="SVGID_1_" gradientUnits="userSpaceOnUse" x1="-537.4736" y1="342.5303" x2="-530.9287" y2="342.5303" gradientTransform="matrix(0.7071 0.7071 -0.7071 0.7071 636.6309 218.6934)">
	<stop  offset="0" style="stop-color:#808285"/>
	<stop  offset="1" style="stop-color:#000000"/>
</linearGradient>
<path fill="url(#SVGID_1_)" d="M15.516,86.787c1.971-1.299,4.48-3.387,7.031-5.938c1.742-1.741,2.858-3.056,3.543-4.079
	l-3.003-3.002c-1.023,0.686-2.337,1.801-4.08,3.543c-2.551,2.551-4.639,5.06-5.938,7.03c-0.95-0.358-2.018-0.164-3.221,1.039
	c-1.858,1.858-2.328,4.399-1.05,5.677c1.28,1.279,3.82,0.811,5.678-1.049C15.681,88.805,15.874,87.736,15.516,86.787z"/>
<polygon fill="#666766" points="28.311,74.635 78.901,22.857 92.688,7.169 77.001,20.956 25.224,71.547 "/>
<path opacity="0.3" fill="#FFFFFF" d="M14.477,90.008c-1.858,1.859-4.398,2.328-5.678,1.049c-1.278-1.277-0.808-3.818,1.05-5.677
	c1.204-1.203,2.272-1.401,3.222-1.042c0.13,0.549,0.451,1.098,0.901,1.547c0.449,0.45,1.066,0.795,1.547,0.901
	C15.878,87.736,15.681,88.805,14.477,90.008z"/>
<polygon opacity="0.7" fill="#FFFFFF" points="26.699,73.022 91.567,8.151 77.001,20.956 25.224,71.547 "/>
<path fill="#A7A9AC" d="M34.514,86.159c0.056-0.312,0.084-0.602,0.093-0.872l0.599,0.598l2.178-2.177l-3.522-3.522
	c0.3-0.236,0.591-0.488,0.868-0.766c3.036-3.035,3.703-7.529,2.026-11.221c2.056,1.771,3.681,2.791,4.032,2.441
	c0.489-0.489-1.675-3.445-4.832-6.603c-3.158-3.157-6.113-5.321-6.602-4.832c-0.351,0.351,0.67,1.976,2.44,4.032
	c-3.691-1.678-8.185-1.01-11.22,2.025c-0.276,0.277-0.529,0.568-0.766,0.868l-3.658-3.66l-2.178,2.179l14.998,14.998
	c0.211,0.975,0.288,1.994,0.17,3.041c-0.587,5.217-5.291,8.968-10.507,8.381c-1.546-0.174-2.963-0.711-4.173-1.518
	c-0.728-0.483-1.084-0.213-0.512,0.438c1.502,1.699,3.613,2.873,6.047,3.148c0.664,0.073,1.321,0.075,1.961,0.017
	c0.421,0.189,0.949,0.356,1.591,0.472C28.693,94.556,33.603,91.211,34.514,86.159z M20.072,66.396
	c3.689-2.28,7.946-4.033,12.751,0.773c4.554,4.553,3.016,9.025,0.77,12.746L20.072,66.396z M26.792,91.26
	c2.001-1.516,3.406-3.813,3.708-6.502c0.156-1.389,0.001-2.737-0.405-3.983l3.21,3.21c-0.005,0.022-0.011,0.041-0.015,0.063
	C32.653,87.584,30.056,90.275,26.792,91.26z"/>
<polygon opacity="0.3" fill="#EE1C4E" points="28.311,74.635 78.901,22.857 92.688,7.169 77.001,20.956 25.224,71.547 "/>
<path opacity="0.5" d="M20.072,66.396c3.689-2.28,7.946-4.033,12.751,0.773c4.554,4.553,3.016,9.025,0.77,12.746l0.268,0.27
	c0.3-0.236,0.591-0.488,0.868-0.766c3.911-3.91,3.909-10.248,0-14.156c-3.909-3.909-10.246-3.91-14.156,0
	c-0.276,0.277-0.529,0.568-0.766,0.868L20.072,66.396z"/>
<path opacity="0.8" d="M31.793,63.238c1.063,0.482,2.062,1.15,2.936,2.025c0.875,0.874,1.542,1.874,2.026,2.936
	c2.056,1.771,3.681,2.791,4.032,2.441c0.489-0.489-1.675-3.445-4.832-6.603c-3.158-3.157-6.113-5.321-6.602-4.832
	C29.002,59.557,30.023,61.182,31.793,63.238z"/>
<path opacity="0.5" d="M30.095,80.774l-1.126-1.126c0.211,0.975,0.288,1.994,0.17,3.041c-0.587,5.217-5.291,8.968-10.507,8.381
	c-1.546-0.174-2.963-0.711-4.173-1.518c-0.728-0.483-1.084-0.213-0.512,0.438c1.502,1.699,3.613,2.873,6.047,3.148
	c5.215,0.586,9.919-3.167,10.506-8.381C30.657,83.369,30.501,82.021,30.095,80.774z"/>
<path opacity="0.8" d="M34.514,86.159c0.056-0.312,0.084-0.602,0.093-0.872l-1.301-1.303c-0.005,0.022-0.011,0.041-0.015,0.063
	c-0.638,3.536-3.235,6.228-6.499,7.212c-1.381,1.047-3.045,1.727-4.836,1.896c0.421,0.189,0.949,0.356,1.591,0.472
	C28.693,94.556,33.603,91.211,34.514,86.159z"/>
</svg>
