<?xml version="1.0" encoding="utf-8"?>
<!-- Generator: Adobe Illustrator 16.0.0, SVG Export Plug-In . SVG Version: 6.00 Build 0)  -->
<!DOCTYPE svg PUBLIC "-//W3C//DTD SVG 1.1//EN" "http://www.w3.org/Graphics/SVG/1.1/DTD/svg11.dtd">
<svg version="1.1" id="Layer_1" xmlns="http://www.w3.org/2000/svg" xmlns:xlink="http://www.w3.org/1999/xlink" x="0px" y="0px"
	 width="100px" height="100px" viewBox="0 0 100 100" enable-background="new 0 0 100 100" xml:space="preserve">
<path d="M9.536,96.932c-1.021,0-1.98-0.396-2.703-1.119l-3.938-3.938c-1.489-1.488-1.49-3.912-0.003-5.404
	c0.179-0.18,0.373-0.339,0.579-0.477c0.139-0.207,0.299-0.401,0.479-0.581c0.176-0.176,0.367-0.333,0.57-0.47
	c0.138-0.205,0.298-0.398,0.477-0.578c0.178-0.178,0.371-0.336,0.575-0.474c0.138-0.204,0.295-0.396,0.473-0.573
	c0.177-0.177,0.369-0.335,0.573-0.473c0.138-0.205,0.297-0.398,0.476-0.577c0.179-0.179,0.373-0.338,0.578-0.476
	c0.136-0.203,0.293-0.396,0.473-0.574c0.178-0.18,0.372-0.338,0.577-0.477c0.136-0.201,0.292-0.393,0.469-0.57
	c0.18-0.18,0.374-0.339,0.579-0.477c0.136-0.204,0.294-0.396,0.474-0.576c0.178-0.179,0.371-0.338,0.576-0.477
	c0.138-0.205,0.298-0.398,0.478-0.576c0.177-0.179,0.37-0.337,0.574-0.475c0.139-0.205,0.297-0.396,0.476-0.575
	c0.177-0.179,0.371-0.337,0.576-0.476c0.135-0.201,0.291-0.393,0.469-0.57c0.18-0.179,0.374-0.338,0.579-0.477
	c0.136-0.202,0.293-0.395,0.471-0.574c0.179-0.179,0.373-0.338,0.578-0.477c0.138-0.203,0.296-0.396,0.475-0.574
	s0.371-0.337,0.575-0.475c0.135-0.202,0.292-0.395,0.471-0.574c0.181-0.18,0.375-0.338,0.582-0.478
	c0.136-0.202,0.294-0.396,0.473-0.573c0.178-0.18,0.373-0.34,0.579-0.479c0.137-0.203,0.294-0.396,0.474-0.574
	c0.178-0.178,0.369-0.336,0.573-0.474c0.138-0.204,0.296-0.396,0.475-0.575c0.178-0.18,0.372-0.338,0.578-0.477
	c0.134-0.201,0.291-0.393,0.468-0.57c0.179-0.179,0.372-0.338,0.576-0.475c0.138-0.206,0.297-0.4,0.477-0.578
	c0.179-0.18,0.373-0.339,0.579-0.478c0.135-0.201,0.291-0.393,0.468-0.571c0.179-0.178,0.373-0.336,0.576-0.473
	c0.138-0.205,0.297-0.4,0.477-0.578c0.178-0.179,0.371-0.336,0.576-0.475c0.137-0.205,0.296-0.398,0.475-0.576
	c0.175-0.176,0.365-0.332,0.566-0.469c0.136-0.199,0.291-0.388,0.466-0.563c0.178-0.18,0.372-0.339,0.577-0.478
	c0.136-0.202,0.294-0.395,0.473-0.573c0.178-0.18,0.372-0.338,0.576-0.476c0.138-0.205,0.298-0.398,0.478-0.577
	c0.177-0.18,0.371-0.338,0.576-0.477c0.135-0.201,0.291-0.391,0.468-0.568c0.18-0.18,0.374-0.339,0.58-0.478
	c0.136-0.202,0.293-0.395,0.471-0.573c0.179-0.18,0.374-0.34,0.58-0.479c0.138-0.203,0.295-0.396,0.474-0.574
	c0.178-0.178,0.37-0.336,0.574-0.473c0.138-0.205,0.296-0.398,0.475-0.576c0.179-0.18,0.373-0.338,0.578-0.476
	c0.137-0.204,0.295-0.397,0.475-0.577c0.178-0.178,0.37-0.336,0.574-0.474c0.139-0.205,0.298-0.398,0.477-0.577
	c0.177-0.178,0.369-0.336,0.574-0.473c0.138-0.205,0.297-0.398,0.475-0.576c0.178-0.179,0.371-0.336,0.575-0.475
	c0.138-0.204,0.295-0.396,0.474-0.574c0.178-0.179,0.373-0.338,0.578-0.477c0.136-0.202,0.293-0.395,0.472-0.572
	c0.178-0.18,0.372-0.339,0.577-0.477c0.136-0.203,0.293-0.396,0.473-0.574c0.178-0.178,0.371-0.335,0.574-0.473
	c0.138-0.206,0.298-0.399,0.477-0.578c0.178-0.179,0.372-0.337,0.577-0.476c0.137-0.205,0.297-0.397,0.475-0.576
	c0.177-0.177,0.368-0.333,0.571-0.47c0.138-0.205,0.297-0.399,0.477-0.578c0.179-0.178,0.372-0.336,0.576-0.474
	c0.138-0.205,0.296-0.397,0.474-0.576c0.178-0.178,0.371-0.336,0.576-0.474c0.138-0.206,0.297-0.399,0.477-0.579
	c0.177-0.177,0.369-0.335,0.573-0.472c0.139-0.205,0.298-0.398,0.477-0.577c0.177-0.178,0.37-0.336,0.574-0.475
	c0.138-0.204,0.296-0.396,0.474-0.574c0.133-0.133,0.274-0.256,0.423-0.366l-3.101-3.1l5.458-5.458l2.73,2.729l1.627-1.628
	l0.188,0.188L77.515,8.615l0.063-0.062c3.039-3.039,6.684-4.645,10.541-4.645c4.898,0,8.467,2.511,8.857,2.798L100,8.839
	l-6.673,4.62c-0.738,0.33-2.332,1.236-13.22,12.173l7.777,0.439l-8.193,5.139c-0.073,0.047-7.397,4.648-11.729,7.975
	c-0.523,0.5-2.99,2.971-5.662,5.659l0.795,0.794l-1.627,1.628l2.729,2.73l-5.458,5.459l-3.101-3.102
	c-0.108,0.147-0.229,0.288-0.363,0.422c-0.179,0.178-0.372,0.337-0.577,0.475c-0.139,0.207-0.299,0.401-0.479,0.581
	c-0.178,0.179-0.371,0.337-0.576,0.475c-0.135,0.201-0.291,0.392-0.469,0.569c-0.179,0.18-0.373,0.34-0.578,0.479
	c-0.14,0.205-0.3,0.4-0.48,0.58c-0.176,0.177-0.367,0.334-0.571,0.471c-0.136,0.203-0.293,0.396-0.473,0.574
	c-0.178,0.18-0.373,0.338-0.578,0.477c-0.138,0.205-0.297,0.397-0.476,0.576c-0.176,0.176-0.367,0.334-0.57,0.471
	c-0.139,0.205-0.299,0.399-0.479,0.579c-0.178,0.178-0.371,0.335-0.574,0.472c-0.135,0.201-0.291,0.393-0.467,0.57
	c-0.181,0.181-0.376,0.341-0.583,0.48c-0.135,0.201-0.292,0.394-0.471,0.572c-0.179,0.179-0.372,0.338-0.577,0.475
	c-0.139,0.205-0.297,0.399-0.477,0.578c-0.179,0.18-0.372,0.339-0.578,0.477c-0.136,0.203-0.293,0.395-0.472,0.573
	c-0.178,0.181-0.372,0.339-0.578,0.478c-0.135,0.201-0.291,0.393-0.469,0.57c-0.179,0.179-0.372,0.338-0.578,0.477
	c-0.138,0.206-0.298,0.399-0.477,0.578c-0.178,0.178-0.37,0.336-0.575,0.473c-0.136,0.203-0.293,0.396-0.473,0.575
	c-0.179,0.18-0.373,0.339-0.578,0.477c-0.136,0.202-0.293,0.395-0.472,0.573c-0.177,0.178-0.37,0.335-0.573,0.472
	c-0.139,0.207-0.299,0.401-0.479,0.581c-0.179,0.18-0.373,0.338-0.579,0.477c-0.134,0.199-0.29,0.391-0.467,0.568
	c-0.18,0.18-0.374,0.34-0.581,0.479c-0.135,0.202-0.293,0.395-0.472,0.573c-0.178,0.179-0.372,0.338-0.577,0.476
	c-0.135,0.202-0.292,0.395-0.471,0.574c-0.18,0.178-0.374,0.338-0.579,0.477c-0.139,0.207-0.299,0.4-0.48,0.58
	c-0.173,0.173-0.36,0.327-0.559,0.463c-0.136,0.2-0.293,0.391-0.471,0.567c-0.177,0.177-0.37,0.336-0.573,0.473
	c-0.138,0.206-0.297,0.399-0.477,0.577c-0.178,0.178-0.37,0.337-0.575,0.475c-0.136,0.202-0.292,0.394-0.472,0.572
	c-0.177,0.178-0.369,0.334-0.572,0.472c-0.138,0.206-0.297,0.399-0.477,0.579s-0.374,0.338-0.579,0.477
	c-0.135,0.201-0.292,0.393-0.469,0.57c-0.18,0.179-0.373,0.338-0.579,0.477c-0.136,0.204-0.294,0.396-0.474,0.576
	c-0.179,0.179-0.372,0.338-0.578,0.475c-0.134,0.202-0.29,0.393-0.467,0.57c-0.181,0.181-0.375,0.341-0.581,0.479
	c-0.14,0.207-0.3,0.402-0.48,0.582c-0.177,0.177-0.368,0.334-0.572,0.471c-0.135,0.201-0.292,0.393-0.469,0.571
	c-0.18,0.18-0.374,0.339-0.58,0.478c-0.139,0.205-0.298,0.398-0.477,0.578c-0.176,0.176-0.368,0.334-0.571,0.471
	c-0.138,0.206-0.298,0.4-0.478,0.579c-0.178,0.178-0.371,0.337-0.575,0.474c-0.137,0.203-0.295,0.396-0.473,0.573
	c-0.178,0.18-0.372,0.339-0.578,0.478c-0.135,0.201-0.291,0.393-0.468,0.57c-0.18,0.18-0.375,0.339-0.58,0.477
	c-0.135,0.203-0.292,0.395-0.47,0.572c-0.18,0.18-0.375,0.34-0.581,0.479c-0.137,0.204-0.295,0.397-0.476,0.577
	c-0.177,0.179-0.37,0.336-0.574,0.475c-0.139,0.204-0.297,0.396-0.476,0.574c-0.177,0.178-0.369,0.336-0.573,0.475
	c-0.139,0.205-0.299,0.4-0.48,0.58c-0.177,0.176-0.368,0.333-0.571,0.471c-0.136,0.201-0.294,0.395-0.473,0.573
	c-0.179,0.18-0.373,0.339-0.579,0.477c-0.134,0.202-0.291,0.393-0.468,0.571c-0.179,0.178-0.372,0.336-0.576,0.475
	c-0.137,0.204-0.295,0.398-0.476,0.578c-0.18,0.178-0.373,0.336-0.578,0.475c-0.135,0.201-0.292,0.394-0.471,0.572
	c-0.179,0.18-0.372,0.338-0.578,0.477c-0.139,0.205-0.298,0.399-0.478,0.579C11.516,96.535,10.556,96.932,9.536,96.932z"/>
<path fill="#666766" d="M57.4,45.406c0,0,8.485-8.558,8.592-8.592c4.491-3.465,12.063-8.214,12.063-8.214s-4.859-0.274-4.877-0.256
	C90.247,10.378,95.155,9.19,95.155,9.19s-7.999-5.86-15.4,1.54L52.862,40.867L57.4,45.406z"/>
<path opacity="0.7" fill="#FFFFFF" d="M79.755,10.73c7.316-7.315,15.287-1.65,15.4-1.54c-1.828-0.962-6.545-1.732-10.684,2.888
	L54.72,42.725l-1.857-1.857L79.755,10.73z"/>
<path fill="#87461E" d="M50.208,43.512c-0.29,0.29-0.29,0.761,0,1.05c-0.29-0.29-0.761-0.291-1.051,0c-0.29,0.29-0.29,0.76,0,1.05
	c-0.29-0.29-0.759-0.29-1.05,0c-0.29,0.29-0.29,0.76,0,1.05c-0.29-0.29-0.761-0.29-1.05,0.001c-0.29,0.289-0.29,0.759,0,1.049
	c-0.29-0.29-0.759-0.29-1.05,0c-0.29,0.29-0.29,0.76,0,1.05c-0.29-0.29-0.759-0.29-1.05,0c-0.29,0.291-0.29,0.76,0,1.049
	c-0.29-0.289-0.759-0.29-1.05,0c-0.291,0.29-0.291,0.762,0,1.05c-0.291-0.289-0.759-0.289-1.05,0.001c-0.29,0.289-0.29,0.76,0,1.049
	c-0.29-0.289-0.761-0.289-1.05,0c-0.29,0.29-0.29,0.762,0,1.051c-0.29-0.289-0.76-0.289-1.05,0c-0.291,0.29-0.291,0.76,0,1.051
	c-0.291-0.291-0.76-0.291-1.05,0c-0.29,0.289-0.29,0.759,0,1.049c-0.29-0.29-0.76-0.29-1.05,0c-0.29,0.291-0.29,0.76,0,1.05
	c-0.29-0.29-0.761-0.29-1.051,0.001c-0.29,0.289-0.29,0.76,0,1.05c-0.29-0.29-0.759-0.29-1.049,0c-0.291,0.29-0.291,0.761,0,1.05
	c-0.291-0.289-0.761-0.289-1.05,0c-0.291,0.29-0.29,0.76,0,1.051c-0.29-0.291-0.76-0.291-1.051,0c-0.29,0.289-0.29,0.76,0,1.049
	c-0.29-0.289-0.759-0.289-1.049,0c-0.291,0.291-0.291,0.761,0,1.051c-0.291-0.29-0.762-0.29-1.05,0
	c-0.29,0.289-0.29,0.76-0.001,1.05c-0.289-0.29-0.759-0.29-1.05,0c-0.29,0.29-0.29,0.759,0,1.05c-0.29-0.291-0.76-0.291-1.05,0
	c-0.29,0.29-0.29,0.76,0,1.051c-0.29-0.291-0.76-0.291-1.05,0c-0.291,0.29-0.291,0.76,0,1.051c-0.291-0.291-0.759-0.291-1.05,0
	c-0.26,0.26-0.285,0.663-0.078,0.953c-0.29-0.207-0.695-0.182-0.955,0.078c-0.291,0.29-0.291,0.76,0,1.049
	c-0.291-0.289-0.76-0.289-1.051,0.002c-0.29,0.289-0.29,0.76,0,1.049c-0.29-0.289-0.759-0.289-1.05,0
	c-0.289,0.291-0.289,0.761,0,1.05c-0.289-0.289-0.761-0.289-1.05,0c-0.29,0.29-0.29,0.761,0,1.051c-0.29-0.29-0.759-0.29-1.05,0
	c-0.29,0.29-0.29,0.761,0,1.05c-0.29-0.289-0.76-0.291-1.05,0c-0.29,0.29-0.29,0.761,0,1.051c-0.29-0.29-0.76-0.29-1.05,0
	c-0.29,0.289-0.29,0.759,0,1.05c-0.29-0.291-0.76-0.291-1.05,0c-0.29,0.29-0.29,0.76,0,1.05c-0.29-0.29-0.76-0.29-1.051,0
	c-0.29,0.291-0.29,0.76,0,1.051c-0.29-0.291-0.759-0.291-1.049,0c-0.29,0.29-0.29,0.76,0,1.049c-0.29-0.289-0.76-0.289-1.05,0
	c-0.29,0.291-0.29,0.761,0,1.051c-0.29-0.29-0.76-0.29-1.05,0c-0.289,0.289-0.289,0.76,0,1.051c-0.289-0.291-0.76-0.291-1.05,0
	c-0.291,0.289-0.291,0.759,0,1.049c-0.291-0.29-0.76-0.29-1.05,0c-0.291,0.289-0.291,0.76,0,1.051c-0.291-0.291-0.76-0.291-1.051,0
	c-0.29,0.289-0.29,0.76,0,1.05c-0.29-0.29-0.759-0.29-1.05,0c-0.29,0.29-0.29,0.759,0,1.05c-0.29-0.291-0.759-0.291-1.049,0
	c-0.29,0.29-0.29,0.76-0.001,1.049c-0.289-0.289-0.759-0.289-1.05,0c-0.29,0.291-0.29,0.762,0,1.051
	c-0.29-0.289-0.759-0.289-1.049,0c-0.291,0.291-0.291,0.761,0,1.051c-0.291-0.29-0.762-0.29-1.051,0c-0.29,0.289-0.29,0.76,0,1.05
	c-0.29-0.29-0.76-0.29-1.049,0c-0.291,0.29-0.291,0.759,0,1.05c-0.291-0.291-0.761-0.291-1.051,0c-0.29,0.29-0.29,0.761,0,1.051
	l3.938,3.938c0.29,0.289,0.76,0.289,1.049,0c0.291-0.29,0.291-0.761,0-1.051c0.291,0.29,0.761,0.29,1.051,0s0.29-0.761,0-1.049
	c0.29,0.288,0.76,0.288,1.051,0c0.29-0.29,0.29-0.762,0-1.051c0.29,0.289,0.759,0.289,1.049,0c0.29-0.291,0.29-0.76,0-1.05
	c0.29,0.29,0.76,0.29,1.05,0c0.291-0.29,0.291-0.761,0-1.051c0.291,0.29,0.76,0.29,1.05,0c0.291-0.289,0.291-0.759,0-1.05
	c0.291,0.291,0.76,0.291,1.05,0c0.291-0.29,0.291-0.76,0-1.051c0.291,0.291,0.76,0.291,1.05,0.002c0.291-0.291,0.29-0.761,0-1.052
	c0.29,0.291,0.761,0.291,1.051,0c0.29-0.29,0.29-0.76,0-1.049c0.29,0.289,0.759,0.289,1.05,0c0.29-0.29,0.29-0.76,0-1.051
	c0.29,0.291,0.76,0.291,1.05,0c0.289-0.29,0.289-0.761,0-1.05c0.289,0.289,0.76,0.291,1.05,0c0.29-0.289,0.29-0.76,0-1.051
	c0.29,0.291,0.759,0.291,1.049,0c0.291-0.289,0.291-0.759,0-1.049c0.291,0.29,0.761,0.29,1.051,0c0.29-0.291,0.29-0.761,0-1.051
	c0.29,0.29,0.76,0.29,1.049,0c0.291-0.289,0.291-0.76,0-1.049c0.291,0.289,0.761,0.289,1.051,0c0.29-0.291,0.29-0.762,0-1.051
	c0.29,0.289,0.76,0.289,1.05,0c0.29-0.289,0.29-0.76,0-1.051c0.29,0.291,0.76,0.291,1.05,0c0.29-0.29,0.29-0.76,0-1.049
	c0.29,0.289,0.761,0.289,1.051,0c0.29-0.29,0.29-0.762-0.001-1.051c0.291,0.289,0.76,0.289,1.05,0c0.29-0.289,0.29-0.76,0-1.05
	c0.29,0.29,0.76,0.29,1.05,0c0.291-0.29,0.291-0.761,0-1.051c0.291,0.29,0.76,0.291,1.05,0.001c0.261-0.26,0.285-0.666,0.079-0.956
	c0.289,0.208,0.693,0.183,0.953-0.077c0.291-0.289,0.291-0.76,0-1.051c0.291,0.291,0.761,0.291,1.051,0.002
	c0.29-0.291,0.29-0.762,0-1.051c0.29,0.289,0.76,0.289,1.05,0c0.291-0.291,0.291-0.76,0-1.051c0.291,0.291,0.76,0.291,1.05,0
	c0.29-0.29,0.29-0.76,0-1.049c0.29,0.289,0.761,0.289,1.05,0c0.291-0.29,0.291-0.762,0-1.051c0.291,0.289,0.76,0.289,1.05,0
	c0.29-0.289,0.29-0.76,0-1.05c0.29,0.29,0.76,0.29,1.051,0c0.289-0.29,0.289-0.761,0-1.051c0.289,0.29,0.759,0.29,1.049,0
	c0.291-0.29,0.291-0.759,0-1.05c0.291,0.291,0.76,0.291,1.05,0c0.291-0.291,0.291-0.76,0-1.049c0.291,0.289,0.76,0.289,1.05,0
	c0.291-0.291,0.291-0.761,0-1.051c0.291,0.29,0.761,0.29,1.05,0c0.291-0.29,0.291-0.761,0-1.051c0.291,0.29,0.76,0.29,1.051,0
	c0.29-0.289,0.29-0.76,0-1.049c0.29,0.289,0.76,0.289,1.05,0c0.289-0.291,0.289-0.762,0-1.051c0.29,0.289,0.76,0.289,1.05,0
	c0.291-0.289,0.291-0.76,0-1.051c0.291,0.291,0.759,0.291,1.049,0c0.291-0.289,0.291-0.76,0-1.049c0.291,0.289,0.761,0.291,1.051,0
	c0.29-0.29,0.29-0.761,0-1.051c0.29,0.29,0.76,0.29,1.05,0c0.291-0.289,0.291-0.76,0-1.05c0.291,0.29,0.761,0.29,1.05,0
	s0.29-0.76,0-1.05c0.29,0.29,0.76,0.29,1.049,0c0.291-0.291,0.291-0.762,0-1.05c0.291,0.289,0.761,0.289,1.051,0
	c0.289-0.291,0.289-0.76,0-1.05c0.289,0.29,0.76,0.29,1.05,0c0.29-0.29,0.29-0.76,0-1.051c0.29,0.291,0.761,0.291,1.05,0
	c0.29-0.29,0.29-0.759,0-1.05l-3.938-3.938C50.967,43.223,50.498,43.223,50.208,43.512z"/>
<path opacity="0.5" fill="#FFFFFF" d="M50.208,43.512c-0.29,0.29-0.29,0.761,0,1.05c-0.29-0.29-0.761-0.291-1.051,0
	c-0.29,0.29-0.29,0.76,0,1.05c-0.29-0.29-0.759-0.29-1.05,0c-0.29,0.29-0.29,0.76,0,1.05c-0.29-0.29-0.761-0.29-1.05,0.001
	c-0.29,0.289-0.29,0.759,0,1.049c-0.29-0.29-0.759-0.29-1.05,0c-0.29,0.29-0.29,0.76,0,1.05c-0.29-0.29-0.759-0.29-1.05,0
	c-0.29,0.291-0.29,0.76,0,1.049c-0.29-0.289-0.759-0.29-1.05,0c-0.291,0.29-0.291,0.762,0,1.05c-0.291-0.289-0.759-0.289-1.05,0.001
	c-0.29,0.289-0.29,0.76,0,1.049c-0.29-0.289-0.761-0.289-1.05,0c-0.29,0.29-0.29,0.762,0,1.051c-0.29-0.289-0.76-0.289-1.05,0
	c-0.291,0.29-0.291,0.76,0,1.051c-0.291-0.291-0.76-0.291-1.05,0c-0.29,0.289-0.29,0.759,0,1.049c-0.29-0.29-0.76-0.29-1.05,0
	c-0.29,0.291-0.29,0.76,0,1.05c-0.29-0.29-0.761-0.29-1.051,0.001c-0.29,0.289-0.29,0.76,0,1.05c-0.29-0.29-0.759-0.29-1.049,0
	c-0.291,0.29-0.291,0.761,0,1.05c-0.291-0.289-0.761-0.289-1.05,0c-0.291,0.29-0.29,0.76,0,1.051c-0.29-0.291-0.76-0.291-1.051,0
	c-0.29,0.289-0.29,0.76,0,1.049c-0.29-0.289-0.759-0.289-1.049,0c-0.291,0.291-0.291,0.761,0,1.051c-0.291-0.29-0.762-0.29-1.05,0
	c-0.29,0.289-0.29,0.76-0.001,1.05c-0.289-0.29-0.759-0.29-1.05,0c-0.29,0.29-0.29,0.759,0,1.05c-0.29-0.291-0.76-0.291-1.05,0
	c-0.29,0.29-0.29,0.76,0,1.051c-0.29-0.291-0.76-0.291-1.05,0c-0.291,0.29-0.291,0.76,0,1.051c-0.291-0.291-0.759-0.291-1.05,0
	c-0.26,0.26-0.285,0.663-0.078,0.953c-0.29-0.207-0.695-0.182-0.955,0.078c-0.291,0.29-0.291,0.76,0,1.049
	c-0.291-0.289-0.76-0.289-1.051,0.002c-0.29,0.289-0.29,0.76,0,1.049c-0.29-0.289-0.759-0.289-1.05,0
	c-0.289,0.291-0.289,0.761,0,1.05c-0.289-0.289-0.761-0.289-1.05,0c-0.29,0.29-0.29,0.761,0,1.051c-0.29-0.29-0.759-0.29-1.05,0
	c-0.29,0.29-0.29,0.761,0,1.05c-0.29-0.289-0.76-0.291-1.05,0c-0.29,0.29-0.29,0.761,0,1.051c-0.29-0.29-0.76-0.29-1.05,0
	c-0.29,0.289-0.29,0.759,0,1.05c-0.29-0.291-0.76-0.291-1.05,0c-0.29,0.29-0.29,0.76,0,1.05c-0.29-0.29-0.76-0.29-1.051,0
	c-0.29,0.291-0.29,0.76,0,1.051c-0.29-0.291-0.759-0.291-1.049,0c-0.29,0.29-0.29,0.76,0,1.049c-0.29-0.289-0.76-0.289-1.05,0
	c-0.29,0.291-0.29,0.761,0,1.051c-0.29-0.29-0.76-0.29-1.05,0c-0.289,0.289-0.289,0.76,0,1.051c-0.289-0.291-0.76-0.291-1.05,0
	c-0.291,0.289-0.291,0.759,0,1.049c-0.291-0.29-0.76-0.29-1.05,0c-0.291,0.289-0.291,0.76,0,1.051c-0.291-0.291-0.76-0.291-1.051,0
	c-0.29,0.289-0.29,0.76,0,1.05c-0.29-0.29-0.759-0.29-1.05,0c-0.29,0.29-0.29,0.759,0,1.05c-0.29-0.291-0.759-0.291-1.049,0
	c-0.29,0.29-0.29,0.76-0.001,1.049c-0.289-0.289-0.759-0.289-1.05,0c-0.29,0.291-0.29,0.762,0,1.051
	c-0.29-0.289-0.759-0.289-1.049,0c-0.291,0.291-0.291,0.761,0,1.051c-0.291-0.29-0.762-0.29-1.051,0c-0.29,0.289-0.29,0.76,0,1.05
	c-0.29-0.29-0.76-0.29-1.049,0c-0.291,0.29-0.291,0.759,0,1.05c-0.291-0.291-0.761-0.291-1.051,0c-0.29,0.29-0.29,0.761,0,1.051
	l0.945,0.945c-0.29-0.291-0.29-0.762,0-1.051s0.759-0.289,1.05,0c-0.291-0.289-0.291-0.76,0-1.051c0.29-0.29,0.76-0.29,1.05,0
	c-0.29-0.29-0.29-0.76,0-1.05c0.29-0.289,0.76-0.289,1.049,0c-0.289-0.289-0.289-0.759,0-1.05c0.291-0.29,0.761-0.29,1.051,0
	c-0.29-0.29-0.29-0.76,0-1.049c0.29-0.291,0.76-0.291,1.049,0c-0.29-0.291-0.29-0.762,0-1.051c0.291-0.289,0.76-0.289,1.05,0
	c-0.29-0.289-0.29-0.761,0-1.05c0.29-0.29,0.76-0.291,1.05,0c-0.29-0.291-0.29-0.761,0-1.051c0.291-0.29,0.76-0.29,1.05,0
	c-0.29-0.29-0.29-0.759,0-1.05c0.291-0.29,0.76-0.29,1.05,0c-0.29-0.29-0.29-0.76,0.001-1.051c0.29-0.289,0.759-0.289,1.05,0
	c-0.291-0.289-0.291-0.759,0-1.049c0.291-0.291,0.76-0.291,1.049,0c-0.29-0.291-0.29-0.76,0-1.051c0.291-0.289,0.76-0.291,1.05,0
	c-0.29-0.291-0.29-0.76,0-1.05c0.291-0.29,0.761-0.29,1.051,0c-0.29-0.29-0.29-0.761,0-1.05c0.289-0.289,0.759-0.289,1.05,0
	c-0.291-0.289-0.29-0.761,0-1.051c0.29-0.289,0.76-0.289,1.05,0c-0.29-0.289-0.29-0.76,0-1.049c0.289-0.29,0.76-0.29,1.05,0
	c-0.29-0.29-0.29-0.761,0-1.051c0.291-0.289,0.759-0.289,1.049,0c-0.29-0.289-0.29-0.76,0-1.05c0.291-0.291,0.761-0.291,1.051,0
	c-0.29-0.291-0.29-0.76,0-1.05c0.289-0.291,0.76-0.291,1.049,0c-0.29-0.291-0.29-0.76,0-1.051c0.291-0.289,0.761-0.289,1.05,0
	c-0.29-0.289-0.29-0.76,0-1.049c0.291-0.29,0.76-0.291,1.05,0c-0.29-0.291-0.29-0.761,0-1.051c0.245-0.246,0.619-0.281,0.905-0.111
	l0.128,0.129c-0.03-0.031-0.055-0.063-0.079-0.096c0.034,0.024,0.066,0.048,0.096,0.078l-0.128-0.127
	c-0.17-0.285-0.135-0.66,0.111-0.906c0.29-0.29,0.759-0.29,1.05,0c-0.291-0.29-0.29-0.76,0-1.049c0.29-0.29,0.76-0.29,1.05,0
	c-0.29-0.29-0.29-0.761,0-1.051c0.291-0.289,0.759-0.289,1.049,0c-0.29-0.289-0.29-0.76,0.001-1.05c0.29-0.291,0.76-0.291,1.05,0
	c-0.29-0.291-0.29-0.76,0-1.05c0.291-0.291,0.76-0.291,1.049,0c-0.29-0.291-0.29-0.76,0-1.051c0.291-0.29,0.761-0.291,1.05,0
	c-0.29-0.291-0.29-0.76,0-1.049c0.29-0.291,0.76-0.291,1.05,0c-0.29-0.291-0.29-0.761,0-1.051c0.291-0.29,0.76-0.29,1.05,0
	c-0.29-0.29-0.29-0.761,0.001-1.051c0.289-0.289,0.76-0.289,1.05,0c-0.29-0.289-0.29-0.76,0-1.05c0.29-0.29,0.759-0.29,1.049,0
	c-0.29-0.29-0.29-0.761,0-1.049c0.29-0.291,0.76-0.291,1.05-0.001c-0.29-0.29-0.29-0.76,0-1.051c0.291-0.289,0.76-0.289,1.05,0
	c-0.29-0.289-0.29-0.76,0.001-1.049c0.29-0.291,0.76-0.291,1.049,0c-0.289-0.291-0.289-0.76,0-1.051c0.291-0.289,0.76-0.289,1.05,0
	c-0.29-0.289-0.29-0.76,0-1.05c0.291-0.29,0.761-0.29,1.051,0c-0.29-0.29-0.29-0.76,0-1.05c0.29-0.29,0.759-0.29,1.05,0
	c-0.291-0.29-0.291-0.761,0-1.05c0.29-0.291,0.759-0.291,1.049,0c-0.29-0.291-0.29-0.76,0.001-1.05c0.29-0.291,0.76-0.291,1.05,0
	c-0.29-0.291-0.29-0.76,0-1.05c0.291-0.291,0.76-0.291,1.049,0c-0.29-0.291-0.29-0.76,0-1.05c0.29-0.291,0.761-0.292,1.05-0.001
	c-0.29-0.29-0.29-0.759,0-1.049c0.29-0.291,0.76-0.291,1.049,0c-0.289-0.291-0.289-0.76,0-1.051c0.291-0.29,0.761-0.29,1.051,0
	l-0.945-0.945C50.967,43.223,50.498,43.223,50.208,43.512z"/>
<path opacity="0.5" d="M53.024,46.33c-0.289,0.29-0.76,0.29-1.05,0c0.29,0.29,0.29,0.76,0,1.051c-0.29,0.29-0.76,0.29-1.05,0
	c0.29,0.29,0.29,0.759,0,1.049c-0.291,0.291-0.76,0.291-1.05,0c0.29,0.291,0.29,0.761,0,1.05c-0.291,0.291-0.76,0.291-1.05,0
	c0.29,0.291,0.29,0.76,0,1.05c-0.29,0.291-0.76,0.291-1.05,0c0.29,0.291,0.29,0.76,0,1.05c-0.291,0.29-0.76,0.29-1.051,0
	c0.291,0.29,0.291,0.761,0,1.051c-0.29,0.291-0.76,0.289-1.05,0c0.29,0.289,0.29,0.76,0,1.05c-0.29,0.29-0.759,0.29-1.049,0
	c0.29,0.29,0.29,0.759,0,1.05c-0.29,0.289-0.761,0.289-1.051,0c0.29,0.289,0.29,0.76,0.001,1.05c-0.291,0.29-0.76,0.29-1.051,0
	c0.291,0.29,0.291,0.761,0,1.05c-0.291,0.291-0.76,0.291-1.049,0c0.289,0.291,0.289,0.761,0,1.051
	c-0.291,0.289-0.761,0.289-1.051-0.002c0.29,0.291,0.29,0.762,0,1.052c-0.29,0.29-0.76,0.29-1.05,0c0.29,0.29,0.29,0.76,0,1.05
	c-0.29,0.29-0.761,0.29-1.05,0c0.29,0.29,0.29,0.76,0,1.05c-0.29,0.29-0.76,0.29-1.05,0c0.29,0.29,0.29,0.761,0,1.052
	c-0.289,0.289-0.76,0.288-1.05,0c0.29,0.288,0.29,0.759,0,1.049c-0.291,0.29-0.76,0.29-1.05,0c0.29,0.29,0.29,0.76,0,1.051
	c-0.291,0.289-0.76,0.289-1.05,0c0.29,0.289,0.29,0.759,0,1.049c-0.291,0.291-0.76,0.291-1.05,0c0.29,0.291,0.29,0.76,0,1.05
	c-0.291,0.29-0.76,0.29-1.05,0c0.29,0.29,0.29,0.761,0,1.051c-0.29,0.289-0.761,0.289-1.051-0.001c0.29,0.29,0.29,0.761,0,1.051
	c-0.246,0.246-0.619,0.281-0.904,0.11l-0.128-0.128c0.029,0.029,0.055,0.063,0.078,0.096c-0.033-0.023-0.065-0.049-0.095-0.078
	l0.127,0.127c0.171,0.286,0.136,0.659-0.11,0.906c-0.29,0.29-0.76,0.289-1.05-0.001c0.29,0.29,0.29,0.761,0,1.052
	c-0.29,0.289-0.76,0.289-1.05,0c0.29,0.289,0.29,0.759,0,1.049c-0.291,0.289-0.76,0.289-1.05,0c0.29,0.289,0.29,0.76,0.001,1.05
	c-0.291,0.29-0.761,0.29-1.051,0c0.29,0.29,0.29,0.76,0,1.05c-0.291,0.291-0.76,0.291-1.05,0c0.29,0.291,0.29,0.762,0,1.051
	c-0.291,0.29-0.76,0.289-1.051-0.001c0.291,0.29,0.291,0.761,0,1.05c-0.29,0.291-0.76,0.291-1.049,0
	c0.289,0.291,0.289,0.761,0,1.051c-0.291,0.29-0.76,0.29-1.051,0c0.291,0.29,0.291,0.761,0.001,1.051
	c-0.29,0.289-0.761,0.289-1.051,0c0.29,0.289,0.29,0.76,0,1.05s-0.759,0.29-1.05,0c0.291,0.29,0.291,0.761,0,1.05
	c-0.29,0.29-0.76,0.289-1.05,0c0.291,0.289,0.291,0.76,0,1.051c-0.29,0.289-0.759,0.289-1.05,0c0.291,0.289,0.291,0.76,0,1.049
	c-0.291,0.291-0.76,0.291-1.049,0c0.29,0.291,0.29,0.76,0,1.049c-0.29,0.291-0.76,0.291-1.051,0c0.291,0.291,0.291,0.762,0,1.052
	s-0.76,0.29-1.05-0.001c0.29,0.291,0.29,0.761,0,1.051c-0.29,0.291-0.76,0.291-1.05,0c0.29,0.291,0.29,0.76,0,1.05
	c-0.29,0.29-0.76,0.29-1.05,0c0.29,0.29,0.29,0.761,0,1.052c-0.29,0.289-0.76,0.289-1.05,0c0.29,0.289,0.29,0.758,0,1.049
	c-0.291,0.29-0.76,0.29-1.049,0c0.29,0.29,0.29,0.761,0,1.051C9.7,89.654,9.23,89.654,8.94,89.363c0.291,0.291,0.291,0.761,0,1.051
	c-0.29,0.291-0.759,0.291-1.049,0c0.29,0.291,0.29,0.76,0,1.051c-0.291,0.289-0.76,0.289-1.05,0l2.17,2.17
	c0.29,0.289,0.76,0.289,1.049,0c0.291-0.29,0.291-0.761,0-1.051c0.291,0.29,0.761,0.29,1.051,0s0.29-0.761,0-1.049
	c0.29,0.288,0.76,0.288,1.051,0c0.29-0.29,0.29-0.762,0-1.051c0.29,0.289,0.759,0.289,1.049,0c0.29-0.291,0.29-0.76,0-1.05
	c0.29,0.29,0.76,0.29,1.05,0c0.291-0.29,0.291-0.761,0-1.051c0.291,0.29,0.76,0.29,1.05,0c0.291-0.289,0.291-0.759,0-1.05
	c0.291,0.291,0.76,0.291,1.05,0c0.291-0.29,0.291-0.76,0-1.051c0.291,0.291,0.76,0.291,1.05,0.002c0.291-0.291,0.29-0.761,0-1.052
	c0.29,0.291,0.761,0.291,1.051,0c0.29-0.29,0.29-0.76,0-1.049c0.29,0.289,0.759,0.289,1.05,0c0.29-0.29,0.29-0.76,0-1.051
	c0.29,0.291,0.76,0.291,1.05,0c0.289-0.29,0.289-0.761,0-1.05c0.289,0.289,0.76,0.291,1.05,0c0.29-0.289,0.29-0.76,0-1.051
	c0.29,0.291,0.759,0.291,1.049,0c0.291-0.289,0.291-0.759,0-1.049c0.291,0.29,0.761,0.29,1.051,0c0.29-0.291,0.29-0.761,0-1.051
	c0.29,0.29,0.76,0.29,1.049,0c0.291-0.289,0.291-0.76,0-1.049c0.291,0.289,0.761,0.289,1.051,0c0.29-0.291,0.29-0.762,0-1.051
	c0.29,0.289,0.76,0.289,1.05,0c0.29-0.289,0.29-0.76,0-1.051c0.29,0.291,0.76,0.291,1.05,0c0.29-0.29,0.29-0.76,0-1.049
	c0.29,0.289,0.761,0.289,1.051,0c0.29-0.29,0.29-0.762-0.001-1.051c0.291,0.289,0.76,0.289,1.05,0c0.29-0.289,0.29-0.76,0-1.05
	c0.29,0.29,0.76,0.29,1.05,0c0.291-0.29,0.291-0.761,0-1.051c0.291,0.29,0.76,0.291,1.05,0.001c0.261-0.26,0.285-0.666,0.079-0.956
	c0.289,0.208,0.693,0.183,0.953-0.077c0.291-0.289,0.291-0.76,0-1.051c0.291,0.291,0.761,0.291,1.051,0.002
	c0.29-0.291,0.29-0.762,0-1.051c0.29,0.289,0.76,0.289,1.05,0c0.291-0.291,0.291-0.76,0-1.051c0.291,0.291,0.76,0.291,1.05,0
	c0.29-0.29,0.29-0.76,0-1.049c0.29,0.289,0.761,0.289,1.05,0c0.291-0.29,0.291-0.762,0-1.051c0.291,0.289,0.76,0.289,1.05,0
	c0.29-0.289,0.29-0.76,0-1.05c0.29,0.29,0.76,0.29,1.051,0c0.289-0.29,0.289-0.761,0-1.051c0.289,0.29,0.759,0.29,1.049,0
	c0.291-0.29,0.291-0.759,0-1.05c0.291,0.291,0.76,0.291,1.05,0c0.291-0.291,0.291-0.76,0-1.049c0.291,0.289,0.76,0.289,1.05,0
	c0.291-0.291,0.291-0.761,0-1.051c0.291,0.29,0.761,0.29,1.05,0c0.291-0.29,0.291-0.761,0-1.051c0.291,0.29,0.76,0.29,1.051,0
	c0.29-0.289,0.29-0.76,0-1.049c0.29,0.289,0.76,0.289,1.05,0c0.289-0.291,0.289-0.762,0-1.051c0.29,0.289,0.76,0.289,1.05,0
	c0.291-0.289,0.291-0.76,0-1.051c0.291,0.291,0.759,0.291,1.049,0c0.291-0.289,0.291-0.76,0-1.049c0.291,0.289,0.761,0.291,1.051,0
	c0.29-0.29,0.29-0.761,0-1.051c0.29,0.29,0.76,0.29,1.05,0c0.291-0.289,0.291-0.76,0-1.05c0.291,0.29,0.761,0.29,1.05,0
	s0.29-0.76,0-1.05c0.29,0.29,0.76,0.29,1.049,0c0.291-0.291,0.291-0.762,0-1.05c0.291,0.289,0.761,0.289,1.051,0
	c0.289-0.291,0.289-0.76,0-1.05c0.289,0.29,0.76,0.29,1.05,0c0.29-0.29,0.29-0.76,0-1.051c0.29,0.291,0.761,0.291,1.05,0
	c0.29-0.29,0.29-0.759,0-1.05l-2.17-2.169C53.314,45.57,53.314,46.041,53.024,46.33z"/>
<linearGradient id="SVGID_1_" gradientUnits="userSpaceOnUse" x1="1252.1699" y1="-144.02" x2="1252.1699" y2="-128.2467" gradientTransform="matrix(0.7071 -0.7071 0.7071 0.7071 -734.4961 1025.9521)">
	<stop  offset="0" style="stop-color:#FFFFFF"/>
	<stop  offset="1" style="stop-color:#3C2415"/>
</linearGradient>
<polygon fill="url(#SVGID_1_)" points="53.068,39.969 51.441,41.596 48.711,38.866 47.608,39.969 58.739,51.099 59.841,49.996 
	57.112,47.267 58.739,45.639 "/>
<path opacity="0.3" fill="#6DBE45" d="M57.4,45.406c0,0,8.485-8.558,8.592-8.592c4.491-3.465,12.063-8.214,12.063-8.214
	s-4.859-0.274-4.877-0.256C90.247,10.378,95.155,9.19,95.155,9.19s-7.999-5.86-15.4,1.54L52.862,40.867L57.4,45.406z"/>
</svg>
