<?xml version="1.0" encoding="utf-8"?>
<!-- Generator: Adobe Illustrator 16.0.0, SVG Export Plug-In . SVG Version: 6.00 Build 0)  -->
<!DOCTYPE svg PUBLIC "-//W3C//DTD SVG 1.1//EN" "http://www.w3.org/Graphics/SVG/1.1/DTD/svg11.dtd">
<svg version="1.1" id="Layer_1" xmlns="http://www.w3.org/2000/svg" xmlns:xlink="http://www.w3.org/1999/xlink" x="0px" y="0px"
	 width="100px" height="100px" viewBox="0 0 100 100" enable-background="new 0 0 100 100" xml:space="preserve">
<path d="M6.798,88.835c-2.765-2.765-1.862-7.521,0.677-10.062c1.491-1.49,3.558-2.203,5.568-1.998l0.77-0.439l1.344-2.447
	l2.357-1.279l1.262-2.398l2.081-0.953c-1.216-2.51-0.308-6.012,2.466-8.785l4.516-4.516c0.701-0.729,1.866-1.279,3.401-1.172
	c8.024-7.86,19.996-21.377,21.043-22.561c0.731-0.955,6.17-7.938,12.738-12.973C71.9,13.981,89.167,6.37,89.898,6.049l5.385-1.327
	l-1.327,5.385c-0.321,0.732-7.93,18-13.2,24.878c-5.035,6.569-12.017,12.007-12.973,12.737c-1.18,1.043-14.586,12.918-22.461,20.941
	c0.149,1.655-0.493,2.883-1.329,3.607l-4.436,4.437c-1.352,1.353-2.984,2.329-4.593,2.751c-1.531,0.402-2.989,0.292-4.191-0.289
	l-0.955,2.084l-2.399,1.262l-1.279,2.355l-2.447,1.346l-0.439,0.768c0.208,2.014-0.507,4.08-1.997,5.57
	c-2.54,2.539-7.297,3.443-10.061,0.678L6.798,88.835z"/>
<path fill="#666766" d="M40.698,69.044c7.619-8.265,25.132-23.705,25.132-23.705s7.375-5.566,12.48-12.228
	C83.416,26.449,91.137,8.87,91.137,8.87s-17.578,7.721-24.241,12.827c-6.662,5.105-12.229,12.482-12.229,12.482
	S39.229,51.69,30.962,59.309L40.698,69.044z"/>
<path opacity="0.7" fill="#FFFFFF" d="M66.896,21.697c-6.662,5.105-12.229,12.482-12.229,12.482S39.229,51.69,30.962,59.309
	l4.905,4.904l55.21-55.208c0.036-0.082,0.06-0.135,0.06-0.135S73.559,16.591,66.896,21.697z"/>
<path opacity="0.3" fill="#EE1C4E" d="M40.698,69.044c7.619-8.265,25.132-23.705,25.132-23.705s7.375-5.566,12.48-12.228
	C83.416,26.449,91.137,8.87,91.137,8.87s-17.578,7.721-24.241,12.827c-6.662,5.105-12.229,12.482-12.229,12.482
	S39.229,51.69,30.962,59.309L40.698,69.044z"/>
<linearGradient id="SVGID_1_" gradientUnits="userSpaceOnUse" x1="-485.4023" y1="403.2363" x2="-468.5977" y2="403.2363" gradientTransform="matrix(0.7071 0.7071 -0.7071 0.7071 655.1641 119.4443)">
	<stop  offset="0" style="stop-color:#808285"/>
	<stop  offset="1" style="stop-color:#000000"/>
</linearGradient>
<path fill="url(#SVGID_1_)" d="M31.021,75.451l0.591,0.591c1.174,1.175,3.756,0.497,5.767-1.513l4.549-4.549
	c0,0,2.073-1.334-4.121-7.527c-6.193-6.193-7.759-4.35-7.759-4.35l-4.548,4.547c-2.01,2.011-2.687,4.59-1.514,5.768L31.021,75.451
	L31.021,75.451z"/>
<polygon fill="#B39C31" points="24.579,69.008 23.021,71.656 21.013,72.574 19.805,74.871 17.423,76.164 16.096,78.58 
	13.559,80.027 20.002,86.471 21.451,83.934 23.866,82.607 25.159,80.225 27.456,79.017 28.375,77.009 31.021,75.451 "/>
<linearGradient id="SVGID_2_" gradientUnits="userSpaceOnUse" x1="-485.4014" y1="429.7793" x2="-468.5975" y2="429.7793" gradientTransform="matrix(0.7071 0.7071 -0.7071 0.7071 655.1641 119.4443)">
	<stop  offset="0" style="stop-color:#808285"/>
	<stop  offset="1" style="stop-color:#000000"/>
</linearGradient>
<path fill="url(#SVGID_2_)" d="M13.559,80.027c-1.29-0.463-2.827-0.154-3.905,0.924c-1.461,1.462-2.067,4.316-0.678,5.706
	l4.399,4.397c1.388,1.389,4.244,0.784,5.706-0.678c1.078-1.078,1.388-2.615,0.922-3.906L13.559,80.027z"/>
<path d="M25.79,81.434l-4.311-8.395l5.977,5.978L25.79,81.434z M22.324,85.765l2.503-2.021l-7.123-7.122L22.324,85.765z"/>
</svg>
