<?xml version="1.0" encoding="utf-8"?>
<!-- Generator: Adobe Illustrator 16.0.0, SVG Export Plug-In . SVG Version: 6.00 Build 0)  -->
<!DOCTYPE svg PUBLIC "-//W3C//DTD SVG 1.1//EN" "http://www.w3.org/Graphics/SVG/1.1/DTD/svg11.dtd">
<svg version="1.1" id="Layer_1" xmlns="http://www.w3.org/2000/svg" xmlns:xlink="http://www.w3.org/1999/xlink" x="0px" y="0px"
	 width="100px" height="100px" viewBox="0 0 100 100" enable-background="new 0 0 100 100" xml:space="preserve">
<path d="M18.312,95.393c-0.408,0-1.677-0.051-3.401-0.604c-0.598,0.199-1.314,0.346-2.126,0.346c-1.406,0-3.534-0.453-5.694-2.613
	c-2.708-2.709-2.766-5.309-2.342-7.005c-0.788-1.97-0.788-3.499-0.723-4.21c0.024-1.412,0.473-7.842,6.345-13.544l0.153-0.149
	c1.936-1.885,3.935-3.83,8.776-5.09c2.151-3.034,4.552-4.571,7.145-4.571c1.263,0,2.476,0.372,3.616,1.105l47.645-46.509
	l17.74-8.187L87.26,22.106l-51.003,52.18c-0.089,0.229-0.183,0.443-0.279,0.644l1.636,3.746l-0.128,0.873
	c-0.806,5.479-5.849,15.844-19.162,15.844H18.312z"/>
<polygon fill="#666766" points="85.115,20.221 32.296,74.257 25.836,67.797 79.906,15.013 92.547,7.579 "/>
<path opacity="0.7" fill="#FFFFFF" d="M27.755,69.716l-1.918-1.919l54.07-52.784l12.641-7.435v0.002L62.436,37.694
	c0,0-1.771-0.886-3.543,0.886L27.755,69.716z M62.436,37.694c0,0,0.885,1.476-1.182,3.542l-31,30.999l0.738,0.738l31-30.704
	C61.992,42.27,64.797,40.055,62.436,37.694z"/>
<path fill="#666766" d="M15.295,91.328c0,0-2.559,2.165-5.708-0.984C6.438,87.195,8.8,84.833,8.8,84.833l7.63-6.937l7.919-8.612
	l6.495,6.495l-8.613,7.918L15.295,91.328z"/>
<polygon opacity="0.3" fill="#EE1C4E" points="85.115,20.221 32.296,74.257 25.836,67.797 79.906,15.013 92.547,7.579 "/>
<linearGradient id="SVGID_1_" gradientUnits="userSpaceOnUse" x1="-524.2617" y1="109.0557" x2="-499.3018" y2="109.0557" gradientTransform="matrix(0.7071 0.7071 -0.7071 0.7071 459.4473 364.7686)">
	<stop  offset="0" style="stop-color:#000000"/>
	<stop  offset="0.5" style="stop-color:#FFFFFF"/>
	<stop  offset="1" style="stop-color:#000000"/>
</linearGradient>
<path fill="url(#SVGID_1_)" d="M34.756,79.1l-2.289-5.24l-6.347-6.348l-4.871-2.215c-4.822,1.082-6.455,2.77-8.415,4.676
	C7.236,75.41,7.423,81.486,7.423,81.486s-0.566,3.076,3.345,6.986c3.912,3.913,7.873,3.84,7.873,3.84
	C32.813,92.313,34.756,79.1,34.756,79.1z M30.402,77.697l-3.322,2.73l1.993-4.354L30.402,77.697z M10.917,77.255
	c0,0,0.295-6.2,8.192-9.521l2.14,0.811C21.249,68.545,15.64,70.464,10.917,77.255z M10.179,83.455
	c1.294-7.617,12.102-13.201,13.901-14.048l0.53,0.53l-4.984,7.218l-8.119,8.366C10.914,84.719,10.503,84.078,10.179,83.455z
	 M23.242,75.704l2.51-3.69l1.403,1.697L23.242,75.704z M14.09,87.662c0,0-0.295-0.201-0.569-0.465l8.171-8.17l4.271-3.258
	l0.748,0.895C26.003,78.429,23.833,83.823,14.09,87.662z M18.55,90.178c-0.791-0.236-1.517-0.545-2.186-0.902
	c9.392-2.851,13.944-8.795,15.367-10.987l0.59,2.066c-1.623,3.247-2.678,4.253-5.021,6.055
	C24.062,88.902,20.347,89.845,18.55,90.178z"/>
<path fill="#A5A4A4" d="M21.546,66.331c-0.018-0.019-0.035-0.036-0.051-0.056c-0.295-0.354-0.142-0.785,0.104-1.176
	c1.275-2.016,4.128-5.771,7.474-3.197c3.838,2.953,4.975,6.894,5.024,9.042c0.055,2.327-1.265,3.731-1.322,3.788
	c-0.32,0.334-0.86,1.809-1.193,1.489c-0.309-0.317-0.331-2.313-0.012-2.646c0.115-0.123,1.158-5.051-3.826-9.755
	c-2.747-2.604-4.911,2.425-5.074,2.562C22.336,66.659,21.848,66.633,21.546,66.331z"/>
</svg>
