<?xml version="1.0" encoding="utf-8"?>
<!-- Generator: Adobe Illustrator 16.0.0, SVG Export Plug-In . SVG Version: 6.00 Build 0)  -->
<!DOCTYPE svg PUBLIC "-//W3C//DTD SVG 1.1//EN" "http://www.w3.org/Graphics/SVG/1.1/DTD/svg11.dtd">
<svg version="1.1" id="Layer_1" xmlns="http://www.w3.org/2000/svg" xmlns:xlink="http://www.w3.org/1999/xlink" x="0px" y="0px"
	 width="100px" height="100px" viewBox="0 0 100 100" enable-background="new 0 0 100 100" xml:space="preserve">
<path d="M92.434,2.513c-30.266,9.068-62.859,47.097-71.039,56.622l-3.245,3.244L3.778,78.229c-1.742,2.084-3.605,7.458,1.816,12.88
	c0.063,0.063,4.077,4.076,4.077,4.076C11.998,97.512,14.38,98,15.97,98c3.788,0,6.444-2.65,6.693-2.909l18.578-18.578l1.719-1.571
	l0.155-1.096c2.383-16.824,16.032-21.781,16.599-21.98l0.116-0.039l0.111-0.048C95.701,36.343,97.709,9.006,97.824,7.71l0.963-6.545
	L92.434,2.513z M23.99,75.776c-1.524,0.693-5.604,2.946-8.17,8.116l-2.191-2.191c-0.559-0.559-0.507-3.566,0.347-6.275l1.694-5.295
	l5.463,0.291l3.967,3.967C24.952,74.746,24.474,75.34,23.99,75.776z"/>
<path fill="#666766" d="M58.721,48.951C93.208,34.065,95.889,4.16,95.889,4.16C65.713,13.2,30.226,53.51,23.158,61.813
	l14.135,14.135l2.772-2.533C42.76,54.385,58.721,48.951,58.721,48.951z"/>
<path opacity="0.7" fill="#FFFFFF" d="M37.293,75.947l2.772-2.533c0.001-0.011,0.004-0.021,0.005-0.033
	c-1.921-2.193-1.938-4.205-1.938-4.205c-1.715-13.893,21.157-26.239,21.157-26.239c21.244-11.179,27.509-27.86,29.346-36.066
	c-28.363,12.52-58.963,47.291-65.477,54.941L37.293,75.947z"/>
<path opacity="0.3" fill="#EE1C4E" d="M58.721,48.951C93.208,34.065,95.889,4.16,95.889,4.16
	C65.713,13.2,30.226,53.51,23.158,61.813l14.135,14.135l2.772-2.533C42.76,54.385,58.721,48.951,58.721,48.951z"/>
<linearGradient id="SVGID_1_" gradientUnits="userSpaceOnUse" x1="-771.2822" y1="331.8115" x2="-751.1201" y2="331.8115" gradientTransform="matrix(0.7071 0.7071 -0.7071 0.7071 792.4492 383.1826)">
	<stop  offset="0" style="stop-color:#FBB040"/>
	<stop  offset="1" style="stop-color:#754C29"/>
</linearGradient>
<path fill="url(#SVGID_1_)" d="M27.309,72.242l-4.833-4.833l-4.747-0.253l5.311-5.311l14.256,14.256L20.484,92.914
	c0,0-4.279,4.45-8.634,0.094c-0.399-0.398-3.957-3.957-4.084-4.083c-4.854-4.854-1.624-8.721-1.624-8.721l4.9-5.717
	c0,0-2.178,6.806,0.408,9.392l2.11,2.11c0,0,2.97,3.677,4.832-0.34c2.586-5.581,7.214-7.214,7.214-7.214
	S30.099,75.031,27.309,72.242z"/>
<path d="M78.805,15.109c-1.232,0.713-30.404,17.803-53.896,48.406l-1.77-1.77L22.1,62.785l14.256,14.256l1.039-1.038l-3.783-3.783
	c2.053-2.187,2.444-5.136,2.81-7.997c0.22-1.719,0.428-3.342,0.974-4.787c1.39-3.68,4.025-7.17,7.833-10.377
	c3.232-2.72,6.646-5.289,9.946-7.773c5.651-4.253,11.496-8.65,16.604-13.945c2.096-2.172,4.759-5.112,6.781-8.599l0.09-0.154
	c0.35-0.598,0.935-1.6,1.271-2.561l0.682-1.959L78.805,15.109z M77.229,17.969c-1.939,3.343-4.523,6.193-6.559,8.302
	c-5.021,5.207-10.816,9.567-16.42,13.783c-3.318,2.497-6.749,5.078-10.013,7.826c-4.012,3.378-6.798,7.082-8.282,11.01
	c-0.61,1.614-0.839,3.404-1.06,5.137c-0.347,2.717-0.688,5.281-2.372,7.103l-6.48-6.479c19.857-25.866,43.871-42.19,51.276-46.835
	L77.229,17.969z"/>
<path opacity="0.6" d="M28.534,67.34c4.5,4.5,6.138,9.322,1.712,11.288l-2.559-2.558c-0.339,0.604-0.782,1.137-1.178,1.544
	l1.84,1.839c-0.806,0.393-1.55,0.831-2.241,1.299l-1.726-1.726c-0.461,0.261-1.022,0.621-1.629,1.093l1.802,1.803
	c-4.253,3.57-5.846,8.038-5.846,8.038s-2.178,4.628-7.827,2.081c0.477,0.477,0.853,0.854,0.967,0.967
	c4.355,4.356,8.634-0.094,8.634-0.094l7.532-7.532l1.361-1.36l1.769-1.771l1.362-1.36l4.788-4.788L28.534,67.34z"/>
</svg>
