<?xml version="1.0" encoding="utf-8"?>
<!-- Generator: Adobe Illustrator 16.0.0, SVG Export Plug-In . SVG Version: 6.00 Build 0)  -->
<!DOCTYPE svg PUBLIC "-//W3C//DTD SVG 1.1//EN" "http://www.w3.org/Graphics/SVG/1.1/DTD/svg11.dtd">
<svg version="1.1" id="Layer_1" xmlns="http://www.w3.org/2000/svg" xmlns:xlink="http://www.w3.org/1999/xlink" x="0px" y="0px"
	 width="100px" height="100px" viewBox="0 0 100 100" enable-background="new 0 0 100 100" xml:space="preserve">
<path d="M1.325,86.189l21.677-21.677l-3.153-3.153l5.5-5.507l3.156,3.157l2.293-2.297l0.177,0.178l45.019-45.066
	c7.645-7.645,17.004-7.004,17.445-7.02l6.283,0.507L39.937,65.851l0.192,0.192l-2.296,2.296l3.154,3.153l-5.5,5.511l-3.157-3.161
	L10.654,95.518L1.325,86.189z"/>
<path fill="#666766" d="M35.442,65.99L94.646,6.785c0,0-9.6,0.341-16.474,7.216L30.838,61.385L35.442,65.99z"/>
<path opacity="0.7" fill="#FFFFFF" d="M78.197,14.025c6.795-6.794,16.339-7.35,16.444-7.246c-1.921-0.096-4.983,0.056-12.149,7.222
	L33.082,63.546L32.952,63.5l-2.114-2.115L78.197,14.025z"/>
<linearGradient id="SVGID_1_" gradientUnits="userSpaceOnUse" x1="1074.2617" y1="-80.2212" x2="1074.2617" y2="-64.2245" gradientTransform="matrix(0.7071 -0.7071 0.7071 0.7071 -687.8486 886.7607)">
	<stop  offset="0" style="stop-color:#939598"/>
	<stop  offset="1" style="stop-color:#000000"/>
</linearGradient>
<polygon fill="url(#SVGID_1_)" points="30.799,61.07 28.506,63.367 25.35,60.21 24.203,61.358 27.358,64.513 5.681,86.189 
	10.654,91.162 32.33,69.484 35.486,72.644 36.634,71.494 33.478,68.339 35.773,66.043 "/>
<rect x="30.515" y="61.188" transform="matrix(-0.7071 0.7071 -0.7071 -0.7071 100.6168 87.7323)" opacity="0.5" fill="#FFFFFF" width="3.247" height="7.033"/>
<rect x="3.678" y="74.321" transform="matrix(0.7071 -0.7071 0.7071 0.7071 -49.4721 36.2366)" opacity="0.5" width="30.656" height="7.032"/>
<path fill="#EE1C4E" d="M26.989,64.531l-1.443,1.44l-0.005-0.011l-1.443,1.445l0.097,0.17l-0.173-0.096l-1.141,1.14l-0.303,0.304
	l-1.14,1.14l0.096,0.173l-0.171-0.097l-1.142,1.138l-0.303,0.305l-1.138,1.139l0.096,0.172l-0.17-0.096l-1.141,1.139l-0.306,0.307
	l-1.137,1.138l0.095,0.173l-0.172-0.096l-1.14,1.14L14.601,76.9l-1.138,1.141l0.095,0.171l-0.171-0.095l-1.14,1.137l-0.304,0.306
	l-1.138,1.14l0.096,0.17l-0.173-0.094l-1.142,1.139l-0.301,0.303l-1.141,1.142l0.096,0.173l-0.172-0.098l-1.442,1.443l3.446,1.928
	l1.926,3.447l1.445-1.445l-0.098-0.169l0.173,0.093l1.142-1.141l0.3-0.305l1.141-1.139l-0.096-0.17l0.173,0.096l1.137-1.141
	l0.305-0.305l1.139-1.137l-0.095-0.173l0.17,0.097l1.14-1.14l0.305-0.304l1.141-1.14l-0.099-0.173l0.173,0.098l1.14-1.143
	l0.303-0.301l1.139-1.14L23.983,78l0.171,0.096l1.14-1.141l0.304-0.303l1.138-1.139l-0.094-0.172l0.172,0.095l1.138-1.138
	l0.306-0.307l1.138-1.139L29.3,72.682l0.172,0.097l1.442-1.442l-0.009-0.007l1.44-1.44L26.989,64.531z M14.272,86.901l-2.757-1.542
	l-1.542-2.754l2.757,1.541L14.272,86.901z M16.932,84.244l-2.759-1.541l-1.54-2.758l2.757,1.541L16.932,84.244z M19.589,81.585
	l-2.757-1.544l-1.541-2.754l2.759,1.54L19.589,81.585z M22.247,78.926l-2.755-1.542l-1.542-2.756l2.759,1.541L22.247,78.926z
	 M24.908,76.268l-2.756-1.541l-1.544-2.758l2.758,1.539L24.908,76.268z M27.566,73.608l-2.757-1.541l-1.542-2.757l2.758,1.541
	L27.566,73.608z M27.468,69.408l-1.531-2.737l4.268,4.267L27.468,69.408z"/>
<path opacity="0.3" fill="#3E53A4" d="M78.197,14.025c6.795-6.794,16.339-7.35,16.444-7.246c-1.921-0.096-4.983,0.056-12.149,7.222
	L33.082,63.546L32.952,63.5l-2.114-2.115L78.197,14.025z"/>
</svg>
