<?xml version="1.0" encoding="utf-8"?>
<!-- Generator: Adobe Illustrator 16.0.0, SVG Export Plug-In . SVG Version: 6.00 Build 0)  -->
<!DOCTYPE svg PUBLIC "-//W3C//DTD SVG 1.1//EN" "http://www.w3.org/Graphics/SVG/1.1/DTD/svg11.dtd">
<svg version="1.1" id="Layer_1" xmlns="http://www.w3.org/2000/svg" xmlns:xlink="http://www.w3.org/1999/xlink" x="0px" y="0px"
	 width="100px" height="100px" viewBox="0 0 100 100" enable-background="new 0 0 100 100" xml:space="preserve">
<polygon points="3.102,88.846 6.921,80.957 10.707,78.313 21.18,67.494 22.2,61.24 29.217,59.176 36.046,52.002 37.963,50.854 
	44.304,44.141 46.339,42.783 52.289,36.587 54.313,35.489 60.238,29.113 62.406,28.12 67.582,22.105 69.967,20.974 74.924,15.186 
	77.215,14.21 81.125,9.149 83.368,8.07 90.063,2.06 98.193,10.188 92.267,16.767 91.09,19.141 86.042,23.038 85.067,25.329 
	79.215,30.336 78.152,32.649 72.12,37.832 71.133,40.001 64.754,45.932 63.652,47.956 57.447,53.898 56.09,55.931 49.364,62.261 
	48.215,64.174 41.095,70.953 38.966,78.023 32.724,79.038 21.907,89.512 19.259,93.297 11.375,97.117 "/>
<linearGradient id="SVGID_1_" gradientUnits="userSpaceOnUse" x1="-680.8301" y1="1005.1631" x2="-664.3623" y2="1005.1631" gradientTransform="matrix(0.7071 0.7071 -0.7071 0.7071 1237.0186 -185.6133)">
	<stop  offset="0" style="stop-color:#FFFFFF"/>
	<stop  offset="1" style="stop-color:#603913"/>
</linearGradient>
<polygon fill="url(#SVGID_1_)" points="93.947,10.299 89.695,15.019 88.645,17.137 83.523,21.092 82.516,23.458 76.698,28.436 
	75.635,30.752 69.6,35.938 68.584,38.164 62.287,44.018 61.176,46.063 55.072,51.908 53.723,53.928 46.942,60.311 45.789,62.23 
	37.881,69.76 38.155,70.033 36.572,75.292 31.276,76.152 19.553,87.506 17.195,90.875 12.004,93.391 6.828,88.217 9.343,83.021 
	12.714,80.667 24.064,68.942 24.928,63.648 30.215,62.093 30.459,62.338 37.988,54.43 39.911,53.277 46.303,46.509 48.329,45.158 
	54.18,39.065 56.225,37.955 62.078,31.658 64.301,30.64 69.491,24.609 71.881,23.476 76.795,17.737 79.162,16.729 83.117,11.608 
	85.1,10.655 89.948,6.301 "/>
<g>
	<polygon opacity="0.5" points="9.343,83.021 6.829,88.216 12.004,93.391 17.195,90.875 19.551,87.508 12.714,80.667 	"/>
	<polygon opacity="0.5" points="30.215,62.093 24.928,63.648 24.064,68.942 31.276,76.152 36.572,75.292 38.155,70.033 
		37.881,69.76 37.881,69.76 	"/>
</g>
<g opacity="0.7">
	<polygon fill="#FDB515" points="55.059,51.961 48.272,45.172 46.303,46.509 46.291,46.524 53.709,53.942 53.723,53.928 	"/>
	<polygon fill="#FDB515" points="82.516,23.458 83.53,21.168 79.082,16.721 76.795,17.737 76.781,17.752 82.5,23.471 	"/>
	<polygon fill="#FDB515" points="88.643,17.088 89.703,15.152 85.155,10.604 85.1,10.655 83.174,11.619 	"/>
	<polygon fill="#FDB515" points="62.022,31.718 68.525,38.22 68.584,38.164 69.602,35.966 64.275,30.638 62.078,31.658 	"/>
	<polygon fill="#FDB515" points="45.789,62.23 46.941,60.352 39.868,53.279 37.988,54.43 37.842,54.584 45.635,62.377 	"/>
	<polygon fill="#FDB515" points="75.633,30.728 76.699,28.462 71.715,23.478 69.514,24.608 	"/>
	<polygon fill="#FDB515" points="54.047,39.203 61.039,46.194 61.176,46.063 62.289,44.111 56.133,37.955 54.18,39.065 	"/>
</g>
</svg>
