<?xml version="1.0" encoding="utf-8"?>
<!-- Generator: Adobe Illustrator 16.0.0, SVG Export Plug-In . SVG Version: 6.00 Build 0)  -->
<!DOCTYPE svg PUBLIC "-//W3C//DTD SVG 1.1//EN" "http://www.w3.org/Graphics/SVG/1.1/DTD/svg11.dtd">
<svg version="1.1" id="Layer_1" xmlns="http://www.w3.org/2000/svg" xmlns:xlink="http://www.w3.org/1999/xlink" x="0px" y="0px"
	 width="100px" height="100px" viewBox="0 0 100 100" enable-background="new 0 0 100 100" xml:space="preserve">
<path d="M9.354,96.416l-5.955,0.723l0.724-5.955L2,89.057l58.467-58.464l-0.893-0.892l0.24-0.24L43.274,18.214l8.022-3.466
	l1.728-3.998l3.998-1.728L60.484,1l11.25,16.542l0.24-0.241l1.707,1.708c2.986-2.626,5.043-4.315,5.148-4.401L98.145,2.511
	L86.035,21.834c-0.092,0.109-1.848,2.227-4.404,5.124l1.32,1.323l-2.078,2.08c2.998,4.709,3.41,7.188,3.523,7.491l1.926,9.047
	l-13.277-8.709l-2.49,2.49l-0.635-0.633L11.452,98.516L9.354,96.416z"/>
<rect x="-3.226" y="58.721" transform="matrix(0.7071 -0.7071 0.7071 0.7071 -32.8882 45.2571)" fill="#87461E" width="82.821" height="7.213"/>
<rect x="-5.373" y="59.565" transform="matrix(0.7071 -0.7071 0.7071 0.7071 -31.9989 43.11)" opacity="0.5" fill="#FFFFFF" width="82.822" height="1.232"/>
<rect x="-1.791" y="62.186" transform="matrix(0.7071 -0.7071 0.7071 0.7071 -33.4829 46.6924)" opacity="0.5" width="82.821" height="3.153"/>
<path fill="#666766" d="M83.453,42.612l-10.629-8.556l-2.27,2.268l-6.623-6.624l0.693-0.694L49.641,18.818l3.998-1.728l1.727-3.998
	l3.998-1.727l1.727-3.998l10.191,14.983l0.693-0.694l1.582,1.584c4.121-3.707,7.227-6.252,7.227-6.252L94.18,6.474L83.662,19.87
	c0,0-2.693,3.252-6.268,7.207l1.203,1.204l-1.73,1.732C80.332,34.38,83.453,42.612,83.453,42.612z M10.472,93.178l0.981,0.982
	l5.38-5.383l-5.098-5.098l-5.381,5.379l1.007,1.008l-0.43,3.541L10.472,93.178z"/>
<path opacity="0.7" fill="#FFFFFF" d="M6.931,93.607l0.425-3.494l1.534,1.535l-1.897,1.953L6.931,93.607z M12.594,84.539
	l-0.859-0.859l-5.381,5.379l0.859,0.861L12.594,84.539z M73.557,23.241c4.123-3.709,7.227-6.252,7.227-6.252L94.18,6.474
	l-18.74,18.672L73.557,23.241z M76.863,30.016c3.074,3.868,5.873,10.771,6.471,12.291c-2.354-3.604-5.531-8.355-7.869-10.849
	C75.465,31.458,76.867,30.013,76.863,30.016z M68.205,25.426l3.076-3.075L61.09,7.368l-1.727,3.998l-3.26,1.408L68.205,25.426z
	 M74.15,29.322l-2.744-2.745v2.744L74.15,29.322z"/>
<path opacity="0.3" fill="#EE1C4E" d="M83.453,42.612l-10.629-8.556l-2.27,2.268l-6.623-6.624l0.693-0.694L49.641,18.818
	l3.998-1.728l1.727-3.998l3.998-1.727l1.727-3.998l10.191,14.983l0.693-0.694l1.582,1.584c4.121-3.707,7.227-6.252,7.227-6.252
	L94.18,6.474L83.662,19.87c0,0-2.693,3.252-6.268,7.207l1.203,1.204l-1.73,1.732C80.332,34.38,83.453,42.612,83.453,42.612z
	 M10.472,93.178l0.981,0.982l5.38-5.383l-5.098-5.098l-5.381,5.379l1.007,1.008l-0.43,3.541L10.472,93.178z"/>
</svg>
