<?xml version="1.0" encoding="utf-8"?>
<!-- Generator: Adobe Illustrator 16.0.0, SVG Export Plug-In . SVG Version: 6.00 Build 0)  -->
<!DOCTYPE svg PUBLIC "-//W3C//DTD SVG 1.1//EN" "http://www.w3.org/Graphics/SVG/1.1/DTD/svg11.dtd">
<svg version="1.1" id="Layer_1" xmlns="http://www.w3.org/2000/svg" xmlns:xlink="http://www.w3.org/1999/xlink" x="0px" y="0px"
	 width="100px" height="100px" viewBox="0 0 100 100" enable-background="new 0 0 100 100" xml:space="preserve">
<path d="M10.636,98.84c-2.454,0-4.76-0.955-6.495-2.69c-3.582-3.581-3.582-9.409,0-12.991c1.45-1.45,3.305-2.354,5.313-2.609
	l20.428-21.353l0.697-3.579l2.291-2.289c-0.714-1.973-0.281-4.271,1.297-5.851c1.056-1.055,2.457-1.635,3.947-1.635
	c0.661,0,1.304,0.114,1.908,0.333l0.168-0.167c-0.219-0.604-0.333-1.248-0.333-1.909c0-1.491,0.581-2.893,1.636-3.946
	c1.052-1.053,2.454-1.634,3.945-1.634c0.661,0,1.305,0.114,1.908,0.333l0.171-0.171c-0.714-1.973-0.281-4.271,1.297-5.85
	c1.056-1.055,2.457-1.635,3.946-1.635c0.662,0,1.305,0.114,1.909,0.333l0.167-0.168c-0.219-0.604-0.332-1.247-0.332-1.909
	c0-1.49,0.58-2.892,1.635-3.945c1.053-1.054,2.453-1.634,3.945-1.634c0.66,0,1.305,0.114,1.908,0.333l0.17-0.171
	c-0.713-1.973-0.279-4.271,1.298-5.849c1.056-1.055,2.456-1.635,3.946-1.635c0.662,0,1.305,0.113,1.908,0.333l0.168-0.168
	c-0.219-0.604-0.332-1.248-0.332-1.909c0-1.49,0.579-2.892,1.633-3.945c1.055-1.054,2.455-1.634,3.946-1.634
	c0.661,0,1.305,0.114,1.907,0.333l0.172-0.171c-0.713-1.973-0.281-4.271,1.298-5.85c1.054-1.055,2.456-1.636,3.946-1.636
	c0.922,0,1.811,0.223,2.604,0.642c0.708-0.143,2.104-0.38,3.591-0.38c2.366,0,4.179,0.613,5.388,1.821l2.467,2.466
	c2.836,2.837,1.905,8.075,1.552,9.613l-0.019,0.082c0.551,1.895,0.082,4.029-1.404,5.515c-1.053,1.054-2.453,1.634-3.943,1.634l0,0
	c-0.371,0-0.736-0.036-1.092-0.106l-0.767,0.767c0.347,1.766-0.161,3.669-1.521,5.029c-1.054,1.054-2.454,1.634-3.942,1.634
	c-0.371,0-0.736-0.036-1.094-0.107l-0.766,0.766c0.348,1.766-0.16,3.67-1.521,5.03c-1.052,1.054-2.452,1.633-3.942,1.633
	c-0.37,0-0.735-0.036-1.093-0.106L75.783,38.6c0.348,1.767-0.16,3.67-1.521,5.031c-1.053,1.053-2.453,1.634-3.943,1.634
	c-0.371,0-0.736-0.036-1.092-0.106l-0.766,0.765c0.347,1.767-0.162,3.67-1.522,5.031c-1.053,1.054-2.454,1.634-3.943,1.634
	c-0.37,0-0.736-0.036-1.092-0.107l-0.766,0.766c0.347,1.766-0.161,3.67-1.521,5.03c-1.056,1.056-2.457,1.635-3.945,1.635
	c-0.371,0-0.736-0.036-1.093-0.106l-0.765,0.766c0.347,1.766-0.162,3.67-1.522,5.03c-1.053,1.054-2.454,1.634-3.943,1.634
	c-0.371,0-0.736-0.036-1.092-0.106l-2.587,2.587l-3.595,0.684L19.744,90.803c-0.254,2.01-1.168,3.902-2.612,5.346
	C15.396,97.885,13.089,98.84,10.636,98.84z"/>
<linearGradient id="SVGID_1_" gradientUnits="userSpaceOnUse" x1="-307.3545" y1="837.8105" x2="-293.583" y2="837.8105" gradientTransform="matrix(0.7071 0.7071 -0.7071 0.7071 854.4336 -329.2188)">
	<stop  offset="0" style="stop-color:#FFFFFF"/>
	<stop  offset="1" style="stop-color:#603913"/>
</linearGradient>
<path fill="url(#SVGID_1_)" d="M43.163,66.866l51.49-51.489c0,0,1.123-4.895-0.729-6.746l-2.468-2.467
	c-1.696-1.697-6.543-0.523-6.543-0.523l-51.49,51.49l-0.69,3.541L10.839,83.557c-1.63-0.053-3.276,0.536-4.52,1.779
	c-2.384,2.384-2.384,6.252,0,8.636c2.385,2.386,6.251,2.384,8.636-0.001c1.251-1.251,1.839-2.91,1.777-4.55l22.872-21.878
	L43.163,66.866z"/>
<path opacity="0.5" d="M14.955,93.971c-2.385,2.385-6.25,2.387-8.636,0.001c-2.384-2.384-2.384-6.252,0-8.636
	c1.244-1.243,2.891-1.839,4.52-1.784c0,0.005-0.978,1.626,1.648,4.253c2.362,2.361,4.245,1.616,4.25,1.616
	C16.8,91.061,16.207,92.719,14.955,93.971z M39.8,67.506l3.362-0.64l-2.97-1.735l-5.04-5.039l-1.728-2.963l-0.001,0.002
	l-0.653,3.346L39.8,67.506z"/>
<path fill="#666766" d="M83.82,9.251c-0.977,0.976-2.56,0.976-3.535,0c-0.977-0.977-0.977-2.56,0-3.536
	c0.976-0.976,2.559-0.976,3.535,0S84.797,8.274,83.82,9.251z M76.497,13.04c-0.976-0.976-2.56-0.976-3.536,0
	c-0.976,0.976-0.976,2.56,0,3.536c0.977,0.976,2.56,0.976,3.536,0C77.473,15.599,77.473,14.015,76.497,13.04z M69.175,20.362
	c-0.978-0.976-2.56-0.976-3.536,0c-0.976,0.976-0.976,2.559,0,3.536c0.976,0.975,2.559,0.975,3.535,0
	C70.15,22.921,70.15,21.338,69.175,20.362z M61.852,27.686c-0.977-0.977-2.56-0.977-3.535-0.001c-0.977,0.977-0.977,2.561,0,3.537
	c0.976,0.975,2.559,0.975,3.535-0.001C62.828,30.245,62.828,28.661,61.852,27.686z M54.528,35.008c-0.976-0.976-2.56-0.976-3.536,0
	c-0.975,0.976-0.975,2.56,0.001,3.536s2.56,0.976,3.534,0C55.505,37.567,55.504,35.984,54.528,35.008z M47.206,42.332
	c-0.976-0.977-2.56-0.977-3.536,0c-0.977,0.976-0.977,2.56,0,3.536c0.975,0.975,2.559,0.975,3.535-0.001
	S48.181,43.307,47.206,42.332z M39.882,49.655c-0.976-0.976-2.56-0.976-3.537,0c-0.975,0.976-0.975,2.56,0.001,3.536
	c0.975,0.976,2.559,0.976,3.535,0C40.858,52.213,40.858,50.63,39.882,49.655z M94.053,15.948c-0.976-0.976-2.559-0.976-3.535,0.001
	c-0.977,0.976-0.977,2.56,0,3.535c0.977,0.977,2.56,0.976,3.535,0C95.029,18.508,95.029,16.925,94.053,15.948z M86.729,23.271
	c-0.975-0.975-2.559-0.975-3.533,0c-0.977,0.977-0.977,2.56-0.001,3.536c0.977,0.977,2.56,0.976,3.536,0
	C87.706,25.831,87.706,24.249,86.729,23.271z M79.406,30.595c-0.975-0.976-2.559-0.976-3.535,0.001
	c-0.976,0.975-0.976,2.559,0,3.534c0.977,0.977,2.561,0.977,3.535,0C80.383,33.154,80.383,31.572,79.406,30.595z M72.084,37.917
	c-0.977-0.976-2.56-0.976-3.535,0c-0.977,0.977-0.977,2.56,0,3.536c0.976,0.977,2.559,0.977,3.535,0
	C73.061,40.477,73.061,38.894,72.084,37.917z M64.761,45.241c-0.976-0.976-2.56-0.976-3.536,0c-0.975,0.976-0.975,2.559,0,3.535
	c0.977,0.976,2.561,0.976,3.536,0C65.737,47.799,65.737,46.217,64.761,45.241z M57.438,52.563c-0.975-0.975-2.559-0.975-3.535,0.002
	c-0.977,0.976-0.977,2.559,0,3.535s2.559,0.977,3.535,0S58.415,53.54,57.438,52.563z M50.115,59.887
	c-0.976-0.976-2.56-0.976-3.537,0.001c-0.976,0.976-0.976,2.56,0,3.535c0.977,0.976,2.56,0.976,3.536,0
	C51.091,62.446,51.091,60.863,50.115,59.887z M87.752,12.019c-1.189-1.189-3.119-1.19-4.309-0.001c-1.189,1.189-1.188,3.12,0,4.31
	c1.189,1.188,3.119,1.188,4.309-0.001C88.941,15.137,88.941,13.208,87.752,12.019z M80.348,19.422
	c-1.189-1.189-3.119-1.19-4.308-0.001c-1.189,1.19-1.189,3.119,0,4.309c1.188,1.189,3.119,1.188,4.308-0.001
	C81.537,22.541,81.537,20.612,80.348,19.422z M72.945,26.825c-1.189-1.189-3.12-1.189-4.31,0c-1.19,1.19-1.188,3.119,0.001,4.308
	s3.118,1.19,4.308,0C74.134,29.944,74.134,28.015,72.945,26.825z M65.541,34.23c-1.189-1.19-3.119-1.19-4.309-0.001
	c-1.19,1.189-1.188,3.119,0,4.309c1.189,1.189,3.119,1.19,4.309,0C66.73,37.348,66.73,35.418,65.541,34.23z M58.137,41.633
	c-1.189-1.189-3.119-1.19-4.31,0c-1.188,1.189-1.188,3.119,0.001,4.308s3.119,1.189,4.309,0.001
	C59.326,44.752,59.326,42.823,58.137,41.633z M50.732,49.038c-1.189-1.189-3.119-1.19-4.308-0.001c-1.189,1.189-1.189,3.119,0,4.309
	s3.119,1.189,4.308,0C51.922,52.156,51.922,50.227,50.732,49.038z M43.124,56.646c-1.19-1.189-3.119-1.189-4.309,0
	c-1.189,1.189-1.188,3.119,0.001,4.309s3.118,1.189,4.308,0C44.313,59.765,44.313,57.836,43.124,56.646z"/>
</svg>
