<?xml version="1.0" encoding="utf-8"?>
<!-- Generator: Adobe Illustrator 16.0.0, SVG Export Plug-In . SVG Version: 6.00 Build 0)  -->
<!DOCTYPE svg PUBLIC "-//W3C//DTD SVG 1.1//EN" "http://www.w3.org/Graphics/SVG/1.1/DTD/svg11.dtd">
<svg version="1.1" id="Layer_1" xmlns="http://www.w3.org/2000/svg" xmlns:xlink="http://www.w3.org/1999/xlink" x="0px" y="0px"
	 width="100px" height="100px" viewBox="0 0 100 100" enable-background="new 0 0 100 100" xml:space="preserve">
<path d="M50,86.857c-20.324,0-36.858-16.533-36.858-36.857c0-20.323,16.534-36.857,36.858-36.857
	c20.323,0,36.857,16.534,36.857,36.857C86.857,70.324,70.323,86.857,50,86.857z"/>
<radialGradient id="SVGID_1_" cx="46.1499" cy="44.6099" r="33.7774" gradientUnits="userSpaceOnUse">
	<stop  offset="0" style="stop-color:#FFFFFF"/>
	<stop  offset="1" style="stop-color:#58595B"/>
</radialGradient>
<circle fill="url(#SVGID_1_)" cx="50" cy="50" r="33.778"/>
<path opacity="0.7" d="M28.611,50c0,1.746-1.416,3.161-3.161,3.161c-1.746,0-3.161-1.415-3.161-3.161
	c0-1.745,1.415-3.161,3.161-3.161C27.195,46.839,28.611,48.255,28.611,50z M75.321,46.839c-1.745,0-3.161,1.416-3.161,3.161
	c0,1.746,1.416,3.161,3.161,3.161c1.746,0,3.161-1.415,3.161-3.161C78.482,48.255,77.067,46.839,75.321,46.839z M53.547,25.064
	c0-1.746-1.415-3.161-3.162-3.161c-1.745,0-3.16,1.415-3.16,3.161s1.415,3.161,3.16,3.161C52.132,28.225,53.547,26.81,53.547,25.064
	z M53.547,74.937c0-1.746-1.415-3.161-3.162-3.161c-1.745,0-3.16,1.415-3.16,3.161c0,1.745,1.415,3.161,3.16,3.161
	C52.132,78.098,53.547,76.682,53.547,74.937z M34.988,30.133c-1.234-1.234-3.235-1.234-4.471,0c-1.234,1.234-1.234,3.235,0,4.47
	c1.235,1.235,3.236,1.235,4.471,0S36.222,31.367,34.988,30.133z M70.252,65.396c-1.233-1.232-3.236-1.232-4.469,0
	c-1.235,1.236-1.235,3.236,0,4.472c1.232,1.235,3.235,1.235,4.469,0C71.486,68.633,71.486,66.633,70.252,65.396z M70.252,34.603
	c1.234-1.235,1.234-3.236,0-4.47c-1.234-1.234-3.235-1.234-4.469,0c-1.235,1.234-1.235,3.235,0,4.47
	C67.017,35.838,69.018,35.838,70.252,34.603z M34.988,69.867c1.234-1.234,1.234-3.234,0-4.469c-1.235-1.234-3.235-1.234-4.471-0.002
	c-1.234,1.236-1.234,3.236,0,4.472C31.752,71.104,33.752,71.104,34.988,69.867z"/>
<circle opacity="0.7" fill="#FFFFFF" cx="50" cy="50" r="18.174"/>
<radialGradient id="SVGID_2_" cx="47.8857" cy="47.5342" r="16.6889" gradientUnits="userSpaceOnUse">
	<stop  offset="0" style="stop-color:#FFFFFF"/>
	<stop  offset="1" style="stop-color:#58595B"/>
</radialGradient>
<circle fill="url(#SVGID_2_)" cx="50" cy="50" r="16.689"/>
</svg>
