<?xml version="1.0" encoding="utf-8"?>
<!-- Generator: Adobe Illustrator 16.0.0, SVG Export Plug-In . SVG Version: 6.00 Build 0)  -->
<!DOCTYPE svg PUBLIC "-//W3C//DTD SVG 1.1//EN" "http://www.w3.org/Graphics/SVG/1.1/DTD/svg11.dtd">
<svg version="1.1" id="Layer_1" xmlns="http://www.w3.org/2000/svg" xmlns:xlink="http://www.w3.org/1999/xlink" x="0px" y="0px"
	 width="100px" height="100px" viewBox="0 0 100 100" enable-background="new 0 0 100 100" xml:space="preserve">
<path d="M50.072,88.447c-21.33,0-38.684-17.354-38.684-38.685c0-21.331,17.354-38.684,38.684-38.684s38.684,17.354,38.684,38.684
	C88.756,71.094,71.402,88.447,50.072,88.447z"/>
<radialGradient id="SVGID_1_" cx="45.9883" cy="44.0449" r="35.831" gradientUnits="userSpaceOnUse">
	<stop  offset="0" style="stop-color:#FFFFFF"/>
	<stop  offset="1" style="stop-color:#000000"/>
</radialGradient>
<circle fill="url(#SVGID_1_)" cx="50.073" cy="49.763" r="35.831"/>
<path opacity="0.7" fill="#FFFFFF" d="M50.072,14.158c-19.632,0-35.604,15.972-35.604,35.604S30.44,85.367,50.072,85.367
	c19.633,0,35.604-15.972,35.604-35.604S69.705,14.158,50.072,14.158z M69.049,77.707l-0.563-0.977l-4.501,2.6l0.555,0.959
	c-3.684,1.75-7.735,2.844-12.006,3.152v-1.117h-5.197l0,1.096c-4.265-0.342-8.309-1.468-11.98-3.248l0.566-0.98l-4.501-2.598
	l-0.549,0.953c-3.428-2.375-6.398-5.361-8.745-8.811l0.976-0.563l-2.599-4.502l-0.959,0.555c-1.749-3.684-2.844-7.734-3.152-12.005
	h1.117v-5.198l-1.095,0.001c0.342-4.265,1.469-8.309,3.249-11.979l0.979,0.565l2.599-4.501l-0.952-0.549
	c2.373-3.428,5.36-6.397,8.808-8.744l0.563,0.976l4.501-2.599l-0.554-0.958c3.684-1.749,7.734-2.843,12.004-3.151V17.2h5.198v-1.095
	c4.264,0.342,8.307,1.468,11.978,3.247l-0.566,0.979l4.501,2.599l0.551-0.952c3.428,2.373,6.397,5.36,8.744,8.808l-0.976,0.563
	l2.599,4.501l0.959-0.554c1.748,3.683,2.844,7.735,3.15,12.004h-1.115v5.197h1.096c-0.342,4.266-1.468,8.309-3.248,11.979
	l-0.979-0.565l-2.599,4.501l0.953,0.551C75.484,72.391,72.497,75.36,69.049,77.707z M74.832,57.949
	c0.854-2.578,1.326-5.329,1.326-8.19c0-2.859-0.472-5.61-1.326-8.187c0.575-0.036,1.155-0.057,1.744-0.057l2.115,0.227
	c-2.823-9.24-10.781-17.71-20.534-20.534l0.365,2.657c0,0.407-0.017,0.807-0.034,1.206c-2.646-0.906-5.478-1.405-8.426-1.405
	c-2.95,0-5.783,0.5-8.429,1.406c-0.018-0.399-0.034-0.799-0.034-1.207l0.388-2.657c-10.78,3.465-17.325,10.523-20.405,20.534
	l1.964-0.227c0.589,0,1.168,0.021,1.743,0.057c-0.854,2.577-1.325,5.328-1.325,8.187c0,2.861,0.471,5.612,1.325,8.19
	c-0.574,0.035-1.154,0.057-1.743,0.057l-2.092-0.607c3.208,10.65,11.421,18.479,20.661,20.789l-0.517-2.532
	c0-0.407,0.017-0.806,0.034-1.205c2.646,0.905,5.479,1.405,8.429,1.405c2.948,0,5.78-0.5,8.426-1.404
	c0.018,0.398,0.034,0.797,0.034,1.204l-0.365,2.661c9.368-2.566,16.94-10.268,20.276-20.406l-1.857,0.096
	C75.987,58.006,75.407,57.984,74.832,57.949z M75.66,39.987c-5.627,0.16-10.451,1.791-13.365,4.243
	c-0.548-1.208-1.27-2.318-2.133-3.303l9.792-9.793C72.506,33.828,74.406,36.484,75.66,39.987z M62.9,45.796
	c2.181-2.027,5.941-3.555,10.338-4.079c0.879,2.521,1.361,5.226,1.361,8.042c0,2.818-0.482,5.522-1.361,8.046
	c-4.395-0.523-8.156-2.051-10.337-4.078c0.386-1.254,0.597-2.584,0.597-3.965C63.498,48.381,63.287,47.05,62.9,45.796z
	 M50.074,60.334c-5.84,0-10.573-4.732-10.573-10.572c0-5.838,4.732-10.57,10.573-10.57c5.836,0,10.57,4.732,10.57,10.57
	C60.645,55.602,55.91,60.334,50.074,60.334z M60.045,24.473c3.545,1.233,6.098,3.015,8.818,5.576l-9.781,9.782
	c-0.961-0.873-2.049-1.605-3.233-2.173C58.314,34.743,59.934,29.99,60.045,24.473z M50.063,25.223c2.917,0,5.714,0.514,8.311,1.452
	c-0.455,4.412-1.959,8.162-4.023,10.372c-1.345-0.452-2.779-0.708-4.275-0.708c-1.795,0-3.504,0.358-5.069,0.998
	c0.252-0.104,0.508-0.201,0.769-0.289c-2.065-2.208-3.57-5.959-4.025-10.372C44.347,25.737,47.146,25.223,50.063,25.223z
	 M40.07,24.241c0.071,5.618,1.701,10.466,4.203,13.421c0.075-0.035,0.151-0.066,0.226-0.101c-1.265,0.58-2.422,1.349-3.439,2.274
	c0.061-0.055,0.113-0.118,0.175-0.172l-9.796-9.796C34.073,27.369,36.675,25.495,40.07,24.241z M24.696,39.998
	c1.234-3.662,3.041-6.262,5.655-9.039l9.784,9.785c0.043-0.047,0.093-0.087,0.136-0.134c-1.05,1.124-1.916,2.419-2.533,3.852
	c0.033-0.074,0.061-0.149,0.094-0.223C34.961,41.817,30.228,40.195,24.696,39.998z M37.673,44.618
	c-0.659,1.584-1.026,3.321-1.026,5.144c0,1.811,0.363,3.533,1.012,5.109c-0.159-0.377-0.308-0.758-0.429-1.152
	c-2.179,2.031-5.946,3.561-10.346,4.086c-0.877-2.523-1.363-5.228-1.363-8.046c0-2.816,0.484-5.521,1.362-8.043
	c4.4,0.525,8.167,2.055,10.347,4.086C37.355,45.396,37.509,45.004,37.673,44.618z M24.464,59.533
	c5.63-0.16,10.458-1.794,13.371-4.248c-0.027-0.061-0.051-0.123-0.078-0.184c0.58,1.336,1.378,2.553,2.339,3.621
	c-0.042-0.047-0.09-0.086-0.132-0.134l-9.795,9.796C27.619,65.691,25.716,63.036,24.464,59.533z M40.077,75.045
	c-3.543-1.232-6.098-3.015-8.817-5.574l9.785-9.785c-0.028-0.025-0.051-0.055-0.079-0.08c1.003,0.928,2.147,1.703,3.398,2.293
	c-0.028-0.014-0.059-0.025-0.088-0.039C41.809,64.773,40.189,69.527,40.077,75.045z M50.063,74.298
	c-2.917,0-5.716-0.513-8.314-1.452c0.456-4.412,1.959-8.164,4.025-10.373c-0.096-0.032-0.188-0.071-0.283-0.105
	c1.432,0.521,2.971,0.819,4.583,0.819c1.498,0,2.934-0.256,4.278-0.708c2.063,2.209,3.565,5.958,4.021,10.368
	C55.776,73.785,52.979,74.298,50.063,74.298z M60.053,75.279c-0.071-5.613-1.699-10.459-4.199-13.414
	c1.106-0.531,2.129-1.203,3.043-2.002l9.789,9.789C66.05,72.15,63.447,74.024,60.053,75.279z M69.771,68.561l-9.777-9.777
	c0.939-1.031,1.72-2.207,2.303-3.494c2.874,2.416,7.604,4.036,13.13,4.234C74.191,63.184,72.387,65.783,69.771,68.561z"/>
<circle opacity="0.5" fill="#ED1C24" cx="50.073" cy="49.763" r="7.7"/>
</svg>
