<?xml version="1.0" encoding="utf-8"?>
<!-- Generator: Adobe Illustrator 16.0.0, SVG Export Plug-In . SVG Version: 6.00 Build 0)  -->
<!DOCTYPE svg PUBLIC "-//W3C//DTD SVG 1.1//EN" "http://www.w3.org/Graphics/SVG/1.1/DTD/svg11.dtd">
<svg version="1.1" id="Layer_1" xmlns="http://www.w3.org/2000/svg" xmlns:xlink="http://www.w3.org/1999/xlink" x="0px" y="0px"
	 width="100px" height="100px" viewBox="0 0 100 100" enable-background="new 0 0 100 100" xml:space="preserve">
<path d="M7.796,97.775c-0.338,0-0.672-0.051-0.993-0.148l-3.291-1.012l1.371-3.159c0.821-1.893,2.845-7.142,3.315-10.753
	c-0.959-1.138-1.247-2.678-0.761-4.076c-0.334-0.958-0.314-2.021,0.096-2.999c-0.218-0.836-0.173-1.735,0.158-2.578
	c-0.165-0.75-0.12-1.544,0.149-2.298c-0.194-0.826-0.135-1.707,0.196-2.527c0.04-0.098,0.083-0.193,0.129-0.285
	c-0.111-0.74-0.022-1.514,0.281-2.239c0.028-0.067,0.059-0.134,0.09-0.199c-0.188-0.897-0.081-1.858,0.349-2.725
	c0.021-0.041,0.042-0.083,0.063-0.123c-0.124-0.902,0.045-1.842,0.526-2.667c0.067-0.117,0.14-0.229,0.217-0.339
	c0.014-0.687,0.198-1.378,0.559-2.004c0.107-0.185,0.227-0.358,0.358-0.521c-0.026-0.856,0.208-1.726,0.716-2.478
	c0.104-0.154,0.218-0.299,0.34-0.436c0.057-0.809,0.348-1.606,0.878-2.285c0.094-0.119,0.194-0.234,0.299-0.342
	c0.065-0.89,0.414-1.765,1.05-2.478c0.298-0.333,0.645-0.613,1.022-0.833c0.212-0.858,0.694-1.656,1.433-2.252
	c0.302-0.245,0.637-0.446,0.994-0.598c0.332-0.787,0.896-1.454,1.636-1.916c0.42-0.262,0.878-0.446,1.354-0.546
	c0.383-0.487,0.878-0.896,1.471-1.181c0.571-0.272,1.194-0.414,1.812-0.414c0.146,0,0.29,0.008,0.434,0.023
	c0.282-0.196,0.592-0.358,0.927-0.482c0.466-0.173,0.957-0.261,1.455-0.261c0.306,0,0.606,0.034,0.898,0.099l-2.359-2.358
	c-1.476-1.475-2.178-3.531-1.995-5.555l-1.641-1.635l10.239-10.239l1.51,1.506c0.315-0.042,0.634-0.065,0.952-0.065
	c1.851,0,3.59,0.719,4.896,2.024l2.175,2.175c-0.096-0.675-0.028-1.376,0.218-2.039c0.122-0.332,0.284-0.641,0.48-0.923
	c-0.079-0.752,0.045-1.527,0.385-2.239c0.282-0.583,0.689-1.083,1.181-1.472c0.1-0.472,0.284-0.935,0.555-1.365
	c0.463-0.742,1.133-1.306,1.913-1.634c0.149-0.35,0.349-0.685,0.599-0.994c0.583-0.722,1.375-1.22,2.253-1.435
	c0.213-0.367,0.485-0.708,0.817-1.007c0.705-0.631,1.582-1.004,2.506-1.076c0.104-0.1,0.214-0.196,0.33-0.288
	c0.654-0.511,1.455-0.818,2.283-0.878c0.133-0.118,0.274-0.229,0.424-0.331c0.705-0.478,1.518-0.727,2.357-0.727
	c0.043,0,0.087,0.001,0.131,0.002c0.158-0.127,0.33-0.244,0.51-0.349c0.619-0.357,1.312-0.55,2.016-0.565
	c0.113-0.08,0.229-0.155,0.352-0.226c0.629-0.364,1.354-0.56,2.09-0.56c0.191,0,0.381,0.014,0.568,0.039
	c0.043-0.021,0.084-0.043,0.127-0.065c0.571-0.282,1.213-0.432,1.852-0.432c0.295,0,0.584,0.03,0.865,0.089
	c0.063-0.031,0.129-0.06,0.194-0.088c0.514-0.217,1.06-0.327,1.621-0.327c0.21,0,0.417,0.015,0.62,0.045
	c0.094-0.046,0.19-0.09,0.29-0.13c0.497-0.203,1.03-0.308,1.576-0.308c0.326,0,0.646,0.038,0.953,0.108
	c0.446-0.159,0.916-0.24,1.397-0.24c0.303,0,0.601,0.033,0.889,0.095c0.475-0.189,0.996-0.29,1.531-0.29
	c0.36,0,0.713,0.046,1.051,0.133c0.516-0.219,1.064-0.33,1.628-0.33c0.476,0,0.938,0.081,1.372,0.231
	c0.439-0.153,0.9-0.231,1.371-0.231c1.015,0,1.965,0.362,2.705,0.988c3.655-0.48,8.869-2.494,10.753-3.313l3.151-1.371l1.019,3.282
	c0.745,2.402-1.244,4.232-3.184,5.497L61.109,45.619l15.083,15.084l2.337-2.336l6.354,6.352L65.104,84.498l-6.356-6.352l2.369-2.369
	L46.034,60.693l-33.792,33.79C10.688,96.827,9.373,97.775,7.796,97.775z M19.231,75.717c0.05,0.573-0.02,1.152-0.209,1.706
	l22.221-22.22l-0.258-0.259l2.705-2.705l-1.289-1.289c-1.841,1.264-3.928,1.996-6.929,1.996c-0.365,0-0.747-0.011-1.148-0.033
	c-0.21-0.012-0.417-0.02-0.621-0.022c-0.462,0.465-1.036,0.826-1.69,1.033c-0.353,0.113-0.714,0.178-1.08,0.195
	c-0.273,0.186-0.573,0.341-0.896,0.461c-0.285,0.105-0.581,0.18-0.883,0.221c-0.218,0.18-0.458,0.34-0.716,0.476
	c-0.321,0.503-0.752,0.941-1.283,1.275c-0.017,0.011-0.035,0.022-0.053,0.032c-0.265,0.529-0.643,1-1.117,1.381
	c-0.024,0.02-0.048,0.039-0.073,0.058c-0.176,0.421-0.424,0.819-0.744,1.177c-0.168,0.187-0.353,0.357-0.549,0.51
	c-0.146,0.412-0.358,0.807-0.641,1.17c-0.081,0.102-0.166,0.199-0.254,0.293c-0.113,0.503-0.319,0.986-0.616,1.428
	c-0.142,0.207-0.299,0.399-0.469,0.576c-0.083,0.455-0.245,0.906-0.489,1.331c-0.069,0.118-0.144,0.233-0.224,0.345
	c-0.014,0.707-0.208,1.401-0.574,2.027c-0.051,0.089-0.105,0.176-0.162,0.26c-0.041,0.512-0.176,1.021-0.413,1.504
	c-0.068,0.137-0.142,0.269-0.223,0.396c-0.002,0.539-0.111,1.078-0.325,1.592c-0.05,0.118-0.104,0.233-0.163,0.345
	c0.077,0.675-0.01,1.377-0.284,2.047c-0.035,0.084-0.071,0.168-0.111,0.248c0.094,0.744-0.015,1.502-0.325,2.205
	C19.311,75.557,19.273,75.637,19.231,75.717z M52.621,43.307l2.897-2.898l0.259,0.259l22.064-22.063
	c-0.438,0.149-0.889,0.224-1.35,0.224c-0.118,0-0.236-0.005-0.354-0.015c-0.084,0.043-0.168,0.084-0.256,0.122
	c-0.535,0.234-1.099,0.351-1.678,0.351c-0.174,0-0.346-0.01-0.518-0.032c-0.078,0.039-0.16,0.075-0.242,0.109
	c-0.513,0.21-1.048,0.315-1.596,0.315c-0.154,0-0.31-0.009-0.463-0.026c-0.106,0.057-0.217,0.109-0.33,0.157
	c-0.513,0.215-1.049,0.324-1.599,0.327c-0.126,0.08-0.259,0.154-0.396,0.222c-0.47,0.232-0.988,0.375-1.514,0.418
	c-0.09,0.062-0.184,0.121-0.279,0.175c-0.598,0.347-1.291,0.541-1.997,0.556c-0.112,0.081-0.229,0.156-0.351,0.226
	c-0.412,0.238-0.863,0.403-1.33,0.49c-0.176,0.169-0.369,0.326-0.58,0.468c-0.43,0.292-0.91,0.499-1.418,0.613
	c-0.094,0.089-0.193,0.175-0.299,0.257c-0.352,0.276-0.748,0.493-1.168,0.643c-0.153,0.196-0.326,0.381-0.52,0.553
	c-0.346,0.313-0.742,0.562-1.17,0.74c-0.02,0.024-0.037,0.048-0.057,0.072c-0.382,0.474-0.854,0.852-1.381,1.117
	c-0.011,0.017-0.021,0.033-0.031,0.05c-0.334,0.534-0.773,0.975-1.285,1.302c-0.131,0.248-0.287,0.479-0.461,0.691
	c-0.042,0.296-0.115,0.593-0.223,0.886c-0.119,0.322-0.276,0.622-0.464,0.897c-0.017,0.362-0.081,0.726-0.194,1.081
	c-0.211,0.659-0.57,1.237-1.035,1.7c0.004,0.203,0.011,0.408,0.023,0.615c0.202,3.65-0.537,6.023-1.99,8.118L52.621,43.307z"/>
<path fill="#666766" d="M34.496,49.838c-3.95-0.221-7.014,0.718-9.364,2.873c-6.363,5.828-9.949,16.754-10.245,26.06
	c-0.188,5.778-5.782,16.343-7.178,15.912c0,0,3.505-8.064,3.664-12.988c0.352-11.042,0.837-26.169,9.264-33.891
	c3.693-3.379,6.912-3.363,12.661-3.042c4.584,0.257,6.82-1.794,8.454-3.427c1.636-1.634,3.683-3.869,3.426-8.454
	c-0.32-5.75-0.338-8.968,3.043-12.661c7.721-8.429,22.847-8.913,33.891-9.266c4.922-0.157,12.985-3.665,12.985-3.665
	c0.433,1.397-10.133,6.996-15.911,7.178c-9.303,0.297-20.23,3.885-26.057,10.248c-2.155,2.353-3.095,5.416-2.875,9.363
	c0.3,5.376-1.792,6.821-5.367,10.394C41.315,48.046,39.873,50.138,34.496,49.838z M78.529,62.723l-3.4,3.398l-2.212,0.01
	L54.84,48.055l-6.403,6.404l18.13,18.132l0.09,2.005l-3.551,3.55l1.998,1.997L80.527,64.72L78.529,62.723z M37.587,41.78
	c-1.084,0.785-2.605,0.698-3.579-0.279l-6.079-6.079c-0.73-0.729-0.955-1.763-0.7-2.693l2.775,2.778l5.883-5.884l-2.867-2.865
	c0.991-0.375,2.151-0.169,2.948,0.626l6.078,6.079c1.029,1.031,1.066,2.669,0.133,3.758l0.783,0.783
	c1.364-1.521,1.33-3.863-0.132-5.326l-6.08-6.079c-1.232-1.231-3.087-1.443-4.554-0.667l-0.625-0.623l-5.882,5.882l0.675,0.673
	c-0.646,1.431-0.395,3.169,0.779,4.342l6.08,6.078c1.406,1.407,3.624,1.488,5.146,0.28L37.587,41.78z"/>
<path fill="#A76928" d="M44.205,29.413c-0.283-0.283-0.402-0.711-0.272-1.122c0.184-0.584,0.809-0.907,1.393-0.719l5.36,1.696
	c0.582,0.184,0.907,0.808,0.721,1.394c-0.186,0.583-0.809,0.906-1.394,0.721l-5.36-1.699C44.479,29.629,44.326,29.534,44.205,29.413
	z M44.865,27.051l5.815,2.157c0.576,0.214,1.214-0.078,1.429-0.654c0.21-0.574-0.086-1.211-0.656-1.425l-5.816-2.158
	c-0.574-0.212-1.213,0.08-1.425,0.655c-0.156,0.42-0.042,0.875,0.257,1.171C44.578,26.906,44.711,26.993,44.865,27.051z
	 M45.49,24.201l6.013,2.878c0.553,0.262,1.216,0.03,1.479-0.523c0.264-0.553,0.029-1.209-0.521-1.478l-6.015-2.877
	c-0.552-0.264-1.212-0.032-1.479,0.521c-0.208,0.436-0.107,0.941,0.216,1.265C45.271,24.074,45.374,24.146,45.49,24.201z
	 M46.884,21.723l5.947,3.727c0.519,0.325,1.204,0.168,1.528-0.351c0.326-0.52,0.167-1.207-0.352-1.529l-5.947-3.726
	c-0.52-0.325-1.204-0.168-1.528,0.352c-0.279,0.444-0.203,1.014,0.155,1.371C46.747,21.625,46.81,21.679,46.884,21.723z
	 M48.999,19.426l5.424,4.378c0.477,0.383,1.175,0.311,1.56-0.167c0.383-0.475,0.317-1.167-0.168-1.56l-5.424-4.379
	c-0.477-0.385-1.174-0.309-1.561,0.169c-0.358,0.442-0.315,1.081,0.08,1.477C48.937,19.373,48.967,19.398,48.999,19.426z
	 M57.557,22.459c0.457-0.408,0.497-1.11,0.088-1.564l-4.51-5.034c-0.381-0.493-1.109-0.495-1.565-0.086
	c-0.455,0.41-0.495,1.11-0.085,1.567l4.508,5.033c0.012,0.013,0.028,0.029,0.043,0.045C56.447,22.832,57.117,22.855,57.557,22.459z
	 M59.398,21.134c0.482-0.377,0.566-1.077,0.188-1.559l-3.79-4.835c-0.374-0.484-1.076-0.565-1.558-0.188
	c-0.482,0.377-0.566,1.074-0.189,1.557l3.791,4.836c0.031,0.036,0.058,0.067,0.091,0.1C58.32,21.438,58.951,21.484,59.398,21.134z
	 M61.294,20.134c0.509-0.342,0.643-1.031,0.3-1.538l-3.268-4.839c-0.344-0.51-1.035-0.641-1.541-0.298
	c-0.508,0.346-0.643,1.035-0.297,1.542l3.268,4.835c0.039,0.062,0.085,0.117,0.135,0.164C60.26,20.37,60.848,20.437,61.294,20.134z
	 M63.385,19.064c0.531-0.306,0.713-0.984,0.406-1.514l-2.678-4.639c-0.306-0.526-0.986-0.713-1.516-0.407
	c-0.529,0.307-0.711,0.985-0.406,1.515l2.679,4.641c0.052,0.085,0.111,0.161,0.179,0.229C62.395,19.235,62.942,19.32,63.385,19.064z
	 M65.737,18.28c0.53-0.305,0.713-0.985,0.408-1.515l-2.681-4.64c-0.305-0.529-0.984-0.712-1.516-0.405
	c-0.527,0.305-0.711,0.984-0.404,1.516l2.68,4.639c0.048,0.086,0.109,0.162,0.176,0.229C64.748,18.45,65.295,18.537,65.737,18.28z
	 M67.702,17.595c0.549-0.27,0.774-0.937,0.504-1.486l-2.159-4.377c-0.272-0.548-0.936-0.776-1.484-0.505
	c-0.549,0.271-0.775,0.936-0.504,1.487l2.157,4.378c0.055,0.113,0.126,0.21,0.212,0.293C66.754,17.712,67.264,17.812,67.702,17.595z
	 M69.861,16.971c0.565-0.238,0.832-0.889,0.596-1.453l-1.701-4.052c-0.234-0.561-0.887-0.832-1.451-0.593
	c-0.566,0.238-0.834,0.886-0.594,1.451l1.697,4.052c0.059,0.138,0.141,0.255,0.24,0.356C68.957,17.041,69.434,17.15,69.861,16.971z
	 M72.271,16.517c0.566-0.233,0.838-0.881,0.605-1.447l-1.635-3.989c-0.231-0.566-0.877-0.836-1.447-0.604
	c-0.568,0.229-0.838,0.878-0.605,1.447l1.636,3.988c0.056,0.141,0.14,0.262,0.241,0.362C71.371,16.582,71.845,16.691,72.271,16.517z
	 M74.648,16.115c0.562-0.246,0.816-0.901,0.57-1.462l-1.634-3.727c-0.243-0.559-0.9-0.816-1.462-0.57
	c-0.561,0.245-0.814,0.901-0.568,1.461l1.633,3.726c0.058,0.131,0.137,0.244,0.232,0.339C73.732,16.195,74.217,16.303,74.648,16.115
	z M76.932,15.658c0.561-0.245,0.818-0.896,0.576-1.459l-1.504-3.462c-0.24-0.562-0.896-0.823-1.457-0.576
	c-0.563,0.242-0.822,0.897-0.578,1.458l1.505,3.462c0.056,0.133,0.136,0.25,0.232,0.343C76.02,15.737,76.502,15.844,76.932,15.658z
	 M79.63,15.488c0.563-0.246,0.817-0.899,0.575-1.46l-1.521-3.491c-0.243-0.559-0.896-0.819-1.46-0.574
	c-0.563,0.245-0.818,0.898-0.574,1.46l1.52,3.487c0.057,0.133,0.137,0.249,0.232,0.344C78.715,15.567,79.199,15.674,79.63,15.488z
	 M82.145,15.141c0.566-0.236,0.833-0.884,0.6-1.448l-1.309-3.14c-0.236-0.564-0.885-0.833-1.451-0.597
	c-0.563,0.235-0.833,0.884-0.598,1.45l1.308,3.138c0.058,0.137,0.141,0.257,0.24,0.357C81.24,15.211,81.718,15.318,82.145,15.141z
	 M31.077,50.99c0.583-0.186,0.906-0.811,0.722-1.393L30.1,44.239c-0.184-0.583-0.808-0.911-1.393-0.723
	c-0.584,0.185-0.907,0.808-0.722,1.393l1.699,5.359c0.055,0.174,0.149,0.327,0.271,0.45C30.239,51,30.668,51.121,31.077,50.99z
	 M28.97,51.69c0.577-0.213,0.87-0.852,0.657-1.427l-2.157-5.815c-0.216-0.574-0.851-0.867-1.427-0.653
	c-0.574,0.212-0.868,0.852-0.654,1.428l2.157,5.816c0.058,0.152,0.146,0.287,0.255,0.395C28.097,51.732,28.55,51.847,28.97,51.69z
	 M26.971,52.567c0.554-0.267,0.787-0.927,0.523-1.479l-2.877-6.012c-0.269-0.552-0.927-0.786-1.48-0.523
	c-0.551,0.266-0.784,0.926-0.522,1.478l2.877,6.014c0.057,0.115,0.13,0.221,0.217,0.307C26.031,52.674,26.537,52.775,26.971,52.567z
	 M25.516,53.945c0.52-0.328,0.674-1.012,0.351-1.529l-3.729-5.949c-0.319-0.517-1.008-0.675-1.528-0.351
	c-0.52,0.326-0.677,1.01-0.35,1.53l3.725,5.944c0.046,0.074,0.099,0.141,0.157,0.198C24.5,54.146,25.069,54.223,25.516,53.945z
	 M24.053,55.566c0.476-0.383,0.551-1.082,0.167-1.559l-4.378-5.426c-0.39-0.486-1.085-0.551-1.56-0.167
	c-0.477,0.385-0.553,1.082-0.168,1.559l4.378,5.424c0.027,0.032,0.053,0.064,0.082,0.089C22.969,55.885,23.608,55.926,24.053,55.566
	z M16.277,52.718l5.034,4.512c0.457,0.407,1.155,0.37,1.565-0.087c0.41-0.457,0.38-1.193-0.086-1.566l-5.033-4.508
	C17.3,50.66,16.6,50.696,16.19,51.152c-0.393,0.441-0.372,1.111,0.042,1.525C16.246,52.689,16.261,52.707,16.277,52.718z
	 M15.156,55.379l4.836,3.793c0.481,0.377,1.179,0.293,1.56-0.189c0.376-0.481,0.298-1.168-0.19-1.558l-4.836-3.792
	c-0.482-0.377-1.18-0.293-1.558,0.19c-0.35,0.446-0.304,1.075,0.088,1.468C15.086,55.322,15.12,55.352,15.156,55.379z
	 M14.173,57.909l4.838,3.269c0.507,0.345,1.197,0.209,1.542-0.299c0.34-0.506,0.216-1.193-0.301-1.539l-4.837-3.27
	c-0.507-0.344-1.195-0.209-1.539,0.299c-0.302,0.447-0.235,1.037,0.133,1.404C14.059,57.822,14.113,57.869,14.173,57.909z
	 M13.325,60.695l4.641,2.682c0.529,0.307,1.208,0.121,1.515-0.407c0.306-0.532,0.125-1.208-0.407-1.515l-4.64-2.679
	c-0.529-0.308-1.207-0.124-1.514,0.404c-0.257,0.445-0.171,0.993,0.176,1.339C13.163,60.587,13.238,60.646,13.325,60.695z
	 M12.541,63.051l4.64,2.679c0.532,0.306,1.21,0.123,1.514-0.407c0.31-0.529,0.126-1.207-0.404-1.515l-4.64-2.679
	c-0.529-0.307-1.21-0.124-1.514,0.404c-0.259,0.445-0.172,0.992,0.172,1.339C12.378,62.94,12.453,63,12.541,63.051z M12.147,65.633
	l4.379,2.158c0.55,0.269,1.215,0.044,1.486-0.506c0.271-0.551,0.043-1.211-0.505-1.486l-4.376-2.156
	c-0.551-0.271-1.217-0.047-1.487,0.504c-0.217,0.438-0.117,0.946,0.21,1.273C11.938,65.504,12.036,65.575,12.147,65.633z
	 M11.883,68.341l4.053,1.7c0.562,0.236,1.213-0.029,1.45-0.596c0.236-0.566-0.028-1.217-0.595-1.451l-4.053-1.7
	c-0.562-0.237-1.213,0.03-1.451,0.595c-0.179,0.428-0.069,0.903,0.239,1.212C11.626,68.199,11.744,68.281,11.883,68.341z
	 M11.5,70.827l3.985,1.634c0.567,0.232,1.216-0.041,1.447-0.604c0.232-0.569-0.04-1.217-0.605-1.451l-3.987-1.634
	c-0.567-0.231-1.216,0.038-1.448,0.606c-0.173,0.428-0.064,0.898,0.242,1.205C11.237,70.686,11.358,70.768,11.5,70.827z
	 M11.343,73.168l3.726,1.635c0.561,0.247,1.215-0.011,1.46-0.57c0.247-0.561-0.011-1.219-0.571-1.46l-3.724-1.636
	c-0.562-0.244-1.217,0.012-1.461,0.571c-0.189,0.432-0.081,0.917,0.232,1.23C11.098,73.031,11.212,73.113,11.343,73.168z
	 M11.152,75.588l3.463,1.504c0.562,0.243,1.213-0.015,1.458-0.576c0.242-0.563-0.014-1.217-0.576-1.457l-3.464-1.504
	c-0.56-0.244-1.215,0.014-1.458,0.576c-0.188,0.429-0.081,0.912,0.232,1.225C10.905,75.452,11.02,75.531,11.152,75.588z
	 M10.952,78.268l3.492,1.52c0.559,0.245,1.214-0.012,1.459-0.572c0.243-0.563-0.015-1.217-0.575-1.459l-3.489-1.521
	c-0.562-0.246-1.216,0.013-1.461,0.572c-0.186,0.432-0.08,0.914,0.232,1.228C10.708,78.131,10.823,78.213,10.952,78.268z
	 M10.97,81.021l3.138,1.308c0.564,0.234,1.215-0.033,1.45-0.598c0.235-0.567-0.03-1.211-0.598-1.451l-3.136-1.307
	c-0.567-0.234-1.215,0.031-1.45,0.597c-0.178,0.427-0.07,0.903,0.238,1.212C10.712,80.881,10.832,80.963,10.97,81.021z"/>
<path fill="#991B1E" d="M49.415,53.609L30.621,34.813l4.576-4.577l18.795,18.797L49.415,53.609z M61.98,50.848l-1.698-1.7
	L49.563,59.867l1.701,1.699L61.98,50.848z M72.355,61.222l-8.069-8.067l-10.72,10.717l8.07,8.069L72.355,61.222z"/>
<path fill="#FFFFFF" d="M91.784,10.589l-0.3-0.299c-0.624,0.349-1.302,0.702-2.02,1.049L11.754,89.047
	c-0.409,0.849-0.829,1.645-1.237,2.36l0.223,0.223L91.784,10.589z"/>
<rect x="50.16" y="43.308" transform="matrix(0.707 0.7072 -0.7072 0.707 50.6874 -21.3266)" fill="#FBA919" width="1.841" height="14.395"/>
</svg>
