<?xml version="1.0" encoding="utf-8"?>
<!-- Generator: Adobe Illustrator 16.0.0, SVG Export Plug-In . SVG Version: 6.00 Build 0)  -->
<!DOCTYPE svg PUBLIC "-//W3C//DTD SVG 1.1//EN" "http://www.w3.org/Graphics/SVG/1.1/DTD/svg11.dtd">
<svg version="1.1" id="Layer_1" xmlns="http://www.w3.org/2000/svg" xmlns:xlink="http://www.w3.org/1999/xlink" x="0px" y="0px"
	 width="100px" height="100px" viewBox="0 0 100 100" enable-background="new 0 0 100 100" xml:space="preserve">
<path d="M37.029,71.872l3.321-7.716c-0.201-2.246-1.597-3.711-3.789-3.994l-6.363,3.995L4.484,50.223l25.72-13.936l6.362,4.024
	c2.186-0.286,3.578-1.751,3.778-3.999l-3.313-7.741L50.25,4.53l13.219,24.041l-3.313,7.741c0.199,2.248,1.591,3.713,3.777,3.999
	l6.361-4.024l25.719,13.936L70.301,64.157l-6.363-3.996c-2.191,0.284-3.587,1.749-3.787,3.995l3.32,7.717L50.25,95.915
	L37.029,71.872z M50.25,46.73c-1.926,0-3.493,1.567-3.493,3.493s1.567,3.492,3.493,3.492c1.926,0,3.493-1.566,3.493-3.492
	S52.176,46.73,50.25,46.73z"/>
<linearGradient id="SVGID_1_" gradientUnits="userSpaceOnUse" x1="24.7856" y1="24.7593" x2="71.781" y2="71.7546">
	<stop  offset="0" style="stop-color:#BCBEC0"/>
	<stop  offset="1" style="stop-color:#000000"/>
</linearGradient>
<path fill="url(#SVGID_1_)" d="M70.416,39.855l-5.672,3.586c-4.55,0-7.693-3.153-7.693-7.703l2.995-7L50.25,10.923l-9.796,17.816
	l2.996,7c0,4.549-3.145,7.703-7.694,7.703l-5.671-3.586L10.949,50.223l19.135,10.369l5.671-3.561c4.549,0,7.701,3.15,7.701,7.7
	l-3.002,6.976l9.796,17.816l9.796-17.816l-3.001-6.976c0-4.55,3.149-7.7,7.699-7.7l5.672,3.561L89.55,50.223L70.416,39.855z
	 M50.25,56.795c-3.63,0-6.573-2.941-6.573-6.572c0-3.63,2.942-6.573,6.573-6.573s6.573,2.942,6.573,6.573
	C56.822,53.854,53.88,56.795,50.25,56.795z"/>
<g opacity="0.5">
	<polygon fill="#FFFFFF" points="40.453,28.739 42.389,33.262 52.588,15.175 50.25,10.923 	"/>
	<polygon fill="#FFFFFF" points="30.084,60.592 33.908,58.191 15.45,47.783 10.949,50.223 	"/>
	<polygon fill="#FFFFFF" points="60.046,71.707 58.075,67.127 47.879,85.211 50.25,89.523 	"/>
	<polygon fill="#FFFFFF" points="70.416,39.855 66.954,42.044 85.424,52.459 89.55,50.223 	"/>
</g>
</svg>
