<?xml version="1.0" encoding="utf-8"?>
<!-- Generator: Adobe Illustrator 16.0.0, SVG Export Plug-In . SVG Version: 6.00 Build 0)  -->
<!DOCTYPE svg PUBLIC "-//W3C//DTD SVG 1.1//EN" "http://www.w3.org/Graphics/SVG/1.1/DTD/svg11.dtd">
<svg version="1.1" id="Layer_1" xmlns="http://www.w3.org/2000/svg" xmlns:xlink="http://www.w3.org/1999/xlink" x="0px" y="0px"
	 width="100px" height="100px" viewBox="0 0 100 100" enable-background="new 0 0 100 100" xml:space="preserve">
<polygon points="2,90.75 6.494,82.436 9.37,82.361 8.974,81.777 22.792,67.314 17.058,60.656 14.019,60.656 14.02,52.318 
	22.356,52.318 22.357,55.377 29.932,61.879 84.448,7.639 98.834,1.239 92.42,15.615 38.177,70.135 44.684,77.704 47.745,77.704 
	47.742,86.041 39.403,86.041 39.405,83 32.758,77.267 18.315,91.109 17.796,90.76 17.854,93.744 9.25,98 "/>
<linearGradient id="SVGID_1_" gradientUnits="userSpaceOnUse" x1="5.8013" y1="80.8408" x2="32.6484" y2="80.8408">
	<stop  offset="0" style="stop-color:#6D6E71"/>
	<stop  offset="1" style="stop-color:#000000"/>
</linearGradient>
<polygon fill="url(#SVGID_1_)" points="29.519,70.406 26.949,67.422 12.917,82.109 13.347,82.745 10.721,85.408 8.355,85.469 
	5.801,90.195 9.865,94.26 14.737,91.85 14.689,89.376 17.343,86.741 17.977,87.168 32.648,73.105 "/>
<polygon fill="#666766" points="32.097,67.826 33.983,69.982 91.661,12.018 95.835,4.231 88.042,8.398 30.082,66.075 "/>
<polygon opacity="0.7" fill="#FFFFFF" points="92.315,7.754 81.347,15.09 30.094,66.063 32.096,67.826 32.166,67.903 "/>
<polygon opacity="0.5" fill="#FFFFFF" points="14.575,91.822 8.333,85.579 14.846,84.875 "/>
<polygon opacity="0.3" fill="#EE1C4E" points="32.097,67.826 33.983,69.982 91.661,12.018 95.835,4.231 88.042,8.398 30.082,66.075 
	"/>
<linearGradient id="SVGID_2_" gradientUnits="userSpaceOnUse" x1="-716.8193" y1="187.4316" x2="-677.8389" y2="187.4316" gradientTransform="matrix(0.7071 0.7071 -0.7071 0.7071 657.9238 428.2998)">
	<stop  offset="0" style="stop-color:#6D6E71"/>
	<stop  offset="1" style="stop-color:#000000"/>
</linearGradient>
<polygon fill="url(#SVGID_2_)" points="44.663,82.962 44.663,80.784 43.27,80.784 32.496,68.252 33.901,68.252 34.989,64.985 
	31.723,66.074 31.723,67.477 19.277,56.791 19.277,55.398 17.099,55.398 17.099,57.576 18.471,57.576 29.519,70.406 42.485,81.589 
	42.485,82.962 "/>
<polygon opacity="0.6" points="29.519,70.406 26.949,67.422 12.917,82.109 13.347,82.745 17.343,86.741 17.977,87.168 
	32.648,73.105 "/>
</svg>
