<?xml version="1.0" encoding="utf-8"?>
<!-- Generator: Adobe Illustrator 16.0.0, SVG Export Plug-In . SVG Version: 6.00 Build 0)  -->
<!DOCTYPE svg PUBLIC "-//W3C//DTD SVG 1.1//EN" "http://www.w3.org/Graphics/SVG/1.1/DTD/svg11.dtd">
<svg version="1.1" id="Layer_1" xmlns="http://www.w3.org/2000/svg" xmlns:xlink="http://www.w3.org/1999/xlink" x="0px" y="0px"
	 width="100px" height="100px" viewBox="0 0 100 100" enable-background="new 0 0 100 100" xml:space="preserve">
<path d="M1.478,90.041l5.349-6.891l1.21-0.654l-0.182-0.269L22.175,67.24l-4.397-5.229h-3.062l0-3.418l-1.792-6.686l6.544,1.696
	h3.653l0.002,3.085l5.553,4.68c1.834-1.805,4.605-4.531,6.771-6.678c-2.667-4.526-3.394-8.608-3.428-8.807l-1.641-9.553
	l12.009,12.01c0.496-0.375,0.922-0.649,1.29-0.887c0.382-0.245,0.587-0.38,0.723-0.516c1.268-1.268,1.567-1.897,1.947-2.695
	c0.429-0.901,0.963-2.023,2.414-3.474c1.27-1.27,2.531-2.038,3.646-2.716c0.896-0.546,1.671-1.018,2.348-1.693
	c1.068-1.069,1.419-1.657,1.862-2.4c0.514-0.862,1.096-1.838,2.473-3.216c2.328-2.329,3.467-2.837,4.613-3.223
	c0.064-0.022,0.127-0.039,0.193-0.068l0,0c0,0,0.155-0.091,0.534-0.47c0.927-0.926,1.099-1.28,1.337-1.769
	c0.449-0.924,0.934-1.802,2.32-3.188c1.29-1.29,2.327-1.73,3.16-2.084c0.716-0.304,1.334-0.567,2.678-1.91
	c0.784-0.785,1.072-1.36,1.472-2.156c0.468-0.932,1.05-2.092,2.337-3.38c1.592-1.591,3.063-1.884,4.035-2.078
	c0.639-0.127,0.791-0.157,1.295-0.662c0.234-0.233,0.361-0.472,0.65-1.039c0.476-0.931,0.83-2.572,2.691-3.769
	c3.867-2.489,4.312-2.074,4.894-2.233L99,1.435l-4.105,5.903c-0.977,0.888-0.904,2.115-2.018,3.787
	c-0.401,0.604-0.475,0.93-0.607,1.522c-0.231,1.031-0.549,2.442-2.211,4.104c-1.348,1.346-2.096,1.803-3.004,2.173
	c-0.129,0.052-0.396,0.16-1.564,1.329c-1.279,1.278-1.555,1.845-1.874,2.501c-0.393,0.803-0.88,1.804-2.283,3.207
	c-1.329,1.33-2.203,1.903-2.974,2.409c-0.66,0.433-1.18,0.774-2.168,1.762c-0.958,0.958-1.24,1.557-1.599,2.314
	c-0.37,0.787-0.833,1.765-1.86,2.792c-0.889,0.888-1.766,1.561-2.615,2.211c-0.809,0.621-1.574,1.208-2.345,1.978
	c-0.748,0.748-1.187,1.517-1.693,2.406c-0.595,1.042-1.269,2.222-2.448,3.403c-1.596,1.596-2.697,2.302-3.582,2.87
	c-0.721,0.463-1.291,0.829-2.207,1.745c-0.434,0.435-0.858,1.229-1.348,2.151c-0.602,1.129-1.284,2.41-2.323,3.691
	c-0.572,0.705-1.256,1.17-1.917,1.617c-0.175,0.119-0.352,0.239-0.53,0.365l11.413,11.413l-9.561-1.647
	c-0.196-0.033-4.229-0.753-8.719-3.377c-2.117,2.17-4.862,4.968-6.677,6.817l4.681,5.546l3.089-0.003l-0.001,3.7l1.61,6.416
	l-6.56-1.705H37.54l0.001-3.064l-5.216-4.395L17.356,91.725l-0.165-0.111l-0.596,1.266L9.441,98L1.478,90.041z"/>
<linearGradient id="SVGID_1_" gradientUnits="userSpaceOnUse" x1="21.6738" y1="71.5391" x2="28.2566" y2="78.1218">
	<stop  offset="0" style="stop-color:#6D6E71"/>
	<stop  offset="1" style="stop-color:#000000"/>
</linearGradient>
<path fill="url(#SVGID_1_)" d="M44.415,60.106c-0.008,0.008-0.016,0.015-0.024,0.023l-2.263-2.278l-0.329-0.236l-0.237-0.332
	l-2.163-2.178c-0.117-0.16-0.223-0.32-0.333-0.48L11.796,82.562l0.443,0.656l-1.023,1.063l-2.355,1.271l-3.284,4.23l4.194,4.192
	l4.378-3.133l1.161-2.467l1.052-1.033l0.654,0.44l27.93-27.309C44.77,60.353,44.592,60.235,44.415,60.106z"/>
<path fill="#666766" d="M44.415,60.106c4.782,3.456,9.685,4.3,9.685,4.3l-6.758-6.756c1.844-2.417,3.676-2.959,4.437-3.896
	c1.762-2.172,2.414-4.609,3.886-6.082c2.367-2.367,3.143-1.967,5.789-4.614c1.824-1.824,2.113-3.782,4.142-5.809
	c1.765-1.766,3.417-2.646,4.959-4.188c1.475-1.476,1.073-2.721,3.46-5.108c2.389-2.388,2.895-1.923,5.143-4.171
	c2.247-2.247,1.104-2.655,4.156-5.707c3.053-3.053,2.111-1.045,4.568-3.502c1.896-1.897,0.861-2.792,2.432-5.155
	c1.572-2.362,5.354-5.802,5.354-5.802s-4.904,1.334-7.082,3.512c-2.177,2.177-2.006,3.472-3.342,4.808
	c-2.246,2.246-3.396,0.806-5.33,2.739c-1.933,1.934-1.607,3.335-3.809,5.536c-3.16,3.161-3.872,2.028-5.838,3.995
	c-2.317,2.317-1.129,2.429-3.657,4.956c-2.173,2.175-1.767,0.188-5.341,3.762c-2.284,2.284-1.738,3.018-4.336,5.615
	c-1.896,1.898-3.999,2.417-5.992,4.41c-2.314,2.314-1.292,3.102-4.359,6.168c-0.986,0.987-2.1,1.132-4.294,3.478l-7.229-7.23
	c0,0,0.848,4.939,4.343,9.742l4.991,5.024C44.398,60.121,44.406,60.114,44.415,60.106z"/>
<linearGradient id="SVGID_2_" gradientUnits="userSpaceOnUse" x1="-453.3057" y1="75.6699" x2="-412.6689" y2="75.6699" gradientTransform="matrix(0.7071 0.7071 -0.7071 0.7071 389.9482 321.8457)">
	<stop  offset="0" style="stop-color:#6D6E71"/>
	<stop  offset="1" style="stop-color:#000000"/>
</linearGradient>
<polygon fill="url(#SVGID_2_)" points="44.606,83.591 42.869,81.09 42.869,79.508 41.431,79.51 31.601,67.862 20.045,58.122 
	20.044,56.685 18.504,56.685 15.872,54.856 17.797,57.629 17.797,58.932 19.212,58.932 28.928,70.486 40.622,80.34 40.621,81.756 
	41.963,81.756 "/>
<path opacity="0.7" fill="#FFFFFF" d="M47.957,52.25c0,0,3.706-3.22,4.074-4.986c0.561-2.693,2.919-3.734,5.1-4.881
	c1.087-0.571,2.094-1.586,2.841-2.536c1.562-1.984,1.961-4.803,4.98-5.998c0,0,2.412-0.796,4.344-3.78
	c0.802-1.24,1.311-2.809,2.855-4.074c1.069-0.875,1.689-1.024,3.16-2.012c2.785-1.873,2.992-2.956,4.038-4.741
	c0.517-0.88,1.108-1.708,1.833-2.428c0.721-0.714,1.574-0.978,2.513-1.296c0.864-0.291,1.868-1.196,2.468-1.844
	c0.924-0.996,1.637-2.196,2.141-3.456c0.963-2.408,4.359-4.863,7.092-6.523c-1.045,0.31-4.936,1.557-6.811,3.434
	c-2.177,2.177-2.006,3.472-3.342,4.808c-2.246,2.246-3.396,0.806-5.33,2.739c-1.933,1.934-1.607,3.335-3.809,5.536
	c-3.16,3.161-3.872,2.028-5.838,3.995c-2.317,2.317-1.129,2.429-3.657,4.956c-2.173,2.175-1.767,0.188-5.341,3.762
	c-2.284,2.284-1.738,3.018-4.336,5.615c-1.896,1.898-3.999,2.417-5.992,4.41c-2.314,2.314-1.292,3.102-4.359,6.168
	c-0.986,0.987-2.1,1.132-4.294,3.478l2.663,2.664L47.957,52.25z"/>
<polygon opacity="0.5" points="26.276,67.406 11.796,82.562 12.239,83.218 12.236,83.221 16.36,87.346 16.363,87.342 17.017,87.782 
	32.157,73.271 28.928,70.486 "/>
<path opacity="0.3" fill="#3E53A4" d="M44.415,60.106c4.782,3.456,9.685,4.3,9.685,4.3l-6.758-6.756
	c1.844-2.417,3.676-2.959,4.437-3.896c1.762-2.172,2.414-4.609,3.886-6.082c2.367-2.367,3.143-1.967,5.789-4.614
	c1.824-1.824,2.113-3.782,4.142-5.809c1.765-1.766,3.417-2.646,4.959-4.188c1.475-1.476,1.073-2.721,3.46-5.108
	c2.389-2.388,2.895-1.923,5.143-4.171c2.247-2.247,1.104-2.655,4.156-5.707c3.053-3.053,2.111-1.045,4.568-3.502
	c1.896-1.897,0.861-2.792,2.432-5.155c1.572-2.362,5.354-5.802,5.354-5.802s-4.904,1.334-7.082,3.512
	c-2.177,2.177-2.006,3.472-3.342,4.808c-2.246,2.246-3.396,0.806-5.33,2.739c-1.933,1.934-1.607,3.335-3.809,5.536
	c-3.16,3.161-3.872,2.028-5.838,3.995c-2.317,2.317-1.129,2.429-3.657,4.956c-2.173,2.175-1.767,0.188-5.341,3.762
	c-2.284,2.284-1.738,3.018-4.336,5.615c-1.896,1.898-3.999,2.417-5.992,4.41c-2.314,2.314-1.292,3.102-4.359,6.168
	c-0.986,0.987-2.1,1.132-4.294,3.478l-7.229-7.23c0,0,0.848,4.939,4.343,9.742l4.991,5.024
	C44.398,60.121,44.406,60.114,44.415,60.106z"/>
<path opacity="0.7" fill="#FCEE22" d="M31.601,67.862l2.618,3.102l10.716-10.478L44.87,60.42c-0.152-0.104-0.303-0.203-0.455-0.313
	c-0.008,0.008-0.016,0.015-0.024,0.023l-2.264-2.279l-0.328-0.235l-0.237-0.332l-2.163-2.178c-0.117-0.16-0.223-0.32-0.333-0.48
	L28.607,65.34L31.601,67.862z"/>
</svg>
