<?xml version="1.0" encoding="utf-8"?>
<!-- Generator: Adobe Illustrator 16.0.0, SVG Export Plug-In . SVG Version: 6.00 Build 0)  -->
<!DOCTYPE svg PUBLIC "-//W3C//DTD SVG 1.1//EN" "http://www.w3.org/Graphics/SVG/1.1/DTD/svg11.dtd">
<svg version="1.1" id="Layer_1" xmlns="http://www.w3.org/2000/svg" xmlns:xlink="http://www.w3.org/1999/xlink" x="0px" y="0px"
	 width="100px" height="100px" viewBox="0 0 100 100" enable-background="new 0 0 100 100" xml:space="preserve">
<path d="M3.793,96.325L3,87.441l6.665-4.803l11.15-13.444l-5.686-6.052c-0.487-0.48-1.873-2.047-1.92-4.317
	c-0.023-1.134,0.291-2.827,1.919-4.456c1.825-1.824,3.707-2.208,4.963-2.208c1.687,0,2.879,0.663,3.313,0.948
	c0.82,0.559,2.64,2.025,2.805,4.24c0.091,1.223-0.341,2.377-1.22,3.277c0.639,0.505,1.414,1.1,2.352,1.799l7.819-7.824
	l-3.605-14.073l8.834,8.839l4.058-4.059l1.053,1.052l35.46-35.482L97.503,2.53l-8.366,16.531L53.657,54.518l1.054,1.054l-4.06,4.057
	l8.836,8.835l-14.07-3.605l-7.825,7.82c0.699,0.939,1.293,1.713,1.798,2.352c0.818-0.795,1.862-1.23,2.966-1.23
	c2.378,0,3.955,1.938,4.523,2.771c0.994,1.441,2.033,5.059-1.232,8.32c-1.585,1.586-3.233,1.919-4.337,1.919
	c-2.333,0-3.944-1.425-4.435-1.921l-6.045-5.683L17.41,90.395L12.574,97L3.793,96.325z"/>
<polygon fill="#666766" points="54.59,65.365 46.52,57.295 89.046,14.795 93.455,6.57 85.224,10.97 42.721,53.498 34.654,45.429 
	39.421,56.799 28.582,67.645 30.497,69.375 32.368,71.439 43.219,60.597 "/>
<polygon opacity="0.7" fill="#FFFFFF" points="93.375,6.719 93.455,6.57 85.224,10.97 42.721,53.498 34.654,45.429 39.421,56.799 
	28.582,67.645 30.497,69.375 30.602,69.492 "/>
<polygon opacity="0.3" fill="#3E53A4" points="54.59,65.365 46.52,57.295 89.046,14.795 93.455,6.57 85.224,10.97 64.788,31.417 
	42.721,53.498 34.654,45.429 39.421,56.799 28.582,67.645 30.497,69.375 32.368,71.439 43.219,60.597 "/>
<linearGradient id="SVGID_1_" gradientUnits="userSpaceOnUse" x1="-24.5493" y1="35.8306" x2="-16.0229" y2="35.8306" gradientTransform="matrix(0.7071 0.7071 -0.7071 0.7071 56.9482 71.7578)">
	<stop  offset="0" style="stop-color:#BCBEC0"/>
	<stop  offset="1" style="stop-color:#000000"/>
</linearGradient>
<polygon fill="url(#SVGID_1_)" points="15.148,88.271 30.955,75.092 27.773,72.1 24.921,69.067 11.785,84.907 6.224,88.914 
	6.629,93.454 11.102,93.798 "/>
<polygon fill="#831529" points="44.448,49.664 27.53,66.594 30.458,69.336 33.422,72.492 50.354,55.57 "/>
<linearGradient id="SVGID_2_" gradientUnits="userSpaceOnUse" x1="1131.748" y1="16.1274" x2="1168.75" y2="16.1274" gradientTransform="matrix(-0.7071 -0.7071 -0.7071 0.7071 855.9473 870.7549)">
	<stop  offset="0" style="stop-color:#000000"/>
	<stop  offset="1" style="stop-color:#BCBEC0"/>
</linearGradient>
<path fill="url(#SVGID_2_)" d="M27.846,72.173l11.192,10.521c0,0,2.133,2.319,4.433,0.02c2.285-2.283,0.884-4.377,0.862-4.409
	c-0.587-0.862-1.862-2.077-2.855-1.004c0.261-0.282,1.039,0.524,1.143,0.683c0.917,1.393-0.229,2.952-1.667,2.775
	c-0.149-0.018-0.302-0.055-0.456-0.113c-1.232-0.463-5.175-5.787-7.542-9.103l1.602-6.081l-6.166,1.541
	c-3.32-2.374-8.559-6.26-9.018-7.48c-0.059-0.154-0.095-0.307-0.113-0.455c-0.177-1.439,1.384-2.585,2.775-1.668
	c0.159,0.104,0.966,0.881,0.683,1.143c1.073-0.994-0.142-2.268-1.004-2.855c-0.032-0.021-2.126-1.422-4.41,0.863
	c-2.3,2.299,0.019,4.432,0.019,4.432L27.846,72.173z"/>
<path opacity="0.5" fill="#831529" d="M24.921,69.067l-13.136,15.84l-0.098,0.071c0.747,1.139,1.872,2.375,3.506,3.256
	l15.762-13.143L27.773,72.1L24.921,69.067z"/>
</svg>
