<?xml version="1.0" encoding="utf-8"?>
<!-- Generator: Adobe Illustrator 16.0.0, SVG Export Plug-In . SVG Version: 6.00 Build 0)  -->
<!DOCTYPE svg PUBLIC "-//W3C//DTD SVG 1.1//EN" "http://www.w3.org/Graphics/SVG/1.1/DTD/svg11.dtd">
<svg version="1.1" id="Layer_1" xmlns="http://www.w3.org/2000/svg" xmlns:xlink="http://www.w3.org/1999/xlink" x="0px" y="0px"
	 width="100px" height="100px" viewBox="0 0 100 100" enable-background="new 0 0 100 100" xml:space="preserve">
<path d="M7.571,99c-1.756,0-3.408-0.684-4.649-1.926c-2.562-2.564-2.562-6.732,0-9.297c1.166-1.166,2.694-1.838,4.331-1.912
	l7.086-7.523l6.493-6.307L10.241,58.061l4.986-4.98l10.234,12.709L84.895,8.847l13.141-6.876l-6.887,13.134l-56.94,59.432
	L46.917,84.77l-4.981,4.986L27.969,79.168l-6.292,6.504l-7.545,7.129c-0.087,1.568-0.737,3.098-1.913,4.273
	C10.978,98.316,9.327,99,7.571,99z"/>
<polygon fill="#666766" points="27.715,72.213 29.913,74.566 90.367,11.539 94.473,5.527 88.459,9.629 25.434,70.082 "/>
<polygon opacity="0.7" fill="#FFFFFF" points="27.715,72.213 28.545,73.197 94.473,5.527 26.802,71.451 "/>
<linearGradient id="SVGID_1_" gradientUnits="userSpaceOnUse" x1="13.7134" y1="81.6533" x2="18.5547" y2="86.4947">
	<stop  offset="0" style="stop-color:#6D6E71"/>
	<stop  offset="1" style="stop-color:#000000"/>
</linearGradient>
<path fill="url(#SVGID_1_)" d="M26.829,73.061l-1.225-1.367l-9.069,8.811l-6.768,7.184l0.549,0.813l-0.944,0.943
	C8.028,88.633,6.26,88.795,5.1,89.955c-1.364,1.365-1.364,3.576,0,4.941c1.365,1.365,3.577,1.365,4.942,0
	c1.16-1.16,1.323-2.93,0.51-4.273l0.945-0.945l0.842,0.582l7.173-6.779l8.796-9.09L26.829,73.061z"/>
<polygon opacity="0.3" fill="#6ABD45" points="27.715,72.213 29.913,74.566 90.367,11.539 94.473,5.527 88.459,9.629 25.434,70.082 
	"/>
<linearGradient id="SVGID_2_" gradientUnits="userSpaceOnUse" x1="11.626" y1="-3.7383" x2="50.2861" y2="-3.7383" gradientTransform="matrix(0.7071 0.7071 -0.7071 0.7071 3.1895 53.0283)">
	<stop  offset="0" style="stop-color:#6D6E71"/>
	<stop  offset="1" style="stop-color:#000000"/>
</linearGradient>
<polygon fill="url(#SVGID_2_)" points="41.893,85.439 26.455,73.436 14.557,58.104 15.268,57.393 27.686,72.203 42.603,84.729 "/>
</svg>
