<?xml version="1.0" encoding="utf-8"?>
<!-- Generator: Adobe Illustrator 16.0.0, SVG Export Plug-In . SVG Version: 6.00 Build 0)  -->
<!DOCTYPE svg PUBLIC "-//W3C//DTD SVG 1.1//EN" "http://www.w3.org/Graphics/SVG/1.1/DTD/svg11.dtd">
<svg version="1.1" id="Layer_1" xmlns="http://www.w3.org/2000/svg" xmlns:xlink="http://www.w3.org/1999/xlink" x="0px" y="0px"
	 width="100px" height="100px" viewBox="0 0 100 100" enable-background="new 0 0 100 100" xml:space="preserve">
<path d="M5.792,97.726c-1.501,0-3.069-1.175-3.094-3.139c0-0.046-0.003-0.134-0.025-0.285c-0.348-2.476,0.987-4.806,3.13-5.826
	c1.088-1.851,3.473-6.17,4.227-9.675c1.621-10.746,6.582-28.57,21.718-33.798l-0.24-0.516l4.067-0.617
	c1.14-0.177,4.79-1.056,6.466-2.691c1.601-1.643,2.466-5.274,2.638-6.412l0.618-4.07l0.476,0.222
	c5.273-15.07,23.059-20.012,33.777-21.627c3.506-0.757,7.822-3.141,9.667-4.227c0.911-1.893,2.853-3.183,5.036-3.183
	c0.26,0,0.522,0.019,0.78,0.055c0.155,0.021,0.241,0.025,0.286,0.025c1.537,0.018,2.498,0.973,2.885,1.86L99,5.649l-1.051,1.166
	c-0.146,0.636-0.518,1.703-1.24,2.924c-0.538,2.331-2.305,5.765-7.91,7.41l-29.16,29.161l0.383,0.384L46.618,60.098l-0.383-0.385
	l-28.35,28.35c-1.645,5.607-5.08,7.373-7.411,7.91c-1.211,0.717-2.275,1.088-2.917,1.238l-0.524,0.475L5.792,97.726z M37.602,53.627
	c-12.752,1.406-17.25,16.642-18.627,23.455L41.29,54.766l-0.58-0.58l0.818-0.818c-0.841,0.197-1.728,0.314-2.651,0.314
	c-0.394,0-0.79-0.021-1.18-0.066L37.602,53.627z M54.693,41.363L77.82,18.236c-6.77,1.369-21.857,5.817-23.427,18.388
	c0.201,1.479,0.073,2.889-0.249,4.19L54.693,41.363z"/>
<rect x="49.677" y="-7.198" transform="matrix(0.7074 0.7068 -0.7068 0.7074 50.6398 -20.5119)" fill="#FFFFFF" width="0.835" height="116.21"/>
<radialGradient id="SVGID_1_" cx="-265.4238" cy="718.4688" r="45.2368" gradientTransform="matrix(0.7071 0.7071 -0.7071 0.7071 741.1377 -275.6592)" gradientUnits="userSpaceOnUse">
	<stop  offset="0" style="stop-color:#6D6E70"/>
	<stop  offset="1" style="stop-color:#000000"/>
</radialGradient>
<path fill="url(#SVGID_1_)" d="M46.564,45.828c-3.292,3.292-4.292,4.187-9.299,4.738c-16.33,1.8-21.252,22.079-22.105,31.221
	c-0.987,10.604-8.051,12.394-8.376,12.439c-1.37,0.193-0.866,1.011-1.061-0.359c-0.192-1.369,0.76-2.635,2.129-2.828
	c0.042-0.006,4.058-0.65,4.684-7.357C13.5,73.316,17.903,48.974,37.896,46.77c4.349-0.479,4.705-0.518,6.898-2.712
	c2.196-2.195,2.235-2.551,2.714-6.899c2.203-19.992,26.547-24.396,36.912-25.361c6.707-0.624,7.352-4.641,7.355-4.682
	c0.195-1.368,1.46-2.321,2.83-2.129c1.367,0.194,0.553-0.31,0.357,1.06c-0.045,0.326-1.836,7.389-12.439,8.376
	c-9.143,0.852-29.42,5.774-31.22,22.104C50.753,41.534,49.857,42.535,46.564,45.828z"/>
<path fill="#ED1F24" d="M7.852,91.039c0,0,4.574-7.184,5.361-12.496l2.459-0.294c0,0,1.377,13.966-6.589,14.85L7.852,91.039z"/>
<path fill="#ED1F24" d="M91.775,7.115c0,0-7.183,4.574-12.494,5.36l-0.295,2.46c0,0,13.965,1.377,14.85-6.59L91.775,7.115z"/>
<path fill="#ED1F24" d="M47.265,46.455c0,0-4.401,4.864-9.56,4.056l-1.667-3.596c0,0,5.368-0.813,8.155-3.532
	c2.719-2.788,3.533-8.155,3.533-8.155l3.595,1.666C52.129,42.054,47.265,46.455,47.265,46.455z"/>
<rect x="49.267" y="44.041" transform="matrix(0.7071 0.7071 -0.7071 0.7071 50.4175 -20.8403)" fill="#FBA919" width="2.197" height="12.796"/>
</svg>
