<?xml version="1.0" encoding="utf-8"?>
<!-- Generator: Adobe Illustrator 16.0.0, SVG Export Plug-In . SVG Version: 6.00 Build 0)  -->
<!DOCTYPE svg PUBLIC "-//W3C//DTD SVG 1.1//EN" "http://www.w3.org/Graphics/SVG/1.1/DTD/svg11.dtd">
<svg version="1.1" id="Layer_1" xmlns="http://www.w3.org/2000/svg" xmlns:xlink="http://www.w3.org/1999/xlink" x="0px" y="0px"
	 width="100px" height="100px" viewBox="0 0 100 100" enable-background="new 0 0 100 100" xml:space="preserve">
<path d="M1.364,89.688l38.65-38.65c-0.217-0.254-0.426-0.514-0.627-0.778l-1.931-2.533l0.379-0.269l-1.842-2.125l6.531-5.216
	c2.754-2.668,9.443-6.611,15.088-7.963c0.22-0.547,0.547-1.053,0.979-1.483l0.169-0.17c-1.288-2.241-1.869-4.453-1.735-6.613
	c0.217-3.493,2.25-5.592,2.975-6.234c6.533-6.808,7.863-9.947,8.133-10.89l2.16-5.217l3.059,2.24
	c4.658,4.518,1.619,11.713-1.443,16.621l8.757-7.394L94.42,6.423l-7.16,13.186l-7.393,8.756c3.076-1.926,7.051-3.852,10.64-3.852
	c2.384,0,4.452,0.833,5.981,2.41l2.295,2.601l-5.278,2.614c-0.911,0.261-4.047,1.575-10.882,8.135
	c-0.679,0.767-2.98,2.995-6.834,2.995c-1.988,0-4.016-0.598-6.064-1.783l-0.162,0.162c-0.426,0.426-0.93,0.757-1.48,0.98
	c-1.375,5.734-5.426,12.549-8.094,15.217l-0.883,0.883l-1.342,0.02c-0.535,0-3.002-0.047-6.121-0.829L10.619,98.94L1.364,89.688z"/>
<path fill="#666766" d="M94.277,29.068c-5.146-5.306-17.573,5.409-17.573,5.409l-3.27-3.268l11.318-13.406l3.566-5.847l-5.849,3.565
	L69.066,26.84l-3.271-3.27c0,0,10.716-12.428,5.411-17.573c0,0,1.504,2.89-9.088,13.896c0,0-5.968,4.645,2.551,13.164l0.009,0.008
	l-6.039,8.569l8.569-6.039l0.008,0.008c8.52,8.519,13.164,2.55,13.164,2.55C91.387,27.564,94.277,29.068,94.277,29.068z"/>
<rect x="-1.011" y="66.51" transform="matrix(0.7071 -0.7071 0.7071 0.7071 -40.5953 41.9438)" fill="#87461E" width="62.686" height="6.927"/>
<rect x="-3.073" y="67.32" transform="matrix(0.7071 -0.7071 0.7071 0.7071 -39.7407 39.8806)" opacity="0.5" fill="#FFFFFF" width="62.685" height="1.184"/>
<rect x="0.367" y="69.836" transform="matrix(0.7071 -0.7071 0.7071 0.7071 -41.1661 43.3216)" opacity="0.5" width="62.686" height="3.03"/>
<path fill="#ED1F24" d="M65.455,39.662c0.672,0.342,1.445,0.291,1.932-0.196l0.635-0.633c0.631-0.632,0.535-1.749-0.212-2.497
	l-3.911-3.91c-0.747-0.749-1.864-0.844-2.495-0.213l-0.634,0.634c-0.486,0.486-0.537,1.259-0.194,1.932
	c-5.273,0.377-13.31,4.95-16.004,7.644l-4.149,3.313l1.15,1.327l6.985-3.449l-6.72,4.776c5.659,7.428,15.973,7.274,15.973,7.274
	C60.506,52.971,65.078,44.935,65.455,39.662z"/>
<path opacity="0.7" fill="#FFFFFF" d="M88.262,12.049l0.058-0.093l-5.849,3.565L69.066,26.84c0,0-3.27-3.268-3.271-3.27
	c0.003,0.001-1.253,1.01-0.765,2.116c0.331,0.755,0.852,1.97,1.298,2.654c0.745,1.141,1.952,1.991,3.36,1.713
	c1.625-0.322,2.333-1.771,3.404-2.839c1.496-1.495,2.991-2.992,4.488-4.488c2.971-2.968,5.938-5.938,8.908-8.907
	C87.081,13.231,87.671,12.64,88.262,12.049z"/>
<path opacity="0.7" fill="#FFFFFF" d="M73.299,34.928c2.653,3.582,4.245,1.856,4.245,1.856c8.331-7.786,13.726-8.258,16.29-7.789
	c0.312,0.006,0.443,0.072,0.443,0.072c-5.146-5.306-17.573,5.409-17.573,5.409l-3.27-3.268
	C73.435,31.209,71.903,33.042,73.299,34.928z"/>
<path opacity="0.7" fill="#FFFFFF" d="M67.629,16.788c2.117-2.143,4.817-5.083,4.881-8.071c0.02-0.966-0.377-1.641-0.977-2.356
	c-0.104-0.123-0.207-0.247-0.326-0.363c0,0,1.504,2.89-9.088,13.896c0,0-3.225,2.518-1.537,7.243
	c0.471-4.051,3.678-6.967,6.369-9.669C67.166,17.253,67.393,17.024,67.629,16.788z"/>
<path d="M68.021,38.833c0,0-1.191,1.983-6.068-2.509c0,0,2.566,5.134,5.646,4.62L68.021,38.833z"/>
<path d="M51.814,55.96c0,0,5.39-5.005,7.699-9.369C59.514,46.591,56.434,57.5,51.814,55.96z"/>
<path opacity="0.3" fill="#6DBE45" d="M76.704,34.477l-3.27-3.268l11.318-13.406l3.566-5.847l-5.849,3.565L69.066,26.84l-3.271-3.27
	c0,0,10.716-12.428,5.411-17.573c0,0,1.504,2.89-9.088,13.896c0,0-5.968,4.645,2.551,13.164l0.009,0.008l-0.059,0.083l2.507,2.505
	l0.082-0.058l0.008,0.008c8.52,8.519,13.164,2.55,13.164,2.55c11.006-10.591,13.896-9.087,13.896-9.087
	C89.131,23.762,76.704,34.477,76.704,34.477z"/>
</svg>
