<?xml version="1.0" encoding="utf-8"?>
<!-- Generator: Adobe Illustrator 16.0.0, SVG Export Plug-In . SVG Version: 6.00 Build 0)  -->
<!DOCTYPE svg PUBLIC "-//W3C//DTD SVG 1.1//EN" "http://www.w3.org/Graphics/SVG/1.1/DTD/svg11.dtd">
<svg version="1.1" id="Layer_1" xmlns="http://www.w3.org/2000/svg" xmlns:xlink="http://www.w3.org/1999/xlink" x="0px" y="0px"
	 width="100px" height="100px" viewBox="0 0 100 100" enable-background="new 0 0 100 100" xml:space="preserve">
<path d="M2.297,90.079l42.327-42.327l-0.722-1.373c-4.046-7.692-0.844-24.101,9.497-34.546c6.828-6.897,14.145-10.395,21.75-10.395
	c9.602,0,16.012,5.666,17.748,7.401l4.631,5.057l-7.314-0.385c-0.001,0-1.126,0.284-2.267,0.284c-3.321,0-4.218,1.625-4.513,2.159
	l-1.754,3.18l-2.852-2.25c-0.805-0.636-1.563-0.987-2.133-0.987c-0.146,0-0.561,0-1.186,0.544c0.188,0.644,1.025,1.875,1.863,2.702
	l7.193,7.193L11.542,99.325L2.297,90.079z"/>
<rect x="-3.782" y="57.972" transform="matrix(0.7071 -0.7071 0.7071 0.7071 -31.6666 46.4131)" fill="#87461E" width="87.945" height="6.916"/>
<rect x="-5.841" y="58.782" transform="matrix(0.7071 -0.7071 0.7071 0.7071 -30.8142 44.3543)" opacity="0.5" fill="#FFFFFF" width="87.946" height="1.181"/>
<rect x="-2.406" y="61.294" transform="matrix(0.7071 -0.7071 0.7071 0.7071 -32.2361 47.7891)" opacity="0.5" width="87.945" height="3.025"/>
<path fill="#666766" d="M68.441,28.124l4.991,4.992l6.778-6.78l-4.99-4.991c0,0-4.557-4.428-2.105-6.878
	c2.902-2.904,5.897-1.361,7.622,0c2.903-5.264,9.981-3.449,9.981-3.449c-5.732-5.733-19.873-12.433-35.131,2.982
	c-9.732,9.83-12.138,24.903-8.96,30.945c2.824-3.437,4.591-0.832,5.207-0.215l4.99,4.991l4.674-4.674l-4.991-4.99
	c-1.27-2.542-0.629-6.222,1.134-8.667C64.814,21.447,68.441,28.124,68.441,28.124z M52.924,38.787c0.449,0.451,0.449,1.182,0,1.633
	c-0.451,0.451-1.184,0.451-1.634,0s-0.45-1.182,0-1.633S52.473,38.335,52.924,38.787z M65.854,15.646
	c0.451,0.451,0.451,1.184,0,1.634c-0.451,0.45-1.183,0.45-1.634-0.001s-0.451-1.182,0-1.633
	C64.672,15.196,65.403,15.195,65.854,15.646z M60.137,18.914c0.451-0.451,1.183-0.451,1.634,0s0.45,1.183,0,1.633
	c-0.45,0.45-1.183,0.451-1.634,0S59.688,19.364,60.137,18.914z M56.463,23.133c0.45-0.451,1.182-0.451,1.633,0s0.451,1.184,0,1.634
	c-0.451,0.451-1.182,0.451-1.633,0S56.012,23.584,56.463,23.133z M53.74,29.667c-0.451-0.451-0.451-1.184,0-1.634
	c0.449-0.451,1.182-0.451,1.633,0s0.451,1.182,0,1.633C54.922,30.118,54.191,30.118,53.74,29.667z M68.985,14.966
	c-0.451-0.451-0.451-1.184-0.001-1.634c0.451-0.451,1.184-0.451,1.635,0s0.45,1.182,0,1.633
	C70.168,15.417,69.437,15.417,68.985,14.966z M53.876,35.111c-0.451,0.451-1.183,0.451-1.634,0s-0.451-1.182,0-1.633
	s1.183-0.451,1.634,0S54.327,34.66,53.876,35.111z"/>
<path opacity="0.7" fill="#FFFFFF" d="M59.865,16.463c9.543-8.432,17.968-7.895,23.71-4.781c3.206-1.672,7.144-0.664,7.144-0.664
	c-5.732-5.733-19.873-12.433-35.131,2.982c-9.732,9.83-12.138,24.903-8.96,30.945c0.786-0.957,1.488-1.435,2.109-1.628
	C48.708,38.416,48.877,26.17,59.865,16.463z"/>
<path opacity="0.3" fill="#3E53A4" d="M68.441,28.124l4.991,4.992l6.778-6.78l-4.99-4.991c0,0-4.557-4.428-2.105-6.878
	c2.902-2.904,5.897-1.361,7.622,0c2.903-5.264,9.981-3.449,9.981-3.449c-5.732-5.733-19.873-12.433-35.131,2.982
	c-9.732,9.83-12.138,24.903-8.96,30.945c2.824-3.437,4.591-0.832,5.207-0.215l4.99,4.991l4.674-4.674l-4.991-4.99
	c-1.27-2.542-0.629-6.222,1.134-8.667C64.814,21.447,68.441,28.124,68.441,28.124z M52.924,38.787c0.449,0.451,0.449,1.182,0,1.633
	c-0.451,0.451-1.184,0.451-1.634,0s-0.45-1.182,0-1.633S52.473,38.335,52.924,38.787z M65.854,15.646
	c0.451,0.451,0.451,1.184,0,1.634c-0.451,0.45-1.183,0.45-1.634-0.001s-0.451-1.182,0-1.633
	C64.672,15.196,65.403,15.195,65.854,15.646z M60.137,18.914c0.451-0.451,1.183-0.451,1.634,0s0.45,1.183,0,1.633
	c-0.45,0.45-1.183,0.451-1.634,0S59.688,19.364,60.137,18.914z M56.463,23.133c0.45-0.451,1.182-0.451,1.633,0s0.451,1.184,0,1.634
	c-0.451,0.451-1.182,0.451-1.633,0S56.012,23.584,56.463,23.133z M53.74,29.667c-0.451-0.451-0.451-1.184,0-1.634
	c0.449-0.451,1.182-0.451,1.633,0s0.451,1.182,0,1.633C54.922,30.118,54.191,30.118,53.74,29.667z M68.985,14.966
	c-0.451-0.451-0.451-1.184-0.001-1.634c0.451-0.451,1.184-0.451,1.635,0s0.45,1.182,0,1.633
	C70.168,15.417,69.437,15.417,68.985,14.966z M53.876,35.111c-0.451,0.451-1.183,0.451-1.634,0s-0.451-1.182,0-1.633
	s1.183-0.451,1.634,0S54.327,34.66,53.876,35.111z"/>
</svg>
