<?xml version="1.0" encoding="utf-8"?>
<!-- Generator: Adobe Illustrator 16.0.0, SVG Export Plug-In . SVG Version: 6.00 Build 0)  -->
<!DOCTYPE svg PUBLIC "-//W3C//DTD SVG 1.1//EN" "http://www.w3.org/Graphics/SVG/1.1/DTD/svg11.dtd">
<svg version="1.1" id="Layer_1" xmlns="http://www.w3.org/2000/svg" xmlns:xlink="http://www.w3.org/1999/xlink" x="0px" y="0px"
	 width="100px" height="100px" viewBox="0 0 100 100" enable-background="new 0 0 100 100" xml:space="preserve">
<path d="M3.169,88.292L58.41,33.051l-0.064-0.065l3.758-3.755c-2.837-6.292-1.008-13.669,3.824-18.5l3.992-1.745l-0.129,4.491
	c-0.047,0.125-0.137,2.682,0.436,5.106l7.956-7.955l17.774-6.833l-6.834,17.774l-7.83,7.832c0.518,0.092,1.078,0.139,1.682,0.139
	c1.834,0,3.869,0.241,3.885,0.236l4.363-0.128l-2.202,4.177c-3.082,3.083-7.035,5.323-11.54,5.323c-2.42,0-4.786-0.513-6.961-1.497
	l-1.442,1.447L11.523,96.65L3.169,88.292z"/>
<path fill="#666766" d="M76.182,30.155l10.302-10.302l4.113-10.699l-10.698,4.113L69.596,23.568
	c-4.484-4.484-1.875-11.044-1.875-11.044c-5.386,5.385-5.386,14.119,0,19.504c5.387,5.386,14.12,5.387,19.506,0.001
	C87.227,32.029,80.244,34.218,76.182,30.155z"/>
<rect x="-1.944" y="59.777" transform="matrix(0.7071 -0.7071 0.7071 0.7071 -33.37 44.6497)" fill="#87461E" width="78.312" height="5.658"/>
<rect x="-3.629" y="60.438" transform="matrix(0.7071 -0.7071 0.7071 0.7071 -32.672 42.9665)" opacity="0.5" fill="#FFFFFF" width="78.313" height="0.966"/>
<rect x="-0.818" y="62.496" transform="matrix(0.7071 -0.7071 0.7071 0.7071 -33.8363 45.7758)" opacity="0.5" width="78.312" height="2.472"/>
<linearGradient id="SVGID_1_" gradientUnits="userSpaceOnUse" x1="-953.1963" y1="556.4346" x2="-947.4521" y2="556.4346" gradientTransform="matrix(0.7071 0.7071 -0.7071 0.7071 1135.5723 308.125)">
	<stop  offset="0" style="stop-color:#000000"/>
	<stop  offset="0.5" style="stop-color:#FFFFFF"/>
	<stop  offset="1" style="stop-color:#000000"/>
</linearGradient>
<path fill="url(#SVGID_1_)" d="M62.702,32.986l4.061,4.062l5.517-5.516c0,0,4.867-5.744,3.317-7.294
	c-1.552-1.549-7.378,3.233-7.378,3.233L62.702,32.986z"/>
<path opacity="0.7" fill="#FFFFFF" d="M76.361,16.802l3.537-3.536l10.698-4.113l-4.113,10.699l-3.536,3.536l2.55-9.067
	L76.361,16.802z M69.596,23.568c-4.484-4.484-1.875-11.044-1.875-11.044c-1.658,1.659-2.802,3.636-3.439,5.734
	c-0.153,2.642,1.57,6.589,3.635,7.02L69.596,23.568z M76.182,30.155l-1.668,1.673c1.115,2.525,3.906,3.682,7.105,3.596
	c2.051-0.645,3.982-1.77,5.607-3.395C87.227,32.029,80.244,34.218,76.182,30.155z"/>
<path opacity="0.3" fill="#3E53A4" d="M87.227,32.029c0,0-6.982,2.188-11.045-1.875l10.302-10.302l4.113-10.699l-10.698,4.113
	L69.596,23.568c-4.484-4.484-1.875-11.044-1.875-11.044c-4.689,4.689-5.291,11.914-1.815,17.26l-3.203,3.202l4.061,4.062
	l3.203-3.204C75.313,37.32,82.537,36.719,87.227,32.029z"/>
</svg>
