<?xml version="1.0" encoding="utf-8"?>
<!-- Generator: Adobe Illustrator 16.0.0, SVG Export Plug-In . SVG Version: 6.00 Build 0)  -->
<!DOCTYPE svg PUBLIC "-//W3C//DTD SVG 1.1//EN" "http://www.w3.org/Graphics/SVG/1.1/DTD/svg11.dtd">
<svg version="1.1" id="Layer_1" xmlns="http://www.w3.org/2000/svg" xmlns:xlink="http://www.w3.org/1999/xlink" x="0px" y="0px"
	 width="100px" height="100px" viewBox="0 0 100 100" enable-background="new 0 0 100 100" xml:space="preserve">
<path d="M1.332,91.834l9.188-11.021l0.319,0.319l53.354-53.354l-1.206-0.901l-0.104-0.154c-0.023-0.018-0.047-0.036-0.071-0.052
	c-0.161,0.104-0.54,0.412-1.058,1.221c-3.324,5.196-9.103,4.209-13.335,0.771c0.807-0.695,1.77-1.257,2.655-1.862
	c0.998-0.333,0.948-3.097,0.98-6.595c0.017-1.708,0.032-3.475,0.399-5.073c1.105-4.821,4.946-7.9,6.393-9.06l0.1-0.081
	c3.335-2.681,7.509-4.158,11.757-4.158c2.26,0,4.455,0.426,6.492,1.238l2.438,1.203c1.239,0.738,2.395,1.635,3.441,2.682
	l2.107,2.108c0,0,9.107-5.65,9.285-5.795l4.091-1.495L96.792,5.6c-0.145,0.178-13.097,18.077-15.574,20.977
	c4.947,4.758,3.905,9.984,2.709,13.315L81.36,44.77l-1.668-5.134c-0.02-0.43-1.538-3.601-5.115-4.141l-1.778-0.269L18.866,89.16
	l0.321,0.32l-11.02,9.188L1.332,91.834z M74.741,14.701c-0.008,0.018-0.805,1.803-0.781,3.715c2.003-1.702,4.549-3.827,7.135-5.972
	l-1.16-0.38c-0.009-0.003-1.703-0.54-3.681-0.587L74.741,14.701z"/>
<path fill="#666766" d="M72.927,23.389l3.732,3.73C80.323,23.09,95.411,4.653,95.411,4.653S77.142,19.575,72.927,23.389z
	 M59.157,26.233c3.15-4.926,6.039-1.549,6.039-1.549l3.897,2.91l3.862-3.862c-3.998-3.987-1.004-10.339-1.004-10.339
	s-2.563,2.841-3.221,1.407c-0.771-1.679,0.182-3.721,1.996-4.992c3.899-2.729,10.168-0.671,10.168-0.671
	c-5.733-5.734-14.388-5.272-20.021-0.741c-1.218,0.979-4.53,3.546-5.42,7.428c-0.952,4.154,1.05,11.294-3.648,12.86
	C51.807,28.683,56.671,30.121,59.157,26.233z M72.371,30.852l3.997-3.998c8.425,4.461,5.158,13.535,5.158,13.535
	s-0.182-6.987-6.488-7.939C75.038,32.45,75.037,29.909,72.371,30.852z M7.002,95.813l-2.813-2.814l6.51-7.645l3.948,3.947
	L7.002,95.813z"/>
<path opacity="0.7" fill="#FFFFFF" d="M72.927,23.389l1.797,1.794l20.688-20.53C95.411,4.653,77.142,19.575,72.927,23.389z
	 M81.526,40.389c0,0-0.039-1.433-0.666-3.09c-0.045-5.922-3.84-8.402-5.682-9.255l1.189-1.19c0.021,0.012,0.33,0.221,0.35,0.2
	C84.69,31.579,81.526,40.389,81.526,40.389z M72.956,23.732l-0.91,0.911c-5.109-3.001-2.34-8.55-2.34-8.55
	c-0.748,0.341-1.633,0.137-1.633,0.137c-3.385-2.104-1.053-5.497,0.842-7.499c-0.537,0.148-1.066,0.329-1.578,0.547
	c-2.568,1.105-5.609,2.942-6.949,5.49c-0.95,1.806-1.045,3.937-0.963,5.949c0.006,0.183,0.016,0.365,0.025,0.544
	c0.094,1.667,0.074,4.893-1.258,6.127c-2.6,2.409-6.386,1.294-6.386,1.294c4.698-1.566,2.696-8.706,3.648-12.86
	c0.89-3.882,4.202-6.449,5.42-7.428c5.633-4.531,14.287-4.993,20.021,0.741c0,0-3.209-1.047-6.465-0.646l0.005,0.001
	c-1.295,0.158-2.597,0.54-3.708,1.316c-1.814,1.271-2.768,3.313-1.996,4.992c0.658,1.434,3.221-1.407,3.221-1.407
	S68.958,19.745,72.956,23.732z M10.699,85.354l1.376,1.375l-6.811,7.346l-1.076-1.076L10.699,85.354z"/>
<path opacity="0.3" fill="#EE1C4E" d="M72.927,23.389l3.732,3.73C80.323,23.09,95.411,4.653,95.411,4.653
	S77.142,19.575,72.927,23.389z M59.157,26.233c3.15-4.926,6.039-1.549,6.039-1.549l3.897,2.91l3.862-3.862
	c-3.998-3.987-1.004-10.339-1.004-10.339s-2.563,2.841-3.221,1.407c-0.771-1.679,0.182-3.721,1.996-4.992
	c3.899-2.729,10.168-0.671,10.168-0.671c-5.733-5.734-14.388-5.272-20.021-0.741c-1.218,0.979-4.53,3.546-5.42,7.428
	c-0.952,4.154,1.05,11.294-3.648,12.86C51.807,28.683,56.671,30.121,59.157,26.233z M72.371,30.852l3.997-3.998
	c8.425,4.461,5.158,13.535,5.158,13.535s-0.182-6.987-6.488-7.939C75.038,32.45,75.037,29.909,72.371,30.852z M7.002,95.813
	l-2.813-2.814l6.51-7.645l3.948,3.947L7.002,95.813z"/>
<linearGradient id="SVGID_1_" gradientUnits="userSpaceOnUse" x1="-1034.4775" y1="516.2568" x2="-1029.2861" y2="516.2568" gradientTransform="matrix(0.7071 0.7071 -0.7071 0.7071 1138.4668 420.8193)">
	<stop  offset="0" style="stop-color:#BCBEC0"/>
	<stop  offset="1" style="stop-color:#000000"/>
</linearGradient>
<polygon fill="url(#SVGID_1_)" points="76.706,26.962 14.52,89.15 10.849,85.479 73.036,23.292 "/>
</svg>
