<?xml version="1.0" encoding="utf-8"?>
<!-- Generator: Adobe Illustrator 16.0.0, SVG Export Plug-In . SVG Version: 6.00 Build 0)  -->
<!DOCTYPE svg PUBLIC "-//W3C//DTD SVG 1.1//EN" "http://www.w3.org/Graphics/SVG/1.1/DTD/svg11.dtd">
<svg version="1.1" id="Layer_1" xmlns="http://www.w3.org/2000/svg" xmlns:xlink="http://www.w3.org/1999/xlink" x="0px" y="0px"
	 width="100px" height="100px" viewBox="0 0 100 100" enable-background="new 0 0 100 100" xml:space="preserve">
<path d="M1.768,84.651l47.791-47.788l0.379,0.379l9.943-10.05c16.377-15.326,18.107-14.794,27.158-17.38
	c5.391-1.54,12.6,1.513,12.961,1.669c0,0-10.779,3.465-41.697,34.132l0.406,0.407L10.923,93.807L1.768,84.651z"/>
<path fill="#666766" d="M53.982,45.617C87.869,10.913,96.15,12.059,96.15,12.059S82.232,6.501,62.133,29.297l-12.17,12.3
	L53.982,45.617z"/>
<linearGradient id="SVGID_1_" gradientUnits="userSpaceOnUse" x1="-521.4053" y1="971.0254" x2="-514.6172" y2="971.0254" gradientTransform="matrix(0.7071 0.7071 -0.7071 0.7071 1083.1377 -254.9912)">
	<stop  offset="0" style="stop-color:#A7A9AC"/>
	<stop  offset="1" style="stop-color:#000000"/>
</linearGradient>
<polygon fill="url(#SVGID_1_)" points="54.355,46.018 10.923,89.451 6.124,84.651 49.558,41.219 "/>
<linearGradient id="SVGID_2_" gradientUnits="userSpaceOnUse" x1="-521.3955" y1="961.7783" x2="-514.6094" y2="961.7783" gradientTransform="matrix(0.7071 0.7071 -0.7071 0.7071 1083.1377 -254.9912)">
	<stop  offset="0" style="stop-color:#FFFFFF"/>
	<stop  offset="1" style="stop-color:#FBB040"/>
</linearGradient>
<path fill="url(#SVGID_2_)" d="M36.341,64.045l5.686-5.686c-1.189-0.118-2.346-0.631-3.257-1.541
	c-0.91-0.91-1.424-2.068-1.541-3.258l-5.686,5.686c1.188,0.117,2.346,0.631,3.256,1.542C35.71,61.699,36.223,62.856,36.341,64.045z"
	/>
<linearGradient id="SVGID_3_" gradientUnits="userSpaceOnUse" x1="-521.3945" y1="944.3145" x2="-514.6094" y2="944.3145" gradientTransform="matrix(0.7071 0.7071 -0.7071 0.7071 1083.1377 -254.9912)">
	<stop  offset="0" style="stop-color:#FFFFFF"/>
	<stop  offset="1" style="stop-color:#FBB040"/>
</linearGradient>
<path fill="url(#SVGID_3_)" d="M49.578,41.212l-5.687,5.687c1.189,0.116,2.346,0.63,3.256,1.54c0.912,0.912,1.424,2.069,1.542,3.259
	l5.687-5.688L49.578,41.212z"/>
<path opacity="0.7" fill="#FFFFFF" d="M96.15,12.059c-4.908-1.251-17.076-1.975-34.018,17.238l-12.17,12.3l1.438,1.438
	C74.34,18.379,88.932,11.193,96.15,12.059z"/>
<rect x="8.005" y="82.405" transform="matrix(0.7071 -0.7071 0.7071 0.7071 -57.8056 32.0425)" opacity="0.5" fill="#FFFFFF" width="3.542" height="6.788"/>
<path opacity="0.3" fill="#3E53A4" d="M53.982,45.617C87.869,10.913,96.15,12.059,96.15,12.059S82.232,6.501,62.133,29.297
	l-12.17,12.3L53.982,45.617z"/>
<polygon points="55.309,46.709 49.962,41.597 56.656,44.88 "/>
</svg>
