<?xml version="1.0" encoding="utf-8"?>
<!-- Generator: Adobe Illustrator 16.0.0, SVG Export Plug-In . SVG Version: 6.00 Build 0)  -->
<!DOCTYPE svg PUBLIC "-//W3C//DTD SVG 1.1//EN" "http://www.w3.org/Graphics/SVG/1.1/DTD/svg11.dtd">
<svg version="1.1" id="Layer_1" xmlns="http://www.w3.org/2000/svg" xmlns:xlink="http://www.w3.org/1999/xlink" x="0px" y="0px"
	 width="100px" height="100px" viewBox="0 0 100 100" enable-background="new 0 0 100 100" xml:space="preserve">
<path d="M3.457,85.143l20.154-20.156l1.644-1.26l18.54-18.93l1.036-0.53l23.684-24.188l0.88-0.534l5.038-5.38
	c6.706-6.67,13.041-9.132,13.997-9.479c0.504-0.205,2.121-0.799,3.934-0.799c2.633,0,4.688,1.277,5.644,3.504l0.34,0.794
	L98.225,9.04c-0.054,0.379-0.384,2.349-1.558,3.857c-0.724,0.932-9.798,9.359-17.409,16.38l-0.631,0.976L54.535,53.841l-0.636,1.14
	L34.915,73.577l-1.156,1.537L13.594,95.28L3.457,85.143z"/>
<path fill="#188F45" d="M76.605,16.349l-5.251,5.609l-0.91,0.553L46.68,46.781l-1.036,0.53L27.302,66.037l-1.657,1.271L7.813,85.143
	l5.782,5.781L31.428,73.09l1.166-1.551l18.832-18.446l0.635-1.142l24.166-23.659l0.656-1.015c0,0,16.622-15.33,17.354-16.271
	c0.73-0.94,0.939-2.402,0.939-2.402c-1.253-2.923-5.639-1.043-5.639-1.043S83.306,9.682,76.605,16.349z"/>
<path opacity="0.5" d="M13.594,90.924L31.428,73.09l1.166-1.551l18.832-18.446l0.635-1.142l24.166-23.659l0.656-1.015
	c0,0,16.622-15.33,17.354-16.271c0.73-0.94,0.939-2.402,0.939-2.402c-0.416-0.969-1.177-1.403-2.008-1.561L74.084,25.939
	l-0.314,0.94L49.231,49.957l-0.314,1.148L29.912,69.902l-0.522,1.356L10.88,88.212L13.594,90.924z"/>
<path opacity="0.5" fill="#FFFFFF" d="M26.153,68.23l0.835-0.417l19.004-19.633l1.254-0.625l23.599-23.6l1.148-0.731L85.14,9.716
	c-2.345,1.376-5.383,3.497-8.534,6.632l-5.251,5.609l-0.91,0.553L46.68,46.781l-1.036,0.53L27.302,66.037l-1.657,1.271L7.813,85.143
	l0.81,0.81L26.153,68.23z"/>
<path fill="#E7E860" d="M94.197,10.21c0.73-0.942,0.822-1.919,0.822-1.919c-1.059-2.388-5.482-0.73-5.482-0.73
	s-4.803,1.637-10.51,6.546c-0.417,0.572-0.58,1.086-0.387,1.503c0.729,1.568,5.786,1.089,10.662-1.524
	C92.004,12.638,94.162,10.255,94.197,10.21z"/>
<linearGradient id="SVGID_1_" gradientUnits="userSpaceOnUse" x1="-614.3047" y1="906.7207" x2="-608.27" y2="906.7207" gradientTransform="matrix(0.7071 0.7071 -0.7071 0.7071 1160.5039 -197.2939)">
	<stop  offset="0" style="stop-color:#000000"/>
	<stop  offset="1" style="stop-color:#C49A6C"/>
</linearGradient>
<path fill="url(#SVGID_1_)" d="M80.451,14.714c-0.513-1.112,3.344-3.498,6.685-5.17c3.501-1.75,5.52-1.831,6.552-1.174
	c0.432,0.274,0.156,1.409-4.15,4.41C86.325,15.02,80.968,15.823,80.451,14.714z"/>
<path d="M77.928,27.093c0,0-4.556-0.802-6.448-4.234c0,0,1.284,4.363,5.486,4.813C77.482,27.726,77.291,27.337,77.928,27.093z"/>
<path d="M53.256,51.638c0,0-3.208,1.54-6.191-3.08c0,0,1.315,3.946,4.523,4.106C52.093,52.689,52.691,52.014,53.256,51.638z"/>
<path d="M26.771,68.48c0,0,2.502,3.272,6.979,3.562c0,0-0.594,1.062-1.925,0.722C30.742,72.488,27.541,71.705,26.771,68.48z"/>
<path fill="#FFFFFF" d="M71.863,21.429c0,0-0.43,1.31,3.399,4.257C75.263,25.686,71.424,25.161,71.863,21.429z"/>
<path fill="#FFFFFF" d="M46.743,46.985c0,0,1.605,3.272,4.075,4.331C50.818,51.316,47.257,50.996,46.743,46.985z"/>
<path fill="#FFFFFF" d="M26.819,66.94c0,0,1.155,2.551,4.235,3.754C31.054,70.694,26.867,70.646,26.819,66.94z"/>
</svg>
