<?xml version="1.0" encoding="utf-8"?>
<!-- Generator: Adobe Illustrator 16.0.0, SVG Export Plug-In . SVG Version: 6.00 Build 0)  -->
<!DOCTYPE svg PUBLIC "-//W3C//DTD SVG 1.1//EN" "http://www.w3.org/Graphics/SVG/1.1/DTD/svg11.dtd">
<svg version="1.1" id="Layer_1" xmlns="http://www.w3.org/2000/svg" xmlns:xlink="http://www.w3.org/1999/xlink" x="0px" y="0px"
	 width="100px" height="100px" viewBox="0 0 100 100" enable-background="new 0 0 100 100" xml:space="preserve">
<path d="M1.039,90.465l55.229-55.228l-0.064-0.064l3.223-3.224l-5.673-4.073l3.167-2.539c0.076-0.063,8.166-5.724,10.092-16.889
	l1.732-7.026l3.85,5.968c0.115,0.198,2.791,5.679,3.562,8.566l22.587-7.251L80.604,29.096l0.941,11.885l-7.709-5.118l-4.761,4.76
	l-0.743-0.742l-1.385,1.388L9.394,98.824L1.039,90.465z"/>
<rect x="-4.075" y="61.95" transform="matrix(0.7071 -0.7071 0.7071 0.7071 -35.531 43.7812)" fill="#87461E" width="78.313" height="5.659"/>
<rect x="-5.759" y="62.612" transform="matrix(0.7071 -0.7071 0.7071 0.7071 -34.833 42.0967)" opacity="0.5" fill="#FFFFFF" width="78.314" height="0.966"/>
<rect x="-2.949" y="64.668" transform="matrix(0.7071 -0.7071 0.7071 0.7071 -35.9974 44.9072)" opacity="0.5" width="78.313" height="2.474"/>
<path fill="#666766" d="M64.863,32.06l-6.018-4.319c0,0,9.674-7.754,10.633-22.005c0,0,3.103,5.317,4.947,13.367l18.926-7.06
	L77.158,28.184l2.511,9.156l-5.833-5.833l-4.763,4.763L64.863,32.06z"/>
<path opacity="0.7" fill="#FFFFFF" d="M72.803,23.531l-2.438-6.276c-0.312,3.429-5.154,9.634-7.998,13.012l-3.521-2.527
	c0,0,9.674-7.754,10.633-22.005c0,0,3.103,5.317,4.947,13.367l18.926-7.06l-5.936,5.884L72.803,23.531z M75.239,30.103l1.745,4.553
	l2.685,2.685l-2.511-9.156L75.239,30.103z"/>
<linearGradient id="SVGID_1_" gradientUnits="userSpaceOnUse" x1="-1125.4023" y1="520.8086" x2="-1119.6582" y2="520.8086" gradientTransform="matrix(0.7071 0.7071 -0.7071 0.7071 1230.0176 457.2578)">
	<stop  offset="0" style="stop-color:#000000"/>
	<stop  offset="0.5" style="stop-color:#FFFFFF"/>
	<stop  offset="1" style="stop-color:#000000"/>
</linearGradient>
<path fill="url(#SVGID_1_)" d="M60.572,35.16l4.061,4.062l5.516-5.517c0,0,4.868-5.743,3.318-7.293
	c-1.552-1.55-7.379,3.233-7.379,3.233L60.572,35.16z"/>
<path opacity="0.3" fill="#3E53A4" d="M93.352,12.042l-18.926,7.06c-1.845-8.05-4.947-13.367-4.947-13.367
	C68.52,19.986,58.846,27.74,58.846,27.74l5.323,3.822l-3.597,3.598l4.061,4.062l3.694-3.697l0.746,0.745l4.763-4.763l5.833,5.833
	l-2.511-9.156L93.352,12.042z"/>
</svg>
