<?xml version="1.0" encoding="utf-8"?>
<!-- Generator: Adobe Illustrator 16.0.0, SVG Export Plug-In . SVG Version: 6.00 Build 0)  -->
<!DOCTYPE svg PUBLIC "-//W3C//DTD SVG 1.1//EN" "http://www.w3.org/Graphics/SVG/1.1/DTD/svg11.dtd">
<svg version="1.1" id="Layer_1" xmlns="http://www.w3.org/2000/svg" xmlns:xlink="http://www.w3.org/1999/xlink" x="0px" y="0px"
	 width="100px" height="100px" viewBox="0 0 100 100" enable-background="new 0 0 100 100" xml:space="preserve">
<polygon points="3.829,87.805 59.069,32.565 59.005,32.5 60.905,30.6 54.541,27.48 61.137,23.826 60.58,22.311 67.49,2.186 
	73.897,16.844 95.959,3.962 83.086,26.013 97.717,32.412 77.59,39.321 76.075,38.764 73.021,44.676 69.309,39.039 12.184,96.164 "/>
<polygon fill="#666766" points="91.453,32.284 79.866,28.131 77.637,28.509 91.256,8.666 71.374,22.313 71.77,20.036 67.617,8.449 
	63.813,22.178 65.301,26.226 65.299,26.226 59.533,27.233 65.299,28.242 65.998,28.119 67.553,32.348 71.782,33.904 71.66,34.603 
	72.668,40.369 73.676,34.603 73.675,34.6 77.723,36.088 "/>
<polygon opacity="0.7" fill="#FFFFFF" points="77.723,36.088 91.453,32.284 79.857,28.122 77.637,28.509 91.256,8.666 
	71.374,22.313 71.777,20.043 67.617,8.449 63.813,22.178 67.645,15.196 70.291,24.605 82.821,17.169 75.12,29.652 84.296,32.301 "/>
<polygon opacity="0.7" fill="#FFFFFF" points="71.782,33.904 71.66,34.603 72.668,40.369 73.675,34.6 72.636,36.248 "/>
<polygon opacity="0.7" fill="#FFFFFF" points="65.998,28.119 65.299,28.242 59.533,27.233 65.299,26.226 65.301,26.226 
	63.561,27.174 "/>
<rect x="-1.285" y="59.289" transform="matrix(0.7071 -0.7071 0.7071 0.7071 -32.832 44.9748)" fill="#87461E" width="78.314" height="5.659"/>
<rect x="-2.969" y="59.952" transform="matrix(0.7071 -0.7071 0.7071 0.7071 -32.1349 43.2901)" opacity="0.5" fill="#FFFFFF" width="78.313" height="0.966"/>
<rect x="-0.158" y="62.007" transform="matrix(0.7071 -0.7071 0.7071 0.7071 -33.2983 46.1011)" opacity="0.5" width="78.314" height="2.474"/>
<linearGradient id="SVGID_1_" gradientUnits="userSpaceOnUse" x1="-1127.8008" y1="517.8008" x2="-1122.0566" y2="517.8008" gradientTransform="matrix(0.7071 0.7071 -0.7071 0.7071 1232.377 458.4199)">
	<stop  offset="0" style="stop-color:#000000"/>
	<stop  offset="0.5" style="stop-color:#FFFFFF"/>
	<stop  offset="1" style="stop-color:#000000"/>
</linearGradient>
<path fill="url(#SVGID_1_)" d="M63.361,32.5l4.061,4.062l5.516-5.517c0,0,4.869-5.742,3.318-7.292
	c-1.551-1.551-7.379,3.232-7.379,3.232L63.361,32.5z"/>
<polygon opacity="0.3" fill="#3E53A4" points="91.453,32.284 79.866,28.131 77.637,28.509 91.256,8.666 71.374,22.313 71.77,20.036 
	67.617,8.449 63.813,22.178 65.301,26.226 65.299,26.226 59.533,27.233 65.299,28.242 65.998,28.119 66.467,29.395 63.361,32.5 
	67.422,36.562 70.536,33.446 71.782,33.904 71.66,34.603 72.668,40.369 73.676,34.603 73.675,34.6 77.723,36.088 "/>
</svg>
