<?xml version="1.0" encoding="utf-8"?>
<!-- Generator: Adobe Illustrator 16.0.0, SVG Export Plug-In . SVG Version: 6.00 Build 0)  -->
<!DOCTYPE svg PUBLIC "-//W3C//DTD SVG 1.1//EN" "http://www.w3.org/Graphics/SVG/1.1/DTD/svg11.dtd">
<svg version="1.1" id="Layer_1" xmlns="http://www.w3.org/2000/svg" xmlns:xlink="http://www.w3.org/1999/xlink" x="0px" y="0px"
	 width="100px" height="100px" viewBox="0 0 100 100" enable-background="new 0 0 100 100" xml:space="preserve">
<path d="M2.456,85.143L22.61,64.986l1.644-1.26l18.54-18.93l1.036-0.53l23.684-24.188l0.881-0.534l5.037-5.38
	c6.706-6.67,13.041-9.132,13.997-9.479c0.505-0.205,2.122-0.799,3.934-0.799c2.633,0,4.688,1.277,5.644,3.504l0.34,0.794
	L97.225,9.04c-0.055,0.379-0.385,2.349-1.559,3.857c-0.723,0.932-9.797,9.359-17.408,16.38l-0.631,0.976L53.535,53.841l-0.637,1.14
	L33.915,73.577l-1.156,1.537L12.594,95.28L2.456,85.143z"/>
<path fill="#188F45" d="M75.604,16.349l-5.251,5.609l-0.91,0.553L45.68,46.781l-1.036,0.53L26.302,66.037l-1.656,1.271L6.812,85.143
	l5.782,5.781L30.427,73.09l1.166-1.551l18.832-18.446l0.635-1.142l24.166-23.659l0.656-1.015c0,0,16.621-15.33,17.353-16.271
	c0.731-0.94,0.94-2.402,0.94-2.402c-1.253-2.923-5.639-1.043-5.639-1.043S82.305,9.682,75.604,16.349z"/>
<path opacity="0.5" d="M12.594,90.924L30.427,73.09l1.166-1.551l18.832-18.446l0.635-1.142l24.166-23.659l0.656-1.015
	c0,0,16.621-15.33,17.353-16.271c0.731-0.94,0.94-2.402,0.94-2.402c-0.416-0.969-1.178-1.403-2.008-1.561L73.083,25.939l-0.313,0.94
	L48.23,49.957l-0.314,1.148L28.911,69.902l-0.522,1.356L9.88,88.212L12.594,90.924z"/>
<path opacity="0.5" fill="#FFFFFF" d="M25.153,68.23l0.835-0.417l19.004-19.633l1.254-0.625l23.6-23.6l1.148-0.731L84.139,9.716
	c-2.344,1.376-5.383,3.497-8.534,6.632l-5.251,5.609l-0.91,0.553L45.68,46.781l-1.036,0.53L26.302,66.037l-1.656,1.271L6.812,85.143
	l0.81,0.81L25.153,68.23z"/>
<path fill="#E7E860" d="M93.196,10.21c0.731-0.942,0.823-1.919,0.823-1.919c-1.059-2.388-5.482-0.73-5.482-0.73
	s-4.803,1.637-10.51,6.546c-0.418,0.572-0.58,1.086-0.387,1.503c0.729,1.568,5.785,1.089,10.661-1.524
	C91.004,12.638,93.161,10.255,93.196,10.21z"/>
<linearGradient id="SVGID_1_" gradientUnits="userSpaceOnUse" x1="-615.0132" y1="907.4277" x2="-608.9775" y2="907.4277" gradientTransform="matrix(0.7071 0.7071 -0.7071 0.7071 1160.5039 -197.2939)">
	<stop  offset="0" style="stop-color:#000000"/>
	<stop  offset="1" style="stop-color:#C49A6C"/>
</linearGradient>
<path fill="url(#SVGID_1_)" d="M79.451,14.714c-0.514-1.112,3.343-3.498,6.684-5.17c3.501-1.75,5.52-1.831,6.553-1.174
	c0.431,0.274,0.156,1.409-4.15,4.41C85.324,15.02,79.967,15.823,79.451,14.714z"/>
<path d="M75.965,27.671c-4.202-0.45-5.486-4.813-5.486-4.813c1.893,3.433,6.449,4.234,6.449,4.234
	C76.291,27.337,76.482,27.726,75.965,27.671z M52.256,51.638c0,0-3.208,1.54-6.192-3.08c0,0,1.315,3.946,4.524,4.106
	C51.092,52.689,51.691,52.014,52.256,51.638z M30.823,72.764c1.331,0.34,1.925-0.722,1.925-0.722
	c-4.476-0.289-6.979-3.562-6.979-3.562C26.54,71.705,29.741,72.488,30.823,72.764z"/>
<path fill="#FFFFFF" d="M70.863,21.429c0,0-0.431,1.31,3.398,4.257C74.262,25.686,70.423,25.161,70.863,21.429z M49.818,51.316
	c-2.47-1.059-4.075-4.331-4.075-4.331C46.256,50.996,49.818,51.316,49.818,51.316z M30.053,70.694
	c-3.08-1.203-4.235-3.754-4.235-3.754C25.866,70.646,30.053,70.694,30.053,70.694z"/>
</svg>
