<?xml version="1.0" encoding="utf-8"?>
<!-- Generator: Adobe Illustrator 25.0.1, SVG Export Plug-In . SVG Version: 6.00 Build 0)  -->
<svg version="1.0" id="Layer_1" xmlns="http://www.w3.org/2000/svg" xmlns:xlink="http://www.w3.org/1999/xlink" x="0px" y="0px"
	 viewBox="0 0 100 100" style="enable-background:new 0 0 100 100;" xml:space="preserve">
<style type="text/css">
	.st0{fill:#666766;}
	.st1{opacity:0.7;fill:#FFFFFF;}
	.st2{fill:#27367A;}
	.st3{fill:#FFFFFF;}
	.st4{opacity:0.3;fill:#3E53A4;}
</style>
<path d="M15.92,95.96c-2.96,0-5.76-1.16-7.87-3.28c-4.31-4.3-4.37-11.24-0.15-15.47c1.4-1.4,3.13-2.36,5.03-2.82
	c0.2-0.78,0.6-1.52,1.21-2.14c0.29-0.29,0.61-0.54,0.96-0.74c0.22-0.69,0.6-1.34,1.14-1.88c0.4-0.4,0.86-0.71,1.35-0.94
	c0.22-0.53,0.55-1.02,0.98-1.45c0.38-0.39,0.82-0.69,1.3-0.92c0.23-0.55,0.56-1.06,1-1.5c0.35-0.35,0.74-0.63,1.17-0.85
	c0.23-0.61,0.59-1.17,1.06-1.64c0.38-0.38,0.81-0.68,1.27-0.9c0.22-0.56,0.56-1.08,1.01-1.53c0.39-0.39,0.85-0.71,1.34-0.94
	c0.23-0.54,0.56-1.03,0.99-1.46c0.3-0.3,0.63-0.55,0.98-0.75c0.22-0.69,0.61-1.33,1.14-1.86c0.42-0.42,0.92-0.76,1.46-0.99
	c0.22-0.49,0.53-0.94,0.93-1.34c0.41-0.41,0.89-0.73,1.4-0.96c0.22-0.51,0.54-0.98,0.96-1.4c0.51-0.51,1.11-0.88,1.77-1.11
	l0.14-8.84L96.71,4.02L60.45,64.23l-8.78,0.14c-0.22,0.68-0.6,1.3-1.12,1.82c-0.41,0.41-0.88,0.73-1.4,0.96
	c-0.23,0.51-0.55,0.99-0.96,1.4c-0.39,0.4-0.85,0.71-1.34,0.94c-0.23,0.54-0.56,1.03-0.99,1.46c-0.53,0.53-1.16,0.91-1.86,1.14
	c-0.2,0.35-0.45,0.68-0.75,0.98c-0.42,0.43-0.92,0.76-1.46,0.99c-0.23,0.49-0.54,0.95-0.94,1.34c-0.44,0.44-0.96,0.79-1.53,1.02
	c-0.22,0.46-0.52,0.89-0.9,1.27c-0.47,0.47-1.03,0.83-1.64,1.06c-0.22,0.43-0.5,0.82-0.85,1.17c-0.44,0.44-0.95,0.78-1.5,1.01
	c-0.22,0.47-0.52,0.91-0.91,1.3c-0.42,0.42-0.92,0.76-1.45,0.98c-0.23,0.5-0.54,0.95-0.94,1.35c-0.54,0.54-1.18,0.93-1.89,1.15
	c-0.2,0.34-0.45,0.66-0.73,0.95c-0.62,0.62-1.38,1.04-2.2,1.23c-0.46,1.87-1.42,3.58-2.8,4.96C21.49,94.85,18.8,95.96,15.92,95.96z
	 M15.58,83.64c-0.25,0-0.6,0.06-0.9,0.36c-0.52,0.52-0.48,1.39,0.09,1.96c0.39,0.39,0.83,0.45,1.06,0.45c0.25,0,0.6-0.06,0.9-0.36
	c0.52-0.52,0.48-1.39-0.09-1.96C16.25,83.7,15.81,83.64,15.58,83.64z"/>
<polygon class="st0" points="58.72,61.18 39.24,61.49 39.55,42.01 90.21,10.52 "/>
<polygon class="st1" points="58.72,61.18 52.24,48.63 90.21,10.52 39.55,42.01 39.24,61.49 39.37,61.49 49.2,51.66 "/>
<path class="st2" d="M23.53,84.67l24.39-23.08l-8.79-8.79L16.05,77.19c-2.16-0.15-4.35,0.57-5.98,2.2c-3.03,3.03-2.96,8,0.15,11.11
	c3.11,3.11,8.09,3.18,11.11,0.15C22.96,89.03,23.69,86.84,23.53,84.67z M12.59,88.14c-1.77-1.77-1.8-4.59-0.08-6.31
	c1.72-1.72,4.55-1.68,6.31,0.09c1.77,1.77,1.8,4.59,0.09,6.31C17.18,89.94,14.36,89.91,12.59,88.14z"/>
<path class="st3" d="M46.19,64.02l-9.44-9.44c-0.6-0.6-0.6-1.58,0-2.18c0.6-0.6,1.58-0.6,2.18,0l9.44,9.44c0.6,0.6,0.6,1.58,0,2.18
	C47.77,64.62,46.79,64.62,46.19,64.02z M46.01,66.38c0.6-0.6,0.6-1.58,0-2.18l-9.44-9.44c-0.6-0.6-1.58-0.6-2.18,0
	c-0.6,0.6-0.6,1.58,0,2.18l9.44,9.44C44.43,66.98,45.41,66.98,46.01,66.38z M43.68,68.77c0.6-0.6,0.6-1.58,0-2.18l-9.5-9.5
	c-0.6-0.6-1.58-0.6-2.18,0c-0.6,0.6-0.6,1.58,0,2.18l9.5,9.5C42.11,69.37,43.08,69.37,43.68,68.77z M41.08,70.88
	c0.6-0.6,0.6-1.58,0-2.18l-9.01-9.01c-0.6-0.6-1.58-0.6-2.18,0c-0.6,0.6-0.6,1.58,0,2.18l9.01,9.01
	C39.5,71.48,40.48,71.48,41.08,70.88z M38.68,73.21c0.6-0.6,0.6-1.58,0-2.18l-8.94-8.94c-0.6-0.6-1.58-0.6-2.18,0
	c-0.6,0.6-0.6,1.58,0,2.18l8.95,8.94C37.11,73.81,38.08,73.81,38.68,73.21z M36.25,75.5c0.6-0.6,0.6-1.58,0-2.18l-8.8-8.8
	c-0.6-0.6-1.58-0.6-2.18,0c-0.6,0.6-0.6,1.58,0,2.18l8.8,8.8C34.68,76.1,35.65,76.1,36.25,75.5z M33.76,77.73
	c0.6-0.6,0.6-1.58,0-2.18l-8.54-8.54c-0.6-0.6-1.58-0.6-2.18,0c-0.6,0.6-0.6,1.58,0,2.18l8.54,8.54
	C32.19,78.33,33.16,78.33,33.76,77.73z M31.35,80.03c0.6-0.6,0.6-1.58,0-2.18l-8.43-8.43c-0.6-0.6-1.58-0.6-2.18,0
	c-0.6,0.6-0.6,1.58,0,2.18l8.43,8.43C29.77,80.63,30.75,80.63,31.35,80.03z M28.96,82.36c0.6-0.6,0.6-1.58,0-2.18l-8.37-8.37
	c-0.6-0.6-1.58-0.6-2.18,0c-0.6,0.6-0.6,1.58,0,2.18l8.37,8.37C27.38,82.96,28.36,82.96,28.96,82.36z M26.34,84.46
	c0.6-0.6,0.6-1.58,0-2.18l-7.85-7.85c-0.6-0.6-1.58-0.6-2.18,0c-0.6,0.6-0.6,1.58,0,2.18l7.85,7.85
	C24.76,85.06,25.74,85.06,26.34,84.46z"/>
<polygon class="st4" points="39.55,42.01 39.37,52.81 47.92,61.35 58.72,61.18 90.21,10.52 "/>
</svg>
