<?xml version="1.0" encoding="utf-8"?>
<!-- Generator: Adobe Illustrator 16.0.0, SVG Export Plug-In . SVG Version: 6.00 Build 0)  -->
<!DOCTYPE svg PUBLIC "-//W3C//DTD SVG 1.1//EN" "http://www.w3.org/Graphics/SVG/1.1/DTD/svg11.dtd">
<svg version="1.1" id="Layer_1" xmlns="http://www.w3.org/2000/svg" xmlns:xlink="http://www.w3.org/1999/xlink" x="0px" y="0px"
	 width="100px" height="100px" viewBox="0 0 100 100" enable-background="new 0 0 100 100" xml:space="preserve">
<path d="M17.057,87.746l-0.515-0.148l-3.278-1.016l0.858-1.983l-0.353-0.015l3.033-9.097l0.312,0.011
	c0.063-0.427,0.089-0.752,0.097-0.992c0.291-9.104,0.69-21.563,8.173-28.416c3.138-2.874,6.181-3.271,9.001-3.271
	c0.896,0,1.824,0.042,3.028,0.109l1.773-0.402c0.686-0.155,1.843-1.047,2.299-1.502c0.529-0.538,1.353-1.643,1.501-2.297l0.402-1.78
	c-0.242-4.34-0.441-8.089,3.161-12.024c6.853-7.482,19.313-7.88,28.41-8.172c0.243-0.008,0.571-0.034,0.999-0.098l-0.012-0.313
	l9.098-3.031l0.016,0.352l1.98-0.858l1.018,3.277c0.701,2.261-0.994,3.889-2.674,4.998l0.031,0.693l-1.945,0.907L59.936,46.213
	l0.496,0.496L46.764,60.376l-0.496-0.495l-23.13,23.131l-0.909,1.943l-0.706-0.031c-1.151,1.734-2.354,2.822-4.001,2.822H17.057z
	 M37.338,52.992c-1.87,0-3.24,0.457-4.312,1.439c-3.407,3.12-6.029,9.258-6.751,15.516l15.031-15.03l-0.495-0.495l1.865-1.865
	c-0.606,0.174-1.027,0.227-1.208,0.242l-0.133,0.012c-0.742,0.152-1.534,0.227-2.399,0.227c-0.289,0-0.592-0.008-0.909-0.025
	C37.789,52.998,37.561,52.992,37.338,52.992z M53.268,40.884c-0.01,0.201-0.051,0.656-0.233,1.313l1.44-1.441l0.496,0.496
	l15.438-15.438c-6.26,0.723-12.396,3.344-15.514,6.75c-0.689,0.752-1.585,2.087-1.422,4.999
	C53.541,38.792,53.475,39.887,53.268,40.884z"/>
<rect x="50.217" y="6.277" transform="matrix(0.7068 0.7074 -0.7074 0.7068 50.5993 -21.0095)" fill="#FFFFFF" width="0.859" height="88.524"/>
<radialGradient id="SVGID_1_" cx="-224.6514" cy="812.4414" r="34.4796" gradientTransform="matrix(0.7071 0.7071 -0.7071 0.7071 778.1113 -371.3037)" gradientUnits="userSpaceOnUse">
	<stop  offset="0" style="stop-color:#6D6E70"/>
	<stop  offset="1" style="stop-color:#8B5E3C"/>
</radialGradient>
<path fill="url(#SVGID_1_)" d="M46.243,45.781c2.767-2.767,4.387-3.884,4.155-8.047c-0.172-3.057,0.556-5.429,2.226-7.25
	c4.51-4.927,12.971-7.703,20.176-7.933c4.473-0.143,12.652-4.477,12.318-5.559c0,0-6.244,2.715-10.055,2.836
	c-8.551,0.274-20.263,0.647-26.241,7.174c-2.618,2.859-2.604,5.353-2.356,9.804c0.2,3.549-1.387,5.28-2.652,6.544
	c-1.266,1.266-2.997,2.853-6.546,2.654c-4.452-0.249-6.944-0.262-9.803,2.356c-6.527,5.979-6.901,17.689-7.174,26.24
	c-0.121,3.811-2.836,10.055-2.836,10.055c1.082,0.335,5.416-7.846,5.558-12.318c0.23-7.205,3.007-15.665,7.933-20.177
	c1.821-1.669,4.193-2.396,7.25-2.225C42.358,50.168,43.475,48.548,46.243,45.781z"/>
<rect x="49.49" y="43.981" transform="matrix(0.7071 0.7071 -0.7071 0.7071 50.5809 -20.9838)" fill="#FBA919" width="2.259" height="13.168"/>
<path fill="#70C169" d="M43.664,43.202c0,0-1.898,1.898-3.796,2.328l1.341,4.199c0,0,2.403-0.201,5.592-3.391
	c3.301-3.301,3.39-5.59,3.39-5.59l-4.2-1.342C45.562,41.305,43.664,43.202,43.664,43.202z"/>
<polygon fill="#FBA919" points="82.146,17.521 79.11,18.533 79.211,21.266 82.248,19.85 "/>
<polygon fill="#FBA919" points="17.982,81.686 18.994,78.65 21.728,78.75 20.31,81.787 "/>
</svg>
