<?xml version="1.0" encoding="utf-8"?>
<!-- Generator: Adobe Illustrator 16.0.0, SVG Export Plug-In . SVG Version: 6.00 Build 0)  -->
<!DOCTYPE svg PUBLIC "-//W3C//DTD SVG 1.1//EN" "http://www.w3.org/Graphics/SVG/1.1/DTD/svg11.dtd">
<svg version="1.1" id="Layer_1" xmlns="http://www.w3.org/2000/svg" xmlns:xlink="http://www.w3.org/1999/xlink" x="0px" y="0px"
	 width="100px" height="100px" viewBox="0 0 100 100" enable-background="new 0 0 100 100" xml:space="preserve">
<path d="M8.731,98c-1.976,0-3.661-0.641-4.874-1.853c-1.615-1.614-2.204-4.031-1.66-6.806c0.419-2.141,1.493-4.242,2.87-5.619
	c1.45-1.451,7.669-6.424,12.569-9.602l1.199-1.266c-0.226-1.311,0.165-2.705,1.174-3.713c0.688-0.688,1.568-1.108,2.519-1.213
	c0.027-0.244,0.076-0.488,0.146-0.727l-0.343,0.344l-0.761-1.57l-1.483-1.483l0.335-0.335c-0.148-0.361-0.24-0.74-0.276-1.125
	l-0.371-0.767c-2.95-1.632-6.048-3.918-7.126-4.996c-2.752-2.751-2.752-7.231,0-9.984c1.334-1.334,3.107-2.068,4.993-2.068
	c1.886,0,3.659,0.734,4.992,2.067c1.087,1.088,3.405,4.232,5.041,7.207l0.953,0.461c0.266,0.049,0.524,0.124,0.772,0.226
	l0.337-0.338l1.256,1.257l0.247,0.12l0.123-1.167l1.937-0.205l-0.07-0.07l2.887-2.167l-1.048-1.047l55.193-46.16l7.885-3.665
	l-3.545,8.005l-46.16,55.193l-1.047-1.048l-2.167,2.889l-0.072-0.072l-0.204,1.936l-1.162,0.124l0.125,0.258l1.248,1.247
	l-0.342,0.342c0.095,0.235,0.167,0.479,0.215,0.726l0.482,0.998c2.973,1.635,6.113,3.949,7.199,5.036
	c1.333,1.332,2.068,3.105,2.068,4.991c0.001,1.886-0.733,3.659-2.068,4.993c-1.332,1.334-3.105,2.068-4.991,2.068h0
	c-1.887,0-3.66-0.735-4.994-2.069c-1.076-1.076-3.358-4.17-4.991-7.117l-0.785-0.38c-0.384-0.037-0.756-0.131-1.107-0.274
	l-0.337,0.337l-1.476-1.477l-1.564-0.757l0.363-0.362c-0.248,0.074-0.502,0.127-0.763,0.155c-0.103,0.919-0.504,1.812-1.206,2.515
	c-0.804,0.803-1.865,1.24-2.993,1.24c-0.247,0-0.49-0.021-0.728-0.061l-1.262,1.195c-3.349,5.168-8.338,11.307-9.6,12.568
	C14.449,96.77,11.415,98,8.731,98z"/>
<linearGradient id="SVGID_1_" gradientUnits="userSpaceOnUse" x1="-866.1309" y1="448.5273" x2="-815.625" y2="448.5273" gradientTransform="matrix(0.7071 0.7071 -0.7071 0.7071 962.3496 326.8223)">
	<stop  offset="0" style="stop-color:#BCBEC0"/>
	<stop  offset="1" style="stop-color:#000000"/>
</linearGradient>
<path fill="url(#SVGID_1_)" d="M50.539,79.547c-0.975-0.977-4.614-3.622-7.573-5.072l-0.08-0.08l0.14-0.141l-0.902-1.865
	l-0.302,0.301c0.299-0.351,0.292-0.873-0.038-1.204c-0.348-0.349-0.915-0.349-1.264,0l-0.271,0.271l-0.466-0.465l1.024-1.023
	l-2.407-2.406l1.323-1.324l-0.4-0.4l2.828-0.299l0.346-3.278l1.438-1.437l0.961,0.963l2.167-2.887l1.189,1.188l46.936-55.57
	L39.617,51.752l1.188,1.189l-2.887,2.166l0.962,0.963l-1.438,1.438l-3.277,0.345l-0.298,2.829l-0.401-0.4l-1.323,1.324l-2.406-2.408
	l-1.024,1.024l-0.467-0.467l0.271-0.271c0.35-0.349,0.35-0.914,0-1.263c-0.312-0.313-0.793-0.33-1.143-0.08l0.251-0.25l-1.865-0.902
	l-0.141,0.141l-0.092-0.092c-1.451-2.959-4.096-6.598-5.072-7.573c-1.555-1.554-4.075-1.554-5.629,0
	c-1.554,1.555-1.555,4.075,0,5.629c0.976,0.976,4.614,3.622,7.573,5.071l0.091,0.092l-0.18,0.182l0.902,1.864l0.171-0.171
	c-0.25,0.35-0.233,0.83,0.08,1.143c0.349,0.35,0.915,0.349,1.264,0l0.391-0.391l0.466,0.467l-1.143,1.143l3.099,3.098
	c-0.449-0.448-1.176-0.448-1.624,0c-0.449,0.449-0.449,1.176,0,1.624l0.314,0.315l-2.048,2.162l-0.372-0.371
	c-0.448-0.449-1.175-0.449-1.625,0c-0.448,0.447-0.448,1.175,0,1.624l0.415,0.414l-2.985,3.151
	c-4.996,3.195-11.197,8.215-12.371,9.39c-1.895,1.895-3.105,6.175-1.211,8.069c1.894,1.894,6.175,0.684,8.069-1.21
	c1.174-1.175,6.194-7.376,9.39-12.372l3.151-2.986l0.415,0.416c0.448,0.449,1.176,0.449,1.625,0.001
	c0.448-0.449,0.448-1.177,0-1.624l-0.372-0.372l2.162-2.05l0.315,0.316c0.448,0.447,1.175,0.447,1.624,0
	c0.448-0.449,0.448-1.177-0.001-1.625l3.098,3.099l1.144-1.144l0.465,0.467l-0.39,0.391c-0.35,0.349-0.35,0.915,0,1.264
	c0.332,0.33,0.854,0.337,1.205,0.037l-0.223,0.223l1.866,0.904l0.18-0.182l0.081,0.08c1.451,2.959,4.097,6.598,5.072,7.573
	c1.555,1.556,4.076,1.556,5.63,0.001C52.095,83.621,52.094,81.101,50.539,79.547z"/>
<polygon fill="#ED1F24" points="48.251,60.387 95.188,4.816 93.444,6.288 43.798,55.934 47.063,59.199 "/>
<path opacity="0.5" fill="#ED1F24" d="M39.723,66.537l-1.323,1.324l-6.256-6.256l1.323-1.324L39.723,66.537z M42.497,62.56
	l1.438-1.437l0.961,0.963l2.167-2.887l-6.258-6.258l-2.887,2.166l0.962,0.963l-1.438,1.438L42.497,62.56z M30.475,73.771
	l-4.244-4.242l-2.048,2.162l4.13,4.13L30.475,73.771z M40.229,71.736l-0.446-0.445l0.271-0.271l-0.025-0.025l-3.94,3.939
	l0.025,0.025l0.541-0.541l0.445,0.447L40.229,71.736z M25.05,63.896l3.94-3.941l-0.006-0.004l-0.271,0.271l-0.467-0.467
	l-3.127,3.128l0.466,0.467l-0.541,0.541L25.05,63.896z M43.026,74.254l-0.902-1.865l-4.412,4.41l1.866,0.904L43.026,74.254z
	 M27.626,57.891l-1.865-0.902l-3.449,3.449l0.902,1.864L27.626,57.891z"/>
<path opacity="0.5" fill="#FFFFFF" d="M17.113,80.697c-2.443,2.76-4.752,5.686-6.202,9.098c-0.367,0.865-0.829,1.773-1.449,2.484
	c-1.398,1.604-3.224,0.932-3.254-1.22c-0.022-1.548,0.732-2.779,1.628-3.952c1.564-2.045,12.453-9.805,12.453-9.805
	C19.201,78.406,18.142,79.537,17.113,80.697z M45.464,78.077c0.93,1.122,1.763,2.3,2.366,3.63c0.294,0.65,1.388,3.547,2.588,2.348
	c1.518-1.52-0.391-3.749-0.391-3.749c-0.948-1.269-7.386-5.317-7.393-5.321C43.758,75.947,44.671,77.121,45.464,78.077z
	 M24.99,57.339c-0.004-0.007-4.054-6.443-5.322-7.393c0,0-2.23-1.909-3.749-0.39c-1.201,1.2,1.697,2.293,2.348,2.588
	c1.331,0.604,2.507,1.436,3.629,2.365C22.854,55.303,24.027,56.217,24.99,57.339z"/>
<polygon fill="#FFFFFF" points="26.112,63.875 29.782,60.205 36.278,66.703 29.782,62.371 31.887,65.561 28.458,63.094 "/>
<polygon fill="#ED1F24" points="39.166,70.793 35.497,74.464 28.999,67.967 35.497,72.297 33.391,69.109 36.82,71.576 "/>
</svg>
