<?xml version="1.0" encoding="utf-8"?>
<!-- Generator: Adobe Illustrator 16.0.0, SVG Export Plug-In . SVG Version: 6.00 Build 0)  -->
<!DOCTYPE svg PUBLIC "-//W3C//DTD SVG 1.1//EN" "http://www.w3.org/Graphics/SVG/1.1/DTD/svg11.dtd">
<svg version="1.1" id="Layer_1" xmlns="http://www.w3.org/2000/svg" xmlns:xlink="http://www.w3.org/1999/xlink" x="0px" y="0px"
	 width="100px" height="100px" viewBox="0 0 100 100" enable-background="new 0 0 100 100" xml:space="preserve">
<path d="M1.212,67.639l9.711-5.988l7.671,7.671L29.573,58.34l-6.02-6.018l2.178-2.179c2.164-2.164,4.479-3.261,6.882-3.261
	c0.709,0,1.414,0.098,2.107,0.291c0.021-0.011,0.042-0.021,0.063-0.032c0.375-0.188,0.986-0.497,1.223-0.649
	C63.643,20.045,90.015,5.086,90.309,4.908l8.248-3.661l-4.078,7.986c-0.186,0.283-15.986,25.741-41.523,54.085
	c-0.154,0.248-0.476,0.9-0.674,1.302c-0.008,0.017-0.018,0.035-0.025,0.053c0.639,2.241,0.563,5.526-2.954,9.042l-2.178,2.178
	l-6.019-6.02l-10.98,10.979l7.672,7.672l-5.989,9.712L1.212,67.639z"/>
<path fill="#666766" d="M34.259,51.004l14.182,14.183c0.566-0.626,1.588-3.222,2.151-3.846C76.305,32.815,94.809,4.638,94.809,4.638
	S65.786,22.235,38.051,48.799C37.411,49.412,34.897,50.385,34.259,51.004z"/>
<g>
	<path opacity="0.7" fill="#FFFFFF" d="M37.009,52.104l4.14,4.14C53.311,44.173,58.314,41.11,58.314,41.11L94.754,4.672
		c-1.348,0.822-29.637,18.202-56.703,44.126c-0.498,0.478-2.123,1.171-3.123,1.749C35.665,50.922,36.36,51.455,37.009,52.104z"/>
	<path opacity="0.7" fill="#FFFFFF" d="M44.054,59.148C55.104,47.943,58.314,41.11,58.314,41.11L42.446,57.541L44.054,59.148z"/>
</g>
<path opacity="0.3" fill="#EE1C4E" d="M34.259,51.004l14.182,14.183c0.566-0.626,1.588-3.222,2.151-3.846
	C76.305,32.815,94.809,4.638,94.809,4.638S65.786,22.235,38.051,48.799C37.411,49.412,34.897,50.385,34.259,51.004z"/>
<linearGradient id="SVGID_1_" gradientUnits="userSpaceOnUse" x1="-889.5029" y1="437.7207" x2="-854.0234" y2="437.7207" gradientTransform="matrix(0.7071 0.7071 -0.7071 0.7071 956.3682 375.9258)">
	<stop  offset="0" style="stop-color:#FBB040"/>
	<stop  offset="1" style="stop-color:#754C29"/>
</linearGradient>
<path fill="url(#SVGID_1_)" d="M25.77,80.852l15.336-15.334l6.019,6.02c3.538-3.537,2.67-6.648,0.216-9.102L37.009,52.104
	c-2.453-2.453-5.562-3.321-9.1,0.218l6.02,6.019L18.594,73.678l-8.127-8.129l-4.322,2.666l25.087,25.088l2.666-4.323L25.77,80.852z"
	/>
<path fill="#FFFFFF" d="M33.274,53.631c-0.59,0.59-1.545,0.59-2.135,0c-0.59-0.588-0.59-1.545,0-2.135
	c0.589-0.59,1.545-0.589,2.135,0C33.863,52.086,33.863,53.041,33.274,53.631z M48.026,66.25c-0.589-0.591-1.545-0.591-2.135-0.001
	c-0.59,0.589-0.589,1.545,0,2.135c0.589,0.589,1.545,0.589,2.135,0C48.616,67.794,48.616,66.838,48.026,66.25z M36.239,63.089
	c-0.513-0.513-1.343-0.513-1.855,0c-0.513,0.513-0.513,1.343,0,1.856c0.512,0.511,1.342,0.512,1.855-0.001
	C36.752,64.432,36.752,63.602,36.239,63.089z M29.059,70.27c-0.512-0.513-1.343-0.514-1.855,0c-0.513,0.513-0.513,1.343,0,1.855
	c0.512,0.512,1.343,0.512,1.856,0C29.572,71.612,29.572,70.782,29.059,70.27z M21.879,77.449c-0.513-0.513-1.343-0.513-1.856,0
	c-0.513,0.514-0.513,1.343,0,1.856c0.513,0.511,1.343,0.513,1.856-0.001C22.392,78.792,22.392,77.962,21.879,77.449z M26.732,83.854
	c-0.513-0.512-1.343-0.513-1.855,0c-0.513,0.513-0.513,1.343,0,1.855s1.343,0.514,1.856,0
	C27.245,85.197,27.244,84.367,26.732,83.854z M31.196,88.319c-0.513-0.513-1.343-0.513-1.855-0.001
	c-0.513,0.514-0.513,1.344,0,1.857c0.512,0.512,1.342,0.512,1.855-0.002C31.709,89.662,31.709,88.832,31.196,88.319z M10.815,67.938
	c-0.513-0.513-1.343-0.513-1.855-0.001c-0.513,0.514-0.513,1.344,0,1.855c0.512,0.514,1.342,0.514,1.855,0
	C11.328,69.281,11.327,68.449,10.815,67.938z M15.28,72.402c-0.513-0.512-1.343-0.512-1.855,0c-0.513,0.513-0.513,1.343,0,1.855
	c0.512,0.512,1.342,0.513,1.855,0C15.792,73.745,15.792,72.915,15.28,72.402z"/>
<path d="M35.921,51.191l12.705,12.705c0,0,0.674,0.77,0.77,2.406l3.08-4.234L35.921,51.191z"/>
</svg>
