<?xml version="1.0" encoding="utf-8"?>
<!-- Generator: Adobe Illustrator 16.0.0, SVG Export Plug-In . SVG Version: 6.00 Build 0)  -->
<!DOCTYPE svg PUBLIC "-//W3C//DTD SVG 1.1//EN" "http://www.w3.org/Graphics/SVG/1.1/DTD/svg11.dtd">
<svg version="1.1" id="Layer_1" xmlns="http://www.w3.org/2000/svg" xmlns:xlink="http://www.w3.org/1999/xlink" x="0px" y="0px"
	 width="100px" height="100px" viewBox="0 0 100 100" enable-background="new 0 0 100 100" xml:space="preserve">
<path d="M6.504,93.668l-3.679-9.894l4.392-4.391l4.072-0.739c1.208-3.025,3.858-6.538,8.103-10.783
	c1.895-1.895,3.606-3.436,5.192-4.674c0.043-0.412,0.112-0.818,0.208-1.217l-2.666-3.199c-2.767-3.32-3.93-7.045-3.456-11.07
	c1.094-9.283,10.862-16.675,11.278-16.985l0.076-0.057l0.079-0.052c0.386-0.252,2.428-1.514,4.742-1.514
	c1.546,0,2.913,0.549,3.953,1.589c3.071,3.072,1.8,7.323-0.679,9.973l-0.181,0.194l-0.212,0.16
	c-0.043,0.033-4.843,3.721-8.224,9.418c-0.542,0.914,0.127,2.81,1.725,5.068c0.528-0.129,1.072-0.213,1.627-0.249l5.207-5.256
	l40.376-36.988l18.291-9.549l-9.547,18.291L50.206,62.139l-5.252,5.188c-0.036,0.563-0.119,1.112-0.25,1.646
	c2.375,1.687,3.746,1.898,4.284,1.898c0.401,0,0.63-0.108,0.767-0.19c5.698-3.379,9.385-8.179,9.421-8.228l0.157-0.206l0.193-0.183
	c0.44-0.412,2.785-2.467,5.717-2.467c1.615,0,3.086,0.618,4.256,1.787c2.408,2.408,1.773,6.104,0.076,8.695l-0.053,0.08
	l-0.057,0.074c-0.346,0.465-8.611,11.381-18.691,11.381c-3.381,0-6.532-1.197-9.364-3.558l-3.185-2.653
	c-0.407,0.097-0.822,0.168-1.244,0.211c-1.235,1.58-2.772,3.286-4.661,5.176c-4.237,4.236-7.744,6.884-10.765,8.096l-0.686,4.118
	l-4.416,4.415L6.504,93.668z"/>
<linearGradient id="SVGID_1_" gradientUnits="userSpaceOnUse" x1="-941.6895" y1="392.2539" x2="-891.3921" y2="392.2539" gradientTransform="matrix(0.7071 0.7071 -0.7071 0.7071 955.8857 440.4707)">
	<stop  offset="0" style="stop-color:#BCBEC0"/>
	<stop  offset="1" style="stop-color:#000000"/>
</linearGradient>
<path fill="url(#SVGID_1_)" d="M67,68.393c0,0,2.039-3.113,0.321-4.83c-2.361-2.361-5.689,0.752-5.689,0.752
	s-3.97,5.258-10.305,9.016c-3.032,1.799-7.109-0.613-10.346-3.362c1.65-2.603,1.036-6.437-1.64-9.112
	c-2.675-2.676-6.51-3.289-9.114-1.639c-2.754-3.238-5.175-7.324-3.374-10.36c3.758-6.334,9.017-10.305,9.017-10.305
	s3.113-3.328,0.751-5.69c-1.717-1.717-4.83,0.322-4.83,0.322S15.16,45.603,24.493,56.8c1.516,1.819,2.763,3.315,3.79,4.548
	c-0.528,1.023-0.745,2.199-0.649,3.407c-1.699,1.203-3.69,2.911-6.063,5.284c-5.778,5.778-7.872,9.514-7.968,12.07l-0.638-0.639
	l-4.251,0.771l-2.312,2.313l2.501,6.727l6.781,2.557l2.313-2.313l0.716-4.307l-0.638-0.638c2.557-0.096,6.292-2.19,12.07-7.968
	c2.367-2.368,4.073-4.354,5.275-6.051c1.217,0.1,2.4-0.116,3.431-0.649c1.229,1.026,2.721,2.269,4.534,3.778
	C54.582,85.024,67,68.393,67,68.393z"/>
<path fill="#666766" d="M39.341,60.855c1.507,1.506,2.359,3.381,2.523,5.195l6.123-6.049l36.729-40.125l7.241-11.65l-11.65,7.241
	l-40.11,36.743l-6.064,6.122C35.951,58.492,37.83,59.346,39.341,60.855z"/>
<path opacity="0.7" fill="#FFFFFF" d="M34.132,58.333c1.819,0.159,3.698,1.013,5.208,2.522c1.507,1.506,2.359,3.381,2.523,5.195
	l4.779-4.723l-1.333-6.119L91.569,8.467l-11.263,7l-40.11,36.743l-1.534,1.551L34.132,58.333z"/>
<path fill="#3C56A6" d="M29.036,71.16c-1.545-1.545-2.52-3.406-2.907-5.269c-1.344,1.078-2.853,2.442-4.558,4.147
	c-5.778,5.778-7.872,9.514-7.968,12.07l4.472,4.472c2.557-0.096,6.292-2.19,12.07-7.968c1.703-1.703,3.063-3.208,4.141-4.551
	C32.431,73.673,30.576,72.701,29.036,71.16z"/>
<path fill="#FBB040" d="M20.98,85.788l-3.946-10.712c0.405-0.518,0.854-1.061,1.343-1.623L22.6,84.912
	C22.026,85.263,21.487,85.555,20.98,85.788z M25.147,66.707c-0.467,0.4-0.957,0.838-1.462,1.304l4.576,12.421
	c0.462-0.432,0.942-0.893,1.434-1.378L25.147,66.707z M21.571,70.039c-0.452,0.452-0.874,0.887-1.281,1.314l4.45,12.08
	c0.48-0.367,0.978-0.762,1.5-1.202l-4.541-12.319C21.656,69.957,21.616,69.994,21.571,70.039z"/>
<path d="M31.892,61.453c2.203-1.33,4.86-1.253,6.482,0.369c1.623,1.623,1.701,4.281,0.371,6.482L31.892,61.453z M37.42,69.629
	l-6.853-6.852c-1.329,2.203-1.253,4.859,0.37,6.482C32.56,70.883,35.218,70.96,37.42,69.629z M10.922,84.122l-0.966-0.966
	L7.542,85.57l0.966,0.967L10.922,84.122z M14.224,85.008l-0.966-0.967l-3.623,3.623l0.966,0.966L14.224,85.008z M16.316,87.101
	l-0.965-0.966l-3.623,3.623l0.966,0.967L16.316,87.101z M17.202,90.401l-0.966-0.966L13.82,91.85l0.967,0.967L17.202,90.401z"/>
<path opacity="0.3" fill="#EE1C4E" d="M39.341,60.855c1.507,1.506,2.359,3.381,2.523,5.195l6.123-6.049l36.729-40.125l7.241-11.65
	l-11.65,7.241l-40.11,36.743l-6.064,6.122C35.951,58.492,37.83,59.346,39.341,60.855z"/>
</svg>
