<?xml version="1.0" encoding="utf-8"?>
<!-- Generator: Adobe Illustrator 16.0.0, SVG Export Plug-In . SVG Version: 6.00 Build 0)  -->
<!DOCTYPE svg PUBLIC "-//W3C//DTD SVG 1.1//EN" "http://www.w3.org/Graphics/SVG/1.1/DTD/svg11.dtd">
<svg version="1.1" id="Layer_1" xmlns="http://www.w3.org/2000/svg" xmlns:xlink="http://www.w3.org/1999/xlink" x="0px" y="0px"
	 width="100px" height="100px" viewBox="0 0 100 100" enable-background="new 0 0 100 100" xml:space="preserve">
<path d="M1.675,68.519l37.047-37.902l3.675,5.868c6.396-5.275,20.123-16.573,24.3-19.847C72.466,12.114,91.223,4.419,92.02,4.095
	l6.795-2.778l-2.779,6.794c-0.326,0.796-8.021,19.552-12.542,25.321c-3.31,4.222-14.922,18.327-19.848,24.3l5.866,3.675
	L31.611,98.454l-7.04-7.04l14.823-14.658l-1.424-1.425l-7.662-5.511l-5.511-7.66l-1.423-1.424L8.715,75.559L1.675,68.519z
	 M35.219,51.74l5.121,3.683l-3.363-8.44l-3.239,3.275L35.219,51.74z M48.39,64.911l1.481,1.481l3.275-3.238l-8.44-3.365
	L48.39,64.911z"/>
<path fill="#666766" d="M48.343,51.785L41.557,41.17c0,0,21.673-17.902,27.041-22.109C74.095,14.75,93.185,6.945,93.185,6.945
	S85.377,26.035,81.07,31.532c-4.209,5.368-22.112,27.04-22.112,27.04L48.343,51.785z"/>
<path opacity="0.7" fill="#FFFFFF" d="M47.438,50.372l31.82-31.82c-4.381-0.55-14.128,6.297-14.128,6.297L43.448,44.13l-1.891-2.96
	c0,0,21.673-17.902,27.041-22.109C74.095,14.75,93.185,6.945,93.185,6.945l-44.841,44.84L47.438,50.372z"/>
<path opacity="0.5" d="M81.07,31.532c-4.209,5.368-22.112,27.04-22.112,27.04l-6.719-4.295c2.427-1.273,5.097-3.072,5.097-3.072
	c13.871-10.602,24.604-22.573,27.868-26.656C83.719,27.454,82.26,30.013,81.07,31.532z"/>
<path fill="#FEE05F" d="M38.189,35.568L6.006,68.492l2.697,2.697l14.66-14.822l3.79,3.791l5.362,7.455l7.456,5.363l3.791,3.791
	L28.939,91.426l2.697,2.697L64.561,61.94l-12.162-7.615l1.04-7.633l-7.634,1.04L38.189,35.568z M58.658,62.035l-8.799,8.701
	l-3.824-3.824l-5.362-7.455l-7.456-5.363l-3.825-3.824l8.703-8.798l5.859,14.702L58.658,62.035z M25.108,54.603l2.539-2.567
	l3.815,3.814l5.361,7.456l7.456,5.362l3.815,3.814l-2.567,2.539l-3.8-3.801l-5.361-7.456l-7.456-5.36L25.108,54.603z"/>
<polygon opacity="0.5" points="25.108,54.603 28.909,58.404 36.365,63.765 41.726,71.221 45.526,75.021 43.762,76.768 
	39.971,72.977 32.515,67.613 27.153,60.158 23.363,56.367 "/>
<polygon opacity="0.5" points="29.393,50.27 33.218,54.094 40.673,59.457 46.036,66.912 49.859,70.736 48.094,72.482 44.279,68.668 
	36.823,63.306 31.462,55.85 27.647,52.035 "/>
<polygon points="46.095,49.936 45.713,54.416 50.193,54.034 50.574,49.555 "/>
<path opacity="0.3" fill="#3E53A4" d="M68.598,19.061c-5.174,4.055-25.48,20.82-26.949,22.034l4.156,6.637l7.634-1.04l-1.04,7.633
	l6.635,4.155c1.215-1.471,17.981-21.776,22.037-26.948c4.307-5.498,12.114-24.587,12.114-24.587S74.095,14.75,68.598,19.061z"/>
<path d="M42.397,36.484l3.408,11.248l-6.686-10.877L42.397,36.484z M63.646,57.732l-11.247-3.407l9.051,5.629L63.646,57.732z"/>
</svg>
