<?xml version="1.0" encoding="utf-8"?>
<!-- Generator: Adobe Illustrator 16.0.0, SVG Export Plug-In . SVG Version: 6.00 Build 0)  -->
<!DOCTYPE svg PUBLIC "-//W3C//DTD SVG 1.1//EN" "http://www.w3.org/Graphics/SVG/1.1/DTD/svg11.dtd">
<svg version="1.1" id="Layer_1" xmlns="http://www.w3.org/2000/svg" xmlns:xlink="http://www.w3.org/1999/xlink" x="0px" y="0px"
	 width="100px" height="100px" viewBox="0 0 100 100" enable-background="new 0 0 100 100" xml:space="preserve">
<path d="M16.648,95.698c-2.962,0-5.758-1.165-7.873-3.28c-4.306-4.305-4.373-11.244-0.149-15.469
	c1.402-1.401,3.134-2.363,5.029-2.82c0.196-0.783,0.6-1.523,1.21-2.135c0.291-0.291,0.614-0.539,0.96-0.74
	c0.215-0.689,0.595-1.338,1.141-1.883c0.397-0.397,0.855-0.713,1.351-0.939c0.225-0.526,0.552-1.02,0.98-1.447
	c0.384-0.385,0.824-0.693,1.302-0.918c0.226-0.545,0.559-1.056,1.001-1.498c0.348-0.348,0.741-0.633,1.167-0.851
	c0.229-0.61,0.587-1.169,1.063-1.644c0.376-0.377,0.807-0.68,1.274-0.903c0.225-0.556,0.563-1.076,1.013-1.526
	c0.395-0.395,0.849-0.709,1.341-0.936c0.229-0.536,0.561-1.03,0.986-1.455c0.296-0.297,0.626-0.547,0.98-0.75
	c0.221-0.693,0.606-1.328,1.136-1.856c0.425-0.425,0.919-0.757,1.457-0.985c0.222-0.486,0.533-0.942,0.933-1.342
	c0.411-0.41,0.886-0.734,1.401-0.963c0.224-0.507,0.544-0.982,0.959-1.397c0.508-0.508,1.113-0.883,1.773-1.107l0.141-8.838
	L97.441,3.751L61.18,63.969l-8.775,0.139c-0.223,0.68-0.604,1.304-1.125,1.824c-0.409,0.41-0.883,0.733-1.397,0.961
	c-0.228,0.515-0.551,0.988-0.961,1.398c-0.395,0.396-0.849,0.71-1.342,0.936c-0.229,0.537-0.561,1.031-0.986,1.455
	c-0.53,0.529-1.165,0.915-1.858,1.136c-0.199,0.351-0.449,0.681-0.747,0.979c-0.425,0.426-0.919,0.758-1.456,0.987
	c-0.227,0.492-0.542,0.947-0.938,1.342c-0.444,0.443-0.962,0.786-1.527,1.016c-0.22,0.46-0.521,0.892-0.901,1.272
	c-0.474,0.474-1.032,0.831-1.641,1.06c-0.217,0.426-0.503,0.82-0.851,1.168c-0.438,0.438-0.948,0.776-1.504,1.006
	c-0.22,0.469-0.523,0.908-0.911,1.295c-0.424,0.425-0.915,0.756-1.449,0.984c-0.227,0.496-0.543,0.953-0.94,1.35
	c-0.537,0.537-1.182,0.926-1.887,1.146c-0.2,0.343-0.446,0.663-0.735,0.952c-0.616,0.616-1.376,1.038-2.204,1.231
	c-0.464,1.865-1.421,3.585-2.798,4.963C22.227,94.587,19.528,95.698,16.648,95.698z M16.314,83.375
	c-0.245,0-0.601,0.063-0.901,0.364c-0.515,0.515-0.478,1.394,0.085,1.957c0.39,0.39,0.83,0.448,1.057,0.448
	c0.245,0,0.601-0.064,0.902-0.365c0.515-0.516,0.477-1.393-0.086-1.956C16.981,83.434,16.541,83.375,16.314,83.375z"/>
<polygon fill="#666766" points="59.451,60.916 39.967,61.225 40.277,41.744 90.938,10.254 "/>
<polygon opacity="0.7" fill="#FFFFFF" points="59.451,60.916 52.967,48.361 90.941,10.256 40.279,41.743 39.971,61.227 
	40.103,61.226 49.932,51.396 "/>
<path fill="#27367A" d="M24.264,84.41l24.395-23.08l-8.793-8.794L16.784,76.928c-2.161-0.153-4.352,0.572-5.98,2.199
	c-3.027,3.028-2.961,8.004,0.149,11.113c3.11,3.11,8.085,3.18,11.115,0.15C23.695,88.762,24.42,86.57,24.264,84.41z M13.32,87.874
	c-1.766-1.767-1.805-4.593-0.085-6.313c1.721-1.72,4.547-1.682,6.313,0.085c1.767,1.767,1.803,4.593,0.086,6.312
	C17.914,89.679,15.088,89.641,13.32,87.874z"/>
<path fill="#FFFFFF" d="M46.924,63.754l-9.437-9.438c-0.602-0.602-0.602-1.576,0-2.178s1.576-0.602,2.178,0l9.437,9.438
	c0.602,0.601,0.602,1.576,0,2.178S47.526,64.355,46.924,63.754z M46.743,66.113c0.602-0.602,0.602-1.576,0-2.178l-9.437-9.438
	c-0.602-0.602-1.576-0.602-2.178,0s-0.602,1.576,0,2.178l9.437,9.438C45.167,66.715,46.141,66.715,46.743,66.113z M44.415,68.504
	c0.602-0.602,0.602-1.576,0-2.178l-9.5-9.5c-0.602-0.602-1.576-0.602-2.178,0s-0.602,1.576,0,2.178l9.5,9.5
	C42.838,69.105,43.813,69.105,44.415,68.504z M41.809,70.618c0.601-0.601,0.601-1.577,0-2.178L32.8,59.432
	c-0.602-0.602-1.576-0.602-2.178,0s-0.602,1.576,0,2.178l9.009,9.009C40.232,71.219,41.208,71.22,41.809,70.618z M39.417,72.945
	c0.602-0.601,0.602-1.576,0-2.178l-8.944-8.944c-0.602-0.602-1.577-0.602-2.179-0.001c-0.602,0.602-0.602,1.578,0,2.18l8.945,8.944
	C37.841,73.547,38.815,73.547,39.417,72.945z M36.987,75.235c0.602-0.602,0.602-1.577,0-2.179l-8.803-8.803
	c-0.602-0.602-1.577-0.602-2.178,0c-0.602,0.601-0.602,1.576,0,2.178l8.804,8.804C35.411,75.836,36.385,75.836,36.987,75.235z
	 M34.495,77.463c0.602-0.602,0.602-1.577,0-2.178l-8.539-8.539c-0.602-0.602-1.576-0.602-2.178,0c-0.601,0.602-0.602,1.576,0,2.178
	l8.539,8.539C32.918,78.063,33.893,78.063,34.495,77.463z M32.079,79.766c0.601-0.602,0.601-1.576,0-2.178l-8.425-8.426
	c-0.602-0.602-1.578-0.602-2.179,0c-0.602,0.602-0.601,1.576,0.001,2.178l8.425,8.426C30.502,80.367,31.477,80.367,32.079,79.766z
	 M29.691,82.098c0.602-0.602,0.602-1.576,0-2.178l-8.371-8.371c-0.602-0.601-1.576-0.601-2.177,0c-0.602,0.602-0.602,1.577,0,2.179
	l8.371,8.37C28.115,82.699,29.09,82.699,29.691,82.098z M27.07,84.196c0.602-0.602,0.602-1.577,0-2.179l-7.847-7.848
	c-0.602-0.602-1.578-0.602-2.179,0c-0.601,0.602-0.601,1.576,0,2.178l7.848,7.849C25.494,84.798,26.468,84.798,27.07,84.196z"/>
<polygon opacity="0.3" fill="#3E53A4" points="40.277,41.744 40.106,52.545 48.647,61.086 59.451,60.916 90.938,10.254 "/>
</svg>
