<?xml version="1.0" encoding="utf-8"?>
<!-- Generator: Adobe Illustrator 16.0.0, SVG Export Plug-In . SVG Version: 6.00 Build 0)  -->
<!DOCTYPE svg PUBLIC "-//W3C//DTD SVG 1.1//EN" "http://www.w3.org/Graphics/SVG/1.1/DTD/svg11.dtd">
<svg version="1.1" id="Layer_1" xmlns="http://www.w3.org/2000/svg" xmlns:xlink="http://www.w3.org/1999/xlink" x="0px" y="0px"
	 width="100px" height="100px" viewBox="0 0 100 100" enable-background="new 0 0 100 100" xml:space="preserve">
<path d="M20.937,95.996c-4.083,0-8.177-1.656-10.952-4.432c-4.076-4.076-6.077-7.559-6.115-10.646
	c-0.055-4.523,3.758-9.054,8.159-9.694c0.434-0.063,0.84-0.107,1.226-0.15c1.414-0.153,1.651-0.209,2.167-0.725l22.564-22.564
	l-1.902-1.902l10.064-10.066l2.985,2.985l2.45-2.451l-1.082-1.082l19.309-19.307c0.515-0.515,0.57-0.752,0.723-2.167
	c0.043-0.386,0.086-0.791,0.148-1.223c0.646-4.425,5.041-8.162,9.601-8.162h0.097c3.086,0.039,6.567,2.038,10.645,6.114
	c2.425,2.425,4.014,5.886,4.361,9.498c0.38,3.952-0.813,7.628-3.271,10.086L68.727,53.495l-1.354-1.354l-2.449,2.45l3.258,3.258
	L58.115,67.913l-1.903-1.903L29.568,92.653C27.414,94.809,24.348,95.996,20.937,95.996z"/>
<rect x="50.167" y="40.589" transform="matrix(0.7071 0.7071 -0.7071 0.7071 49.2177 -27.8713)" fill="#666766" width="16.169" height="9.77"/>
<rect x="49.641" y="38.932" transform="matrix(-0.7071 0.7071 -0.7071 -0.7071 123.9985 34.1089)" opacity="0.7" fill="#FFFFFF" width="10.587" height="7.606"/>
<linearGradient id="SVGID_1_" gradientUnits="userSpaceOnUse" x1="-683.938" y1="472.7432" x2="-658.1289" y2="472.7432" gradientTransform="matrix(0.7071 0.7071 -0.7071 0.7071 860.207 192.1934)">
	<stop  offset="0" style="stop-color:#FFFFFF"/>
	<stop  offset="1" style="stop-color:#000000"/>
</linearGradient>
<path fill="url(#SVGID_1_)" d="M61.922,55.945l1.903,1.904l-5.71,5.709l-1.903-1.904L27.391,90.476
	c-3.904,3.904-11.323,2.815-15.228-1.089c-1.973-1.973-5.176-5.566-5.212-8.506c-0.036-2.898,2.53-6.173,5.523-6.609
	c2.094-0.305,3.505-0.123,5.126-1.744c2.392-2.393,16.12-16.121,24.742-24.742l-1.902-1.902l5.708-5.71l1.902,1.903L61.922,55.945z
	 M68.727,49.139l1.36-1.359l19.849-19.849c3.904-3.903,2.814-11.323-1.089-15.228c-1.973-1.972-5.566-5.177-8.505-5.213
	c-2.9-0.035-6.175,2.531-6.611,5.524c-0.304,2.095-0.123,3.505-1.742,5.125c-3.535,3.535-15.771,15.77-15.771,15.77
	s-0.497,0.496-1.359,1.359L68.727,49.139z"/>
<path opacity="0.6" d="M68.375,38.345c1.289-1.289,2.512-2.512,3.676-3.675c-5.916-1.85-7.531-7.442-7.531-7.442
	c3.304,3.304,7.222,4.491,10.078,4.896c1.795-1.795,3.398-3.4,4.803-4.804c-5.915-1.85-7.531-7.442-7.531-7.442
	c3.304,3.303,7.223,4.49,10.079,4.895c2-2,3.347-3.346,3.941-3.942c3.778-3.778,0.804-9.643,0.337-10.5
	c1.01,0.815,1.918,1.672,2.62,2.374c3.903,3.905,4.993,11.324,1.089,15.228L71.994,45.872l-1.907,1.908l-1.36,1.359L54.875,35.286
	c0.585-0.59,0.949-0.962,0.939-0.972C65.653,40.887,68.375,38.345,68.375,38.345z M42.346,47.788
	c-0.577,0.573-1.096,1.09-1.504,1.498l8.295,8.297c-2.531,2.531-0.329,0.329-2.853,2.853c-2.855-0.404-6.773-1.591-10.078-4.895
	c0,0,1.616,5.592,7.531,7.441c-1.498,1.498-2.967,2.967-4.396,4.396c-2.856-0.405-6.773-1.591-10.078-4.896
	c0,0,1.616,5.593,7.531,7.442c-1.542,1.542-3.013,3.013-4.395,4.396c-2.856-0.404-6.773-1.592-10.078-4.896
	c0,0,1.616,5.593,7.531,7.442c-1.684,1.684-3.165,3.164-4.395,4.395c-2.856-0.404-6.774-1.591-10.078-4.895
	c0,0,1.616,5.592,7.531,7.441c-0.816,0.816-1.271,1.271-1.271,1.271s-5.94,5.495-10.502,3.243c0.359,0.389,0.708,0.75,1.023,1.064
	c3.905,3.904,11.324,4.993,15.228,1.089l28.821-28.821L42.346,47.788z"/>
<path opacity="0.7" fill="#FFFFFF" d="M82.52,13.088c0,1.843-1.494,3.337-3.338,3.337c-1.842,0-3.336-1.494-3.336-3.337
	c0-1.843,1.494-3.337,3.336-3.337C81.025,9.75,82.52,11.245,82.52,13.088z M11.68,77.254c-1.843,0-3.337,1.494-3.337,3.338
	c0,1.842,1.494,3.336,3.337,3.336c1.843,0,3.337-1.494,3.337-3.336C15.017,78.748,13.522,77.254,11.68,77.254z"/>
<rect x="50.167" y="40.589" transform="matrix(0.7071 0.7071 -0.7071 0.7071 49.2177 -27.8713)" opacity="0.3" fill="#3E53A4" width="16.169" height="9.77"/>
<polygon points="61.536,55.432 50.179,44.271 63.141,53.768 "/>
</svg>
