<?xml version="1.0" encoding="utf-8"?>
<!-- Generator: Adobe Illustrator 16.0.0, SVG Export Plug-In . SVG Version: 6.00 Build 0)  -->
<!DOCTYPE svg PUBLIC "-//W3C//DTD SVG 1.1//EN" "http://www.w3.org/Graphics/SVG/1.1/DTD/svg11.dtd">
<svg version="1.1" id="Layer_1" xmlns="http://www.w3.org/2000/svg" xmlns:xlink="http://www.w3.org/1999/xlink" x="0px" y="0px"
	 width="100px" height="100px" viewBox="0 0 100 100" enable-background="new 0 0 100 100" xml:space="preserve">
<path d="M44.988,92.242c-14.46,0-27.483-6.937-36.127-18.553l-3.817-7.129l7.187,4.24c6.422,4.141,13.87,4.788,21.541,4.788
	c13.658,0,26.25-6.97,33.54-18.376L66.6,56.808l1.621-2.701c0.036-0.063,3.843-6.508,4.699-13.499
	c-0.146-0.229-0.41-0.527-0.633-0.716c-7.588-0.241-14.727-6.376-16.039-13.885c-1.566-8.943,3.721-15.864,9.753-18.078
	c2.237-0.821,4.476-1.238,6.651-1.238c13.027,0,21.371,14.365,21.912,28.254c0.7,17.972-6.473,29.985-6.779,30.488L86.23,67.99
	l-0.555-0.315C77.771,82.705,62.153,92.242,44.988,92.242z M72.971,18.769c-2.566,0-4.656,2.089-4.656,4.656
	c0,2.568,2.09,4.657,4.656,4.657c2.567,0,4.656-2.089,4.656-4.657C77.627,20.857,75.538,18.769,72.971,18.769z"/>
<path fill="#461422" d="M91.486,35.065C90.944,21.134,81.412,5.554,67.063,10.82c-4.973,1.825-9.048,7.419-7.781,14.655
	c1.004,5.738,6.869,11.401,13.569,11.343c1.071-0.009,3.325,2.318,3.179,3.703c-0.838,7.953-5.168,15.17-5.168,15.17l14.293,8.142
	C85.154,63.833,92.159,52.316,91.486,35.065z M72.971,31.161c-4.272,0-7.736-3.464-7.736-7.737c0-4.272,3.464-7.736,7.736-7.736
	c4.271,0,7.736,3.463,7.736,7.736C80.707,27.697,77.242,31.161,72.971,31.161z"/>
<circle cx="81.476" cy="52.471" r="2.871"/>
<path opacity="0.5" d="M91.486,35.065c-0.338-8.674-4.161-17.984-10.462-22.507c4.274,5.697,12.165,21.301-1.217,48.229l5.347,3.046
	C85.154,63.833,92.159,52.316,91.486,35.065z"/>
<path opacity="0.5" fill="#FFFFFF" d="M69.11,30.122c-2.314-1.337-3.876-3.833-3.876-6.698c0-2.382,1.078-4.512,2.773-5.931
	c-0.428-2.535-0.914-4.762-1.34-6.508c-4.79,1.971-8.62,7.446-7.387,14.49c0.791,4.52,4.604,8.98,9.457,10.648
	C68.987,34.135,69.101,32.12,69.11,30.122z"/>
<path fill="#666766" d="M71.546,56.081c-7.238,13.444-21.437,22.588-37.775,22.588c-8.552,0-16.518-2.505-23.209-6.819
	c7.816,10.506,20.326,17.313,34.426,17.313c17.611,0,32.741-10.617,39.342-25.799L71.546,56.081z"/>
<path opacity="0.7" fill="#FFFFFF" d="M66.859,63.063c-7.865,9.53-19.768,15.605-33.088,15.605c-8.552,0-16.518-2.505-23.209-6.819
	c0.335,0.451,0.683,0.893,1.035,1.33l0.003,0.002c10.615,7.84,24.347,13.576,37.159,10.85c8.681-1.848,16.205-7.439,22.627-13.349
	C75.297,67.083,69.48,59.887,66.859,63.063z"/>
<path opacity="0.3" fill="#3E53A4" d="M71.546,56.081c-7.238,13.444-21.437,22.588-37.775,22.588
	c-8.552,0-16.518-2.505-23.209-6.819c7.816,10.506,20.326,17.313,34.426,17.313c17.611,0,32.741-10.617,39.342-25.799L71.546,56.081
	z"/>
<polygon points="85.154,63.833 72.803,56.808 84.482,66.817 "/>
</svg>
