<?xml version="1.0" encoding="utf-8"?>
<!-- Generator: Adobe Illustrator 16.0.0, SVG Export Plug-In . SVG Version: 6.00 Build 0)  -->
<!DOCTYPE svg PUBLIC "-//W3C//DTD SVG 1.1//EN" "http://www.w3.org/Graphics/SVG/1.1/DTD/svg11.dtd">
<svg version="1.1" id="Layer_1" xmlns="http://www.w3.org/2000/svg" xmlns:xlink="http://www.w3.org/1999/xlink" x="0px" y="0px"
	 width="100px" height="100px" viewBox="0 0 100 100" enable-background="new 0 0 100 100" xml:space="preserve">
<path d="M17.542,95.26c-2.574,0-5.425-0.528-9.188-1.705c-1.379-0.008-2.647-0.572-3.573-1.592c-2.023-2.228-1.828-6.047-1.72-7.166
	l0.107-1.113l9.526-9.385l2.236,0.934l9.892-6.867c-0.789-1.926-1.448-4.49-0.884-6.81c0.446-1.829,1.561-3.242,3.225-4.085
	l3.499-1.772l0.892,3.819c0.184,0.786,0.851,2.219,1.566,3.601C82.611,28.623,92.111,9.874,92.193,9.682l2.564-5.134l1.541,6.93
	c1.605,9.257-6.469,20.931-26.078,38.667C57.904,61.283,44.844,70.963,39.563,74.775c1.15,4.181,0.405,9.438-6.652,14.248
	C26.977,93.068,22.771,95.26,17.542,95.26z"/>
<linearGradient id="SVGID_1_" gradientUnits="userSpaceOnUse" x1="-674.3022" y1="339.5801" x2="-651.4097" y2="339.5801" gradientTransform="matrix(0.5843 0.8115 -0.8115 0.5843 683.9766 419.1299)">
	<stop  offset="0" style="stop-color:#FBB040"/>
	<stop  offset="1" style="stop-color:#754C29"/>
</linearGradient>
<path fill="url(#SVGID_1_)" d="M31.176,86.479c6.598-4.496,7.598-9.526,2.689-16.078c-0.407-0.543-4.551-6.935-5.31-10.182
	c-3.708,1.877-0.478,8.156,0.233,9.143l-13.487,9.363l-1.903-0.795l-7.271,7.164c0,0-0.563,5.835,2.616,5.352
	C18.579,93.615,22.309,92.521,31.176,86.479z M9.035,90.387c0.102-0.025,0.208-0.055,0.318-0.094
	C9.243,90.332,9.136,90.363,9.035,90.387z M12.357,89.031c-0.062,0.029-0.122,0.057-0.184,0.086
	C12.235,89.088,12.295,89.061,12.357,89.031z M11.422,89.461c-0.087,0.038-0.174,0.077-0.26,0.115
	C11.248,89.538,11.334,89.499,11.422,89.461z M10.484,89.858c-0.085,0.034-0.171,0.071-0.256,0.105
	C10.313,89.93,10.399,89.893,10.484,89.858z M13.324,88.559c7.88-3.967,17.646-11.427,19.575-12.922
	c0.03-0.023,0.028-0.085,0.007-0.17c1.668,3.34,1.221,6.2-4.479,9.829c-3.796,2.417-8.391,3.763-11.152,3.92
	C16.263,89.273,14.798,88.882,13.324,88.559z"/>
<path fill="#666766" d="M32.08,67.584c0.883,1.479,1.624,2.604,1.785,2.816c0.841,1.123,1.498,2.199,1.993,3.238
	c5.359-3.789,61.406-43.928,58.084-63.081C93.941,10.558,85.389,30.947,32.08,67.584z"/>
<path opacity="0.7" fill="#FFFFFF" d="M38.041,65.484c39.672-26.924,52.9-47.102,52.902-47.105
	c-1.953,2.979-3.648,6.039-5.893,8.872c-7.471,9.433-16.609,17.679-26.02,25.114c-4.506,3.559-8.896,7.287-13.533,10.673
	c-1.793,1.31-3.776,2.901-5.929,3.588c-0.803,0.25-2.053,0.112-2.82-0.056C37.084,66.117,37.553,65.814,38.041,65.484z"/>
<path opacity="0.3" fill="#3E53A4" d="M32.08,67.584c0.883,1.479,1.624,2.604,1.785,2.816c0.841,1.123,1.498,2.199,1.993,3.238
	c5.359-3.789,61.406-43.928,58.084-63.081C93.941,10.558,85.389,30.947,32.08,67.584z"/>
<path opacity="0.6" d="M15.346,82.063c-4.837,5.143-2.022,6.496-2.022,6.496l0.446-0.229c7.798-4.018,17.237-11.227,19.129-12.693
	c0.222-0.172-1.19-2.331-1.19-2.331l-2.921-3.944l-13.487,9.363C15.93,79.82,16.262,81.088,15.346,82.063z"/>
<path fill="#FBB040" d="M31.749,70.252c0,0,3.133,9.131-5.599,16.604l-5.486,1.935c0,0,12.754-6.337,8.847-18.351
	c0,0-0.643-1.553,0.454-1.512C31.061,68.967,31.749,70.252,31.749,70.252z"/>
<path d="M27.063,70.19c0,0,0.193,7.893-1.347,11.165l-2.118,1.925L27.063,70.19z"/>
<path d="M22.829,72.693c0,0-0.192,9.816-2.502,13.09l-1.732,1.539L22.829,72.693z"/>
<path d="M18.401,75.965c0,0-0.578,9.24-2.503,11.936l-1.54,0.578L18.401,75.965z"/>
</svg>
