<?xml version="1.0" encoding="utf-8"?>
<!-- Generator: Adobe Illustrator 16.0.0, SVG Export Plug-In . SVG Version: 6.00 Build 0)  -->
<!DOCTYPE svg PUBLIC "-//W3C//DTD SVG 1.1//EN" "http://www.w3.org/Graphics/SVG/1.1/DTD/svg11.dtd">
<svg version="1.1" id="Layer_1" xmlns="http://www.w3.org/2000/svg" xmlns:xlink="http://www.w3.org/1999/xlink" x="0px" y="0px"
	 width="100px" height="100px" viewBox="0 0 100 100" enable-background="new 0 0 100 100" xml:space="preserve">
<path d="M17.418,95.982c-1.934,0.126-3.994-0.41-6.123-1.591c-3.347-1.858-3.908-3.448-4.36-5.242
	c-1.121-4.453,1.362-7.987,1.651-8.44l2.987-3.217l0.947,2.612c0.37,2.205,1.756,1.944,1.834,2.175l5.393-12.996l-5.019-2.76
	c-0.643,0.272-1.332,0.438-2.044,0.482c-1.2,0.077-2.392-0.19-3.445-0.773c-1.469-0.818-2.534-2.157-2.995-3.774
	c-0.462-1.616-0.268-3.315,0.549-4.783c1.042-1.881,2.947-3.085,5.094-3.226c1.206-0.078,2.402,0.189,3.461,0.777
	c1.313,0.731,2.29,1.879,2.808,3.229c1.474,0.402,2.924,0.693,4.335,0.867c21.13-46.924,49.062-53.713,60.2-54.437
	c3.516-0.229,4.789,0.455,5.021,0.494L93.986,6.9l-6.295,4.075C71.234,21.886,67.215,31.972,67.16,32.098l-0.535,1.228l-1.266,0.457
	C48.42,39.78,39.538,60.016,36.964,66.873c1.138,1.456,2.46,2.79,4.052,4.238c0.243-0.045,0.487-0.075,0.734-0.091
	c1.197-0.077,2.385,0.189,3.436,0.772c3.036,1.685,4.134,5.523,2.451,8.555c-1.045,1.881-2.951,3.087-5.098,3.226
	c-1.205,0.08-2.4-0.189-3.459-0.776c-1.726-0.958-2.854-2.641-3.15-4.504l-4.688-2.58l-6.277,14.445
	C24.144,92.291,21.727,95.701,17.418,95.982z"/>
<path fill="#666766" d="M88.463,8.04c0,0-37.31-6.246-63.763,54.783l8.898,5.457c0,0,9.064-29.614,31.13-37.428
	C64.729,30.852,70.465,17.409,88.463,8.04z"/>
<path opacity="0.7" fill="#FFFFFF" d="M31.116,62.167c13.701-34.818,32.613-35.701,32.613-35.701
	C64.918,21.075,79.1,11.402,79.1,11.402c-13.605,0.894-25.81,9.626-35.522,19.706c-6.415,7.673-12.826,17.849-18.711,31.335
	C28.375,62.765,30.585,62.299,31.116,62.167z"/>
<path opacity="0.3" fill="#3E53A4" d="M88.463,8.04c0,0-37.31-6.246-63.763,54.783l8.898,5.457c0,0,9.064-29.614,31.13-37.428
	C64.729,30.852,70.465,17.409,88.463,8.04z"/>
<linearGradient id="SVGID_1_" gradientUnits="userSpaceOnUse" x1="-413.2271" y1="66.5537" x2="-372.6733" y2="66.5537" gradientTransform="matrix(0.8743 0.4854 -0.4854 0.8743 398.8625 209.8457)">
	<stop  offset="0" style="stop-color:#FBB040"/>
	<stop  offset="1" style="stop-color:#754C29"/>
</linearGradient>
<path fill="url(#SVGID_1_)" d="M44.094,74.46c-1.091-0.604-2.376-0.495-3.346,0.155c-4.325-3.784-7.316-6.836-9.674-12.664
	c0,0-5.778,1.975-15.184-1.108c0.05-1.178-0.538-2.337-1.637-2.948c-1.551-0.861-3.506-0.302-4.368,1.25
	c-0.86,1.549-0.302,3.507,1.249,4.367c1.306,0.727,2.894,0.434,3.878-0.602l8.909,4.965l-7.053,16.661c0,0-1.076,1.792-2.633,1.157
	c-2.507-1.023-2.694-2.15-3.305-4.844c0,0-4.529,7.053,2.259,10.823c7.021,3.897,9.346-2.774,9.346-2.774l7.567-17.58l9.332,5.15
	c-0.358,1.382,0.233,2.883,1.541,3.609c1.55,0.861,3.506,0.301,4.367-1.25C46.203,77.277,45.645,75.322,44.094,74.46z"/>
<path opacity="0.5" fill="#FFFFFF" d="M15.502,62.262c-0.861,1.552-2.818,2.111-4.368,1.25c-1.551-0.86-2.109-2.818-1.249-4.367
	c0.862-1.552,2.817-2.111,4.368-1.25S16.363,60.712,15.502,62.262z M44.094,74.46c-1.551-0.861-3.508-0.301-4.368,1.249
	c-0.861,1.552-0.301,3.508,1.25,4.369c1.55,0.861,3.506,0.301,4.367-1.25C46.203,77.277,45.645,75.322,44.094,74.46z"/>
<path opacity="0.6" d="M23.938,67.844l-6.893,16.077c0,0-0.187,1.369,2.403,2.69c2.589,1.322,3.99,0.502,3.99,0.502l6.664-15.795
	L23.938,67.844z"/>
<path d="M20.59,70.705c0,0,6.138,5.389,10.122,4.357l-1.542,2.994C29.17,78.057,20.661,74.752,20.59,70.705z M27.152,82.626
	l1.542-2.994c-3.984,1.03-10.122-4.358-10.122-4.358C18.642,79.322,27.152,82.626,27.152,82.626z M23.94,89.586l1.542-2.994
	c-3.984,1.031-10.121-4.355-10.121-4.355C15.431,86.282,23.94,89.586,23.94,89.586z"/>
</svg>
