<?xml version="1.0" encoding="utf-8"?>
<!-- Generator: Adobe Illustrator 16.0.0, SVG Export Plug-In . SVG Version: 6.00 Build 0)  -->
<!DOCTYPE svg PUBLIC "-//W3C//DTD SVG 1.1//EN" "http://www.w3.org/Graphics/SVG/1.1/DTD/svg11.dtd">
<svg version="1.1" id="Layer_1" xmlns="http://www.w3.org/2000/svg" xmlns:xlink="http://www.w3.org/1999/xlink" x="0px" y="0px"
	 width="100px" height="100px" viewBox="0 0 100 100" enable-background="new 0 0 100 100" xml:space="preserve">
<path d="M28.115,94.941c-3.835,0-6.372-1.178-7.388-1.758c-2.309-0.881-4.157-1.638-5.647-2.576
	c-0.373,0.481-0.735,0.955-1.091,1.425l-2.133,2.822L2.862,85.86l1.656-2.145c7.142-9.25,14.89-17.65,18.535-21.493l-2.945-2.945
	l5.408-5.42l2.906,2.908l2.11-2.113l0.188,0.188C55.85,29.483,81.817,8.834,82.084,8.623l0.186-0.147l0.207-0.118
	c4.268-2.422,6.229-2.4,8.512-2.4c1.521,0,2.473,0.222,2.729,0.29l4.972,1.249l-3.594,3.208
	C76.102,26.233,47.223,55.039,39.204,63.324l0.265,0.264l-2.114,2.113l2.844,2.842l0.053-0.029l1.593,1.934
	c0.675,0.818,1.341,1.74,1.985,2.631c2.061,2.852,4.191,5.801,6.677,5.801c0.114,0,0.229-0.005,0.346-0.016
	c0.032-0.004,0.063-0.006,0.096-0.01c-1.271-1.186-2.329-2.734-2.902-4.873c-0.354-1.32-0.541-2.574-0.722-3.787
	c-0.224-1.507-0.436-2.93-0.951-4.219l-0.737-1.846l1.376-1.433c0.845-0.879,2.009-1.394,3.194-1.411l2.198-0.031l0.031,0.088
	l2.746-0.874l0.51,2.567c0.158,0.025,0.316,0.057,0.475,0.096l2.432,0.599l-0.09,2.502c-0.031,0.899-0.126,1.849-0.218,2.767
	c-0.344,3.438-0.475,5.951,0.971,7.009c0.624,0.456,1.431,0.864,2.286,1.295c0.219,0.11,0.438,0.222,0.655,0.334
	c2.463,0.683,4.222,1.919,5.234,3.677c1.063,1.849,1.218,4.115,0.456,6.738c-0.443,1.527-2.869,4.125-4.324,4.633
	c-3.526,1.232-6.588,1.807-9.633,1.807h-0.001c-1.801,0-3.367-0.203-4.748-0.383c-1.116-0.145-2.17-0.28-3.242-0.301
	c-1.927-0.035-3.92-0.07-5.802-0.07c-0.835,0-1.66,0.006-2.476,0.023c-0.676,0.078-3.56,0.41-4.343,0.502
	C31.556,94.713,29.804,94.941,28.115,94.941z M25.527,87.836c0.288,0.127,0.948,0.34,2.121,0.34c1.151,0,2.501-0.201,4.012-0.6
	l0.13-0.035l0.133-0.023c0.056-0.009,5.653-0.961,11.482-0.977c-1.394-0.303-2.707-0.865-3.968-1.699
	c-1.341-0.885-2.496-1.853-3.611-2.787c-1.432-1.201-2.785-2.334-4.34-3.115l-1.775-0.891l0.079-1.984
	c0.051-1.283,0.629-2.547,1.546-3.383l1.138-1.039l-0.499-0.5c-2.467,2.579-6.766,7.185-11.337,12.604
	C21.66,84.859,23.265,86.367,25.527,87.836z M47.559,86.717c0.867,0.081,1.681,0.191,2.436,0.33c1.174,0.214,2.609,0.332,4.04,0.332
	c2.663,0,5.05-0.41,6.386-1.097c0.755-0.388,1.142-0.586,0.518-1.87c-0.127-0.068-0.588-0.26-1.678-0.26
	c-0.627,0-1.334,0.063-2.16,0.189c-1.301,0.199-2.646,0.616-4.072,1.058C51.271,85.943,49.468,86.501,47.559,86.717z"/>
<linearGradient id="SVGID_1_" gradientUnits="userSpaceOnUse" x1="1087.0469" y1="-57.873" x2="1087.0469" y2="-43.1469" gradientTransform="matrix(0.7071 -0.7071 0.7071 0.7071 -712.6855 878.1738)">
	<stop  offset="0" style="stop-color:#ED1C24"/>
	<stop  offset="1" style="stop-color:#000000"/>
</linearGradient>
<path fill="url(#SVGID_1_)" d="M11.532,90.176l-4.577-4.578C16.667,73.02,27.366,62.18,27.366,62.18l-2.905-2.904l1.056-1.059
	l2.904,2.907l2.112-2.114l4.579,4.578l-2.114,2.113l2.906,2.904l-1.057,1.057l-2.905-2.907
	C31.943,66.755,20.844,77.865,11.532,90.176z"/>
<path opacity="0.5" d="M31.943,66.755c0,0-11.1,11.11-20.411,23.421l-4.577-4.578C16.667,73.02,27.366,62.18,27.366,62.18
	L31.943,66.755z"/>
<rect x="30.272" y="59.118" transform="matrix(-0.7072 0.707 -0.707 -0.7072 98.318 83.9929)" opacity="0.5" fill="#FFFFFF" width="2.989" height="6.475"/>
<path fill="#666766" d="M30.61,59.34l4.155,4.156c0,0,35.699-37.591,59.816-54.802c0,0-4.402-1.167-10.584,2.342
	C83.998,11.037,56.597,32.755,30.61,59.34z"/>
<path opacity="0.3" fill="#6DBE45" d="M30.61,59.34l4.155,4.156c0,0,35.699-37.591,59.816-54.802c0,0-4.402-1.167-10.584,2.342
	C83.998,11.037,56.597,32.755,30.61,59.34z"/>
<path opacity="0.7" fill="#FFFFFF" d="M83.998,11.037c0,0-27.401,21.719-53.388,48.303l2.078,2.078l0.116,0.039
	c0,0,0.906-3.139,4.415-6.646c3.509-3.51,5.188-3.001,9.449-7.261c4.26-4.262,2.581-3.766,7.09-8.278
	c4.512-4.51,3.832-1.68,8.594-6.442c4.762-4.761,2.602-3.749,6.443-7.593c3.843-3.842,5.861-2.66,8.779-5.58
	c2.92-2.919,2.517-4.323,6.173-6.867c3.843-2.673,7.607-3.086,10.835-4.095C94.582,8.694,90.18,7.527,83.998,11.037z"/>
<path d="M13.739,83.504"/>
<circle cx="14.181" cy="81.963" r="2.01"/>
<path fill="#ED1F24" d="M61.088,80.525c-1.242-0.652-2.543-1.229-3.644-2.033c-3.73-2.728-2.154-8.396-2.013-12.371
	c-2.402-0.592-2.133,3.025-2.463,4.795c0.249-2.073,0.271-4.431-0.135-6.469c-2.256,0.717-1.391,2.869-1.301,4.799
	c-0.314-1.641-0.715-3.309-1.28-4.881c-0.365,0.006-0.756,0.193-1.018,0.466c1.099,2.751,1.037,5.547,1.788,8.352
	c1.186,4.421,5.313,5.351,8.838,7.175c-2.937-0.139-5.823,1.3-8.719,1.572c-5.53,0.52-8.632-5.835-11.673-9.523
	c-2.633,1.385,0.493,4.422,1.607,6.277c-1.43-2.063-3.289-4.201-5.279-5.711c-1.457,2.443,1.037,3.689,2.656,5.354
	c-1.59-1.228-3.281-2.407-5.043-3.37c-0.325,0.295-0.526,0.777-0.544,1.23c3.182,1.598,5.355,4.162,8.267,6.084
	c5.192,3.429,10.207-0.161,15.496-0.975c2.06-0.316,5.869-0.65,7.024,1.66c1,2.001,1.203,4.508-1.826,6.065
	c-3.205,1.646-8.873,1.696-12.388,1.054c-6.662-1.218-16.476,0.388-16.996,0.477c-4.965,1.311-7.493,0.494-8.539-0.084
	c-0.007-0.008-0.011-0.02-0.019-0.024c-5.021-3.253-7.189-6.692-7.218-6.728l-0.885,1.08c0.061,0.076,0.588,0.699,3.598,3.509
	c-2.227-1.327-3.291-2.604-3.796-3.57c-0.767-1.472-0.4-2.493-0.385-2.536c0,0,0.081-0.517-0.504-0.763
	c-0.635-0.267-0.87,0.214-0.87,0.214c-0.06,0.148-0.564,1.498,0.262,3.381c1.125,2.564,3.256,3.572,7.985,5.369
	c1.234,0.786,5,2.332,10.681,0.828c0.049-0.008,4.704-0.545,4.704-0.545c2.729-0.063,5.554-0.011,8.544,0.045
	c4.691,0.086,8.153,1.981,16.551-0.953c0.501-0.174,2.216-2.013,2.383-2.584C66.092,83.213,64.32,81.328,61.088,80.525z"/>
<path opacity="0.7" d="M61.088,80.525c-1.242-0.652-2.543-1.229-3.644-2.033c-3.73-2.728-2.154-8.396-2.013-12.371
	c-2.402-0.592-2.133,3.025-2.463,4.795c0.249-2.073,0.271-4.431-0.135-6.469c-2.256,0.717-1.391,2.869-1.301,4.799
	c-0.314-1.641-0.715-3.309-1.28-4.881c-0.365,0.006-0.756,0.193-1.018,0.466c1.099,2.751,1.037,5.547,1.788,8.352
	c1.186,4.421,5.313,5.351,8.838,7.175L61.088,80.525z"/>
</svg>
