<?xml version="1.0" encoding="utf-8"?>
<!-- Generator: Adobe Illustrator 16.0.0, SVG Export Plug-In . SVG Version: 6.00 Build 0)  -->
<!DOCTYPE svg PUBLIC "-//W3C//DTD SVG 1.1//EN" "http://www.w3.org/Graphics/SVG/1.1/DTD/svg11.dtd">
<svg version="1.1" id="Layer_1" xmlns="http://www.w3.org/2000/svg" xmlns:xlink="http://www.w3.org/1999/xlink" x="0px" y="0px"
	 width="100px" height="100px" viewBox="0 0 100 100" enable-background="new 0 0 100 100" xml:space="preserve">
<path d="M3,88.479l47.181-47.182l-1.227-1.451c-4.498-5.352-5.814-18.927,2.454-27.194c4.378-4.378,10.125-6.89,15.768-6.89
	c4.52,0,8.646,1.64,11.623,4.617l2.568,2.568l15.824-9.281L85.936,21.799l-3.582,4.843c-0.02,0.017-1.717,1.453-4.152,3.952
	l0.588,0.588l-0.291,0.292c2.176,3.927,3.08,7.97,3.201,8.291l2.055,7.957l-13.109-8.397l-58.398,58.4L3,88.479z M57.455,29.063
	c-0.195,0-0.648,0-1.279,1.009c-0.842,1.353-0.634,3.366-0.193,5.424l4.688-4.688l-1.123-0.838l-0.072-0.062
	C59.15,29.646,58.193,29.063,57.455,29.063z M70.252,22.647c2.582-2.492,3.938-4.112,3.953-4.132l0.223-0.267l0.822-0.629
	l-1.133-0.464c-0.877-0.359-1.91-0.565-2.834-0.565c-1.076,0-1.992,0.264-2.723,0.785c-0.797,0.569-0.84,0.968-0.855,1.099
	c-0.088,0.793,0.68,1.931,0.904,2.182l0.092,0.102l0.996,1.334L70.252,22.647z"/>
<rect x="-3.079" y="56.372" transform="matrix(0.7071 -0.7071 0.7071 0.7071 -30.3286 46.4411)" fill="#87461E" width="87.945" height="6.915"/>
<rect x="-5.137" y="57.181" transform="matrix(0.7071 -0.7071 0.7071 0.7071 -29.4758 44.3815)" opacity="0.5" fill="#FFFFFF" width="87.945" height="1.18"/>
<rect x="-1.703" y="59.693" transform="matrix(0.7071 -0.7071 0.7071 0.7071 -30.8982 47.8169)" opacity="0.5" width="87.945" height="3.024"/>
<path fill="#666766" d="M74.418,31.194c3.539,3.949,6.869,12.743,6.869,12.743l-10.865-8.746L74.418,31.194z M53.563,28.443
	c3.092-4.962,7.902-0.883,7.902-0.883l3.898,2.911l3.863-3.863l-2.912-3.898c0,0-4.104-4.584,0.457-7.841
	c2.754-1.968,6.307-1.469,8.516-0.563c0.006-1.459,1.334-1.749,1.334-1.749C70.887,6.822,60.574,7.84,53.586,14.83
	c-6.989,6.989-5.988,18.616-2.273,23.035c0.732-1.39,1.836-0.933,1.836-0.933C52.521,34.26,51.968,31.002,53.563,28.443z
	 M70.18,26.929l3.73,3.73c3.666-4.029,6.465-6.377,6.465-6.377L92.662,8.195L76.576,20.482
	C76.576,20.482,74.395,23.115,70.18,26.929z M71.912,30.874l-2.074-2.075l-2.076,2.075l2.076,2.075L71.912,30.874z"/>
<path opacity="0.7" fill="#FFFFFF" d="M51.313,37.864c-3.714-4.418-4.716-16.045,2.273-23.035
	c6.988-6.989,17.301-8.007,23.035-2.273c0,0-0.316,0.071-0.641,0.311c-5.865-2.887-13.959-1.22-19.768,4.588
	c-5.583,5.583-6.064,14.119-4.141,19.584C51.812,37.183,51.545,37.424,51.313,37.864z M70.18,26.929l1.795,1.796l20.688-20.53
	L76.576,20.482C76.576,20.482,74.395,23.115,70.18,26.929z M72.473,33.14c2.146,2.254,6.229,6.714,8.701,10.505
	c-0.607-1.548-3.6-8.924-6.76-12.445L72.473,33.14z M71.912,30.874l-2.074-2.075v2.075H71.912z"/>
<path opacity="0.3" fill="#EE1C4E" d="M74.418,31.194c3.539,3.949,6.869,12.743,6.869,12.743l-10.865-8.746L74.418,31.194z
	 M53.563,28.443c3.092-4.962,7.902-0.883,7.902-0.883l3.898,2.911l3.863-3.863l-2.912-3.898c0,0-4.104-4.584,0.457-7.841
	c2.754-1.968,6.307-1.469,8.516-0.563c0.006-1.459,1.334-1.749,1.334-1.749C70.887,6.822,60.574,7.84,53.586,14.83
	c-6.989,6.989-5.988,18.616-2.273,23.035c0.732-1.39,1.836-0.933,1.836-0.933C52.521,34.26,51.968,31.002,53.563,28.443z
	 M70.18,26.929l3.73,3.73c3.666-4.029,6.465-6.377,6.465-6.377L92.662,8.195L76.576,20.482
	C76.576,20.482,74.395,23.115,70.18,26.929z M71.912,30.874l-2.074-2.075l-2.076,2.075l2.076,2.075L71.912,30.874z"/>
</svg>
