<?xml version="1.0" encoding="utf-8"?>
<!-- Generator: Adobe Illustrator 16.0.0, SVG Export Plug-In . SVG Version: 6.00 Build 0)  -->
<!DOCTYPE svg PUBLIC "-//W3C//DTD SVG 1.1//EN" "http://www.w3.org/Graphics/SVG/1.1/DTD/svg11.dtd">
<svg version="1.1" id="Layer_1" xmlns="http://www.w3.org/2000/svg" xmlns:xlink="http://www.w3.org/1999/xlink" x="0px" y="0px"
	 width="100px" height="100px" viewBox="0 0 100 100" enable-background="new 0 0 100 100" xml:space="preserve">
<path d="M11.989,96.76c-2.593,0-5.031-1.01-6.864-2.844c-1.833-1.831-2.842-4.268-2.843-6.861c0-2.594,1.01-5.031,2.843-6.864
	c1.659-1.657,3.93-3.931,7.189-3.931c0.065,0,0.131,0.001,0.198,0.004l36.687-36.687l0.164-1.805l3.262-3.262
	c-0.121-0.345-0.232-0.692-0.333-1.042l-5.882-3.615l5.453-5.171c0.18-0.984,0.435-1.952,0.764-2.896l-1.597-9.129l7.764,0.413
	c1.193-0.97,2.511-1.828,3.94-2.564l2.67-8.372l8.043,5.605c0.175-0.005,0.35-0.007,0.521-0.007c2.12,0,4.137,0.298,6.009,0.887
	L92.61,6.752l-2.187,12.313c0.42,1.333,0.692,2.741,0.813,4.206L98,30.879l-9.07,4.638c-1.135,2.407-2.631,4.57-4.375,6.314
	c-0.58,0.582-1.2,1.126-1.851,1.63l-1.9,10.003l-8.833-6.005c-0.355,0.02-0.711,0.029-1.064,0.029c-0.582,0-1.168-0.026-1.751-0.079
	l-4.026,4.602l-1.703-4.487l-2.154,2.155l-1.806,0.164L22.86,86.449c0.171,3.301-2.173,5.639-3.815,7.275l-0.193,0.193
	C17.019,95.75,14.582,96.76,11.989,96.76z"/>
<linearGradient id="SVGID_1_" gradientUnits="userSpaceOnUse" x1="-320.9907" y1="907.5684" x2="-307.7373" y2="907.5684" gradientTransform="matrix(0.7071 0.7071 -0.7071 0.7071 876.2334 -332.6172)">
	<stop  offset="0" style="stop-color:#A7A9AC"/>
	<stop  offset="1" style="stop-color:#000000"/>
</linearGradient>
<path fill="url(#SVGID_1_)" d="M16.674,91.739c-2.588,2.588-6.784,2.587-9.372,0c-2.587-2.586-2.588-6.782,0-9.37
	c2.587-2.588,5.14-5.1,9.805-0.435C21.924,86.753,19.261,89.153,16.674,91.739z"/>
<linearGradient id="SVGID_2_" gradientUnits="userSpaceOnUse" x1="-319.7056" y1="866.498" x2="-309.0239" y2="866.498" gradientTransform="matrix(0.7071 0.7071 -0.7071 0.7071 876.2334 -332.6172)">
	<stop  offset="0" style="stop-color:#A7A9AC"/>
	<stop  offset="1" style="stop-color:#000000"/>
</linearGradient>
<path fill="url(#SVGID_2_)" d="M71.869,34.727l-7.553-7.554L52.33,39.16l-0.164,1.806l-39.74,39.739c0,0-0.669,1.297,1.958,3.924
	c2.626,2.625,3.954,1.988,3.954,1.988l39.739-39.74l1.805-0.164L71.869,34.727z"/>
<path opacity="0.5" d="M52.166,40.966l-39.74,39.739c0,0-0.669,1.297,1.958,3.924c2.626,2.625,3.954,1.988,3.954,1.988l39.739-39.74
	c0,0-1.31-0.119-3.525-2.335C52.334,42.326,52.166,40.966,52.166,40.966z"/>
<radialGradient id="SVGID_3_" cx="-317.4155" cy="818.9756" r="20.9947" gradientTransform="matrix(0.7071 0.7071 -0.7071 0.7071 876.2334 -332.6172)" gradientUnits="userSpaceOnUse">
	<stop  offset="0" style="stop-color:#BCBEC0"/>
	<stop  offset="1" style="stop-color:#000000"/>
</radialGradient>
<path fill="url(#SVGID_3_)" d="M79.787,41.763c0.915-0.602,1.783-1.303,2.59-2.109c1.804-1.804,3.254-4.087,4.26-6.578l8.409-3.073
	l-6.816-5.143c-0.021-1.954-0.343-3.862-1.001-5.616l2.127-9.555l-9.557,2.125c-2.317-0.868-4.904-1.151-7.51-0.93l-5.518-5.226
	l-1.298,6.957c-2.16,0.936-4.147,2.209-5.778,3.761l-5.934-1.125l2.129,6.623c-0.623,1.488-1.016,3.049-1.178,4.631l-4.008,2.602
	l4.25,2.303c0.613,3.021,2.088,5.903,4.434,8.246c1.688,1.69,3.655,2.92,5.752,3.71l1.047,2.76l1.739-1.987
	c1.612,0.295,3.258,0.354,4.884,0.159l6.248,4.316L79.787,41.763z"/>
<path opacity="0.5" fill="#FFFFFF" d="M89.148,9.748l-9.35,2.065c-0.131-0.049-0.266-0.088-0.395-0.134
	c0.889,3.222,2.71,5.381,2.71,5.381L89.148,9.748z"/>
<path opacity="0.5" fill="#FFFFFF" d="M72.814,10.852c-0.175,0.01-0.35,0.017-0.525,0.031l-5.518-5.226l4.014,9.925
	C70.785,15.582,71.979,13.25,72.814,10.852z"/>
<path opacity="0.5" fill="#FFFFFF" d="M59.619,21.493c0,0,0.339-2.666,0.008-5.133l-5.655-1.072L59.619,21.493z"/>
<path opacity="0.5" fill="#FFFFFF" d="M54.713,26.503l-4.008,2.602l0.155,0.083l6.132-0.799c-0.577-0.576-1.416-1.295-2.264-1.985
	C54.723,26.437,54.717,26.47,54.713,26.503z"/>
<path opacity="0.5" fill="#FFFFFF" d="M75.875,21.986l-3.94,1.97l-2.464-5.09C69.471,18.866,72.592,19.358,75.875,21.986z"/>
<path opacity="0.5" fill="#FFFFFF" d="M66.447,29.442l-7.041-2.813l4.927-2.113C64.333,24.515,66.458,25.77,66.447,29.442z"/>
<path opacity="0.5" fill="#FFFFFF" d="M88.225,24.749c-1.17,1.25-2.41,2.672-3.318,3.97l9.975,1.159l-6.651-5.019
	C88.229,24.823,88.225,24.786,88.225,24.749z"/>
<polygon opacity="0.5" fill="#FFFFFF" points="80.201,34.065 74.643,30.659 77.642,27.665 "/>
<path opacity="0.5" fill="#FFFFFF" d="M79.787,41.763c0.148-0.098,0.292-0.201,0.436-0.303c-1.768-0.73-3.715-1.277-5.332-1.083
	l4.18,8.127L79.787,41.763z"/>
<path opacity="0.5" fill="#FFFFFF" d="M72.264,37.42l-1.807,4.434l-2.956-6.241C67.501,35.613,70.457,35.285,72.264,37.42z"/>
</svg>
