<?xml version="1.0" encoding="utf-8"?>
<!-- Generator: Adobe Illustrator 16.0.0, SVG Export Plug-In . SVG Version: 6.00 Build 0)  -->
<!DOCTYPE svg PUBLIC "-//W3C//DTD SVG 1.1//EN" "http://www.w3.org/Graphics/SVG/1.1/DTD/svg11.dtd">
<svg version="1.1" id="Layer_1" xmlns="http://www.w3.org/2000/svg" xmlns:xlink="http://www.w3.org/1999/xlink" x="0px" y="0px"
	 width="100px" height="100px" viewBox="0 0 100 100" enable-background="new 0 0 100 100" xml:space="preserve">
<path d="M17.106,72.172l0.287,0.287l6.509-6.723l-2.994-2.993l7.131-7.131l5.525,0.144l9.52-9.831l41.16-38.753
	c0.681-0.744,2.625-2.609,5-2.683c1.27-0.04,2.465,0.436,3.367,1.338l2.178,2.178c0.941,0.94,1.444,2.183,1.418,3.498
	c-0.049,2.433-1.859,4.387-2.547,5.042L54.859,57.697l-9.808,9.497l0.111,5.556l-7.124,7.124l-2.994-2.994l-6.727,6.513l0.285,0.287
	L18.691,95.24L5.541,82.096L17.106,72.172z"/>
<linearGradient id="SVGID_1_" gradientUnits="userSpaceOnUse" x1="-686.0313" y1="1004.084" x2="-667.9648" y2="1004.084" gradientTransform="matrix(0.7071 0.7071 -0.7071 0.7071 1241.6426 -183.4492)">
	<stop  offset="0" style="stop-color:#FFFFFF"/>
	<stop  offset="1" style="stop-color:#603913"/>
</linearGradient>
<path fill="url(#SVGID_1_)" d="M90.434,8.005l2.178,2.178c1.634,1.633-1.129,4.182-1.129,4.182L52.666,55.533L41.361,66.479
	l0.606,0.606l0.089,4.416l-4.017,4.017l-2.96-2.959L23.933,83.354l0.48,0.482l-5.896,6.877l-8.447-8.445l6.876-5.9l0.483,0.482
	l10.793-11.148l-2.958-2.958l4.017-4.017l4.444,0.115l0.577,0.579l10.945-11.303l41.197-38.79
	C86.445,9.329,88.937,6.507,90.434,8.005z"/>
<path opacity="0.5" d="M38.04,75.518L25.265,62.743l4.017-4.017l4.444,0.115l8.241,8.243l0.089,4.416L38.04,75.518z M24.413,83.836
	l-7.466-7.469l-6.876,5.9l8.447,8.445L24.413,83.836z"/>
</svg>
