<?xml version="1.0" encoding="utf-8"?>
<!-- Generator: Adobe Illustrator 16.0.0, SVG Export Plug-In . SVG Version: 6.00 Build 0)  -->
<!DOCTYPE svg PUBLIC "-//W3C//DTD SVG 1.1//EN" "http://www.w3.org/Graphics/SVG/1.1/DTD/svg11.dtd">
<svg version="1.1" id="Layer_1" xmlns="http://www.w3.org/2000/svg" xmlns:xlink="http://www.w3.org/1999/xlink" x="0px" y="0px"
	 width="100px" height="100px" viewBox="0 0 100 100" enable-background="new 0 0 100 100" xml:space="preserve">
<path d="M49.059,93.127c-1.22-0.455-29.92-11.492-32.403-38.795c-2.281-25.091-3.684-37.932-3.698-38.058l-0.263-2.395l2.261-0.832
	c0.534-0.196,13.333-4.81,35.952-4.81c22.67,0,34.402,4.648,34.89,4.846l2.152,0.871l-0.246,2.31
	c-0.015,0.13-1.418,13.36-3.698,38.071c-2.521,27.306-31.565,38.34-32.8,38.797l-1.075,0.396L49.059,93.127z"/>
<path fill="#3F6731" d="M80.938,54.053c-2.37,25.687-30.799,36.19-30.799,36.19s-28.08-10.501-30.416-36.19
	c-2.31-25.41-3.704-38.115-3.704-38.115s12.559-4.62,34.889-4.62s33.733,4.62,33.733,4.62S83.248,29.028,80.938,54.053z"/>
<path fill="#EE1C4E" d="M50.459,44.428l0.449-33.11c22.33,0,33.733,4.62,33.733,4.62s-1.013,9.521-2.745,27.848
	C81.658,46.314,50.459,44.428,50.459,44.428z"/>
<path fill="#EE1C4E" d="M50.139,90.243c0,0-28.08-10.501-30.416-36.19c-0.282-3.098-0.55-6.008-0.804-8.728l31.283-0.896
	L50.139,90.243z"/>
<g>
	<path d="M82.578,36.636c-6.043,0.575-14.701,1.061-25.703,1.203V11.432c-1.894-0.073-3.883-0.113-5.967-0.113
		c-2.5,0-4.871,0.06-7.123,0.163v26.358c-10.993-0.143-19.645-0.627-25.687-1.202c0.371,3.87,0.786,8.278,1.241,13.233
		c6.721,0.572,15.242,0.941,24.445,1.06v36.222c3.717,2.102,6.353,3.091,6.353,3.091s2.811-1.04,6.736-3.261V50.93
		c9.207-0.119,17.729-0.489,24.451-1.06C81.786,44.931,82.205,40.519,82.578,36.636z"/>
	<path fill="#FEEB00" d="M82.279,39.764c-7.287,0.669-17.297,1.111-28.484,1.187V11.348c-0.943-0.018-1.9-0.029-2.887-0.029
		c-1.386,0-2.733,0.018-4.042,0.051V40.95c-11.179-0.076-21.184-0.517-28.468-1.185c0.207,2.18,0.425,4.51,0.656,6.989
		c7.225,0.635,16.965,1.053,27.813,1.126v40.901c2.005,0.985,3.273,1.462,3.273,1.462s1.426-0.529,3.656-1.63V47.88
		c10.854-0.074,20.597-0.491,27.822-1.127C81.85,44.278,82.07,41.947,82.279,39.764z"/>
</g>
</svg>
