<?xml version="1.0" encoding="utf-8"?>
<!-- Generator: Adobe Illustrator 16.0.0, SVG Export Plug-In . SVG Version: 6.00 Build 0)  -->
<!DOCTYPE svg PUBLIC "-//W3C//DTD SVG 1.1//EN" "http://www.w3.org/Graphics/SVG/1.1/DTD/svg11.dtd">
<svg version="1.1" id="Layer_1" xmlns="http://www.w3.org/2000/svg" xmlns:xlink="http://www.w3.org/1999/xlink" x="0px" y="0px"
	 width="100px" height="100px" viewBox="0 0 100 100" enable-background="new 0 0 100 100" xml:space="preserve">
<path d="M50.625,86.857c-20.324,0-36.858-16.533-36.858-36.857c0-20.323,16.534-36.857,36.858-36.857S87.482,29.677,87.482,50
	C87.482,70.324,70.949,86.857,50.625,86.857z"/>
<linearGradient id="SVGID_1_" gradientUnits="userSpaceOnUse" x1="27.1914" y1="26.5674" x2="74.9591" y2="74.3351">
	<stop  offset="0" style="stop-color:#603913"/>
	<stop  offset="1" style="stop-color:#FBB040"/>
</linearGradient>
<circle fill="url(#SVGID_1_)" cx="50.625" cy="50" r="33.778"/>
<path opacity="0.5" fill="#FFFFFF" d="M35.858,50c0,1.184-0.959,2.145-2.144,2.145c-1.184,0-2.143-0.961-2.143-2.145
	s0.959-2.143,2.143-2.143C34.898,47.857,35.858,48.816,35.858,50z M67.535,47.857c-1.184,0-2.144,0.959-2.144,2.143
	s0.96,2.145,2.144,2.145s2.144-0.961,2.144-2.145S68.719,47.857,67.535,47.857z M52.768,33.089c0-1.184-0.959-2.143-2.144-2.143
	c-1.184,0-2.143,0.959-2.143,2.143c0,1.185,0.959,2.144,2.143,2.144C51.809,35.233,52.768,34.274,52.768,33.089z M52.768,66.91
	c0-1.184-0.959-2.143-2.144-2.143c-1.184,0-2.143,0.959-2.143,2.143c0,1.186,0.959,2.145,2.143,2.145
	C51.809,69.055,52.768,68.096,52.768,66.91z M40.183,36.526c-0.837-0.836-2.194-0.836-3.032,0c-0.836,0.838-0.836,2.194,0,3.032
	c0.838,0.837,2.195,0.837,3.032,0C41.02,38.721,41.02,37.364,40.183,36.526z M64.098,60.441c-0.837-0.836-2.195-0.836-3.032,0
	c-0.837,0.838-0.837,2.194,0,3.032c0.837,0.837,2.195,0.837,3.032,0C64.935,62.636,64.935,61.279,64.098,60.441z M64.098,39.559
	c0.837-0.838,0.837-2.194,0-3.031c-0.838-0.837-2.194-0.837-3.032-0.001c-0.837,0.838-0.837,2.194,0,3.032
	C61.903,40.396,63.26,40.396,64.098,39.559z M40.183,63.474c0.837-0.838,0.837-2.194,0-3.032c-0.838-0.836-2.194-0.836-3.032,0
	c-0.836,0.838-0.836,2.194,0,3.032C37.988,64.311,39.345,64.311,40.183,63.474z M43.558,50c0,1.184-0.959,2.145-2.144,2.145
	c-1.184,0-2.143-0.961-2.143-2.145s0.959-2.143,2.143-2.143C42.599,47.857,43.558,48.816,43.558,50z M59.835,47.857
	c-1.184,0-2.144,0.959-2.144,2.143s0.96,2.145,2.144,2.145c1.185,0,2.144-0.961,2.144-2.145S61.02,47.857,59.835,47.857z
	 M52.768,40.79c0-1.184-0.959-2.143-2.144-2.143c-1.184,0-2.143,0.959-2.143,2.143c0,1.184,0.959,2.144,2.143,2.144
	C51.809,42.933,52.768,41.974,52.768,40.79z M52.768,59.21c0-1.184-0.959-2.144-2.144-2.144c-1.184,0-2.143,0.96-2.143,2.144
	c0,1.185,0.959,2.145,2.143,2.145C51.809,61.354,52.768,60.395,52.768,59.21z M47.882,44.227c-0.837-0.836-2.194-0.836-3.032,0
	c-0.836,0.838-0.836,2.194,0,3.032c0.838,0.838,2.195,0.838,3.032,0C48.72,46.421,48.72,45.064,47.882,44.227z M56.397,52.742
	c-0.837-0.837-2.194-0.837-3.032,0c-0.836,0.837-0.836,2.193,0,3.031c0.838,0.838,2.195,0.838,3.032,0S57.234,53.579,56.397,52.742z
	 M56.397,47.258c0.837-0.837,0.837-2.194,0-3.031c-0.837-0.837-2.194-0.837-3.032-0.001c-0.836,0.838-0.836,2.194,0,3.032
	C54.203,48.096,55.561,48.096,56.397,47.258z M47.882,55.773c0.838-0.838,0.838-2.194,0-3.031c-0.837-0.837-2.194-0.837-3.032,0
	c-0.836,0.837-0.836,2.193,0,3.031C45.688,56.611,47.045,56.611,47.882,55.773z M28.158,50c0,1.184-0.959,2.145-2.144,2.145
	c-1.184,0-2.143-0.961-2.143-2.145s0.959-2.143,2.143-2.143C27.198,47.857,28.158,48.816,28.158,50z M75.234,47.857
	c-1.184,0-2.143,0.959-2.143,2.143s0.959,2.145,2.143,2.145c1.185,0,2.145-0.961,2.145-2.145S76.419,47.857,75.234,47.857z
	 M52.768,25.389c0-1.184-0.959-2.143-2.144-2.143c-1.184,0-2.143,0.959-2.143,2.143c0,1.185,0.959,2.144,2.143,2.144
	C51.809,27.533,52.768,26.574,52.768,25.389z M52.768,74.609c0-1.184-0.959-2.143-2.144-2.143c-1.184,0-2.143,0.959-2.143,2.143
	c0,1.186,0.959,2.145,2.143,2.145C51.809,76.754,52.768,75.795,52.768,74.609z M32.482,28.827c-0.837-0.836-2.194-0.836-3.032,0
	c-0.836,0.837-0.836,2.194,0,3.032c0.837,0.838,2.195,0.838,3.032,0C33.32,31.021,33.32,29.664,32.482,28.827z M71.797,68.142
	c-0.836-0.836-2.194-0.836-3.031,0c-0.837,0.838-0.837,2.194,0,3.032s2.195,0.838,3.031,0
	C72.635,70.336,72.635,68.979,71.797,68.142z M71.797,31.858c0.838-0.838,0.838-2.194,0-3.031c-0.837-0.837-2.193-0.837-3.031,0
	c-0.837,0.837-0.837,2.194,0,3.032C69.604,32.696,70.96,32.696,71.797,31.858z M32.482,71.174c0.838-0.838,0.838-2.194,0-3.032
	c-0.838-0.836-2.194-0.836-3.032,0c-0.836,0.838-0.836,2.194,0,3.032C30.288,72.012,31.645,72.012,32.482,71.174z"/>
<circle fill="#FFFFFF" cx="50.625" cy="50" r="2.439"/>
</svg>
