<?xml version="1.0" encoding="utf-8"?>
<!-- Generator: Adobe Illustrator 16.0.0, SVG Export Plug-In . SVG Version: 6.00 Build 0)  -->
<!DOCTYPE svg PUBLIC "-//W3C//DTD SVG 1.1//EN" "http://www.w3.org/Graphics/SVG/1.1/DTD/svg11.dtd">
<svg version="1.1" id="Layer_1" xmlns="http://www.w3.org/2000/svg" xmlns:xlink="http://www.w3.org/1999/xlink" x="0px" y="0px"
	 width="100px" height="100px" viewBox="0 0 100 100" enable-background="new 0 0 100 100" xml:space="preserve">
<path d="M51,95.873c-13.752,0-32.83-41.698-32.83-60.061C18.17,16.577,30.75,4.627,51,4.627s32.83,11.95,32.83,31.185
	C83.83,54.175,64.752,95.873,51,95.873z"/>
<linearGradient id="SVGID_1_" gradientUnits="userSpaceOnUse" x1="21.2495" y1="50.25" x2="80.75" y2="50.25">
	<stop  offset="0" style="stop-color:#603913"/>
	<stop  offset="1" style="stop-color:#FBB040"/>
</linearGradient>
<path fill="url(#SVGID_1_)" d="M80.75,35.813c0,18.073-18.971,56.98-29.75,56.98c-10.78,0-29.75-38.907-29.75-56.98
	S32.927,7.708,51,7.708S80.75,17.739,80.75,35.813z"/>
<path fill="#FFFFFF" d="M51,89.328c-1.018,0-2.7-1.094-4.616-3c-0.452-0.45-0.453-1.182-0.003-1.634
	c0.451-0.451,1.181-0.454,1.634-0.004c1.634,1.627,2.693,2.208,3.022,2.318c0.563-0.027,1.111,0.366,1.215,0.953
	c0.109,0.628-0.311,1.227-0.939,1.337C51.195,89.319,51.091,89.328,51,89.328z M54.883,86.584c-0.295,0-0.59-0.112-0.814-0.336
	c-0.453-0.45-0.455-1.182-0.005-1.634c0.952-0.957,1.951-2.116,2.97-3.446c0.389-0.506,1.111-0.604,1.619-0.215
	c0.506,0.387,0.603,1.112,0.215,1.619c-1.078,1.409-2.145,2.644-3.166,3.671C55.476,86.471,55.179,86.584,54.883,86.584z
	 M44.121,83.115c-0.346,0-0.689-0.155-0.916-0.451c-0.909-1.18-1.838-2.498-2.761-3.916c-0.348-0.535-0.197-1.25,0.337-1.598
	c0.535-0.35,1.25-0.198,1.598,0.337c0.89,1.368,1.784,2.636,2.656,3.769c0.39,0.505,0.295,1.23-0.21,1.619
	C44.614,83.037,44.366,83.115,44.121,83.115z M60.651,79.178c-0.216,0-0.435-0.061-0.628-0.187
	c-0.535-0.347-0.688-1.063-0.341-1.598c0.796-1.227,1.606-2.56,2.411-3.963c0.318-0.554,1.023-0.745,1.576-0.428
	c0.554,0.317,0.745,1.023,0.428,1.577c-0.825,1.439-1.658,2.809-2.477,4.07C61.399,78.991,61.029,79.178,60.651,79.178z
	 M38.963,75.259c-0.4,0-0.789-0.208-1.002-0.58c-0.754-1.313-1.52-2.717-2.275-4.172c-0.294-0.565-0.074-1.263,0.492-1.558
	c0.564-0.295,1.264-0.073,1.558,0.493c0.741,1.427,1.49,2.801,2.229,4.086c0.317,0.553,0.127,1.259-0.426,1.577
	C39.356,75.209,39.158,75.259,38.963,75.259z M65.343,71.029c-0.179,0-0.36-0.042-0.529-0.129c-0.567-0.293-0.789-0.99-0.497-1.557
	l0.453-0.881c0.551-1.087,1.094-2.197,1.612-3.299c0.272-0.577,0.962-0.824,1.537-0.554c0.577,0.272,0.825,0.96,0.554,1.536
	c-0.529,1.123-1.082,2.254-1.645,3.363l-0.458,0.895C66.164,70.801,65.761,71.029,65.343,71.029z M34.621,66.912
	c-0.433,0-0.848-0.244-1.045-0.662c-0.675-1.432-1.33-2.891-1.944-4.335c-0.25-0.587,0.023-1.265,0.61-1.515
	c0.592-0.252,1.266,0.023,1.515,0.609c0.604,1.418,1.246,2.85,1.908,4.256c0.272,0.576,0.025,1.264-0.552,1.537
	C34.953,66.877,34.786,66.912,34.621,66.912z M69.348,62.516c-0.15,0-0.303-0.029-0.451-0.092c-0.586-0.249-0.859-0.928-0.611-1.515
	c0.614-1.442,1.2-2.897,1.742-4.323c0.227-0.597,0.895-0.893,1.49-0.67c0.596,0.227,0.895,0.895,0.668,1.49
	c-0.552,1.453-1.148,2.936-1.773,4.406C70.225,62.252,69.798,62.516,69.348,62.516z M30.932,58.254
	c-0.464,0-0.904-0.283-1.079-0.744c-0.57-1.492-1.108-2.999-1.602-4.477c-0.202-0.604,0.125-1.258,0.73-1.461
	c0.604-0.203,1.259,0.125,1.461,0.73c0.483,1.445,1.011,2.921,1.568,4.385c0.227,0.596-0.071,1.264-0.667,1.49
	C31.208,58.23,31.069,58.254,30.932,58.254z M72.688,53.719c-0.121,0-0.244-0.02-0.365-0.061c-0.605-0.2-0.932-0.854-0.73-1.46
	c0.504-1.515,0.961-3.011,1.361-4.444c0.172-0.615,0.809-0.973,1.422-0.803c0.615,0.171,0.975,0.808,0.803,1.422
	c-0.409,1.471-0.879,3.004-1.395,4.555C73.621,53.412,73.172,53.719,72.688,53.719z M27.963,49.325
	c-0.505,0-0.969-0.334-1.112-0.844c-0.45-1.609-0.837-3.169-1.149-4.639c-0.132-0.624,0.266-1.237,0.891-1.37
	c0.623-0.131,1.237,0.266,1.37,0.89c0.301,1.421,0.676,2.935,1.113,4.496c0.172,0.614-0.187,1.252-0.801,1.423
	C28.171,49.312,28.066,49.325,27.963,49.325z M75.191,44.649c-0.079,0-0.159-0.007-0.239-0.024
	c-0.624-0.131-1.024-0.744-0.893-1.368c0.342-1.628,0.592-3.152,0.742-4.53c0.069-0.634,0.634-1.093,1.273-1.023
	c0.634,0.069,1.092,0.639,1.022,1.274c-0.158,1.453-0.42,3.053-0.777,4.755C76.205,44.277,75.726,44.649,75.191,44.649z
	 M26.061,40.116c-0.58,0-1.08-0.436-1.146-1.026c-0.133-1.179-0.2-2.281-0.2-3.278c0-0.541,0.01-1.073,0.033-1.597
	c0.028-0.637,0.55-1.13,1.204-1.104c0.637,0.028,1.132,0.566,1.104,1.204c-0.021,0.491-0.031,0.99-0.031,1.498
	c0,0.91,0.062,1.926,0.185,3.019c0.072,0.634-0.384,1.207-1.018,1.277C26.147,40.114,26.104,40.116,26.061,40.116z M76.093,35.309
	c-0.614,0-1.125-0.484-1.153-1.104c-0.07-1.57-0.25-3.08-0.533-4.488c-0.125-0.625,0.28-1.235,0.905-1.36
	c0.626-0.121,1.233,0.279,1.36,0.905c0.306,1.524,0.5,3.153,0.575,4.84c0.029,0.638-0.465,1.177-1.102,1.205
	C76.127,35.309,76.109,35.309,76.093,35.309z M26.441,30.753c-0.075,0-0.149-0.007-0.224-0.022c-0.626-0.124-1.034-0.73-0.911-1.356
	c0.329-1.671,0.8-3.258,1.401-4.717c0.243-0.589,0.919-0.872,1.507-0.628c0.59,0.243,0.871,0.918,0.628,1.508
	c-0.543,1.319-0.971,2.76-1.27,4.282C27.465,30.372,26.982,30.753,26.441,30.753z M74.184,26.151c-0.452,0-0.881-0.266-1.066-0.709
	c-0.584-1.395-1.312-2.689-2.164-3.846c-0.379-0.514-0.27-1.236,0.244-1.615c0.512-0.38,1.236-0.27,1.615,0.245
	c0.962,1.305,1.781,2.76,2.436,4.326c0.246,0.588-0.031,1.265-0.62,1.511C74.482,26.123,74.332,26.151,74.184,26.151z
	 M30.051,22.154c-0.236,0-0.474-0.072-0.679-0.221c-0.516-0.375-0.629-1.098-0.254-1.614c0.979-1.345,2.13-2.563,3.421-3.62
	c0.493-0.405,1.222-0.332,1.625,0.162c0.404,0.493,0.332,1.221-0.162,1.625c-1.139,0.932-2.154,2.007-3.017,3.192
	C30.76,21.99,30.408,22.154,30.051,22.154z M68.643,18.676c-0.256,0-0.512-0.084-0.727-0.256c-1.116-0.903-2.375-1.693-3.744-2.35
	c-0.575-0.276-0.818-0.966-0.542-1.541c0.276-0.576,0.967-0.818,1.54-0.542c1.531,0.734,2.943,1.621,4.199,2.636
	c0.496,0.401,0.573,1.128,0.172,1.625C69.313,18.53,68.979,18.676,68.643,18.676z M37.23,16.232c-0.428,0-0.84-0.239-1.039-0.65
	c-0.279-0.574-0.04-1.266,0.533-1.543c1.417-0.689,2.968-1.261,4.611-1.701c0.614-0.16,1.249,0.2,1.415,0.817
	c0.165,0.616-0.201,1.249-0.817,1.415c-1.501,0.401-2.914,0.922-4.197,1.546C37.572,16.195,37.399,16.232,37.23,16.232z
	 M60.262,14.579c-0.099,0-0.197-0.012-0.297-0.039c-1.391-0.367-2.889-0.642-4.454-0.817c-0.634-0.07-1.091-0.642-1.019-1.276
	c0.07-0.634,0.641-1.097,1.275-1.019c1.678,0.188,3.288,0.483,4.787,0.879c0.617,0.163,0.985,0.795,0.822,1.412
	C61.24,14.237,60.772,14.579,60.262,14.579z M46.25,13.743c-0.579,0-1.078-0.434-1.146-1.022c-0.073-0.634,0.382-1.207,1.015-1.28
	c1.527-0.176,3.151-0.266,4.825-0.269c0.001,0,0.001,0,0.001,0c0.637,0,1.154,0.516,1.156,1.153c0,0.638-0.517,1.156-1.154,1.157
	c-1.586,0.002-3.122,0.087-4.563,0.253C46.339,13.741,46.295,13.743,46.25,13.743z"/>
<circle fill="#FFFFFF" cx="52.211" cy="34.475" r="12.602"/>
<radialGradient id="SVGID_2_" cx="50.6709" cy="32.9346" r="10.533" gradientUnits="userSpaceOnUse">
	<stop  offset="0" style="stop-color:#FFFFFF"/>
	<stop  offset="1" style="stop-color:#000000"/>
</radialGradient>
<circle fill="url(#SVGID_2_)" cx="52.211" cy="34.475" r="10.533"/>
</svg>
