<?xml version="1.0" encoding="utf-8"?>
<!-- Generator: Adobe Illustrator 16.0.0, SVG Export Plug-In . SVG Version: 6.00 Build 0)  -->
<!DOCTYPE svg PUBLIC "-//W3C//DTD SVG 1.1//EN" "http://www.w3.org/Graphics/SVG/1.1/DTD/svg11.dtd">
<svg version="1.1" id="Layer_1" xmlns="http://www.w3.org/2000/svg" xmlns:xlink="http://www.w3.org/1999/xlink" x="0px" y="0px"
	 width="100px" height="100px" viewBox="0 0 100 100" enable-background="new 0 0 100 100" xml:space="preserve">
<path d="M29.912,90.101c-5.124-0.062-8.177-3.705-8.177-9.772V19.752c0-8.869,6.067-9.738,8.153-9.772l21.045-1.651L70.953,9.98
	c2.093,0.036,8.146,0.913,8.146,9.772v60.576c0,6.066-3.053,9.71-8.176,9.772l-20.346,1.651L29.912,90.101z"/>
<linearGradient id="SVGID_1_" gradientUnits="userSpaceOnUse" x1="24.8145" y1="50.04" x2="76.0195" y2="50.04">
	<stop  offset="0" style="stop-color:#000000"/>
	<stop  offset="0.5" style="stop-color:#939598"/>
	<stop  offset="1" style="stop-color:#000000"/>
</linearGradient>
<path fill="url(#SVGID_1_)" d="M76.02,80.328c0,3.696-1.248,6.693-5.23,6.693l-20.213,1.641l-20.531-1.641
	c-3.982,0-5.23-2.997-5.23-6.693V19.752c0-3.696,1.22-6.693,5.207-6.693l20.904-1.641l19.887,1.641c3.986,0,5.207,2.997,5.207,6.693
	V80.328z"/>
<g>
	<circle opacity="0.8" cx="50.61" cy="49.367" r="5.646"/>
	<path opacity="0.8" d="M70.693,40.914l-5.31,3.08v2.214h-6.083c-0.949-2.608-3.032-4.666-5.658-5.578V24.455h2.213l3.08-5.246
		l-8.326-2.31l-8.422,2.31l3.08,5.246h2.215v16.209c-2.581,0.929-4.625,2.966-5.563,5.543h-6.182v-2.214l-5.278-3.08l-1.54,8.47
		l1.54,8.277l5.278-3.08v-2.214h6.123c0.909,2.652,2.987,4.755,5.621,5.702v19.13h-2.215l-3.08,5.728l8.422,1.54l8.326-1.54
		l-3.08-5.728h-2.213V58.105c2.68-0.932,4.796-3.054,5.717-5.738h6.024v2.214l5.31,3.08l1.54-8.277L70.693,40.914z M50.61,57.452
		c-4.465,0-8.085-3.62-8.085-8.085c0-4.465,3.62-8.085,8.085-8.085c4.465,0,8.085,3.62,8.085,8.085
		C58.695,53.832,55.075,57.452,50.61,57.452z"/>
</g>
</svg>
