<?xml version="1.0" encoding="utf-8"?>
<!-- Generator: Adobe Illustrator 16.0.0, SVG Export Plug-In . SVG Version: 6.00 Build 0)  -->
<!DOCTYPE svg PUBLIC "-//W3C//DTD SVG 1.1//EN" "http://www.w3.org/Graphics/SVG/1.1/DTD/svg11.dtd">
<svg version="1.1" id="Layer_1" xmlns="http://www.w3.org/2000/svg" xmlns:xlink="http://www.w3.org/1999/xlink" x="0px" y="0px"
	 width="100px" height="100px" viewBox="0 0 100 100" enable-background="new 0 0 100 100" xml:space="preserve">
<path d="M51.182,94.291c-5.879,0-9.825-1.594-11.392-2.366l-9.791-0.716c-2.91-0.072-5.254-2.462-5.254-5.389V16.263
	c0-2.528,2.521-6.472,5.62-6.893l8.09-2.142c1.365-0.735,5.381-2.517,12.213-2.517c6.575,0,10.105,1.638,11.539,2.531l8.723,2.122
	c3.118,0.391,5.662,4.359,5.662,6.898V85.82c0,2.924-2.34,5.311-5.244,5.388l-8.988,0.71C60.809,92.717,57.011,94.291,51.182,94.291
	z"/>
<path fill="#19469B" d="M73.512,85.82c0,1.275-1.033,2.311-2.311,2.311l-9.752,0.77c0,0-3.594,2.311-10.268,2.311
	c-6.673,0-10.523-2.311-10.523-2.311l-10.523-0.77c-1.276,0-2.31-1.035-2.31-2.311V16.263c0-1.276,1.804-3.85,3.08-3.85l8.727-2.31
	c0,0,3.593-2.312,11.036-2.312s10.268,2.312,10.268,2.312l9.496,2.31c1.276,0,3.08,2.574,3.08,3.85V85.82z"/>
<linearGradient id="SVGID_1_" gradientUnits="userSpaceOnUse" x1="30.9048" y1="49.501" x2="70.4316" y2="49.501">
	<stop  offset="0" style="stop-color:#000000"/>
	<stop  offset="0.5" style="stop-color:#939598"/>
	<stop  offset="1" style="stop-color:#000000"/>
</linearGradient>
<path fill="url(#SVGID_1_)" d="M51.182,88.131c-5.625,0-8.929-1.866-8.962-1.886l-1.337-0.417l-9.978-0.729V16.454
	c0.113-0.298,0.443-0.786,0.695-1.039l9.29-2.459l0.408-0.262c0.002,0,3.098-1.822,9.37-1.822c5.568,0,8.016,1.431,8.352,1.647
	l1.188,0.578l9.526,2.317c0.252,0.252,0.584,0.742,0.697,1.041v68.647l-9.997,0.789l-0.651,0.418
	C59.783,86.309,56.736,88.131,51.182,88.131z"/>
<path opacity="0.8" fill="#19469B" d="M51.18,56.044l-5.132-7.699l5.132-7.698l5.131,7.698L51.18,56.044z M57.903,77.349
	l-3.131-4.696l-3.132,4.696l3.132,4.698L57.903,77.349z M65.985,65.543l-1.974-2.962l-1.975,2.962l1.975,2.961L65.985,65.543z
	 M66.119,29.352l-3.132-4.697l-3.132,4.697l3.132,4.698L66.119,29.352z M48.666,21.138l-3.131-4.697l-3.132,4.697l3.132,4.698
	L48.666,21.138z M41.618,41.03l-3.599-5.397l-3.6,5.397l3.6,5.401L41.618,41.03z M43.824,74.014l-2.117-3.176l-2.118,3.176
	l2.118,3.177L43.824,74.014z"/>
<path opacity="0.5" d="M60.936,10.103l0.381,0.093c0.06,14.196,0.131,53.664,0.001,78.783c-0.399,0.231-1.761,0.953-4.021,1.517
	c2.112-20.339,0.763-41.604,0.454-46.114c-1.338-19.563-2.678-31.106-3.41-36.38C59.061,8.57,60.936,10.103,60.936,10.103z
	 M38.15,10.495c0.468,12.611,2.577,67.944,3.147,57.233c0.556-10.428,0.151-48.294,0.031-58.42
	c-1.131,0.435-1.697,0.794-1.697,0.794L38.15,10.495z"/>
</svg>
