<?xml version="1.0" encoding="utf-8"?>
<!-- Generator: Adobe Illustrator 16.0.0, SVG Export Plug-In . SVG Version: 6.00 Build 0)  -->
<!DOCTYPE svg PUBLIC "-//W3C//DTD SVG 1.1//EN" "http://www.w3.org/Graphics/SVG/1.1/DTD/svg11.dtd">
<svg version="1.1" id="Layer_1" xmlns="http://www.w3.org/2000/svg" xmlns:xlink="http://www.w3.org/1999/xlink" x="0px" y="0px"
	 width="100px" height="100px" viewBox="0 0 100 100" enable-background="new 0 0 100 100" xml:space="preserve">
<polygon points="8.019,97.752 2.249,91.981 2,85.604 6.237,84.046 8.822,81.462 8.414,81.054 14.132,75.334 14.875,76.077 
	22.111,68.042 12.696,58.028 18.734,51.991 28.639,61.303 84.471,7.566 98.182,1.833 92.434,15.532 38.697,71.366 48.012,81.267 
	41.971,87.306 31.967,77.892 23.944,85.147 24.612,85.815 18.896,91.534 18.487,91.125 16.054,93.558 14.376,98 "/>
<polygon fill="#666766" points="31.575,68.29 34.444,71.341 91.91,11.711 96.086,3.923 88.291,8.091 28.665,65.555 "/>
<linearGradient id="SVGID_1_" gradientUnits="userSpaceOnUse" x1="-492.8701" y1="202.2227" x2="-457.626" y2="202.2227" gradientTransform="matrix(0.7071 0.7071 -0.7071 0.7071 509.3926 262.7031)">
	<stop  offset="0" style="stop-color:#BCBEC0"/>
	<stop  offset="1" style="stop-color:#000000"/>
</linearGradient>
<polygon fill="url(#SVGID_1_)" points="41.906,83.015 28.996,70.868 16.985,58.095 18.8,56.28 31.575,68.29 43.721,81.2 "/>
<polygon opacity="0.7" fill="#FFFFFF" points="95.955,3.993 88.291,8.091 28.665,65.555 31.575,68.29 31.615,68.333 "/>
<linearGradient id="SVGID_2_" gradientUnits="userSpaceOnUse" x1="-480.2773" y1="219.3643" x2="-470.2168" y2="219.3643" gradientTransform="matrix(0.7071 0.7071 -0.7071 0.7071 509.3926 262.7031)">
	<stop  offset="0" style="stop-color:#BCBEC0"/>
	<stop  offset="1" style="stop-color:#000000"/>
</linearGradient>
<polygon fill="url(#SVGID_2_)" points="14.167,89.839 14.473,89.562 15.084,90.173 16.446,88.811 15.903,88.268 18.047,86.328 
	18.896,87.177 20.257,85.815 19.477,85.035 32.008,73.702 28.996,70.868 26.296,67.997 14.991,80.55 14.132,79.69 12.771,81.053 
	13.701,81.981 11.766,84.13 11.137,83.503 9.776,84.863 10.476,85.563 10.199,85.87 5.165,87.723 5.279,90.657 9.344,94.722 
	12.279,94.836 "/>
<polygon opacity="0.6" points="32.008,73.702 28.996,70.868 26.296,67.997 14.991,80.55 14.132,79.69 12.771,81.053 13.701,81.981 
	11.766,84.13 11.137,83.503 9.776,84.863 10.476,85.563 10.199,85.87 10.029,85.933 14.103,90.007 14.167,89.839 14.473,89.562 
	15.084,90.173 16.446,88.811 15.903,88.268 18.047,86.328 18.896,87.177 20.257,85.815 19.477,85.035 "/>
<polygon opacity="0.3" fill="#3E53A4" points="31.575,68.29 34.444,71.341 91.91,11.711 96.086,3.923 88.291,8.091 28.665,65.555 
	"/>
<path d="M18.766,88.645L12.64,82.52l0.772-0.771l6.125,6.125L18.766,88.645z M15.687,90.824L9.562,84.7l-0.483,0.482l6.125,6.125
	L15.687,90.824z"/>
</svg>
