<?xml version="1.0" encoding="utf-8"?>
<!-- Generator: Adobe Illustrator 16.0.0, SVG Export Plug-In . SVG Version: 6.00 Build 0)  -->
<!DOCTYPE svg PUBLIC "-//W3C//DTD SVG 1.1//EN" "http://www.w3.org/Graphics/SVG/1.1/DTD/svg11.dtd">
<svg version="1.1" id="Layer_1" xmlns="http://www.w3.org/2000/svg" xmlns:xlink="http://www.w3.org/1999/xlink" x="0px" y="0px"
	 width="100px" height="100px" viewBox="0 0 100 100" enable-background="new 0 0 100 100" xml:space="preserve">
<polygon points="1,92.566 2.372,90.438 2.166,85.17 8.767,82.742 21.385,68.574 11.611,58.18 17.714,52.074 26.462,60.297 
	87.753,1.254 98.745,12.245 39.7,73.539 47.926,82.283 41.817,88.389 31.432,78.615 17.285,91.277 14.808,97.832 9.563,97.627 
	7.432,99 "/>
<linearGradient id="SVGID_1_" gradientUnits="userSpaceOnUse" x1="-397.7466" y1="492.7881" x2="-387.3091" y2="492.7881" gradientTransform="matrix(0.7071 0.7071 -0.7071 0.7071 643.4648 11.6465)">
	<stop  offset="0" style="stop-color:#FBB040"/>
	<stop  offset="1" style="stop-color:#754C29"/>
</linearGradient>
<polygon fill="url(#SVGID_1_)" points="12.711,94.668 14.67,89.482 31.484,74.438 28.36,71.498 25.56,68.518 10.554,85.367 
	5.331,87.287 5.45,90.332 5.848,90.729 4.935,92.146 7.853,95.064 9.269,94.152 9.666,94.549 "/>
<polygon opacity="0.5" points="10.554,85.367 10.506,85.385 14.652,89.529 14.67,89.482 29.243,76.441 23.562,70.762 "/>
<polygon opacity="0.5" points="5.848,90.729 4.935,92.146 7.853,95.064 9.269,94.152 9.666,94.549 9.667,94.549 "/>
<polygon fill="#666766" points="31.035,68.822 35.448,73.514 95.109,11.605 88.395,4.89 26.489,64.549 "/>
<polygon opacity="0.7" fill="#FFFFFF" points="91.729,8.224 88.395,4.89 26.489,64.549 31.035,68.822 "/>
<polygon opacity="0.3" fill="#EE1C4E" points="31.035,68.822 35.448,73.514 95.109,11.605 88.395,4.89 26.489,64.549 "/>
<linearGradient id="SVGID_2_" gradientUnits="userSpaceOnUse" x1="18.6084" y1="297.5801" x2="55.1709" y2="297.5801" gradientTransform="matrix(0.7071 0.7071 -0.7071 0.7071 214.1025 -166.2734)">
	<stop  offset="0" style="stop-color:#FBB040"/>
	<stop  offset="1" style="stop-color:#754C29"/>
</linearGradient>
<polygon fill="url(#SVGID_2_)" points="41.753,84.098 33.018,75.879 27.795,72.063 23.981,66.84 15.9,58.246 17.781,56.363 
	26.425,64.488 31.601,68.258 35.462,73.529 43.635,82.217 "/>
</svg>
