<?xml version="1.0" encoding="utf-8"?>
<!-- Generator: Adobe Illustrator 16.0.0, SVG Export Plug-In . SVG Version: 6.00 Build 0)  -->
<!DOCTYPE svg PUBLIC "-//W3C//DTD SVG 1.1//EN" "http://www.w3.org/Graphics/SVG/1.1/DTD/svg11.dtd">
<svg version="1.1" id="Layer_1" xmlns="http://www.w3.org/2000/svg" xmlns:xlink="http://www.w3.org/1999/xlink" x="0px" y="0px"
	 width="100px" height="100px" viewBox="0 0 100 100" enable-background="new 0 0 100 100" xml:space="preserve">
<path d="M45.03,87.714c-24.006,0-42.109-8.372-42.109-19.473c0-11.019,17.841-19.35,41.584-19.47
	C37.026,32.972,36.72,19.62,44.033,14.74c1.768-1.18,3.854-1.778,6.2-1.778c9.585,0,22.997,10.447,33.373,25.995
	c13.326,19.97,16.41,39.674,7.178,45.836c-1.766,1.178-3.849,1.775-6.191,1.775l0,0c-3.387,0-7.19-1.235-11.324-3.674
	C65.594,86.009,55.647,87.714,45.03,87.714z M45.03,59.092c-17.249,0-26.658,5.186-26.658,7.85c0,2.663,9.409,7.848,26.658,7.848
	c5.801,0,11.414-0.648,16.072-1.825c-3.502-3.648-6.867-7.859-9.891-12.39c-0.288-0.433-0.57-0.865-0.848-1.298
	C48.604,59.154,46.816,59.092,45.03,59.092z M59.785,49.942c10.103,1.663,18.008,4.93,22.667,9.125
	c-1.444-4.075-3.822-8.969-7.433-14.38c-7.535-11.291-16.284-18.039-20.389-18.039c-0.402,0-0.718,0.075-0.938,0.221
	C51.728,28.182,52.19,37.184,59.785,49.942z"/>
<linearGradient id="SVGID_1_" gradientUnits="userSpaceOnUse" x1="68.5049" y1="63.3398" x2="14.3698" y2="38.1746">
	<stop  offset="0" style="stop-color:#000000"/>
	<stop  offset="1" style="stop-color:#FFFFFF"/>
</linearGradient>
<path fill="url(#SVGID_1_)" d="M81.044,40.667c-11.966-17.93-27.771-28.391-35.301-23.365c-6.565,4.381-4.671,19.085,3.849,34.663
	c-1.498-0.073-3.018-0.115-4.562-0.115C23.475,51.85,6,59.188,6,68.241S23.475,84.634,45.03,84.634
	c11.246,0,21.375-2.001,28.496-5.198c6.215,4.002,11.869,5.25,15.548,2.795C96.604,77.206,93.008,58.597,81.044,40.667z
	 M45.03,77.869c-16.423,0-29.738-4.893-29.738-10.928c0-6.037,13.315-10.93,29.738-10.93c2.454,0,4.835,0.111,7.116,0.318
	c0.525,0.846,1.064,1.69,1.628,2.535c4.097,6.139,8.644,11.4,13.154,15.467C61.492,76.506,53.695,77.869,45.03,77.869z
	 M73.211,70.429c-3.867-2.929-8.055-7.292-11.943-12.642c8.125,1.95,13.5,5.32,13.5,9.154
	C74.768,68.161,74.215,69.333,73.211,70.429z M84.998,73.779c-1.026,0.684-2.323,0.872-3.812,0.635
	c1.847-1.906,2.872-3.988,2.872-6.173c0-7.159-10.932-13.243-26.163-15.476c-7.962-12.86-10.646-25.298-5.911-28.458
	c5.02-3.351,16.48,5.009,25.597,18.669C86.697,56.639,90.018,70.429,84.998,73.779z"/>
<path opacity="0.3" fill="#ED1F24" d="M81.044,40.667c-11.966-17.93-27.771-28.391-35.301-23.365
	c-6.565,4.381-4.671,19.085,3.849,34.663c-1.498-0.073-3.018-0.115-4.562-0.115C23.475,51.85,6,59.188,6,68.241
	S23.475,84.634,45.03,84.634c11.246,0,21.375-2.001,28.496-5.198c6.215,4.002,11.869,5.25,15.548,2.795
	C96.604,77.206,93.008,58.597,81.044,40.667z M45.03,77.869c-16.423,0-29.738-4.893-29.738-10.928
	c0-6.037,13.315-10.93,29.738-10.93c2.454,0,4.835,0.111,7.116,0.318c0.525,0.846,1.064,1.69,1.628,2.535
	c4.097,6.139,8.644,11.4,13.154,15.467C61.492,76.506,53.695,77.869,45.03,77.869z M73.211,70.429
	c-3.867-2.929-8.055-7.292-11.943-12.642c8.125,1.95,13.5,5.32,13.5,9.154C74.768,68.161,74.215,69.333,73.211,70.429z
	 M84.998,73.779c-1.026,0.684-2.323,0.872-3.812,0.635c1.847-1.906,2.872-3.988,2.872-6.173c0-7.159-10.932-13.243-26.163-15.476
	c-7.962-12.86-10.646-25.298-5.911-28.458c5.02-3.351,16.48,5.009,25.597,18.669C86.697,56.639,90.018,70.429,84.998,73.779z"/>
<path d="M47.768,48.73c0,0,1.669,3.465,7.829,12.961l-3.722-0.449c0,0-3.529-4.492-5.839-10.652
	C45.293,48.608,47.95,50.541,47.768,48.73z M64.323,74.718c8.47,9.946,14.888,10.202,14.888,10.202l1.924-1.154
	c-5.968-1.989-15.593-10.588-15.593-10.588C66.352,74.914,63.206,73.405,64.323,74.718z M56.623,50.526
	c3.538,6.044,4.17,6.931,7.315,10.139l2.31,0.192l-7.379-10.202L56.623,50.526z M71.702,69.135c0,0,6.577,7.123,11.583,5.583
	l2.694-1.636c0,0-5.583,2.117-12.545-4.717L71.702,69.135z"/>
</svg>
