<?xml version="1.0" encoding="utf-8"?>
<!-- Generator: Adobe Illustrator 16.0.0, SVG Export Plug-In . SVG Version: 6.00 Build 0)  -->
<!DOCTYPE svg PUBLIC "-//W3C//DTD SVG 1.1//EN" "http://www.w3.org/Graphics/SVG/1.1/DTD/svg11.dtd">
<svg version="1.1" id="Layer_1" xmlns="http://www.w3.org/2000/svg" xmlns:xlink="http://www.w3.org/1999/xlink" x="0px" y="0px"
	 width="100px" height="100px" viewBox="0 0 100 100" enable-background="new 0 0 100 100" xml:space="preserve">
<path d="M2.692,87.883L48.015,42.56l-0.579-0.579l7.919-6.488c-1.204,0.249-2.414,0.374-3.619,0.374c-4.114,0-6.52-1.287-9.242-4.01
	c-0.795-0.794-1.728-2.038-2.31-2.952l-1.797-4.491l3.594,1.54c2.695,1.155,4.448,1.212,6.289,0.77
	c3.333-0.801,6.752-2.271,9.496-5.014c4.271-4.27,6.546-11.027,5.134-15.134l-1.981-3.558l4.034,1.504
	c0.962,0.557,2.958,2.133,3.723,2.952c3.722,3.979,4.121,6.985,2.689,12.637c2.215-2.542,4.182-5.271,4.182-5.271L97.877,2.284
	l-12.93,22.873c0,0-6.743,4.222-12.201,11.391l-2.137,2.804l-1.86-1.861l-0.181,0.064l-4.34,5.423l0.949,0.95l-7.113,8.682
	l-0.636-0.636L12.107,97.295L2.692,87.883z"/>
<path fill="#666766" d="M64.13,34.65l-4.203-4.204c1.304-0.773,2.554-1.732,3.698-2.877c1.146-1.146,2.105-2.394,2.878-3.7
	l2.774,2.775c0.744-0.683,1.43-1.345,2.063-1.986l-3.523-3.523c1.891-5.013,1.195-10.39-2.293-13.879
	c-0.632-0.631-1.325-1.17-2.066-1.621c3.175,5.232,1.857,12.877-3.515,18.251c-5.372,5.372-13.018,6.689-18.249,3.515
	c0.45,0.74,0.989,1.433,1.62,2.064c3.489,3.489,8.867,4.183,13.88,2.293l4.594,4.594L64.13,34.65z"/>
<rect x="0.175" y="64.133" transform="matrix(0.7071 -0.7071 0.7071 0.7071 -38.3904 42.6896)" fill="#87461E" width="64.32" height="7.107"/>
<rect x="-1.941" y="64.963" transform="matrix(0.7071 -0.7071 0.7071 0.7071 -37.5143 40.5739)" opacity="0.5" fill="#FFFFFF" width="64.32" height="1.215"/>
<rect x="1.589" y="67.545" transform="matrix(0.7071 -0.7071 0.7071 0.7071 -38.9759 44.1031)" opacity="0.5" width="64.32" height="3.108"/>
<path fill="#666766" d="M65.479,29.864l4.816,4.817c5.913-7.764,12.479-11.804,12.479-11.804L94.61,5.55L77.282,17.383
	C77.282,17.383,73.764,23.399,65.479,29.864z"/>
<linearGradient id="SVGID_1_" gradientUnits="userSpaceOnUse" x1="-656.1309" y1="932.46" x2="-650.7704" y2="932.46" gradientTransform="matrix(0.7071 0.7071 -0.7071 0.7071 1186.3232 -162.127)">
	<stop  offset="0" style="stop-color:#000000"/>
	<stop  offset="0.5" style="stop-color:#FFFFFF"/>
	<stop  offset="1" style="stop-color:#000000"/>
</linearGradient>
<polygon fill="url(#SVGID_1_)" points="58.582,45.104 54.941,41.463 65.109,33.339 65.736,31.549 67.308,30.103 73.022,26.968 
	69.942,32.738 68.499,34.313 66.714,34.943 "/>
<linearGradient id="SVGID_2_" gradientUnits="userSpaceOnUse" x1="-657.5933" y1="944.0654" x2="-649.3647" y2="944.0654" gradientTransform="matrix(0.7071 0.7071 -0.7071 0.7071 1186.3232 -162.127)">
	<stop  offset="0" style="stop-color:#000000"/>
	<stop  offset="0.5" style="stop-color:#FFFFFF"/>
	<stop  offset="1" style="stop-color:#000000"/>
</linearGradient>
<polygon fill="url(#SVGID_2_)" points="57.838,48.027 52.02,42.208 55.912,39.018 61.028,44.133 "/>
<path opacity="0.7" fill="#FFFFFF" d="M62.109,26.053c7.723-7.724,6.264-14.543,2.297-19.761c-0.308-0.234-0.621-0.457-0.949-0.656
	c3.175,5.232,1.857,12.877-3.515,18.251c-5.372,5.372-13.018,6.689-18.249,3.515c0.198,0.328,0.421,0.64,0.655,0.947
	C47.566,32.317,54.955,33.207,62.109,26.053z"/>
<path opacity="0.7" fill="#FFFFFF" d="M66.479,30.865l0.829-0.762l5.715-3.134l-0.005,0.01L94.61,5.55L77.282,17.383
	c0,0-3.519,6.016-11.804,12.48L66.479,30.865z"/>
<path opacity="0.3" fill="#3E53A4" d="M77.282,17.383c0,0-1.835,3.119-5.944,7.274l-3.521-3.521
	c1.891-5.013,1.195-10.39-2.293-13.879c-0.632-0.631-1.325-1.17-2.066-1.621c3.175,5.232,1.857,12.877-3.515,18.251
	c-5.372,5.372-13.018,6.689-18.249,3.515c0.45,0.74,0.989,1.433,1.62,2.064c3.489,3.489,8.867,4.183,13.88,2.293l4.393,4.393
	l-4.746,3.792l3.262,3.261l6.612-8.263l1.785-0.63l0.683-0.745l1.113,1.114c5.913-7.764,12.479-11.804,12.479-11.804L94.61,5.55
	L77.282,17.383z M65.479,29.864l1.002,1.001l-0.744,0.685l-0.627,1.79l-1.273,1.017l-3.909-3.909
	c1.304-0.773,2.554-1.732,3.698-2.877c1.146-1.146,2.105-2.394,2.878-3.7l2.774,2.774C68.141,27.688,66.884,28.768,65.479,29.864z
	 M70.373,25.614c0.315-0.305,0.619-0.604,0.912-0.901C70.992,25.009,70.688,25.309,70.373,25.614z"/>
<polygon points="61.028,44.133 56.788,39.894 62.129,42.765 "/>
</svg>
