<?xml version="1.0" encoding="utf-8"?>
<!-- Generator: Adobe Illustrator 16.0.0, SVG Export Plug-In . SVG Version: 6.00 Build 0)  -->
<!DOCTYPE svg PUBLIC "-//W3C//DTD SVG 1.1//EN" "http://www.w3.org/Graphics/SVG/1.1/DTD/svg11.dtd">
<svg version="1.1" id="Layer_1" xmlns="http://www.w3.org/2000/svg" xmlns:xlink="http://www.w3.org/1999/xlink" x="0px" y="0px"
	 width="100px" height="100px" viewBox="0 0 100 100" enable-background="new 0 0 100 100" xml:space="preserve">
<path d="M1.904,88.753l47.404-47.405l0.046,0.045l1.634-1.633C55.953,21.299,66.67,11.173,75.352,6.848
	C83.086,2.995,89.676,2,90.016,1.968L99,1.712l-6.674,6.416c-22.072,15.4-23.059,35.942-23.037,36.115l0.24,1.869l-1.551,1.098
	c-3.018,2.065-6.381,2.374-8.119,2.374l-5.791,5.792l-0.148-0.148L11.149,98L1.904,88.753z"/>
<path fill="#666766" d="M93.354,3.765c0,0-30.801,2.823-39.637,37.728l4.945,4.946c0,0,4.129,0.59,7.576-1.77
	C66.238,44.668,63.406,25.815,93.354,3.765z"/>
<path opacity="0.7" fill="#FFFFFF" d="M53.717,41.492l3.951,3.952c0.877-6.761,4.83-23.225,22.623-30.308
	c3.451-3.631,7.736-7.45,13.063-11.372C93.354,3.765,62.553,6.588,53.717,41.492z"/>
<rect x="-0.212" y="66.215" transform="matrix(0.7071 -0.7071 0.7071 0.7071 -40.4134 41.7839)" fill="#87461E" width="60.881" height="6.916"/>
<rect x="-2.27" y="67.024" transform="matrix(0.7071 -0.7071 0.7071 0.7071 -39.5609 39.7255)" opacity="0.5" fill="#FFFFFF" width="60.88" height="1.182"/>
<rect x="1.165" y="69.536" transform="matrix(0.7071 -0.7071 0.7071 0.7071 -40.9828 43.1601)" opacity="0.5" width="60.881" height="3.024"/>
<linearGradient id="SVGID_1_" gradientUnits="userSpaceOnUse" x1="-1115.9189" y1="533.9746" x2="-1108.8584" y2="533.9746" gradientTransform="matrix(0.7071 0.7071 -0.7071 0.7071 1220.9697 452.2656)">
	<stop  offset="0" style="stop-color:#000000"/>
	<stop  offset="0.5" style="stop-color:#FFFFFF"/>
	<stop  offset="1" style="stop-color:#000000"/>
</linearGradient>
<path fill="url(#SVGID_1_)" d="M49.076,46.028l4.993,4.992l6.775-6.78c0,0,3.648-3.813,1.197-6.264
	c-2.449-2.45-6.188,1.274-6.188,1.274L49.076,46.028z"/>
<path opacity="0.3" fill="#3E53A4" d="M93.354,3.765c0,0-30.713,2.817-39.598,37.584l-4.68,4.679l4.993,4.992l4.586-4.588
	l0.008,0.007c0,0,4.129,0.59,7.576-1.77C66.238,44.668,63.406,25.815,93.354,3.765z"/>
</svg>
