<?xml version="1.0" encoding="utf-8"?>
<!-- Generator: Adobe Illustrator 16.0.0, SVG Export Plug-In . SVG Version: 6.00 Build 0)  -->
<!DOCTYPE svg PUBLIC "-//W3C//DTD SVG 1.1//EN" "http://www.w3.org/Graphics/SVG/1.1/DTD/svg11.dtd">
<svg version="1.1" id="Layer_1" xmlns="http://www.w3.org/2000/svg" xmlns:xlink="http://www.w3.org/1999/xlink" x="0px" y="0px"
	 width="100px" height="100px" viewBox="0 0 100 100" enable-background="new 0 0 100 100" xml:space="preserve">
<polygon points="12.394,77.157 16.871,75.564 23.574,68.861 16.057,61.346 40.42,52.248 77.357,16.542 77.422,12.479 98.213,2.291 
	87.58,22.637 83.516,22.702 47.81,59.639 38.714,84 31.197,76.484 24.371,83.311 22.843,87.605 2,98 "/>
<polygon fill="#666766" points="85.852,19.584 80.387,19.67 80.475,14.208 94.682,5.376 "/>
<polygon opacity="0.7" fill="#FFFFFF" points="85.852,19.584 84.033,16.063 94.621,5.474 80.475,14.208 80.389,19.671 
	80.426,19.669 83.182,16.914 "/>
<polygon opacity="0.3" fill="#EE1C4E" points="85.852,19.584 80.387,19.67 80.475,14.208 94.682,5.376 "/>
<linearGradient id="SVGID_1_" gradientUnits="userSpaceOnUse" x1="-847.1128" y1="658.3096" x2="-830.0209" y2="658.3096" gradientTransform="matrix(0.7071 0.7071 -0.7071 0.7071 1101.5762 183.8555)">
	<stop  offset="0" style="stop-color:#BCBEC0"/>
	<stop  offset="1" style="stop-color:#000000"/>
</linearGradient>
<path fill="url(#SVGID_1_)" d="M31.197,72.129l6.308,6.307l7.644-20.477l37.105-38.383c0.488-0.489-1.283-2.26-1.771-1.771
	L42.099,54.91l-20.476,7.645l6.307,6.307l-9.372,9.373l-4.111,1.461L5.035,94.966l15.27-9.413l1.397-3.928L31.197,72.129z"/>
<polygon opacity="0.5" points="35.841,76.773 35.842,76.771 24.136,65.064 24.134,65.066 27.93,68.861 18.558,78.234 18.331,78.314 
	21.685,81.67 21.701,81.625 31.197,72.129 "/>
</svg>
