<?xml version="1.0" encoding="utf-8"?>
<!-- Generator: Adobe Illustrator 16.0.0, SVG Export Plug-In . SVG Version: 6.00 Build 0)  -->
<!DOCTYPE svg PUBLIC "-//W3C//DTD SVG 1.1//EN" "http://www.w3.org/Graphics/SVG/1.1/DTD/svg11.dtd">
<svg version="1.1" id="Layer_1" xmlns="http://www.w3.org/2000/svg" xmlns:xlink="http://www.w3.org/1999/xlink" x="0px" y="0px"
	 width="100px" height="100px" viewBox="0 0 100 100" enable-background="new 0 0 100 100" xml:space="preserve">
<path d="M8.122,87.067l-1.947-7.62l-2.242-6.221l0.092-7.863l-0.556-6.589l2.124-7.567l1.17-6.513l4.007-6.757l2.817-5.992
	l5.613-5.481l4.278-5.067l6.857-3.851l5.427-3.777l7.603-1.939l6.237-2.249l7.861,0.094l6.592-0.556l7.568,2.124l6.512,1.168
	l6.759,4.011l5.989,2.814l6.4,6.554L74.336,54.364l-1.59-1.133l-9.953,13.97l-0.041,0.053c-0.668,0.856-1.928,1.769-3.52,1.873
	l-14.315,6.534l0.81,1.776L13.324,94.549L8.122,87.067z"/>
<radialGradient id="SVGID_1_" cx="423.6914" cy="175.668" r="45.665" gradientTransform="matrix(0.9097 -0.4152 0.4152 0.9097 -425.1025 66.7012)" gradientUnits="userSpaceOnUse">
	<stop  offset="0" style="stop-color:#FFFFFF"/>
	<stop  offset="1" style="stop-color:#000000"/>
</radialGradient>
<path fill="url(#SVGID_1_)" d="M89.07,21.788l-5.275-2.479L76.71,30.574l5.388-12.23l-5.053-2.999l-5.738-1.029l-3.928,12.715
	l2.039-13.208l-5.658-1.587l-5.809,0.49l-0.502,13.298L56,12.739l-5.876-0.07l-5.484,1.977l2.957,12.976l-4.838-12.457l-5.694,1.453
	l-4.785,3.331l6.213,11.766l-7.897-10.779l-5.123,2.877l-3.761,4.454l9.048,9.759l-10.418-8.369l-4.204,4.105l-2.48,5.275
	l11.268,7.086l-12.232-5.389l-2.997,5.054l-1.031,5.737l12.718,3.927l-13.21-2.037L6.585,59.07l0.49,5.81l13.299,0.501l-13.286,1.45
	l-0.069,5.876l1.977,5.482l12.977-2.956L9.514,80.074l1.455,5.691l3.328,4.787l27.422-14.481l-0.882-1.934l17.774-8.112
	c1.032,0.208,1.713-0.666,1.713-0.666l11.702-16.425l1.73,1.233l19.42-24.178L89.07,21.788z M64.146,44.688l-2.172,5.818
	l0.598-6.238l0.603,0.058L64.146,44.688z M38.168,64.967l0.099-1.033l6.181,0.593l-6.18,1.037L38.168,64.967z M38.676,59.655
	l0.362-0.971l5.817,2.171l-6.237-0.598L38.676,59.655z M40.542,54.658l0.601-0.846l5.058,3.604l-5.871-2.189L40.542,54.658z
	 M43.637,50.313l0.799-0.66l3.952,4.79l-5.104-3.636L43.637,50.313z M47.75,46.917l0.943-0.43l2.578,5.65l-3.989-4.834L47.75,46.917
	z M52.604,44.702l1.021-0.171l1.028,6.123l-2.602-5.7L52.604,44.702z M57.865,43.818l1.031,0.099l-0.592,6.182l-1.037-6.181
	L57.865,43.818z M39.051,70.227l-0.172-1.021l6.124-1.027l-5.7,2.602L39.051,70.227z M65.414,51.85l2.191-5.87l0.568,0.211
	l0.844,0.602L65.414,51.85z"/>
<g opacity="0.5">
	<polygon points="45.003,68.178 39.303,70.779 39.051,70.227 38.879,69.205 39.231,71.301 21.972,75.233 9.514,80.074 9.537,80.164 
		39.579,72.901 39.199,70.813 54.012,68.125 56.326,67.068 53.164,66.807 38.879,69.205 	"/>
	<path d="M57.315,63.217l8.099-11.367l2.191-5.87l0.568,0.211l0.844,0.602l-1.731-1.233l9.424-14.985l5.388-12.23l-0.08-0.049
		L65.908,44.672l1.749,1.211l-8.575,12.372l2.893-7.749l0.598-6.238l0.603,0.058l0.972,0.362l-1.992-0.742l9.152-29.63
		l-3.928,12.715l2.039-13.208l-0.09-0.025l-8.732,29.647l2,0.717l-5.078,14.171l1.379-14.416l-0.592,6.182l-1.037-6.181l0.598-0.099
		l1.031,0.099l-2.115-0.203l0.668-17.691L56,12.739l-0.094-0.001l-0.762,30.898l2.118,0.173l-1.239,15.003l-1.37-8.158l-2.602-5.7
		l0.552-0.251l1.021-0.171l-2.096,0.351l-6.89-30.236l2.957,12.976l-4.838-12.457l-0.091,0.023l7.262,30.042l2.09-0.379
		l2.688,14.812l-3.436-7.525l-3.989-4.834l0.468-0.386l-0.991,0.452l-14.48-27.42l6.213,11.766l-7.897-10.779l-0.082,0.046
		l14.789,27.139l1.922-0.908l6.429,13.612l-9.218-11.169l3.952,4.79l-5.104-3.636l0.352-0.494l-0.84,0.693L21.711,28.265
		l9.048,9.759l-10.418-8.369l-0.067,0.066l21.309,22.386l1.622-1.375l9.732,11.484l-11.795-8.404l5.058,3.604l-5.871-2.189
		l0.212-0.568l0.601-0.846l-1.233,1.732L13.657,39.036l11.268,7.086l-12.232-5.389l-0.048,0.081l26.377,16.108l1.21-1.747
		l12.373,8.574l-7.75-2.894l-6.237-0.598l0.058-0.603l-0.381,1.021l-16.914-5.225L8.172,53.414l-0.025,0.09l29.647,8.732l0.716-2
		l14.172,5.078l-8.236-0.787l-6.179,1.036l-0.101-0.597l-0.104,1.083L7.075,64.88l13.299,0.501l-13.286,1.45l-0.001,0.094
		l30.898,0.763l0.174-2.119l15.005,1.238l2.508-0.42l1.205,0.43l1.733-0.791c-0.214-0.081-0.401-0.166-0.562-0.264
		C56.288,64.681,57.315,63.217,57.315,63.217z M59.556,65.498 M59.514,65.529c-0.01,0.006-0.018,0.013-0.026,0.018
		c-0.015,0.012-0.03,0.021-0.046,0.031c-0.002,0.001-0.004,0.002-0.007,0.004C59.461,65.564,59.487,65.547,59.514,65.529z"/>
	<polygon points="7.386,73.725 8.996,78.189 7.386,73.725 	"/>
	<polygon points="9.504,46.852 9.504,46.852 8.665,51.524 	"/>
	<polygon points="88.092,21.328 88.092,21.328 83.795,19.309 	"/>
	<polygon points="15.677,34.74 13.657,39.036 15.677,34.74 	"/>
	<polygon points="49.106,13.036 44.64,14.646 49.106,13.036 	"/>
	<polygon points="75.979,15.153 71.307,14.315 75.979,15.154 	"/>
</g>
<path fill="#EE1C4E" d="M18.391,88.389l-3.243-7.104l3.02-0.909l2.991,6.553L18.391,88.389z M24.785,80.738l-2.374,0.613
	l1.808,3.961l2.138-1.129L24.785,80.738z M16.575,76.402l-1.193-7.104l-3.151,0.098l1.293,7.701L16.575,76.402z M21.68,71.361
	l-2.451-0.02l0.72,4.293l2.358-0.537L21.68,71.361z M14.872,65.051l0.687-7.172l-3.069-0.722l-0.745,7.774L14.872,65.051z
	 M21.107,61.502l-2.363-0.654l-0.415,4.333l2.417,0.091L21.107,61.502z M16.124,53.811l2.493-6.76l-2.784-1.481l-2.703,7.328
	L16.124,53.811z M23.058,51.969l-2.118-1.234l-1.506,4.082l2.314,0.705L23.058,51.969z M20.304,43.072l4.162-5.879l-2.303-2.153
	l-4.513,6.374L20.304,43.072z M27.479,43.097l-1.724-1.744l-2.516,3.552l2.051,1.282L27.479,43.097z M26.988,33.938l5.525-4.622
	l-1.679-2.67l-5.99,5.012L26.988,33.938z M33.918,35.792l-1.221-2.125l-3.339,2.792l1.656,1.764L33.918,35.792z M35.935,26.718
	l6.534-3.033l-0.928-3.013l-7.085,3.288L35.935,26.718z M42.148,30.306l-0.629-2.369l-3.948,1.832l1.142,2.132L42.148,30.306z
	 M46.433,22.068l7.097-1.236l-0.117-3.152l-7.693,1.343L46.433,22.068z M51.505,27.142l0.007-2.451l-4.289,0.748l0.552,2.354
	L51.505,27.142z M57.702,20.295l7.177,0.63l0.697-3.076l-7.779-0.683L57.702,20.295z M61.299,26.503l0.637-2.368l-4.336-0.38
	l-0.072,2.417L61.299,26.503z M69.181,21.513l6.765,2.476l1.474-2.788l-7.334-2.685L69.181,21.513z M71.038,28.443l1.229-2.12
	l-4.086-1.497l-0.699,2.316L71.038,28.443z M79.852,25.625l5.898,4.137l2.142-2.315l-6.394-4.482L79.852,25.625z M79.859,32.801
	l1.735-1.732l-3.563-2.5l-1.272,2.059L79.859,32.801z"/>
</svg>
