<?xml version="1.0" encoding="utf-8"?>
<!-- Generator: Adobe Illustrator 16.0.0, SVG Export Plug-In . SVG Version: 6.00 Build 0)  -->
<!DOCTYPE svg PUBLIC "-//W3C//DTD SVG 1.1//EN" "http://www.w3.org/Graphics/SVG/1.1/DTD/svg11.dtd">
<svg version="1.1" id="Layer_1" xmlns="http://www.w3.org/2000/svg" xmlns:xlink="http://www.w3.org/1999/xlink" x="0px" y="0px"
	 width="200px" height="200px" viewBox="0 0 200 200" enable-background="new 0 0 200 200" xml:space="preserve">
<g>
	<line fill="none" stroke="#FF0000" stroke-miterlimit="10" x1="0.001" y1="99.999" x2="200" y2="99.999"/>
	<line fill="none" stroke="#FF0000" stroke-miterlimit="10" x1="100" y1="0" x2="100" y2="200"/>
</g>
<g>
	<path fill="#AA6826" d="M126.58,162.16c0.016-0.014,0.032-0.029,0.049-0.045c2.662,0.576,6.472-0.373,6.472-0.373
		c-1.265-1.738-2.525-2.422-3.506-2.666h2.506c-5.023-3.908-8.868-1.512-9.989-0.627c-1.328,0.09-2.17,0.037-3.362-1.254
		c-2.631-2.852-2.449-7.348-2.727-10.949c-0.43-5.57-5.922-8.074-8.66-12.307c-0.9-1.393-1.264-2.691-1.309-3.941
		c0.591-0.068,1.222-0.166,1.876-0.301c0.607,0.748,1.637,1.178,3.249,1.17c7.68-0.041,13.891-9.686,13.5-17.75
		c-0.31-6.459-3.4-9.195-6.318-9.988c-1.522-1.521-2.918-2.377-2.918-2.377c-0.004-0.605,0.003-1.18,0.015-1.743
		c3.146-0.794,5.322-8.741,3.972-16.393c-0.368-2.088-1.438-6.621-4.75-6.75c-1.478-0.057-2.883,0.035-4.021,0.871
		c-2.129-2.535-3.823-4.049-3.059-5.67c1.961-4.152,3.691-6.152,4-11.535c0.074-1.293,0.152-1.385-3.23-2.461
		c-2.164-3.768-7.066-8.768-9.922-8.768c-4.188,0-8.482,5.682-9.766,8.922c-2.553,0.979-3.014,0.186-3.537,1.23
		c-1.537,8.152,5.336,13.797,4.611,14.455c-0.757,0.689-1.412,2.152-2.834,2.551c-0.608-1.947-1.193-3.797-1.585-5.379
		c-0.512-2.056-1.817-6.319-5.131-6.221c-3.311,0.104-5.257,3.004-5.09,11.145c0.063,3.056,0.387,6.426,1.181,9.408
		c0.155,2.51,1.352,5.373,4.011,7.09c0.521,0.402,1.092,0.725,1.715,0.957c0.207,2.725,0.664,4.752,1.151,6.221
		c-3.151,0.438-6.9,3.036-7.243,10.184c-0.29,5.99,3.065,12.844,7.956,15.994c3.247,3.707,7.002,5.174,10.333,5.266
		c0.482,0.113,1.326,0.17,2.334,0.199c0.271,2.426,1.398,4.6,3.74,6.568c3.416,2.873,7.152,5.537,9.92,8.305
		c3.613,3.611,0.279,10.691,3.922,14.535c2.137,2.252,3.894,3.441,6.695,3.133c3.055,1.541,10.604,1.543,10.604,1.543
		C130.545,164.41,127.294,162.57,126.58,162.16z"/>
	<path fill="#FFFFFF" d="M76.05,68.913c0,0-2.746-1.926-0.416-7.392C75.634,61.521,78,66,76.05,68.913z M78.096,59.696
		c-1.218,4.79,0.417,7.393,0.417,7.393C82.142,63.079,78.096,59.696,78.096,59.696z M81.591,60.554
		c-1.423,5.602,0.416,7.392,0.416,7.392C85.638,63.936,81.591,60.554,81.591,60.554z"/>
	<g opacity="0.2">
		<path d="M82.021,92.462c-0.002-0.033-0.006-0.063-0.009-0.096c-0.627-0.235-1.191-0.528-1.706-0.861
			C80.827,91.908,81.397,92.23,82.021,92.462z"/>
		<path d="M118.36,103.129c2.918,0.793,6.009,3.529,6.318,9.988c0.391,8.064-5.82,17.709-13.5,17.75
			c-1.612,0.008-2.642-0.422-3.249-1.17c5.146-1.057,11.879-4.553,14.126-16.795C122.838,108.646,120.477,105.242,118.36,103.129z
			 M116.13,87.525c0.363,1.699-0.551,5.364-0.673,11.484c3.146-0.794,5.322-8.741,3.972-16.393c-0.368-2.088-1.438-6.621-4.75-6.75
			c-1.478-0.057-2.883,0.035-4.021,0.871C112.652,79.115,115.029,82.39,116.13,87.525z M78.378,114.287
			c-2.152-7.074,6.459-12.305,6.459-12.305s-0.872-0.91-1.665-3.299c-3.151,0.438-6.9,3.036-7.243,10.184
			c-0.29,5.99,3.065,12.844,7.956,15.994C81.735,122.408,79.806,118.98,78.378,114.287z M76.679,81.367
			c1.004-2.674,5.333-5,10-5.833c0.086-0.016,0.16-0.048,0.242-0.071c-0.608-1.947-1.193-3.797-1.585-5.379
			c-0.512-2.056-1.817-6.319-5.131-6.221c-3.311,0.104-5.257,3.004-5.09,11.145c0.063,3.056,0.387,6.426,1.181,9.408
			C76.225,83.281,76.36,82.215,76.679,81.367z"/>
	</g>
	<path opacity="0.2" d="M106.18,107.867c0,0-7.374-14.817,9.231-8.543c-0.007,0.463-0.01,0.937-0.007,1.428
		c0,0,7.959,4.834,6.613,12.15c-0.14,0.76-0.299,1.48-0.472,2.176c-1.176-2.928-0.847-13.428-9.036-8.578
		C108.513,108.867,106.18,107.867,106.18,107.867z M84.464,101.443c0.203,0.355,0.335,0.539,0.335,0.539s-7.587,4.609-6.737,11.025
		c1.746-3.109,5.018-8.174,11.118-6.141c8,2.668,6-3,6-3S93.245,96.161,84.464,101.443z"/>
	<path fill="#77481E" d="M99.769,43.171c0,0,4.396-1.831,10.46,3.368c0.452,0.389,0.913,0.815,1.383,1.285l6.345,7.19l-5.075-2.114
		l9.729,7.613l-5.076,0.423l3.808,8.883l-4.23-1.691l1.692,8.459h-2.115l-0.423,8.46l-3.807-4.229l-5.076,17.341l0.423-14.381
		l-5.922,10.151l-2.538-8.46l-2.961,9.307l-0.846-9.729l-5.499,7.613l1.27-9.729l-5.499,5.075v-8.036l-3.807,4.653l1.27-9.307
		l-5.076,1.693l3.807-7.191l-5.075,0.847c0,0,2.96-11.845,5.498-11.845l-5.498-1.691c0,0,4.651-5.498,8.036-5.498l-6.345-0.847
		c0,0,6.346-4.653,10.998-3.385l-4.652-1.269C84.965,46.132,90.886,36.405,99.769,43.171z M131.434,164.41c-1,0-5-2.334-5-2.334
		c2.667,0.666,6.667-0.334,6.667-0.334c-2.666-3.666-5.334-2.666-5.334-2.666h4.334c-6-4.668-10.334-0.334-10.334-0.334
		C113.433,164.41,131.434,164.41,131.434,164.41z"/>
	<path opacity="0.2" d="M107.267,67.577c0,0,6,4.834,0,15.5C107.267,83.077,108.267,73.577,107.267,67.577z M98.934,73.743
		c0,0-1.667,11.334-1.5,14.167C97.434,87.91,102.101,79.076,98.934,73.743z M94.767,67.743c0,0-4.166,13.668-6.333,15.334
		C88.434,83.077,96.767,75.076,94.767,67.743z M119.934,67.577c-2.333-7.166-7.667-10.334-7.667-10.334
		C113.933,60.743,119.934,67.577,119.934,67.577z M90.601,60.243c-2,3.166-11.667,7.834-11.667,7.834
		C87.267,68.244,90.601,60.243,90.601,60.243z M95.767,52.41c-4.167-4.667-13.333-2.167-13.333-2.167L95.767,52.41z M115.934,72.91
		c-3.333-13.5-12.333-17-12.333-17C107.935,59.577,115.934,72.91,115.934,72.91z M102.101,51.41c0,0,5.333-3.5,10.833,0.5
		C112.934,51.91,104.768,44.577,102.101,51.41z M98.767,51.243c-0.5-7.334-10-6.5-10-6.5C95.267,46.409,98.767,51.243,98.767,51.243
		z M96.767,56.41c0,0-3.833,11.833-10.833,15.5C85.934,71.91,99.1,64.41,96.767,56.41z M101.767,60.243c0,0,2.166,9.833,1.5,13.5
		C103.267,73.743,106.767,64.743,101.767,60.243z"/>
</g>
</svg>
