<?xml version="1.0" encoding="utf-8"?>
<!-- Generator: Adobe Illustrator 16.0.0, SVG Export Plug-In . SVG Version: 6.00 Build 0)  -->
<!DOCTYPE svg PUBLIC "-//W3C//DTD SVG 1.1//EN" "http://www.w3.org/Graphics/SVG/1.1/DTD/svg11.dtd">
<svg version="1.1" id="Layer_1" xmlns="http://www.w3.org/2000/svg" xmlns:xlink="http://www.w3.org/1999/xlink" x="0px" y="0px"
	 width="200px" height="200px" viewBox="0 0 200 200" enable-background="new 0 0 200 200" xml:space="preserve">
<g>
	<line fill="none" stroke="#FF0000" stroke-miterlimit="10" x1="0.001" y1="99.999" x2="200" y2="99.999"/>
	<line fill="none" stroke="#FF0000" stroke-miterlimit="10" x1="100" y1="0" x2="100" y2="200"/>
</g>
<path fill="none" d="M118.782,96.736c0.154,0.281,0.26,0.45,0.26,0.45l4.201,2.391c-0.578-0.999-1.018-1.955-1.342-2.86
	C120.856,96.846,119.71,96.962,118.782,96.736z"/>
<g>
	<path fill="#AA6826" d="M131.651,73.486c-3.945-1.326-6.023,0.77-6.023,0.77l-8.549,9.191c-6.348,4.072-11.268-0.163-11.945-1.465
		c0-6.879-1.51-9.989-4.523-9.76c-2.961-0.338-4.733,3.84-4.733,9.744c-0.67,1.308-5.368,5.565-11.739,1.479l-8.613-9.285
		c0,0-2.096-2.082-6.028-0.73c-7.021,2.411-25.458,6.5-25.458,6.5s2.648,3.38,8.236,3.545c0,0,0.014,0.023,0.02,0.035
		c0.212,0.371,3.698,6.359,7.996,5.837c0.014-0.002,0.025,0,0.04-0.002c0,0,0.007,0.017,0.022,0.046
		c0.217,0.426,2.044,3.664,6.875,2.782c0.069-0.013,0.135-0.017,0.205-0.031c0,0-0.011,0.028-0.026,0.071
		c-0.176,0.475-1.011,3.436,4.868,3.951c0.067,0.004,0.139,0.01,0.207,0.016c0.203,0.016,0.389,0.036,0.605,0.047
		c0.758,0.514,1.688,1.668,2.816,2.482c0.42,0.303,0.867,0.561,1.344,0.717c2.063,0.674,2.428,0.295,5.762,0.514
		c0,0,4.701-1.006,7.05-0.578c0,0,1.839,2.182,5.818,7.915c0,0-3.243,14.324-4.447,17.137c0,0,1.62,2.199,3.765-0.359
		c0,0,1.494,4.479,3.588,0.039c0,0,2.961,4.014,3.881,0.174c0,0,2.133,3.201,4.16-0.174c0,0,3.158,1.92,3.461-0.961
		c0,0-3.031-7.898-5.15-15.934c0,0-0.563-1.479,4.437-7.536c2.888-0.809,8.643,0.278,8.643,0.278
		c2.313-0.151,4.284-0.445,5.966-0.834c0.287-0.067,0.576-0.19,0.865-0.334c1.322-0.657,2.617-1.937,3.563-2.452
		c0.017-0.008,0.035-0.02,0.052-0.027c0.037-0.021,0.079-0.049,0.116-0.066c5.44,0.959,5.065-4.043,5.065-4.043
		c4.712,0.928,6.622-1.994,7.006-2.693c0.001-0.001,0.001-0.002,0.003-0.004c0.049-0.09,0.074-0.146,0.074-0.146
		c4.073,0.502,7.387-4.843,7.93-5.773c0.051-0.087,0.086-0.15,0.086-0.15c5.586-0.205,8.215-3.601,8.215-3.601
		S138.688,75.851,131.651,73.486z"/>
	<path fill="none" d="M60.353,89.39c-0.016-0.029-0.022-0.046-0.022-0.046c-0.015,0.002-0.026,0-0.04,0.002
		c-0.199,0.101-0.314,0.151-0.314,0.151S60.114,89.46,60.353,89.39z"/>
	<path fill="none" d="M140.849,89.486c-0.002,0.002-0.002,0.003-0.003,0.004c0.007,0.002,0.028,0.008,0.028,0.008
		S140.854,89.489,140.849,89.486z"/>
	<path fill="none" d="M67.406,92.212c0.016-0.043,0.026-0.071,0.026-0.071c-0.07,0.015-0.136,0.019-0.205,0.031
		c-0.058,0.056-0.109,0.115-0.169,0.171C67.059,92.343,67.19,92.296,67.406,92.212z"/>
	<path fill="none" d="M128.658,96.292c-0.017,0.008-0.035,0.02-0.052,0.027c0.069,0.039,0.117,0.066,0.117,0.066
		S128.698,96.349,128.658,96.292z"/>
	<path fill="none" d="M72.481,96.179c-0.068-0.006-0.14-0.012-0.207-0.016c-0.094,0.146-0.15,0.223-0.15,0.223
		S72.261,96.316,72.481,96.179z"/>
	<path fill="#77481E" d="M78.205,88.064c0,0,1.419,7.699-2.302,10.645c-1.129-0.814-2.059-1.969-2.816-2.482
		c-0.217-0.011-0.402-0.031-0.605-0.047C73.567,95.51,76.876,93.115,78.205,88.064z M67.406,92.212
		c-0.176,0.475-1.011,3.436,4.868,3.951c0.494-0.778,2.128-3.774,3.051-10.66C73.403,89.623,68.706,91.703,67.406,92.212z
		 M60.353,89.39c0.217,0.426,2.044,3.664,6.875,2.782c4.25-4.081,5.217-10.188,5.217-10.188
		C67.743,86.961,61.866,88.943,60.353,89.39z M69.563,77.503c-6.328,3.738-15.477,5.655-17.27,6.006
		c0.212,0.371,3.698,6.359,7.996,5.837C61.577,88.691,66.581,85.695,69.563,77.503z M122.644,88.064c0,0-1.436,7.818,2.4,10.708
		c1.322-0.657,2.617-1.937,3.563-2.452C127.917,95.935,124.097,93.589,122.644,88.064z M131.284,77.503
		c3.365,9.244,9.295,11.867,9.564,11.982c0.049-0.09,0.074-0.146,0.074-0.146c4.073,0.502,7.387-4.843,7.93-5.773
		C148.459,83.496,138.19,81.583,131.284,77.503z M133.79,92.343c0,0-6.025-2.039-8.266-6.84c0.984,7.352,2.779,10.272,3.134,10.789
		c0.037-0.021,0.079-0.049,0.116-0.066c5.44,0.959,5.065-4.043,5.065-4.043c4.712,0.928,6.622-1.994,7.006-2.693
		c-0.29-0.074-7.118-1.867-12.441-7.506C128.404,81.984,129.39,88.262,133.79,92.343z"/>
</g>
</svg>
