<?xml version="1.0" encoding="utf-8"?>
<!-- Generator: Adobe Illustrator 16.0.0, SVG Export Plug-In . SVG Version: 6.00 Build 0)  -->
<!DOCTYPE svg PUBLIC "-//W3C//DTD SVG 1.1//EN" "http://www.w3.org/Graphics/SVG/1.1/DTD/svg11.dtd">
<svg version="1.1" id="Layer_2" xmlns="http://www.w3.org/2000/svg" xmlns:xlink="http://www.w3.org/1999/xlink" x="0px" y="0px"
	 width="286.178px" height="286.178px" viewBox="0 0 286.178 286.178" enable-background="new 0 0 286.178 286.178"
	 xml:space="preserve">
<g>
	<g>
		<g>
			<g>
				
					<linearGradient id="SVGID_1_" gradientUnits="userSpaceOnUse" x1="4.7285" y1="149.3877" x2="22.4755" y2="134.36" gradientTransform="matrix(-0.9338 -0.5874 -0.448 0.8793 233.1928 127.6766)">
					<stop  offset="0" style="stop-color:#AFCE36"/>
					<stop  offset="0.522" style="stop-color:#69B545"/>
					<stop  offset="1" style="stop-color:#0D8943"/>
				</linearGradient>
				<path fill="url(#SVGID_1_)" d="M141.669,222.115c0,0,14.048,6.676,11.795,19.09c0,0,8.333,0.094,9.19,2.641
					c0,0-15.835-19.729-14.386-24.338L141.669,222.115z"/>
				<g>
					
						<linearGradient id="SVGID_2_" gradientUnits="userSpaceOnUse" x1="-236.3423" y1="191.25" x2="-302.257" y2="136.1139" gradientTransform="matrix(-0.9997 -0.4179 -0.271 0.9715 -151.2197 -118.3183)">
						<stop  offset="0" style="stop-color:#AFCE36"/>
						<stop  offset="0.3252" style="stop-color:#69B545"/>
						<stop  offset="0.7362" style="stop-color:#186E38"/>
					</linearGradient>
					<path fill="url(#SVGID_2_)" d="M64.716,62.332c0,0,0.028,0.26,0.115,0.757c-3.691,25.194,4.449,63.142,13.494,82.065
						c23.422,49,56.756,70.547,69.892,77.516c-0.153,0.27-0.248,0.424-0.248,0.424C-16.185,218.988,64.716,62.332,64.716,62.332z"/>
					
						<linearGradient id="SVGID_3_" gradientUnits="userSpaceOnUse" x1="-312.3252" y1="121.7466" x2="-261.4366" y2="183.84" gradientTransform="matrix(-0.9997 -0.4179 -0.271 0.9715 -151.2197 -118.3183)">
						<stop  offset="0" style="stop-color:#AFCE36"/>
						<stop  offset="0.6564" style="stop-color:#69B545"/>
						<stop  offset="1" style="stop-color:#186E38"/>
					</linearGradient>
					<path fill="url(#SVGID_3_)" d="M78.325,145.154C69.28,126.23,61.14,88.283,64.831,63.089
						c1.081,5.841-4.331,40.602,58.506,78.08c51.891,30.938,27.542,76.888,24.879,81.501
						C135.082,215.701,101.747,194.154,78.325,145.154z"/>
				</g>
			</g>
			<g>
				<g>
					<g>
						<path fill="#FFFFFF" d="M52.74,157.209c-0.011-0.118,6.493,11.602,19.974,21.824c13.141,10.439,31.757,18.695,44.121,21.703
							c0.064,0.119-18.712-2.662-35.412-13.465c-8.35-5.254-16.032-14.395-20.954-19.949C55.468,161.806,53,157.451,52.74,157.209z"
							/>
					</g>
				</g>
				<g>
					<g>
						<path fill="#FFFFFF" d="M134.774,170.265c-0.111-0.034,4.628,7.364,5.477,17.089c1.139,9.711-1.728,20.619-4.617,27.215
							c0.042,0.1,7.937-9.855,8.02-21.371C144.361,181.629,135.151,170.424,134.774,170.265z"/>
					</g>
				</g>
				<g>
					<g>
						<path fill="#FFFFFF" d="M85.963,163.556c0.081,0-2.395-8.567-3.623-19.192c-1.301-10.592-0.698-23.346,3.461-30.305
							c-0.028-0.019-1.89,2.438-3.09,6.851c-1.265,4.378-1.999,7.061-1.656,13.367C81.684,146.919,85.855,163.135,85.963,163.556z"
							/>
					</g>
				</g>
				<g>
					<g>
						<path fill="#FFFFFF" d="M44.173,121.942c0.156-0.11,2.285,11.542,10.898,24.263c4.227,6.312,10.298,15.254,16.915,20.033
							c6.611,4.779,13.659,5.48,19.41,6.756c0.039,0.018-4.355-1.149-10.385-4.394c-6.03-3.181-13.537-8.634-19.558-15.409
							C48.91,139.672,44.416,122.338,44.173,121.942z"/>
					</g>
				</g>
				<g>
					<g>
						<path fill="#FFFFFF" d="M107.168,182.418c-0.078,0.063,7.292,0.457,10.291-5.621c3.154-5.843-0.932-28.391-1.597-33.712
							c0.014-0.05,3.515,19.856,0.955,27.271c-1.203,3.699-3.277,7.061-5.427,9.088
							C109.229,181.504,107.255,182.318,107.168,182.418z"/>
					</g>
				</g>
				<g>
					<g>
						<path fill="#FFFFFF" stroke="#FFFFFF" stroke-width="0.1853" d="M64.666,62.449c0.078,0.008-1.184,7.337-1.435,19.579
							c-0.231,12.197,0.796,29.516,6.508,48.447c5.549,18.89,16.364,39.099,30.85,55.44c14.358,16.377,31.716,29.031,46.506,35.553
							c0.084,0.041-11.12-5.379-25.279-17.225c-14.188-11.652-30.691-30.298-41.134-51.575
							c-10.772-21.184-15.268-44.025-16.264-60.974C63.362,74.665,64.817,63.265,64.666,62.449z"/>
					</g>
				</g>
			</g>
		</g>
		<g>
			<g>
				
					<linearGradient id="SVGID_4_" gradientUnits="userSpaceOnUse" x1="-350.1099" y1="-13.7251" x2="-332.3602" y2="-28.7552" gradientTransform="matrix(0.7478 -0.3782 0.2767 0.6967 418.0248 129.1042)">
					<stop  offset="0" style="stop-color:#AFCE36"/>
					<stop  offset="0.522" style="stop-color:#69B545"/>
					<stop  offset="1" style="stop-color:#0D8943"/>
				</linearGradient>
				<path fill="url(#SVGID_4_)" d="M169.854,227.465c0,0-8.716,6.412-7.889,15.971c0,0-8.696-2.883-9.522-1.025
					c0,0,13.371-13.797,12.601-17.393L169.854,227.465z"/>
				<g>
					
						<linearGradient id="SVGID_5_" gradientUnits="userSpaceOnUse" x1="-614.6172" y1="95.9858" x2="-680.5391" y2="40.8437" gradientTransform="matrix(0.7856 -0.2454 0.1363 0.7539 725.5897 -30.318)">
						<stop  offset="0" style="stop-color:#AFCE36"/>
						<stop  offset="0.3252" style="stop-color:#69B545"/>
						<stop  offset="0.7362" style="stop-color:#186E38"/>
					</linearGradient>
					<path fill="url(#SVGID_5_)" d="M239.354,112.057c0,0-0.042,0.192-0.143,0.562c1.011,19.318-7.837,47.44-16.004,61.108
						c-21.187,35.408-47.913,49.348-58.345,53.693c0.095,0.213,0.159,0.33,0.159,0.33
						C289.473,236.258,239.354,112.057,239.354,112.057z"/>
					
						<linearGradient id="SVGID_6_" gradientUnits="userSpaceOnUse" x1="-690.6104" y1="26.4775" x2="-639.7189" y2="88.5745" gradientTransform="matrix(0.7856 -0.2454 0.1363 0.7539 725.5897 -30.318)">
						<stop  offset="0" style="stop-color:#AFCE36"/>
						<stop  offset="0.6564" style="stop-color:#69B545"/>
						<stop  offset="1" style="stop-color:#186E38"/>
					</linearGradient>
					<path fill="url(#SVGID_6_)" d="M223.208,173.727c8.167-13.668,17.015-41.79,16.004-61.108
						c-1.236,4.347,0.405,31.02-49.771,54.92c-41.435,19.721-26.268,56.201-24.578,59.881
						C175.295,223.074,202.021,209.135,223.208,173.727z"/>
				</g>
			</g>
			<g>
				<g>
					<g>
						<path fill="#FFFFFF" d="M241.702,184.658c0.021-0.094-5.73,8.313-16.649,15.098c-10.681,6.959-25.345,11.885-34.908,13.287
							c-0.054,0.094,14.349-0.695,27.734-7.682c6.696-3.379,13.148-9.744,17.263-13.604
							C239.307,187.943,241.495,184.826,241.702,184.658z"/>
					</g>
				</g>
				<g>
					<g>
						<path fill="#FFFFFF" d="M178.726,188.732c0.098-0.023-4.011,5.238-5.341,12.545c-1.551,7.254-0.155,15.719,1.57,20.896
							c-0.039,0.068-5.305-8.008-4.559-16.719C170.673,196.652,178.438,188.826,178.726,188.732z"/>
					</g>
				</g>
				<g>
					<g>
						<path fill="#FFFFFF" d="M216.12,187.109c-0.056,0,2.421-6.313,4.104-14.266c1.73-7.909,2.18-17.603-0.472-23.158
							c0.02-0.01,1.253,1.975,1.849,5.403c0.65,3.397,1.019,5.472,0.309,10.215C220.541,174.828,216.232,186.801,216.12,187.109z"/>
					</g>
				</g>
				<g>
					<g>
						<path fill="#FFFFFF" d="M250.672,158.587c-0.106-0.093-2.546,8.567-9.959,17.579c-3.645,4.48-8.865,10.809-14.207,13.955
							c-5.336,3.15-10.715,3.174-15.15,3.742c-0.034,0.008,3.368-0.568,8.153-2.59c4.79-1.975,10.847-5.576,15.882-10.275
							C245.843,171.66,250.462,158.874,250.672,158.587z"/>
					</g>
				</g>
				<g>
					<g>
						<path fill="#FFFFFF" d="M198.762,199.881c0.051,0.047-5.559-0.176-7.389-4.977c-1.973-4.65,2.707-21.412,3.59-25.389
							c-0.012-0.045-4.064,14.764-2.656,20.553c0.65,2.887,1.982,5.574,3.469,7.264C197.252,199.029,198.7,199.789,198.762,199.881z
							"/>
					</g>
				</g>
				<g>
					<g>
						<path fill="#FFFFFF" stroke="#FFFFFF" stroke-width="0.1408" d="M239.383,112.15c-0.062,0,0.371,5.632-0.302,14.912
							c-0.682,9.23-2.685,22.261-8.342,36.173c-5.539,13.896-15.138,28.416-27.259,39.748c-12.02,11.365-26.03,19.723-37.68,23.605
							c-0.07,0.025,8.789-3.289,20.332-11.248c11.549-7.809,25.351-20.738,34.752-36.088c9.65-15.269,14.667-32.217,16.616-44.969
							C239.504,121.472,239.212,112.754,239.383,112.15z"/>
					</g>
				</g>
			</g>
		</g>
	</g>
</g>
</svg>
