<?xml version="1.0" encoding="utf-8"?>
<!-- Generator: Adobe Illustrator 16.0.0, SVG Export Plug-In . SVG Version: 6.00 Build 0)  -->
<!DOCTYPE svg PUBLIC "-//W3C//DTD SVG 1.1//EN" "http://www.w3.org/Graphics/SVG/1.1/DTD/svg11.dtd">
<svg version="1.1" id="Layer_2" xmlns="http://www.w3.org/2000/svg" xmlns:xlink="http://www.w3.org/1999/xlink" x="0px" y="0px"
	 width="286.178px" height="286.178px" viewBox="0 0 286.178 286.178" enable-background="new 0 0 286.178 286.178"
	 xml:space="preserve">
<g>
	<g>
		<radialGradient id="SVGID_1_" cx="150.6855" cy="145.9521" r="144.6626" gradientUnits="userSpaceOnUse">
			<stop  offset="0" style="stop-color:#FCEE23"/>
			<stop  offset="0.03" style="stop-color:#FBE524"/>
			<stop  offset="0.2086" style="stop-color:#F7C224"/>
			<stop  offset="0.3848" style="stop-color:#F5A523"/>
			<stop  offset="0.5551" style="stop-color:#F48E22"/>
			<stop  offset="0.7178" style="stop-color:#F37E22"/>
			<stop  offset="0.8697" style="stop-color:#F37421"/>
			<stop  offset="1" style="stop-color:#F37021"/>
		</radialGradient>
		<path fill="url(#SVGID_1_)" d="M255.461,143.094c0,5.935-24.17,9.688-25.159,15.334c-1.017,5.809,20.4,17.578,18.425,22.996
			c-2,5.518-25.996,0.76-28.89,5.771c-2.927,5.063,13.149,23.473,9.409,27.924c-3.744,4.461-24.664-8.195-29.131-4.451
			c-4.447,3.734,4.405,26.527-0.656,29.463c-5.014,2.895-20.346-16.131-25.855-14.127c-5.418,1.967-4.922,26.422-10.732,27.441
			c-5.649,0.992-13.517-22.156-19.448-22.156c-5.935,0-13.794,23.148-19.447,22.156c-5.812-1.02-5.311-25.475-10.732-27.441
			c-5.512-2.004-20.847,17.021-25.857,14.127c-5.059-2.936,3.787-25.729-0.661-29.463c-4.462-3.744-25.379,8.912-29.13,4.451
			c-3.736-4.451,12.341-22.861,9.417-27.928c-2.904-5.008-26.893-0.25-28.9-5.768c-1.973-5.418,19.441-17.188,18.427-22.996
			c-0.991-5.646-25.156-9.399-25.156-15.334c0-5.929,24.165-9.687,25.156-15.336c1.014-5.807-20.4-17.579-18.427-22.994
			c2.004-5.515,25.996-0.759,28.892-5.774c2.929-5.058-13.145-23.471-9.409-27.922c3.747-4.463,24.668,8.195,29.13,4.447
			c4.447-3.738-4.398-26.535,0.658-29.464c5.011-2.898,20.348,16.135,25.86,14.125c5.418-1.968,4.92-26.426,10.732-27.441
			c5.653-0.991,13.512,22.153,19.447,22.153c5.931,0,13.798-23.144,19.448-22.153c5.811,1.016,5.314,25.473,10.732,27.441
			c5.516,2.01,20.842-17.023,25.861-14.123c5.056,2.928-3.795,25.724,0.656,29.462c4.461,3.748,25.381-8.909,29.134-4.445
			c3.734,4.452-12.345,22.865-9.418,27.92c2.894,5.015,26.89,0.26,28.89,5.774c1.982,5.415-19.441,17.188-18.425,22.994
			C231.296,133.407,255.461,137.165,255.461,143.094z"/>
	</g>
	<path fill="#FFFFFF" d="M223.682,143.094c0,43.902-35.59,79.496-79.502,79.496c-43.908,0-79.5-35.594-79.5-79.496
		c0-43.908,35.592-79.502,79.5-79.502C188.092,63.592,223.682,99.186,223.682,143.094z"/>
	<linearGradient id="SVGID_2_" gradientUnits="userSpaceOnUse" x1="143.4214" y1="216.6211" x2="143.4214" y2="69.564">
		<stop  offset="0" style="stop-color:#FAB840"/>
		<stop  offset="0.0135" style="stop-color:#FAB940"/>
		<stop  offset="0.4499" style="stop-color:#FAD435"/>
		<stop  offset="0.7936" style="stop-color:#FBE52A"/>
		<stop  offset="1" style="stop-color:#FCEE23"/>
	</linearGradient>
	<path fill="url(#SVGID_2_)" d="M216.954,143.092c0,40.611-32.926,73.529-73.531,73.529c-40.61,0-73.536-32.918-73.536-73.529
		c0-40.609,32.925-73.528,73.536-73.528C184.028,69.563,216.954,102.483,216.954,143.092z"/>
	<radialGradient id="SVGID_3_" cx="148.1875" cy="144.999" r="95.6736" gradientUnits="userSpaceOnUse">
		<stop  offset="0" style="stop-color:#FCEE23"/>
		<stop  offset="0.4267" style="stop-color:#FBEB25"/>
		<stop  offset="0.5804" style="stop-color:#FBE629"/>
		<stop  offset="0.6899" style="stop-color:#FBDE2F"/>
		<stop  offset="0.7785" style="stop-color:#FAD336"/>
		<stop  offset="0.8534" style="stop-color:#FAC43C"/>
		<stop  offset="0.9018" style="stop-color:#FAB840"/>
	</radialGradient>
	<path fill="url(#SVGID_3_)" d="M216.954,143.092c0,40.611-32.926,73.529-73.531,73.529c-40.61,0-73.536-32.918-73.536-73.529
		c0-40.609,32.925-73.528,73.536-73.528C184.028,69.563,216.954,102.483,216.954,143.092z"/>
	<linearGradient id="SVGID_4_" gradientUnits="userSpaceOnUse" x1="143.4199" y1="72.4072" x2="143.4199" y2="124.8745">
		<stop  offset="0" style="stop-color:#A8AAAD"/>
		<stop  offset="0.1286" style="stop-color:#A3A4A7"/>
		<stop  offset="0.2624" style="stop-color:#98999C"/>
		<stop  offset="0.3985" style="stop-color:#88888A"/>
		<stop  offset="0.5363" style="stop-color:#727273"/>
		<stop  offset="0.6754" style="stop-color:#575758"/>
		<stop  offset="0.8156" style="stop-color:#3B3B3B"/>
		<stop  offset="0.9541" style="stop-color:#181919"/>
		<stop  offset="1" style="stop-color:#070707"/>
	</linearGradient>
	<path fill="url(#SVGID_4_)" d="M200.865,124.875c-1.251-29.173-26.49-52.467-57.442-52.467c-30.958,0-56.191,23.294-57.448,52.467
		H200.865z"/>
	<linearGradient id="SVGID_5_" gradientUnits="userSpaceOnUse" x1="143.1636" y1="72.4072" x2="143.1636" y2="101.688">
		<stop  offset="0" style="stop-color:#A8AAAD"/>
		<stop  offset="0.1404" style="stop-color:#A3A4A7"/>
		<stop  offset="0.2863" style="stop-color:#98989B"/>
		<stop  offset="0.4349" style="stop-color:#878688"/>
		<stop  offset="0.5853" style="stop-color:#726F70"/>
		<stop  offset="0.7371" style="stop-color:#575454"/>
		<stop  offset="0.8878" style="stop-color:#3B3738"/>
		<stop  offset="1" style="stop-color:#231F20"/>
	</linearGradient>
	<path fill="url(#SVGID_5_)" d="M183.651,101.688c-0.889-16.284-18.665-29.281-40.49-29.281c-21.818,0-39.602,12.997-40.485,29.281
		H183.651z"/>
</g>
</svg>
