<?xml version="1.0" encoding="utf-8"?>
<!-- Generator: Adobe Illustrator 16.0.0, SVG Export Plug-In . SVG Version: 6.00 Build 0)  -->
<!DOCTYPE svg PUBLIC "-//W3C//DTD SVG 1.1//EN" "http://www.w3.org/Graphics/SVG/1.1/DTD/svg11.dtd">
<svg version="1.1" id="Layer_2" xmlns="http://www.w3.org/2000/svg" xmlns:xlink="http://www.w3.org/1999/xlink" x="0px" y="0px"
	 width="286.178px" height="286.178px" viewBox="0 0 286.178 286.178" enable-background="new 0 0 286.178 286.178"
	 xml:space="preserve">
<g>
	<radialGradient id="SVGID_1_" cx="149.0791" cy="189.7461" r="155.1296" gradientUnits="userSpaceOnUse">
		<stop  offset="0" style="stop-color:#F78F20"/>
		<stop  offset="0.0973" style="stop-color:#F79B21"/>
		<stop  offset="0.3943" style="stop-color:#F8BE22"/>
		<stop  offset="0.6545" style="stop-color:#FAD722"/>
		<stop  offset="0.8652" style="stop-color:#FBE622"/>
		<stop  offset="1" style="stop-color:#FCEE21"/>
	</radialGradient>
	<path fill="url(#SVGID_1_)" d="M111.663,52.015c5.398,15.829,8.331,32.804,8.331,50.46c0,7.6-0.555,15.071-1.603,22.381
		c2.004-1.391,5.119,1.77,8.567,6.238c-2.961,11.172-2.054,25.732-2.054,35.185c0,11.991,13.758,24.714,18.448,34.946
		c7.418-1.07,14.53-3.086,21.204-5.93c0.492-5.385,0.82-10.83,0.758-16.342C164.422,99.959,128.343,64.223,111.663,52.015z"/>
	<radialGradient id="SVGID_2_" cx="59.0781" cy="214.7461" r="120.254" gradientUnits="userSpaceOnUse">
		<stop  offset="0" style="stop-color:#FAB816"/>
		<stop  offset="0.4184" style="stop-color:#FBD219"/>
		<stop  offset="0.786" style="stop-color:#FBE51F"/>
		<stop  offset="1" style="stop-color:#FCEE21"/>
	</radialGradient>
	<path fill="url(#SVGID_2_)" d="M68.239,174.6c-7.283,10.311-13.627,21.33-18.909,32.938c3.936,5.715,8.374,11.057,13.261,15.949
		c10.988-8.984,20.728-19.439,28.926-31.061c13.864-19.662,23.302-42.669,26.875-67.57C98.913,138.383,81.918,155.235,68.239,174.6z
		"/>
	<radialGradient id="SVGID_3_" cx="28.4082" cy="185.0898" r="100.1006" gradientUnits="userSpaceOnUse">
		<stop  offset="0" style="stop-color:#F27024"/>
		<stop  offset="0.429" style="stop-color:#F6A41F"/>
		<stop  offset="0.8164" style="stop-color:#FCCF0D"/>
		<stop  offset="1" style="stop-color:#FEE000"/>
	</radialGradient>
	<path fill="url(#SVGID_3_)" d="M79.809,94.559c-2.193,22.944-11.201,43.896-24.978,60.814
		c-6.089,7.479-13.109,14.169-20.886,19.894c2.315,7.874,5.459,15.396,9.334,22.458c8.585-7.672,16.002-16.625,21.943-26.565
		c10.196-17.05,16.06-36.988,16.06-58.298C81.282,106.629,80.774,100.518,79.809,94.559z"/>
	<radialGradient id="SVGID_4_" cx="221.0781" cy="221.7451" r="161.2474" gradientUnits="userSpaceOnUse">
		<stop  offset="0.4396" style="stop-color:#EE4823"/>
		<stop  offset="0.5217" style="stop-color:#EF4F23"/>
		<stop  offset="0.6425" style="stop-color:#F06123"/>
		<stop  offset="0.7308" style="stop-color:#F27024"/>
		<stop  offset="0.7883" style="stop-color:#F48222"/>
		<stop  offset="0.9313" style="stop-color:#F8AB1D"/>
		<stop  offset="1" style="stop-color:#FBBB18"/>
	</radialGradient>
	<path fill="url(#SVGID_4_)" d="M244.743,91.874c-0.486-0.961-0.981-1.917-1.494-2.862c-19.24-35.559-56.868-59.711-100.138-59.711
		c-8.585,0-16.945,0.957-24.988,2.76c4.219-0.641,8.54-0.975,12.939-0.975c36.852,0,68.256,23.313,80.278,55.996
		c0.344,0.937,0.667,1.881,0.978,2.832c2.758,8.396,4.252,17.364,4.252,26.682c0,18.664-6.915,38.601-16.129,49.982
		c-9.217,11.385-28.191,30.094-48.896,20.018c-16.33-7.947-15.986-30.283-11.629-43.712c3.119-9.606,7.936-18.444,14.161-26.11
		c6.801-8.377,15.248-15.364,24.852-20.47c-9.971,2.798-19.631,6.339-28.916,10.562c-11.118,5.055-21.688,11.094-31.62,17.99
		c-3.573,24.901-13.011,47.908-26.875,67.57c-8.198,11.621-17.938,22.076-28.926,31.061c20.596,20.629,49.066,33.391,80.52,33.391
		c1.409,0,2.809-0.033,4.206-0.086c16.635-0.604,32.357-4.777,46.426-11.779c37.433-18.633,63.156-57.27,63.156-101.922
		C256.898,124.666,252.517,107.27,244.743,91.874z"/>
	<linearGradient id="SVGID_5_" gradientUnits="userSpaceOnUse" x1="219.0449" y1="216.1973" x2="187.045" y2="187.1973">
		<stop  offset="0" style="stop-color:#FCEE21"/>
		<stop  offset="0.0959" style="stop-color:#F8C721"/>
		<stop  offset="0.1952" style="stop-color:#F6A421"/>
		<stop  offset="0.2708" style="stop-color:#F58F20"/>
		<stop  offset="0.3132" style="stop-color:#F58720"/>
		<stop  offset="0.3981" style="stop-color:#F37921"/>
		<stop  offset="0.5334" style="stop-color:#F16522"/>
		<stop  offset="0.6739" style="stop-color:#EF5623"/>
		<stop  offset="0.8218" style="stop-color:#EE4B23"/>
		<stop  offset="0.989" style="stop-color:#EE4823"/>
	</linearGradient>
	<path fill="url(#SVGID_5_)" d="M246.031,148.769c0-17.517-16.096-13.209-35.89,0.522c-2.663,6.718-5.989,12.703-9.7,17.287
		c-7.023,8.677-19.719,21.594-34.525,22.795c-24.819,27.824-40.221,56.396-16.885,56.396
		C202.604,245.77,246.031,202.34,246.031,148.769z"/>
</g>
</svg>
