<?xml version="1.0" encoding="utf-8"?>
<!-- Generator: Adobe Illustrator 16.0.0, SVG Export Plug-In . SVG Version: 6.00 Build 0)  -->
<!DOCTYPE svg PUBLIC "-//W3C//DTD SVG 1.1//EN" "http://www.w3.org/Graphics/SVG/1.1/DTD/svg11.dtd">
<svg version="1.1" id="Layer_2" xmlns="http://www.w3.org/2000/svg" xmlns:xlink="http://www.w3.org/1999/xlink" x="0px" y="0px"
	 width="286.178px" height="286.178px" viewBox="0 0 286.178 286.178" enable-background="new 0 0 286.178 286.178"
	 xml:space="preserve">
<g>
	<g>
		<linearGradient id="SVGID_1_" gradientUnits="userSpaceOnUse" x1="36.1899" y1="154.1289" x2="257.2471" y2="154.1289">
			<stop  offset="0" style="stop-color:#E3E3E4"/>
			<stop  offset="0.5062" style="stop-color:#B3B3B3"/>
			<stop  offset="1" style="stop-color:#808080"/>
		</linearGradient>
		<path fill="url(#SVGID_1_)" d="M41.757,143.316c-2.08-16.335,27.864-14.707,38.222-8.346c13.595,8.342,19.602,24.875,25.667,38.26
			c9.848,21.73,47.209,67.834,66.826,27.582c8.999,8.166,22.812,16.574,36.052,11.639c11.565-4.307,23.837-23.701,10.557-31.875
			c40.733,16.609,55.669-60.577,10.56-46.211c28.702-31.118-28.649-61.962-49.39-28.098c-17.797-25.941-27.174,15.854-29.051,26.624
			c-4.305,24.656-19.1,28.943-34.357,8.262c-12.91-17.494-24.125-27.65-47.291-27.371c-18.016,0.221-36.142,10.484-33.005,31.269"/>
		<linearGradient id="SVGID_2_" gradientUnits="userSpaceOnUse" x1="29.5962" y1="165.4668" x2="102.3906" y2="165.4668">
			<stop  offset="0" style="stop-color:#FFFFFF"/>
			<stop  offset="0.2057" style="stop-color:#EAEAEA"/>
			<stop  offset="0.6281" style="stop-color:#B4B4B4"/>
			<stop  offset="1" style="stop-color:#808080"/>
		</linearGradient>
		<path fill="url(#SVGID_2_)" d="M29.596,136.369c18.102-19.829,45.888,1.974,50.379,22.581
			c4.402,20.236-7.693,13.974-14.366,25.678c-6.447,11.303,2.014,22.367,16.143,19.525c24.078-4.838,25.009-46.562,13.427-62.226
			c-11.837-16.015-49.86-22.633-62.107-5.558"/>
		<linearGradient id="SVGID_3_" gradientUnits="userSpaceOnUse" x1="34.752" y1="106.9189" x2="152.5537" y2="106.9189">
			<stop  offset="0" style="stop-color:#FFFFFF"/>
			<stop  offset="0.2057" style="stop-color:#EAEAEA"/>
			<stop  offset="0.6281" style="stop-color:#B4B4B4"/>
			<stop  offset="1" style="stop-color:#808080"/>
		</linearGradient>
		<path fill="url(#SVGID_3_)" d="M38.283,125.941c23.891-21.929,51.166-0.508,75.087,6.519c12.945,3.8,24.965,2.596,33.922-8.6
			c9.823-12.281,5.505-38.834-9.728-21.151c24.02-21.305-20.049-36.208-16.162-6.947c-17.899-7.519-10.474,12.348-1.27,18.02
			c-14.853,16.234-31.723-8.297-47.11-10.416c-12.648-1.744-46.367,9.571-36.48,26.051"/>
		<path opacity="0.3" fill="#FFFFFF" d="M210.869,139.725c7.93,0.64,25.646,5.715,23.638,16.746
			c-2.204,12.104-20.638,12.708-29.373,9.303c8.007,8.055,3.781,20.373-4.992,25.951c-3.581,2.275-8.044,4.146-12.223,2.383
			c-3.837-1.623-7.604-6.744-9.085-10.479c-8.617,11.52-31.75,5.205-35.412-8.746c4.974,13.844,21.125,27.779,34.968,14
			c-2.051,2.041,2.26,8.885,3.603,10.271c2.718,2.811,6.739,4.398,10.535,4.996c8.453,1.332,17.954-2.084,22.612-9.555
			c5.104-8.188,1.047-15.947-3.596-23.185c9.281,1.519,21.866,2.442,27.354-7.47C248.735,146.18,224.051,136.761,210.869,139.725"/>
	</g>
	
		<radialGradient id="SVGID_4_" cx="58.6724" cy="282.9238" r="20.2824" gradientTransform="matrix(-0.9985 -0.0549 0.0549 -0.9985 101.8875 383.6586)" gradientUnits="userSpaceOnUse">
		<stop  offset="0" style="stop-color:#CDA02C"/>
		<stop  offset="1" style="stop-color:#F9EF63"/>
	</radialGradient>
	<path fill="url(#SVGID_4_)" d="M73.408,106.017c0,0-4.335-1.434-6.376-8.171c-2.038-6.735-11.989-8.29-12.586-8.316
		c-0.604-0.037,4.696,9.485,11.275,13.858c0,0-15.767-8.896-13.805-22.636l-1.336-1.274c0,0-0.751,6.38,1.443,10.309
		c0,0-5.132,9.361,5.054,13.934C67.259,108.289,73.408,106.017,73.408,106.017z"/>
</g>
</svg>
