<?xml version="1.0" encoding="utf-8"?>
<!-- Generator: Adobe Illustrator 16.0.0, SVG Export Plug-In . SVG Version: 6.00 Build 0)  -->
<!DOCTYPE svg PUBLIC "-//W3C//DTD SVG 1.1//EN" "http://www.w3.org/Graphics/SVG/1.1/DTD/svg11.dtd">
<svg version="1.1" id="Layer_2" xmlns="http://www.w3.org/2000/svg" xmlns:xlink="http://www.w3.org/1999/xlink" x="0px" y="0px"
	 width="286.178px" height="286.178px" viewBox="0 0 286.178 286.178" enable-background="new 0 0 286.178 286.178"
	 xml:space="preserve">
<g>
	
		<radialGradient id="SVGID_1_" cx="142.0928" cy="201.3291" r="119.7281" gradientTransform="matrix(0.896 0 0 0.896 14.1368 13.673)" gradientUnits="userSpaceOnUse">
		<stop  offset="0" style="stop-color:#DCF2FD"/>
		<stop  offset="0.1522" style="stop-color:#D8F0FC"/>
		<stop  offset="0.2812" style="stop-color:#CDEAFA"/>
		<stop  offset="0.4018" style="stop-color:#BBE1F7"/>
		<stop  offset="0.5172" style="stop-color:#A1D5F4"/>
		<stop  offset="0.628" style="stop-color:#7DC8EF"/>
		<stop  offset="0.6813" style="stop-color:#67C1ED"/>
		<stop  offset="0.7544" style="stop-color:#59B0E3"/>
		<stop  offset="0.9061" style="stop-color:#3389C9"/>
		<stop  offset="1" style="stop-color:#0C72BA"/>
	</radialGradient>
	<path fill="url(#SVGID_1_)" d="M130.03,78.268c-47.225,0-88.045,45.006-88.79,92.225c-0.409,25.994,20.544,51.154,23,53.744
		c2.939,2.813,6.825,6.229,10.047,8.721c14.234,11.016,30.199,13.471,41.15,12.961c13.826-0.643,22.661-7.996,22.085-17.17
		c-0.811-12.938-14.704-15.15-28.516-4.01c-6.661,5.371-18.848,5.316-23.169-3.119c-3.538-6.906,1.782-17.377,11.302-15.748
		c4.421,0.758,7.899,3.201,11.276,5.393c3.724,2.418,11.587,3.291,14.85-0.338c2.943-3.277,5.965-11.213-2.199-15.053
		c-7.575-3.564-12.278,2.965-16.96,3.467c-12.477,1.336-15.663-16.188-3.119-16.486c3.817-0.09,5.531,1.379,7.9,1.23
		c3.602-0.225,6.536-2.926,6.536-6.535s-2.929-6.66-6.536-6.535c-3.472,0.121-6.287,3.303-9.175,3.324
		c-11.031,0.08-19.975-8.943-19.975-19.975c0-3.049,1.967-10.764,3.165-12.926c15.179-27.379,47.417-41.073,79.176-33.04
		c36.42,9.214,58.988,45.351,51.828,81.78c0.006,0.041,13.01,0.873,13.014,0.914c1.531-6.404,2.045-17.002,2.045-23.875
		C228.964,119.992,177.255,78.268,130.03,78.268z"/>
	
		<radialGradient id="SVGID_2_" cx="64.4785" cy="52.8184" r="216.7408" gradientTransform="matrix(0.896 0 0 0.896 14.1368 13.673)" gradientUnits="userSpaceOnUse">
		<stop  offset="0" style="stop-color:#263E88"/>
		<stop  offset="0.3004" style="stop-color:#253F89"/>
		<stop  offset="0.4386" style="stop-color:#21438C"/>
		<stop  offset="0.5435" style="stop-color:#1A4A91"/>
		<stop  offset="0.6313" style="stop-color:#065498"/>
		<stop  offset="0.6484" style="stop-color:#00569A"/>
	</radialGradient>
	<path fill="url(#SVGID_2_)" d="M143.421,29.704c-62.621,0-113.385,50.765-113.385,113.386c0,31.811,13.105,60.555,34.204,81.146
		c-0.036-0.111-0.077-0.221-0.112-0.332c-11.826-14.668-18.911-33.318-18.911-53.627c0-47.225,38.283-85.507,85.507-85.507
		c47.226,0,85.509,38.282,85.509,85.507c0,6.873-0.816,13.555-2.348,19.959c-8.977,37.543-42.713,65.469-82.99,65.547
		c4.114,0.453,8.292,0.691,12.526,0.691c22.41,0,43.3-6.504,60.89-17.723c31.563-20.131,52.496-55.451,52.496-95.662
		C256.808,80.469,206.044,29.704,143.421,29.704z"/>
	<linearGradient id="SVGID_3_" gradientUnits="userSpaceOnUse" x1="62.8589" y1="70.6855" x2="96.9604" y2="97.4318">
		<stop  offset="0" style="stop-color:#FFFFFF"/>
		<stop  offset="0.0834" style="stop-color:#C1D1EC"/>
		<stop  offset="0.2746" style="stop-color:#2E85C6"/>
		<stop  offset="0.2912" style="stop-color:#0E80C4"/>
		<stop  offset="0.3501" style="stop-color:#1775B8"/>
		<stop  offset="0.4836" style="stop-color:#1E62A5"/>
		<stop  offset="0.617" style="stop-color:#215298"/>
		<stop  offset="0.7484" style="stop-color:#23478F"/>
		<stop  offset="0.8772" style="stop-color:#25408A"/>
		<stop  offset="1" style="stop-color:#263E88"/>
	</linearGradient>
	<path fill="url(#SVGID_3_)" d="M130.604,43.817c-48.79,0-88.34,39.552-88.34,88.341c0,7.004,2.83,10.17,7.526,10.469
		c10.777-31.553,39.483-54.792,73.969-57.572C140.945,63.354,149.019,43.817,130.604,43.817z"/>
</g>
</svg>
